<svg xmlns="http://www.w3.org/2000/svg" xmlns:xlink="http://www.w3.org/1999/xlink" width="108" height="108" viewBox="0 0 108 108">
  <defs>
    <filter id="Trazado_904820" x="0" y="0" width="108" height="108" filterUnits="userSpaceOnUse">
      <feOffset dy="3" input="SourceAlpha"/>
      <feGaussianBlur stdDeviation="3" result="blur"/>
      <feFlood flood-opacity="0.161"/>
      <feComposite operator="in" in2="blur"/>
      <feComposite in="SourceGraphic"/>
    </filter>
  </defs>
  <g id="Grupo_1202747" data-name="Grupo 1202747" transform="translate(-619.827 -323.701)">
    <g id="Grupo_1177315" data-name="Grupo 1177315" transform="translate(-0.173 -202.299)">
      <g id="Grupo_1173585" data-name="Grupo 1173585" transform="translate(629 532)">
        <g id="Grupo_1173428" data-name="Grupo 1173428" transform="translate(0 0)">
          <g id="Grupo_1171958" data-name="Grupo 1171958">
            <g id="Grupo_1167341" data-name="Grupo 1167341">
              <g id="Grupo_1166792" data-name="Grupo 1166792">
                <g transform="matrix(1, 0, 0, 1, -9, -6)" filter="url(#Trazado_904820)">
                  <g id="Trazado_904820-2" data-name="Trazado 904820" transform="translate(9 6)" fill="#e6fbf1">
                    <path d="M 44.99999618530273 88.49999237060547 C 39.12687301635742 88.49999237060547 33.43022155761719 87.35006713867188 28.06829643249512 85.08216857910156 C 22.88852119445801 82.89130401611328 18.23629570007324 79.75457763671875 14.24084663391113 75.75914001464844 C 10.24540901184082 71.76369476318359 7.108683586120605 67.11146545410156 4.917821407318115 61.93169403076172 C 2.649921178817749 56.56976699829102 1.499996185302734 50.87311553955078 1.499996185302734 44.99999237060547 C 1.499996185302734 39.12686920166016 2.649921178817749 33.43021774291992 4.917821407318115 28.06829261779785 C 7.108683586120605 22.88851737976074 10.24540901184082 18.23630523681641 14.24084663391113 14.24085521697998 C 18.23629570007324 10.24540519714355 22.88852119445801 7.108692169189453 28.06829643249512 4.917829990386963 C 33.43022155761719 2.649929761886597 39.12687301635742 1.500004887580872 44.99999618530273 1.500004887580872 C 50.87311935424805 1.500004887580872 56.56977081298828 2.649929761886597 61.93169784545898 4.917829990386963 C 67.11147308349609 7.108692169189453 71.76369476318359 10.24540519714355 75.75914764404297 14.24085521697998 C 79.75458526611328 18.23630523681641 82.89131164550781 22.88851737976074 85.08216857910156 28.06829261779785 C 87.35007476806641 33.43021774291992 88.5 39.12686920166016 88.5 44.99999237060547 C 88.5 50.87311553955078 87.35007476806641 56.56976699829102 85.08216857910156 61.93169403076172 C 82.89131164550781 67.11146545410156 79.75458526611328 71.76369476318359 75.75914764404297 75.75914001464844 C 71.76369476318359 79.75457763671875 67.11147308349609 82.89130401611328 61.93169784545898 85.08216857910156 C 56.56977081298828 87.35006713867188 50.87311935424805 88.49999237060547 44.99999618530273 88.49999237060547 Z" stroke="none"/>
                    <path d="M 44.99999618530273 2.999992370605469 C 39.32870864868164 2.999992370605469 33.82865142822266 4.11004638671875 28.65262603759766 6.299331665039062 C 23.65165710449219 8.414566040039062 19.15968322753906 11.44333648681641 15.301513671875 15.30150604248047 C 11.44333648681641 19.15967559814453 8.414566040039062 23.65164947509766 6.299339294433594 28.65262222290039 C 4.110054016113281 33.82864761352539 2.999992370605469 39.32870483398438 2.999992370605469 44.99999237060547 C 2.999992370605469 50.67127990722656 4.110054016113281 56.17132186889648 6.299339294433594 61.34736633300781 C 8.414566040039062 66.34833526611328 11.44333648681641 70.84029388427734 15.301513671875 74.69846343994141 C 19.15968322753906 78.55663299560547 23.65165710449219 81.58540344238281 28.65262603759766 83.70063781738281 C 33.82865142822266 85.88992309570312 39.32870864868164 86.99997711181641 44.99999618530273 86.99997711181641 C 50.67128372192383 86.99997711181641 56.17134094238281 85.88992309570312 61.34736633300781 83.70063781738281 C 66.34834289550781 81.58540344238281 70.84030914306641 78.55663299560547 74.69847869873047 74.69846343994141 C 78.55665588378906 70.84029388427734 81.58542633056641 66.34833526611328 83.70065307617188 61.34736633300781 C 85.88993835449219 56.17132186889648 87 50.67127990722656 87 44.99999237060547 C 87 39.32870483398438 85.88993835449219 33.82864761352539 83.70065307617188 28.65262222290039 C 81.58542633056641 23.65164947509766 78.55665588378906 19.15967559814453 74.69847869873047 15.30150604248047 C 70.84030914306641 11.44333648681641 66.34834289550781 8.414566040039062 61.34736633300781 6.299331665039062 C 56.17134094238281 4.11004638671875 50.67128372192383 2.999992370605469 44.99999618530273 2.999992370605469 M 44.99999618530273 -7.62939453125e-06 C 69.85281372070312 -7.62939453125e-06 90 20.14717864990234 90 44.99999237060547 C 90 69.85279083251953 69.85281372070312 89.99997711181641 44.99999618530273 89.99997711181641 C 20.14717864990234 89.99997711181641 -7.62939453125e-06 69.85279083251953 -7.62939453125e-06 44.99999237060547 C -7.62939453125e-06 20.14717864990234 20.14717864990234 -7.62939453125e-06 44.99999618530273 -7.62939453125e-06 Z" stroke="none" fill="#0b7744"/>
                  </g>
                </g>
              </g>
            </g>
          </g>
        </g>
      </g>
    </g>
    <g id="artificial-intelligence_653831" transform="translate(646.783 348.58)">
      <g id="Grupo_1202744" data-name="Grupo 1202744" transform="translate(1.056 1.143)">
        <circle id="Elipse_12527" data-name="Elipse 12527" cx="2.534" cy="2.534" r="2.534" fill="#ff5d5d"/>
        <circle id="Elipse_12528" data-name="Elipse 12528" cx="2.534" cy="2.534" r="2.534" transform="translate(46.906)" fill="#ff5d5d"/>
        <circle id="Elipse_12529" data-name="Elipse 12529" cx="2.534" cy="2.534" r="2.534" transform="translate(46.906 46.889)" fill="#ff5d5d"/>
        <circle id="Elipse_12530" data-name="Elipse 12530" cx="2.534" cy="2.534" r="2.534" transform="translate(0 46.889)" fill="#ff5d5d"/>
      </g>
      <g id="Grupo_1202745" data-name="Grupo 1202745" transform="translate(3.908 6.249)">
        <path id="Trazado_1042620" data-name="Trazado 1042620" d="M36.995,73.283v9.373A4.046,4.046,0,0,0,41.041,86.7h0l.525.016a5.872,5.872,0,0,0,5.967,9.373l0,0,.459,1.038a5.089,5.089,0,0,0,4.654,3.03h0a5.089,5.089,0,0,0,5.089-5.089V63.477a5.057,5.057,0,0,0-5.057-5.057h0a5.057,5.057,0,0,0-5.057,5.057v.136a3.92,3.92,0,0,0-5.043,5.923v0a4.026,4.026,0,0,0-1.532-.3h0A4.046,4.046,0,0,0,36.995,73.283Zm10.62-9.665v.01l-.012,0Z" transform="translate(-36.995 -58.42)" fill="#ffc66c"/>
        <path id="Trazado_1042621" data-name="Trazado 1042621" d="M295.392,69.236h0a4.027,4.027,0,0,0-1.532.3v0a3.92,3.92,0,0,0-5.043-5.923v-.136a5.057,5.057,0,0,0-5.057-5.057h0a5.057,5.057,0,0,0-5.057,5.057V95.07a5.089,5.089,0,0,0,5.089,5.089h0a5.089,5.089,0,0,0,4.654-3.03l.459-1.038,0,0a5.872,5.872,0,0,0,5.967-9.373l.525-.016h0a4.046,4.046,0,0,0,4.046-4.046V73.282A4.046,4.046,0,0,0,295.392,69.236Zm-6.563-5.606-.012,0v-.01Z" transform="translate(-253.169 -58.419)" fill="#ffc66c"/>
      </g>
      <path id="Trazado_1042622" data-name="Trazado 1042622" d="M195.972,182.6l-2.587-2.587H182.509l-2.587,2.587v10.876l2.587,2.587h10.876l2.587-2.587Z" transform="translate(-160.915 -160.914)" fill="#ff5d5d"/>
      <g id="Grupo_1202746" data-name="Grupo 1202746" transform="translate(10.111 13.186)">
        <circle id="Elipse_12531" data-name="Elipse 12531" cx="2.444" cy="2.444" r="2.444" transform="translate(0.314 16.146)" fill="#4dbaf6"/>
        <circle id="Elipse_12532" data-name="Elipse 12532" cx="2.256" cy="2.256" r="2.256" transform="translate(5.158)" fill="#4dbaf6"/>
        <circle id="Elipse_12533" data-name="Elipse 12533" cx="1.88" cy="1.88" r="1.88" transform="translate(0 7.921)" fill="#4dbaf6"/>
        <circle id="Elipse_12534" data-name="Elipse 12534" cx="1.88" cy="1.88" r="1.88" transform="translate(6.889 24.811)" fill="#4dbaf6"/>
        <circle id="Elipse_12535" data-name="Elipse 12535" cx="2.444" cy="2.444" r="2.444" transform="translate(28.638 16.146)" fill="#4dbaf6"/>
        <circle id="Elipse_12536" data-name="Elipse 12536" cx="2.256" cy="2.256" r="2.256" transform="translate(24.172)" fill="#4dbaf6"/>
        <circle id="Elipse_12537" data-name="Elipse 12537" cx="1.88" cy="1.88" r="1.88" transform="translate(30.081 7.921)" fill="#4dbaf6"/>
        <circle id="Elipse_12538" data-name="Elipse 12538" cx="1.88" cy="1.88" r="1.88" transform="translate(23.192 24.811)" fill="#4dbaf6"/>
      </g>
      <path id="Trazado_1042623" data-name="Trazado 1042623" d="M224.148,134.958a1.056,1.056,0,1,0,.747.309A1.062,1.062,0,0,0,224.148,134.958Z" transform="translate(-199.525 -120.623)"/>
      <path id="Trazado_1042624" data-name="Trazado 1042624" d="M269.749,361.542a1.057,1.057,0,1,0-.747-.31A1.064,1.064,0,0,0,269.749,361.542Z" transform="translate(-240.309 -321.383)"/>
      <path id="Trazado_1042625" data-name="Trazado 1042625" d="M288.01,223.022a1.056,1.056,0,0,0,1.056-1.056v-6.715a1.056,1.056,0,0,0-2.112,0v6.715A1.056,1.056,0,0,0,288.01,223.022Z" transform="translate(-256.641 -191.49)"/>
      <path id="Trazado_1042626" data-name="Trazado 1042626" d="M205.51,222.954a1.055,1.055,0,0,0,1.362-.613l.28-.739h2.558l.28.739a1.056,1.056,0,1,0,1.974-.749l-2.547-6.715a1.056,1.056,0,0,0-1.975,0l-2.547,6.715A1.056,1.056,0,0,0,205.51,222.954Zm3.4-3.464h-.956l.478-1.261Z" transform="translate(-183.191 -191.491)"/>
      <path id="Trazado_1042627" data-name="Trazado 1042627" d="M50.5,46.976a3.566,3.566,0,0,0-1.678.418L46,44.577V43a6.9,6.9,0,0,0,1.344-7.556A5.107,5.107,0,0,0,51.213,30.5V21.1a5.1,5.1,0,0,0-4.721-5.083A4.958,4.958,0,0,0,46,12.237V9.666L48.819,6.85a3.593,3.593,0,1,0-1.494-1.493L44.2,8.482a1.056,1.056,0,0,0-.309.747v1.025A4.973,4.973,0,0,0,40.438,9.9a6.108,6.108,0,0,0-12.053,1.4v6.736H21.594a1.056,1.056,0,0,0-.747.309L18.26,20.934a1.056,1.056,0,0,0-.309.747V32.557a1.056,1.056,0,0,0,.309.747l2.587,2.587a1.056,1.056,0,0,0,.747.309h1.973v6.7a4.028,4.028,0,0,1-7.7,1.644,6.926,6.926,0,0,0,2.428-1.8,2.943,2.943,0,1,0-1.8-1.168A4.81,4.81,0,0,1,8.247,38.22a4.753,4.753,0,0,1,.871-2.76,5.137,5.137,0,0,0,1.774-.8A3.5,3.5,0,1,0,9.59,33a2.957,2.957,0,0,1-1.641.491A2.99,2.99,0,0,1,4.963,30.5V21.1a2.986,2.986,0,0,1,5.861-.805,2.936,2.936,0,1,0,2.146-.074,5.113,5.113,0,0,0-2.838-3.726,2.859,2.859,0,0,1,3.351-4.413,4.5,4.5,0,0,0,.9,2.3,3.316,3.316,0,1,0,1.4-1.757,2.422,2.422,0,0,1-.213-.99V11.5a1.062,1.062,0,0,0,0-.119V11.3a4,4,0,1,1,7.994,0,1.056,1.056,0,1,0,2.112,0A6.108,6.108,0,0,0,13.626,9.9a4.977,4.977,0,0,0-3.43.341V9.228a1.056,1.056,0,0,0-.309-.747L6.762,5.357A3.594,3.594,0,1,0,5.268,6.85L8.084,9.666V12.2a4.96,4.96,0,0,0-.512,3.82A5.1,5.1,0,0,0,2.851,21.1v9.4a5.107,5.107,0,0,0,3.866,4.947,6.9,6.9,0,0,0,1.367,7.581v1.549L5.268,47.393a3.593,3.593,0,1,0,1.494,1.493l3.125-3.125a1.056,1.056,0,0,0,.309-.747v-.494a6.879,6.879,0,0,0,3.6.581l.127.287A6.14,6.14,0,0,0,25.679,42.9V36.2H32.47a1.056,1.056,0,0,0,.747-.309L35.8,33.3a1.056,1.056,0,0,0,.309-.747V21.681a1.056,1.056,0,0,0-.309-.747l-2.587-2.587a1.056,1.056,0,0,0-.747-.309H30.5V11.3a4,4,0,1,1,7.994,0v.081a1.061,1.061,0,0,0,0,.119v.133a2.421,2.421,0,0,1-.213.99,3.313,3.313,0,1,0,1.4,1.757,4.5,4.5,0,0,0,.9-2.3,2.859,2.859,0,0,1,3.351,4.413,5.113,5.113,0,0,0-2.838,3.726,2.936,2.936,0,1,0,2.146.074A2.986,2.986,0,0,1,49.1,21.1v9.4a2.99,2.99,0,0,1-2.986,2.986A2.957,2.957,0,0,1,44.474,33a3.507,3.507,0,1,0-1.3,1.665,5.141,5.141,0,0,0,1.774.8,4.752,4.752,0,0,1,.871,2.76,4.81,4.81,0,0,1-8.247,3.365,2.927,2.927,0,1,0-1.8,1.168,6.929,6.929,0,0,0,2.428,1.8A4.028,4.028,0,0,1,30.5,42.9a1.056,1.056,0,0,0-2.112,0A6.14,6.14,0,0,0,40.14,45.389l.127-.286a6.88,6.88,0,0,0,3.624-.592v.5a1.056,1.056,0,0,0,.309.747l3.125,3.125A3.589,3.589,0,1,0,50.5,46.976ZM50.5,2.2a1.478,1.478,0,1,1-1.478,1.478A1.48,1.48,0,0,1,50.5,2.2ZM18.88,39.052a.824.824,0,1,1-.824.824A.825.825,0,0,1,18.88,39.052ZM17.525,14.242a1.2,1.2,0,1,1-1.2,1.2A1.2,1.2,0,0,1,17.525,14.242ZM2.112,3.677A1.478,1.478,0,1,1,3.59,5.155,1.48,1.48,0,0,1,2.112,3.677ZM11.991,23.81a.824.824,0,1,1,.824-.824A.825.825,0,0,1,11.991,23.81ZM3.59,52.044a1.478,1.478,0,1,1,1.478-1.478A1.48,1.48,0,0,1,3.59,52.044Zm9.28-21.656a1.388,1.388,0,1,1-1.388,1.388A1.39,1.39,0,0,1,12.87,30.388ZM34,22.118v10l-1.968,1.969h-10l-1.968-1.969v-10l1.968-1.969h10Zm2.538-5.476a1.2,1.2,0,1,1,1.2-1.2A1.2,1.2,0,0,1,36.539,16.642Zm5.534,7.168a.824.824,0,1,1,.824-.824A.825.825,0,0,1,42.072,23.81ZM34.36,39.877a.824.824,0,1,1,.824.824A.825.825,0,0,1,34.36,39.877Zm5.446-8.1a1.388,1.388,0,1,1,1.388,1.388A1.39,1.39,0,0,1,39.805,31.776ZM50.5,52.044a1.478,1.478,0,1,1,1.478-1.478A1.48,1.48,0,0,1,50.5,52.044Z" transform="translate(0 0)"/>
    </g>
  </g>
</svg>
