<svg xmlns="http://www.w3.org/2000/svg" xmlns:xlink="http://www.w3.org/1999/xlink" width="118" height="118" viewBox="0 0 118 118">
  <defs>
    <filter id="Trazado_982547" x="0" y="0" width="118" height="118" filterUnits="userSpaceOnUse">
      <feOffset dy="3" input="SourceAlpha"/>
      <feGaussianBlur stdDeviation="3" result="blur"/>
      <feFlood flood-opacity="0.161"/>
      <feComposite operator="in" in2="blur"/>
      <feComposite in="SourceGraphic"/>
    </filter>
  </defs>
  <g id="Grupo_1202863" data-name="Grupo 1202863" transform="translate(-1213.5 -3703)">
    <g id="Grupo_1202731" data-name="Grupo 1202731" transform="translate(1222.5 3709)">
      <g id="Grupo_1174813" data-name="Grupo 1174813">
        <g id="Grupo_1201680" data-name="Grupo 1201680">
          <g id="Grupo_1201330" data-name="Grupo 1201330">
            <g id="Grupo_1172010" data-name="Grupo 1172010">
              <g id="Grupo_1171046" data-name="Grupo 1171046">
                <g id="Grupo_1148525" data-name="Grupo 1148525">
                  <g transform="matrix(1, 0, 0, 1, -9, -6)" filter="url(#Trazado_982547)">
                    <g id="Trazado_982547-2" data-name="Trazado 982547" transform="translate(9 6)" fill="#eafafc">
                      <path d="M 50 98.5 C 43.45188522338867 98.5 37.10042953491211 97.21787261962891 31.12207221984863 94.68923950195312 C 25.34691429138184 92.24655914306641 20.15997123718262 88.74931335449219 15.70532894134521 84.29468536376953 C 11.2506856918335 79.84004211425781 7.753442764282227 74.65309906005859 5.310757160186768 68.8779296875 C 2.782128572463989 62.89957046508789 1.5 56.54811477661133 1.5 50 C 1.5 43.45188522338867 2.782128572463989 37.10042953491211 5.310757160186768 31.12207221984863 C 7.753442764282227 25.34691429138184 11.2506856918335 20.15997123718262 15.70532894134521 15.70532894134521 C 20.15997123718262 11.2506856918335 25.34691429138184 7.753442764282227 31.12207221984863 5.310757160186768 C 37.10042953491211 2.782128572463989 43.45188522338867 1.5 50 1.5 C 56.54811477661133 1.5 62.89957046508789 2.782128572463989 68.8779296875 5.310757160186768 C 74.65309906005859 7.753442764282227 79.84004211425781 11.2506856918335 84.29468536376953 15.70532894134521 C 88.74931335449219 20.15997123718262 92.24655914306641 25.34691429138184 94.68923950195312 31.12207221984863 C 97.21787261962891 37.10042953491211 98.5 43.45188522338867 98.5 50 C 98.5 56.54811477661133 97.21787261962891 62.89957046508789 94.68923950195312 68.8779296875 C 92.24655914306641 74.65309906005859 88.74931335449219 79.84004211425781 84.29468536376953 84.29468536376953 C 79.84004211425781 88.74931335449219 74.65309906005859 92.24655914306641 68.8779296875 94.68923950195312 C 62.89957046508789 97.21787261962891 56.54811477661133 98.5 50 98.5 Z" stroke="none"/>
                      <path d="M 50 3 C 43.65372467041016 3 37.49886322021484 4.242263793945312 31.70639801025391 6.6922607421875 C 26.11003112792969 9.059326171875 21.08335113525391 12.44861602783203 16.76598358154297 16.76598358154297 C 12.44861602783203 21.08335113525391 9.059326171875 26.11003112792969 6.6922607421875 31.70639801025391 C 4.242263793945312 37.49886322021484 3 43.65372467041016 3 50 C 3 56.34627532958984 4.242263793945312 62.50113677978516 6.6922607421875 68.29360198974609 C 9.059326171875 73.88996887207031 12.44861602783203 78.91666412353516 16.76598358154297 83.23401641845703 C 21.08335113525391 87.55138397216797 26.11003112792969 90.940673828125 31.70639801025391 93.3077392578125 C 37.49886322021484 95.75773620605469 43.65372467041016 97 50 97 C 56.34627532958984 97 62.50113677978516 95.75773620605469 68.29360198974609 93.3077392578125 C 73.88996887207031 90.940673828125 78.91666412353516 87.55138397216797 83.23401641845703 83.23401641845703 C 87.55138397216797 78.91666412353516 90.940673828125 73.88996887207031 93.3077392578125 68.29360198974609 C 95.75773620605469 62.50113677978516 97 56.34627532958984 97 50 C 97 43.65372467041016 95.75773620605469 37.49886322021484 93.3077392578125 31.70639801025391 C 90.940673828125 26.11003112792969 87.55138397216797 21.08335113525391 83.23401641845703 16.76598358154297 C 78.91666412353516 12.44861602783203 73.88996887207031 9.059326171875 68.29360198974609 6.6922607421875 C 62.50113677978516 4.242263793945312 56.34627532958984 3 50 3 M 50 0 C 77.61424255371094 0 100 22.38577270507812 100 50 C 100 77.61424255371094 77.61424255371094 100 50 100 C 22.38577270507812 100 0 77.61424255371094 0 50 C 0 22.38577270507812 22.38577270507812 0 50 0 Z" stroke="none" fill="#3ad1e9"/>
                    </g>
                  </g>
                </g>
              </g>
            </g>
          </g>
        </g>
      </g>
    </g>
    <g id="pie-cart_18427045" transform="translate(1236.192 3672.831)">
      <path id="Trazado_1042911" data-name="Trazado 1042911" d="M408.407,80.275a1.067,1.067,0,0,1,.762.322l.86.89.049-5.531h-3.3l-.045,5.543.913-.913a1.071,1.071,0,0,1,.762-.311Z" transform="translate(-349.78 -13.849)" fill="#a34f41"/>
      <g id="Grupo_1202862" data-name="Grupo 1202862" transform="translate(2.993 59.97)">
        <path id="Trazado_1042912" data-name="Trazado 1042912" d="M195.551,157.057v10.619H206.17A11.75,11.75,0,0,0,195.551,157.057Z" transform="translate(-169.816 -144.081)" fill="#ff4f6c"/>
        <path id="Trazado_1042913" data-name="Trazado 1042913" d="M139.327,252.5l-7.952,7.948a11.729,11.729,0,0,0,19.2-7.948H139.327Z" transform="translate(-114.217 -226.768)" fill="#58b78c"/>
        <path id="Trazado_1042914" data-name="Trazado 1042914" d="M64.034,386.429a1.067,1.067,0,0,1,1.068-1.068H76.335a1.067,1.067,0,0,1,1.068,1.068V389.9a1.07,1.07,0,0,1-1.068,1.068H65.1a1.07,1.07,0,0,1-1.068-1.068Zm-29.755,4.535a2.8,2.8,0,1,1,2.8-2.8A2.805,2.805,0,0,1,34.279,390.964Zm-7.365,0a2.8,2.8,0,1,1,2.8-2.8A2.8,2.8,0,0,1,26.914,390.964ZM59.1,386.448a1.066,1.066,0,0,1-1.068,1.065H43.28a1.066,1.066,0,0,1-1.068-1.065v-1.712H18.981v3.429a3.433,3.433,0,0,0,3.432,3.425H78.9a3.433,3.433,0,0,0,3.432-3.425v-3.429H59.1Z" transform="translate(-16.844 -341.331)" fill="#8b9ba9"/>
        <path id="Trazado_1042915" data-name="Trazado 1042915" d="M359,84.106a1.067,1.067,0,0,1-.671.981,1.049,1.049,0,0,1-.4.08,1.061,1.061,0,0,1-.765-.326l-1.921-1.978-1.993,1.989a1.067,1.067,0,0,1-1.822-.765l.072-8.13h-6.111v19.73h19.73V75.957h-6.05L359,84.106Z" transform="translate(-299.63 -73.82)" fill="#fadc60"/>
        <path id="Trazado_1042916" data-name="Trazado 1042916" d="M372.065,405.372h9.1v1.33h-9.1Z" transform="translate(-322.739 -359.209)" fill="#8b9ba9"/>
        <path id="Trazado_1042917" data-name="Trazado 1042917" d="M58.848,129.7a13.875,13.875,0,1,1,13.877,13.877A13.889,13.889,0,0,1,58.848,129.7Zm32.611,11.752H103.84a1.068,1.068,0,1,1,0,2.137H91.459a1.068,1.068,0,1,1,0-2.137Zm1.455-4.755H103.84a1.068,1.068,0,0,1,0,2.137H92.914a1.068,1.068,0,1,1,0-2.137Zm2.773-4.755h8.153a1.068,1.068,0,0,1,0,2.137H95.687a1.068,1.068,0,0,1,0-2.137ZM75.562,147.37v1.712H88.182V147.37A1.07,1.07,0,0,1,89.25,146.3h19.484V129.038H92.751a1.07,1.07,0,0,1-1.068-1.068V111.986H57.65a2.643,2.643,0,0,0-2.641,2.641V146.3H74.494a1.067,1.067,0,0,1,1.068,1.068Z" transform="translate(-48.058 -105.034)" fill="#f7f7f7"/>
        <path id="Trazado_1042918" data-name="Trazado 1042918" d="M129.146,405.4a.672.672,0,0,0-.663.667.665.665,0,1,0,.663-.667Z" transform="translate(-111.711 -359.234)" fill="#8b9ba9"/>
        <path id="Trazado_1042919" data-name="Trazado 1042919" d="M74.041,405.4a.663.663,0,1,0,.667.667A.665.665,0,0,0,74.041,405.4Z" transform="translate(-63.971 -359.234)" fill="#8b9ba9"/>
        <path id="Trazado_1042920" data-name="Trazado 1042920" d="M110.384,157.057a11.729,11.729,0,0,0-7.952,19.192l7.952-7.948Z" transform="translate(-86.786 -144.081)" fill="#fadc60"/>
        <path id="Trazado_1042921" data-name="Trazado 1042921" d="M60.191,392.875a.663.663,0,1,1,.667-.659A.663.663,0,0,1,60.191,392.875Zm0-3.463a2.8,2.8,0,1,0,2.8,2.8A2.8,2.8,0,0,0,60.191,389.412Z" transform="translate(-50.121 -345.382)"/>
        <path id="Trazado_1042922" data-name="Trazado 1042922" d="M115.3,392.875a.663.663,0,0,1-.663-.659.665.665,0,1,1,1.33,0A.664.664,0,0,1,115.3,392.875Zm0-3.463a2.8,2.8,0,1,0,2.8,2.8A2.8,2.8,0,0,0,115.3,389.412Z" transform="translate(-97.861 -345.382)"/>
        <path id="Trazado_1042923" data-name="Trazado 1042923" d="M68.485,81.837H48.754V62.107h6.111l-.072,8.13A1.067,1.067,0,0,0,56.615,71l1.993-1.989,1.921,1.978a1.061,1.061,0,0,0,.765.326,1.049,1.049,0,0,0,.4-.08,1.066,1.066,0,0,0,.671-.981l.072-8.149h6.05Zm0,21.538V106.8a3.433,3.433,0,0,1-3.432,3.425H8.562A3.433,3.433,0,0,1,5.13,106.8v-3.429H28.361v1.712a1.066,1.066,0,0,0,1.068,1.065H44.185a1.066,1.066,0,0,0,1.068-1.065v-1.712H68.485ZM9.945,69.562a2.643,2.643,0,0,1,2.641-2.641H46.617V82.905a1.07,1.07,0,0,0,1.068,1.068H63.669v17.264H44.185a1.07,1.07,0,0,0-1.068,1.068v1.712H30.5v-1.712a1.067,1.067,0,0,0-1.068-1.068H9.945ZM57,62.107h3.3l-.049,5.531-.86-.89a1.075,1.075,0,0,0-1.523-.011l-.913.913L57,62.107ZM69.553,59.97H47.686a1.067,1.067,0,0,0-1.068,1.068v3.747H12.586a4.782,4.782,0,0,0-4.777,4.777v31.676H4.061a1.067,1.067,0,0,0-1.068,1.068v4.5a5.572,5.572,0,0,0,5.569,5.565h56.49a5.572,5.572,0,0,0,5.569-5.565v-4.5a1.067,1.067,0,0,0-1.068-1.068H65.806V83.974h3.747a1.07,1.07,0,0,0,1.068-1.068V61.038A1.067,1.067,0,0,0,69.553,59.97Z" transform="translate(-2.993 -59.97)"/>
        <path id="Trazado_1042924" data-name="Trazado 1042924" d="M320.805,334.573h12.381a1.068,1.068,0,1,0,0-2.137H320.805a1.068,1.068,0,0,0,0,2.137Z" transform="translate(-277.404 -296.021)"/>
        <path id="Trazado_1042925" data-name="Trazado 1042925" d="M358.214,391.549h9.1v1.326h-9.1Zm-1.068,3.466h11.233a1.07,1.07,0,0,0,1.068-1.068V390.48a1.067,1.067,0,0,0-1.068-1.068H357.145a1.067,1.067,0,0,0-1.068,1.068v3.466A1.07,1.07,0,0,0,357.145,395.015Z" transform="translate(-308.888 -345.382)"/>
        <path id="Trazado_1042926" data-name="Trazado 1042926" d="M331.69,299h10.926a1.068,1.068,0,1,0,0-2.137H331.69a1.068,1.068,0,1,0,0,2.137Z" transform="translate(-286.835 -265.201)"/>
        <path id="Trazado_1042927" data-name="Trazado 1042927" d="M352.439,263.423h8.153a1.068,1.068,0,1,0,0-2.137h-8.153a1.068,1.068,0,1,0,0,2.137Z" transform="translate(-304.811 -234.38)"/>
        <path id="Trazado_1042928" data-name="Trazado 1042928" d="M97.6,166.314a11.7,11.7,0,0,1-7.509-2.724l7.952-7.948h11.244A11.755,11.755,0,0,1,97.6,166.314ZM85.86,154.573a11.749,11.749,0,0,1,10.672-11.687V154.13l-7.952,7.948A11.68,11.68,0,0,1,85.86,154.573Zm12.809-11.687a11.75,11.75,0,0,1,10.619,10.619H98.669Zm12.805,11.687A13.875,13.875,0,1,0,97.6,168.451,13.888,13.888,0,0,0,111.474,154.573Z" transform="translate(-72.934 -129.911)"/>
      </g>
    </g>
  </g>
</svg>
