<svg xmlns="http://www.w3.org/2000/svg" xmlns:xlink="http://www.w3.org/1999/xlink" width="118" height="118" viewBox="0 0 118 118">
  <defs>
    <filter id="Trazado_982547" x="0" y="0" width="118" height="118" filterUnits="userSpaceOnUse">
      <feOffset dy="3" input="SourceAlpha"/>
      <feGaussianBlur stdDeviation="3" result="blur"/>
      <feFlood flood-opacity="0.161"/>
      <feComposite operator="in" in2="blur"/>
      <feComposite in="SourceGraphic"/>
    </filter>
  </defs>
  <g id="Grupo_1202891" data-name="Grupo 1202891" transform="translate(-583.5 -6709)">
    <g id="Grupo_1202738" data-name="Grupo 1202738" transform="translate(592.5 6715)">
      <g id="Grupo_1174813" data-name="Grupo 1174813">
        <g id="Grupo_1201680" data-name="Grupo 1201680">
          <g id="Grupo_1201330" data-name="Grupo 1201330">
            <g id="Grupo_1172010" data-name="Grupo 1172010">
              <g id="Grupo_1171046" data-name="Grupo 1171046">
                <g id="Grupo_1148525" data-name="Grupo 1148525">
                  <g transform="matrix(1, 0, 0, 1, -9, -6)" filter="url(#Trazado_982547)">
                    <g id="Trazado_982547-2" data-name="Trazado 982547" transform="translate(9 6)" fill="#eafafc">
                      <path d="M 50 98.5 C 43.45188522338867 98.5 37.10042953491211 97.21787261962891 31.12207221984863 94.68923950195312 C 25.34691429138184 92.24655914306641 20.15997123718262 88.74931335449219 15.70532894134521 84.29468536376953 C 11.2506856918335 79.84004211425781 7.753442764282227 74.65309906005859 5.310757160186768 68.8779296875 C 2.782128572463989 62.89957046508789 1.5 56.54811477661133 1.5 50 C 1.5 43.45188522338867 2.782128572463989 37.10042953491211 5.310757160186768 31.12207221984863 C 7.753442764282227 25.34691429138184 11.2506856918335 20.15997123718262 15.70532894134521 15.70532894134521 C 20.15997123718262 11.2506856918335 25.34691429138184 7.753442764282227 31.12207221984863 5.310757160186768 C 37.10042953491211 2.782128572463989 43.45188522338867 1.5 50 1.5 C 56.54811477661133 1.5 62.89957046508789 2.782128572463989 68.8779296875 5.310757160186768 C 74.65309906005859 7.753442764282227 79.84004211425781 11.2506856918335 84.29468536376953 15.70532894134521 C 88.74931335449219 20.15997123718262 92.24655914306641 25.34691429138184 94.68923950195312 31.12207221984863 C 97.21787261962891 37.10042953491211 98.5 43.45188522338867 98.5 50 C 98.5 56.54811477661133 97.21787261962891 62.89957046508789 94.68923950195312 68.8779296875 C 92.24655914306641 74.65309906005859 88.74931335449219 79.84004211425781 84.29468536376953 84.29468536376953 C 79.84004211425781 88.74931335449219 74.65309906005859 92.24655914306641 68.8779296875 94.68923950195312 C 62.89957046508789 97.21787261962891 56.54811477661133 98.5 50 98.5 Z" stroke="none"/>
                      <path d="M 50 3 C 43.65372467041016 3 37.49886322021484 4.242263793945312 31.70639801025391 6.6922607421875 C 26.11003112792969 9.059326171875 21.08335113525391 12.44861602783203 16.76598358154297 16.76598358154297 C 12.44861602783203 21.08335113525391 9.059326171875 26.11003112792969 6.6922607421875 31.70639801025391 C 4.242263793945312 37.49886322021484 3 43.65372467041016 3 50 C 3 56.34627532958984 4.242263793945312 62.50113677978516 6.6922607421875 68.29360198974609 C 9.059326171875 73.88996887207031 12.44861602783203 78.91666412353516 16.76598358154297 83.23401641845703 C 21.08335113525391 87.55138397216797 26.11003112792969 90.940673828125 31.70639801025391 93.3077392578125 C 37.49886322021484 95.75773620605469 43.65372467041016 97 50 97 C 56.34627532958984 97 62.50113677978516 95.75773620605469 68.29360198974609 93.3077392578125 C 73.88996887207031 90.940673828125 78.91666412353516 87.55138397216797 83.23401641845703 83.23401641845703 C 87.55138397216797 78.91666412353516 90.940673828125 73.88996887207031 93.3077392578125 68.29360198974609 C 95.75773620605469 62.50113677978516 97 56.34627532958984 97 50 C 97 43.65372467041016 95.75773620605469 37.49886322021484 93.3077392578125 31.70639801025391 C 90.940673828125 26.11003112792969 87.55138397216797 21.08335113525391 83.23401641845703 16.76598358154297 C 78.91666412353516 12.44861602783203 73.88996887207031 9.059326171875 68.29360198974609 6.6922607421875 C 62.50113677978516 4.242263793945312 56.34627532958984 3 50 3 M 50 0 C 77.61424255371094 0 100 22.38577270507812 100 50 C 100 77.61424255371094 77.61424255371094 100 50 100 C 22.38577270507812 100 0 77.61424255371094 0 50 C 0 22.38577270507812 22.38577270507812 0 50 0 Z" stroke="none" fill="#3ad1e9"/>
                    </g>
                  </g>
                </g>
              </g>
            </g>
          </g>
        </g>
      </g>
    </g>
    <g id="FilledOutline" transform="translate(597.286 6704.76)">
      <path id="Trazado_1043000" data-name="Trazado 1043000" d="M58.921,64h42.847a2.921,2.921,0,0,1,2.921,2.921v46.742H56V66.921A2.921,2.921,0,0,1,58.921,64Z" transform="translate(-35.131 -28.105)" fill="#f5e627"/>
      <path id="Trazado_1043001" data-name="Trazado 1043001" d="M256,64h21.424a2.921,2.921,0,0,1,2.921,2.921v46.742H256Z" transform="translate(-210.786 -28.105)" fill="#d2c41b"/>
      <path id="Trazado_1043002" data-name="Trazado 1043002" d="M77.559,445.843H26.921A2.921,2.921,0,0,1,24,442.921V440H46.4l1.948,1.948h7.79L58.083,440h22.4v2.921A2.921,2.921,0,0,1,77.559,445.843Z" transform="translate(-7.026 -358.336)" fill="#ccdce5"/>
      <path id="Trazado_1043003" data-name="Trazado 1043003" d="M192.555,83.476H178.921L176,80.555V66.921L178.921,64h13.633l2.921,2.921V80.555Z" transform="translate(-140.524 -28.105)" fill="#88bf40"/>
      <path id="Trazado_1043004" data-name="Trazado 1043004" d="M208,96h11.686v11.686H208Z" transform="translate(-168.629 -56.21)" fill="#2b9947"/>
      <path id="Trazado_1043005" data-name="Trazado 1043005" d="M73.454,432h-22.4a.974.974,0,0,0-.689.285l-1.662,1.662H41.722l-1.662-1.662a.974.974,0,0,0-.689-.285h-22.4a.974.974,0,0,0-.974.974V435.9a3.9,3.9,0,0,0,3.9,3.9H70.533a3.9,3.9,0,0,0,3.9-3.9v-2.921A.974.974,0,0,0,73.454,432Zm-.974,3.9a1.95,1.95,0,0,1-1.948,1.948H19.9a1.95,1.95,0,0,1-1.948-1.948v-1.948h21.02l1.662,1.662a.974.974,0,0,0,.689.285h7.79a.974.974,0,0,0,.689-.285l1.662-1.662H72.48Z" transform="translate(0 -351.31)"/>
      <path id="Trazado_1043006" data-name="Trazado 1043006" d="M144,40.764v1.948h2.921v1.948H144v1.948h2.921v1.948H144V50.5h2.921V52.45a.974.974,0,0,0,.285.689l2.921,2.921a.974.974,0,0,0,.689.285h1.948v2.921h1.948V56.345h1.948v2.921h1.948V56.345h1.948v2.921H162.5V56.345h1.948a.974.974,0,0,0,.689-.285l2.921-2.921a.974.974,0,0,0,.285-.689V50.5h2.921V48.555h-2.921V46.607h2.921V44.659h-2.921V42.712h2.921V40.764h-2.921V38.817a.974.974,0,0,0-.285-.689l-2.921-2.921a.974.974,0,0,0-.689-.285H162.5V32h-1.948v2.921h-1.948V32h-1.948v2.921h-1.948V32h-1.948v2.921h-1.948a.974.974,0,0,0-.689.285l-2.921,2.921a.974.974,0,0,0-.285.689v1.948Zm4.869-1.544,2.351-2.351h12.827L166.4,39.22V52.046L164.047,54.4H151.22l-2.351-2.351Z" transform="translate(-112.419)"/>
      <path id="Trazado_1043007" data-name="Trazado 1043007" d="M212.659,101.633a.974.974,0,0,0,.974-.974V88.974a.974.974,0,0,0-.974-.974H200.974a.974.974,0,0,0-.974.974v11.686a.974.974,0,0,0,.974.974Zm-.974-11.686V91.9h-2.921a.974.974,0,0,0-.974.974v4.869h1.948v-3.9h1.948v5.843h-9.738V93.843h3.9V91.9h-3.9V89.948Z" transform="translate(-161.603 -49.183)"/>
      <path id="Trazado_1043008" data-name="Trazado 1043008" d="M232,152h1.948v1.948H232Z" transform="translate(-189.707 -105.393)"/>
      <path id="Trazado_1043009" data-name="Trazado 1043009" d="M363.686,59.9V99.821h1.948V59.9a3.9,3.9,0,0,0-3.9-3.9H352v1.948h9.738A1.95,1.95,0,0,1,363.686,59.9Z" transform="translate(-295.1 -21.079)"/>
      <path id="Trazado_1043010" data-name="Trazado 1043010" d="M49.948,59.9A1.95,1.95,0,0,1,51.9,57.948h9.738V56H51.9A3.9,3.9,0,0,0,48,59.9V99.821h1.948Z" transform="translate(-28.105 -21.079)"/>
      <path id="Trazado_1043011" data-name="Trazado 1043011" d="M248,272h1.948v19.476H248Z" transform="translate(-203.76 -210.786)"/>
      <path id="Trazado_1043012" data-name="Trazado 1043012" d="M104,280h1.948v1.948H104Z" transform="translate(-77.288 -217.812)"/>
      <path id="Trazado_1043013" data-name="Trazado 1043013" d="M136,280h10.712v1.948H136Z" transform="translate(-105.393 -217.812)"/>
      <path id="Trazado_1043014" data-name="Trazado 1043014" d="M88,312h16.555v1.948H88Z" transform="translate(-63.236 -245.917)"/>
      <path id="Trazado_1043015" data-name="Trazado 1043015" d="M88,344h16.555v1.948H88Z" transform="translate(-63.236 -274.022)"/>
      <path id="Trazado_1043016" data-name="Trazado 1043016" d="M88,376h14.607v1.948H88Z" transform="translate(-63.236 -302.127)"/>
      <path id="Trazado_1043017" data-name="Trazado 1043017" d="M304,280h1.948v1.948H304Z" transform="translate(-252.943 -217.812)"/>
      <path id="Trazado_1043018" data-name="Trazado 1043018" d="M336,280h10.712v1.948H336Z" transform="translate(-281.048 -217.812)"/>
      <path id="Trazado_1043019" data-name="Trazado 1043019" d="M288,312h16.555v1.948H288Z" transform="translate(-238.891 -245.917)"/>
      <path id="Trazado_1043020" data-name="Trazado 1043020" d="M288,344h16.555v1.948H288Z" transform="translate(-238.891 -274.022)"/>
      <path id="Trazado_1043021" data-name="Trazado 1043021" d="M288,376h14.607v1.948H288Z" transform="translate(-238.891 -302.127)"/>
    </g>
  </g>
</svg>
