<svg xmlns="http://www.w3.org/2000/svg" width="379" height="150.434" viewBox="0 0 379 150.434">
  <g id="Grupo_1202918" data-name="Grupo 1202918" transform="translate(-1020 -7862.566)">
    <g id="Grupo_1202739" data-name="Grupo 1202739" transform="translate(-210 7582)">
      <g id="Grupo_1177674" data-name="Grupo 1177674" transform="translate(1230 290)">
        <g id="Grupo_1177451" data-name="Grupo 1177451">
          <rect id="Rect치ngulo_416021" data-name="Rect치ngulo 416021" width="379" height="105" rx="5" transform="translate(0 18)" fill="#113e45"/>
          <rect id="Rect치ngulo_416022" data-name="Rect치ngulo 416022" width="319" height="141" rx="5" transform="translate(30)" fill="#3ad1e9"/>
        </g>
      </g>
    </g>
    <g id="video_clip" data-name="video clip" transform="translate(1132 7860.566)">
      <path id="Trazado_1043086" data-name="Trazado 1043086" d="M148.42,57l-1.554,6.243A4.994,4.994,0,0,1,142,67.029H9.419a4.994,4.994,0,0,1-4.864-3.786L3,57H65.681v5.014H85.739V57Z" transform="translate(1.507 82.898)" fill="#ff7956"/>
      <path id="Trazado_1043087" data-name="Trazado 1043087" d="M140.391,21.508v80.231a2.613,2.613,0,0,1-2.708,2.507H7.708A2.613,2.613,0,0,1,5,101.739V21.508a2.414,2.414,0,0,1,.8-1.78A2.758,2.758,0,0,1,7.708,19H137.683a.551.551,0,0,1,.2.025,2.577,2.577,0,0,1,2.507,2.482Z" transform="translate(4.521 25.622)" fill="#57a4ff"/>
      <path id="Trazado_1043088" data-name="Trazado 1043088" d="M85.13,27.551v5.04a.552.552,0,0,0-.2-.025H70.087a7.522,7.522,0,1,0-15.043,0H40V27.551l6.519-1.63-3.46-5.767,7.1-7.1,5.767,3.46L57.551,10H67.58l1.63,6.519,5.767-3.46,7.1,7.1-3.46,5.767Z" transform="translate(57.274 12.058)" fill="#ff7956"/>
      <ellipse id="Elipse_12591" data-name="Elipse 12591" cx="5" cy="5.5" rx="5" ry="5.5" transform="translate(125 94.434)" fill="#ffeb99"/>
      <path id="Trazado_1043089" data-name="Trazado 1043089" d="M61.043,23.522H46a7.522,7.522,0,0,1,15.043,0Z" transform="translate(66.318 21.101)" fill="#ffeb99"/>
      <ellipse id="Elipse_12592" data-name="Elipse 12592" cx="5" cy="4.5" rx="5" ry="4.5" transform="translate(115 55.434)" fill="#ffeb99"/>
      <circle id="Elipse_12593" data-name="Elipse 12593" cx="5" cy="5" r="5" transform="translate(110 110.434)" fill="#ffeb99"/>
      <path id="Trazado_1043090" data-name="Trazado 1043090" d="M93.724,20.551l-1.63,6.519-5.767-3.46-7.1,7.1,3.46,5.767L76.174,38.1v5.014h-.15a20.058,20.058,0,0,0-39.815,0H33.551V38.1l-6.519-1.63,3.46-5.767-7.1-7.1-5.767,3.46L16,20.551l13.79-8.876a2.507,2.507,0,0,1,3.234-.276l6.469,4.613a2.475,2.475,0,0,0,2.557.2c1.053-.5,2.106-.928,3.209-1.329a2.49,2.49,0,0,0,1.68-1.931l1.3-7.848A2.507,2.507,0,0,1,50.725,3H61.506a2.507,2.507,0,0,1,2.482,2.106l1.3,7.848a2.49,2.49,0,0,0,1.68,1.931c1.1.4,2.156.827,3.209,1.329a2.475,2.475,0,0,0,2.557-.2L79.207,11.4a2.507,2.507,0,0,1,3.234.276Z" transform="translate(21.101 1.507)" fill="#ff7956"/>
      <path id="Trazado_1043091" data-name="Trazado 1043091" d="M80.609,54.268a30.448,30.448,0,1,1-.426-5.014,29.9,29.9,0,0,1,.426,5.014Z" transform="translate(26.695 32.978)" fill="#ffeb99"/>
      <path id="Trazado_1043092" data-name="Trazado 1043092" d="M63.875,29.584H24.06a20.058,20.058,0,0,1,39.815,0Z" transform="translate(33.249 15.039)" fill="#ffeb99"/>
      <path id="Trazado_1043093" data-name="Trazado 1043093" d="M57.087,45.043,27,60.087V30Z" transform="translate(37.68 42.203)" fill="#ff7956"/>
      <path id="Trazado_1043094" data-name="Trazado 1043094" d="M50.13,27.551v5.014H35.087a7.522,7.522,0,1,0-15.043,0H7.708a2.758,2.758,0,0,0-1.905.727l-.8-.7v-5.04l6.519-1.63-3.46-5.767,7.1-7.1,5.767,3.46L22.551,10H32.58l1.63,6.519,5.767-3.46,7.1,7.1-3.46,5.767Z" transform="translate(4.521 12.058)" fill="#ff7956"/>
      <circle id="Elipse_12594" data-name="Elipse 12594" cx="5" cy="5" r="5" transform="translate(34 110.434)" fill="#ffeb99"/>
      <path id="Trazado_1043095" data-name="Trazado 1043095" d="M26.043,23.522H11a7.522,7.522,0,0,1,15.043,0Z" transform="translate(13.565 21.101)" fill="#ffeb99"/>
      <circle id="Elipse_12595" data-name="Elipse 12595" cx="4.5" cy="4.5" r="4.5" transform="translate(30 55.434)" fill="#ffeb99"/>
      <ellipse id="Elipse_12596" data-name="Elipse 12596" cx="5" cy="5.5" rx="5" ry="5.5" transform="translate(20 94.434)" fill="#ffeb99"/>
      <path id="Trazado_1043096" data-name="Trazado 1043096" d="M9.215,132.376H139.19a5.125,5.125,0,0,0,5.215-5.014V47.13a4.967,4.967,0,0,0-2.507-4.262V39.609a2.507,2.507,0,0,0-1.9-2.432l-3.237-.81,1.72-2.866a2.507,2.507,0,0,0-.379-3.061l-7.1-7.1a2.507,2.507,0,0,0-3.061-.379l-2.866,1.72-.81-3.237a2.507,2.507,0,0,0-2.432-1.9h-9.161l-10.5-8.261a5.045,5.045,0,0,0-6.338-.426l-6.494,4.591a30.961,30.961,0,0,0-3.493-1.4l-1.3-7.84A5.014,5.014,0,0,0,79.593,2H68.812a5,5,0,0,0-4.954,4.2l-1.371,7.833a35.351,35.351,0,0,0-3.45,1.442l-6.491-4.628a5.03,5.03,0,0,0-6.213.346L33.35,19.551H24.058a2.507,2.507,0,0,0-2.432,1.9l-.81,3.237-2.866-1.72a2.507,2.507,0,0,0-3.061.379l-7.1,7.1A2.507,2.507,0,0,0,7.415,33.5l1.72,2.866-3.237.81A2.507,2.507,0,0,0,4,39.609v5.04h.712A4.8,4.8,0,0,0,4,47.13v80.231a5.125,5.125,0,0,0,5.215,5.014Zm129.975-5.014H9.014l.2-80.231H139.391l.02,80.156a.288.288,0,0,1-.221.075ZM24.755,42.116a4.972,4.972,0,0,1,8.635,0Zm32.629,0a17.551,17.551,0,0,1,33.637,0Zm55.124,0a4.972,4.972,0,0,1,8.635,0Zm7.376-17.551,1.156,4.621a2.507,2.507,0,0,0,3.721,1.539l4.087-2.452,4.327,4.327-2.452,4.087a2.507,2.507,0,0,0,1.539,3.721l4.621,1.156v.552H126.5a9.981,9.981,0,0,0-19.346,0H96.768v-.552l4.621-1.156a2.507,2.507,0,0,0,1.539-3.721L100.476,32.6l4.327-4.327,4.087,2.452a2.507,2.507,0,0,0,3.721-1.539l1.156-4.621ZM49.233,15.288a2.425,2.425,0,0,0,.421-.343L56.1,19.551a4.969,4.969,0,0,0,5.112.441c.983-.466,1.968-.862,2.951-1.221A4.994,4.994,0,0,0,67.5,14.88l1.314-7.865H79.593L80.9,14.86a4.977,4.977,0,0,0,3.3,3.889c1.028.374,2.006.77,2.976,1.226a4.954,4.954,0,0,0,5.107-.411l6.474-4.608a2.376,2.376,0,0,0,.223.2l10.006,7.873-.416,1.66-2.866-1.72a2.507,2.507,0,0,0-3.061.379l-7.1,7.1a2.507,2.507,0,0,0-.379,3.061l1.72,2.866L94.358,37a22.565,22.565,0,0,0-40.8,1,2.482,2.482,0,0,0-1.311-.84l-3.237-.81,1.72-2.866a2.507,2.507,0,0,0-.379-3.061l-7.1-7.1a2.507,2.507,0,0,0-3.061-.379l-2.866,1.72-.374-1.5Zm-35.6,25.12a2.507,2.507,0,0,0,1.539-3.721L12.723,32.6l4.327-4.327,4.087,2.452a2.507,2.507,0,0,0,3.721-1.539l1.156-4.621h6.118l1.156,4.621a2.507,2.507,0,0,0,3.721,1.539l4.087-2.452L45.422,32.6,42.97,36.688a2.507,2.507,0,0,0,1.539,3.721l4.621,1.156v.552H38.745a9.981,9.981,0,0,0-19.346,0H9.215c-.068,0-.133.018-.2.02v-.572Z" transform="translate(3.014 0)"/>
      <path id="Trazado_1043097" data-name="Trazado 1043097" d="M123.333,62.6V57.12a7.522,7.522,0,0,0-7.522-7.522H99.858a32.557,32.557,0,0,0-1.6-5.014h7.522a7.522,7.522,0,0,0,7.522-7.522V36.6a7.522,7.522,0,1,0-5.014,0v.461a2.507,2.507,0,0,1-2.507,2.507H95.6a32.514,32.514,0,0,0-54.843,0H30.566a2.507,2.507,0,0,1-2.507-2.507V36.6a7.522,7.522,0,1,0-5.014,0v.461a7.522,7.522,0,0,0,7.522,7.522h7.522a32.557,32.557,0,0,0-1.6,5.014H20.537a7.522,7.522,0,0,0-7.522,7.522V62.6a7.522,7.522,0,1,0,5.014,0V57.12a2.507,2.507,0,0,1,2.507-2.507H35.708c-.065.83-.128,1.66-.128,2.507a32.421,32.421,0,0,0,2.507,12.536H35.58a7.522,7.522,0,0,0-7.522,7.522v.461a7.522,7.522,0,1,0,5.014,0v-.461a2.507,2.507,0,0,1,2.507-2.507h5.172a32.514,32.514,0,0,0,54.843,0h5.172a2.507,2.507,0,0,1,2.507,2.507v.461a7.522,7.522,0,1,0,5.014,0v-.461a7.522,7.522,0,0,0-7.522-7.522H98.261a32.421,32.421,0,0,0,2.507-12.536c0-.847-.063-1.677-.128-2.507h15.171a2.507,2.507,0,0,1,2.507,2.507V62.6a7.522,7.522,0,1,0,5.014,0ZM110.8,27.033a2.507,2.507,0,1,1-2.507,2.507A2.507,2.507,0,0,1,110.8,27.033Zm-85.246,0a2.507,2.507,0,1,1-2.507,2.507A2.507,2.507,0,0,1,25.551,27.033ZM15.522,72.163a2.507,2.507,0,1,1,2.507-2.507A2.507,2.507,0,0,1,15.522,72.163ZM30.566,87.207A2.507,2.507,0,1,1,33.073,84.7,2.507,2.507,0,0,1,30.566,87.207Zm75.217,0A2.507,2.507,0,1,1,108.29,84.7,2.507,2.507,0,0,1,105.783,87.207ZM68.174,84.7a27.58,27.58,0,1,1,27.58-27.58A27.58,27.58,0,0,1,68.174,84.7Zm52.652-12.536a2.507,2.507,0,1,1,2.507-2.507A2.507,2.507,0,0,1,120.826,72.163Z" transform="translate(9.043 30.126)"/>
      <path id="Trazado_1043098" data-name="Trazado 1043098" d="M151.9,56.965A2.507,2.507,0,0,0,149.926,56H87.246a2.507,2.507,0,0,0-2.507,2.507v2.507H69.695V58.507A2.507,2.507,0,0,0,67.188,56H4.507a2.507,2.507,0,0,0-2.432,3.114l1.557,6.235a7.522,7.522,0,0,0,7.3,5.694H143.5a7.522,7.522,0,0,0,7.3-5.7l1.557-6.231A2.507,2.507,0,0,0,151.9,56.965ZM10.93,66.029a2.507,2.507,0,0,1-2.435-1.9l-.78-3.116H64.68v2.507a2.507,2.507,0,0,0,2.507,2.507Zm135.007-1.9a2.507,2.507,0,0,1-2.435,1.9H87.246a2.507,2.507,0,0,0,2.507-2.507V61.014h56.964Z" transform="translate(0 81.391)"/>
      <path id="Trazado_1043099" data-name="Trazado 1043099" d="M59.715,44.3,29.628,29.259A2.507,2.507,0,0,0,26,31.515V61.6a2.507,2.507,0,0,0,3.628,2.257L59.715,48.815a2.507,2.507,0,0,0,0-4.488Zm-28.7,13.243V35.572L52.988,46.559Z" transform="translate(36.173 40.687)"/>
    </g>
  </g>
</svg>
