<svg xmlns="http://www.w3.org/2000/svg" xmlns:xlink="http://www.w3.org/1999/xlink" width="118" height="118" viewBox="0 0 118 118">
  <defs>
    <filter id="Trazado_982547" x="0" y="0" width="118" height="118" filterUnits="userSpaceOnUse">
      <feOffset dy="3" input="SourceAlpha"/>
      <feGaussianBlur stdDeviation="3" result="blur"/>
      <feFlood flood-opacity="0.161"/>
      <feComposite operator="in" in2="blur"/>
      <feComposite in="SourceGraphic"/>
    </filter>
  </defs>
  <g id="Grupo_1202853" data-name="Grupo 1202853" transform="translate(-1213.5 -2267.932)">
    <g id="Grupo_1202726" data-name="Grupo 1202726" transform="translate(1222.5 2273.932)">
      <g id="Grupo_1174813" data-name="Grupo 1174813">
        <g id="Grupo_1201680" data-name="Grupo 1201680">
          <g id="Grupo_1201330" data-name="Grupo 1201330">
            <g id="Grupo_1172010" data-name="Grupo 1172010">
              <g id="Grupo_1171046" data-name="Grupo 1171046">
                <g id="Grupo_1148525" data-name="Grupo 1148525">
                  <g transform="matrix(1, 0, 0, 1, -9, -6)" filter="url(#Trazado_982547)">
                    <g id="Trazado_982547-2" data-name="Trazado 982547" transform="translate(9 6)" fill="#eafafc">
                      <path d="M 50 98.5 C 43.45188522338867 98.5 37.10042953491211 97.21787261962891 31.12207221984863 94.68923950195312 C 25.34691429138184 92.24655914306641 20.15997123718262 88.74931335449219 15.70532894134521 84.29468536376953 C 11.2506856918335 79.84004211425781 7.753442764282227 74.65309906005859 5.310757160186768 68.8779296875 C 2.782128572463989 62.89957046508789 1.5 56.54811477661133 1.5 50 C 1.5 43.45188522338867 2.782128572463989 37.10042953491211 5.310757160186768 31.12207221984863 C 7.753442764282227 25.34691429138184 11.2506856918335 20.15997123718262 15.70532894134521 15.70532894134521 C 20.15997123718262 11.2506856918335 25.34691429138184 7.753442764282227 31.12207221984863 5.310757160186768 C 37.10042953491211 2.782128572463989 43.45188522338867 1.5 50 1.5 C 56.54811477661133 1.5 62.89957046508789 2.782128572463989 68.8779296875 5.310757160186768 C 74.65309906005859 7.753442764282227 79.84004211425781 11.2506856918335 84.29468536376953 15.70532894134521 C 88.74931335449219 20.15997123718262 92.24655914306641 25.34691429138184 94.68923950195312 31.12207221984863 C 97.21787261962891 37.10042953491211 98.5 43.45188522338867 98.5 50 C 98.5 56.54811477661133 97.21787261962891 62.89957046508789 94.68923950195312 68.8779296875 C 92.24655914306641 74.65309906005859 88.74931335449219 79.84004211425781 84.29468536376953 84.29468536376953 C 79.84004211425781 88.74931335449219 74.65309906005859 92.24655914306641 68.8779296875 94.68923950195312 C 62.89957046508789 97.21787261962891 56.54811477661133 98.5 50 98.5 Z" stroke="none"/>
                      <path d="M 50 3 C 43.65372467041016 3 37.49886322021484 4.242263793945312 31.70639801025391 6.6922607421875 C 26.11003112792969 9.059326171875 21.08335113525391 12.44861602783203 16.76598358154297 16.76598358154297 C 12.44861602783203 21.08335113525391 9.059326171875 26.11003112792969 6.6922607421875 31.70639801025391 C 4.242263793945312 37.49886322021484 3 43.65372467041016 3 50 C 3 56.34627532958984 4.242263793945312 62.50113677978516 6.6922607421875 68.29360198974609 C 9.059326171875 73.88996887207031 12.44861602783203 78.91666412353516 16.76598358154297 83.23401641845703 C 21.08335113525391 87.55138397216797 26.11003112792969 90.940673828125 31.70639801025391 93.3077392578125 C 37.49886322021484 95.75773620605469 43.65372467041016 97 50 97 C 56.34627532958984 97 62.50113677978516 95.75773620605469 68.29360198974609 93.3077392578125 C 73.88996887207031 90.940673828125 78.91666412353516 87.55138397216797 83.23401641845703 83.23401641845703 C 87.55138397216797 78.91666412353516 90.940673828125 73.88996887207031 93.3077392578125 68.29360198974609 C 95.75773620605469 62.50113677978516 97 56.34627532958984 97 50 C 97 43.65372467041016 95.75773620605469 37.49886322021484 93.3077392578125 31.70639801025391 C 90.940673828125 26.11003112792969 87.55138397216797 21.08335113525391 83.23401641845703 16.76598358154297 C 78.91666412353516 12.44861602783203 73.88996887207031 9.059326171875 68.29360198974609 6.6922607421875 C 62.50113677978516 4.242263793945312 56.34627532958984 3 50 3 M 50 0 C 77.61424255371094 0 100 22.38577270507812 100 50 C 100 77.61424255371094 77.61424255371094 100 50 100 C 22.38577270507812 100 0 77.61424255371094 0 50 C 0 22.38577270507812 22.38577270507812 0 50 0 Z" stroke="none" fill="#3ad1e9"/>
                    </g>
                  </g>
                </g>
              </g>
            </g>
          </g>
        </g>
      </g>
    </g>
    <g id="robo-advisory_17442897" transform="translate(1218.487 2274.558)">
      <g id="Grupo_1202852" data-name="Grupo 1202852" transform="translate(22.269 21.045)">
        <path id="Trazado_1042836" data-name="Trazado 1042836" d="M295.623,234.09H290.24c.036.039.075.075.11.11a7.666,7.666,0,0,1,3.571,6.484,5.685,5.685,0,0,1-.947,3.189h2.648a3.338,3.338,0,0,0,3.331-3.328v-3.126a3.341,3.341,0,0,0-3.331-3.329Z" transform="translate(-253.763 -205.265)" fill="#597da9" fill-rule="evenodd"/>
        <path id="Trazado_1042837" data-name="Trazado 1042837" d="M145.757,339.343v4.815a84.152,84.152,0,0,1-17.437,0V339.33A35.322,35.322,0,0,0,145.757,339.343Z" transform="translate(-114.388 -295.852)" fill="#ced7dd" fill-rule="evenodd"/>
        <path id="Trazado_1042838" data-name="Trazado 1042838" d="M81.182,386.8a44.873,44.873,0,0,1-17.363-3.4c-.138-5.51,2.569-10.965,8.975-10.038a78.326,78.326,0,0,0,16.77,0c6.406-.927,9.113,4.527,8.975,10.038A44.825,44.825,0,0,1,81.182,386.8Z" transform="translate(-58.864 -325.054)" fill="#77a4d7" fill-rule="evenodd"/>
        <path id="Trazado_1042839" data-name="Trazado 1042839" d="M112.372,388.42a45.745,45.745,0,0,1-12.322-1.654c.189-4.524,2.119-10.253,6.193-11.576a78.8,78.8,0,0,0,8.64.2,78.384,78.384,0,0,0,9.275-.252c3.971,1.1,5.684,5.471,5.574,9.879a44.838,44.838,0,0,1-17.359,3.4Z" transform="translate(-90.054 -326.676)" fill="#9cbee4" fill-rule="evenodd"/>
        <path id="Trazado_1042840" data-name="Trazado 1042840" d="M31.591,234.09h5.383c-.036.039-.075.075-.11.11a7.666,7.666,0,0,0-3.571,6.484,5.685,5.685,0,0,0,.947,3.189H31.591a3.338,3.338,0,0,1-3.331-3.328v-3.126a3.341,3.341,0,0,1,3.331-3.329Z" transform="translate(-28.26 -205.265)" fill="#597da9" fill-rule="evenodd"/>
        <path id="Trazado_1042841" data-name="Trazado 1042841" d="M44.683,140.09a2.425,2.425,0,1,1-2.423,2.427A2.425,2.425,0,0,1,44.683,140.09Z" transform="translate(-40.311 -124.353)" fill="#91d3cc" fill-rule="evenodd"/>
        <path id="Trazado_1042842" data-name="Trazado 1042842" d="M307.233,140.09a2.425,2.425,0,1,1-2.423,2.427A2.425,2.425,0,0,1,307.233,140.09Z" transform="translate(-266.304 -124.353)" fill="#91d3cc" fill-rule="evenodd"/>
        <path id="Trazado_1042843" data-name="Trazado 1042843" d="M260.915,27.07H233.772a3.392,3.392,0,0,0-3.612,3.094V36.34a3.391,3.391,0,0,0,3.612,3.094h17.382l-.462,6.88,6.181-6.88h4.042a3.4,3.4,0,0,0,3.612-3.094V30.165A3.4,3.4,0,0,0,260.915,27.07Z" transform="translate(-202.048 -27.07)" fill="#a187bf" fill-rule="evenodd"/>
        <path id="Trazado_1042844" data-name="Trazado 1042844" d="M259.08,64.665h16.967l-.462,6.88,6.181-6.88h4.042a3.4,3.4,0,0,0,3.612-3.094V56.38H262.692a3.4,3.4,0,0,0-3.612,3.1Z" transform="translate(-226.941 -52.299)" fill="#b5a5d0" fill-rule="evenodd"/>
        <path id="Trazado_1042845" data-name="Trazado 1042845" d="M65.188,209.324a7.731,7.731,0,0,1,3.571-6.484c6.91-6.91,20.962-6.91,27.872,0a7.666,7.666,0,0,1,3.571,6.484C100.2,221.608,65.074,221.466,65.188,209.324Z" transform="translate(-60.046 -173.905)" fill="#b3b4b4" fill-rule="evenodd"/>
        <path id="Trazado_1042846" data-name="Trazado 1042846" d="M116.535,225a7.662,7.662,0,0,1,.789,3.395c0,9.926-22.943,11.733-31.686,5.656a5.793,5.793,0,0,1-.561-2.569,7.727,7.727,0,0,1,3.571-6.488c6.91-6.91,20.962-6.91,27.868,0Z" transform="translate(-77.166 -192.971)" fill="#c8c8c8" fill-rule="evenodd"/>
        <path id="Trazado_1042847" data-name="Trazado 1042847" d="M149.84,167.56h7.865a2.085,2.085,0,0,1,2.076,2.08v2.9a23.427,23.427,0,0,0-12.022,0v-2.9A2.086,2.086,0,0,1,149.84,167.56Z" transform="translate(-131.121 -147.999)" fill="#597da9" fill-rule="evenodd"/>
        <path id="Trazado_1042848" data-name="Trazado 1042848" d="M135.249,427.24h12.314a1.47,1.47,0,0,1,1.465,1.468v3.943a47.526,47.526,0,0,1-15.248,0v-3.943A1.472,1.472,0,0,1,135.249,427.24Z" transform="translate(-119.088 -371.522)" fill="#67c6ba" fill-rule="evenodd"/>
        <path id="Trazado_1042849" data-name="Trazado 1042849" d="M135.249,427.24h12.314a1.585,1.585,0,0,1,1.465,1.674v1.768a41.929,41.929,0,0,1-15.248,0v-1.768A1.586,1.586,0,0,1,135.249,427.24Z" transform="translate(-119.088 -371.522)" fill="#91d3cc" fill-rule="evenodd"/>
        <path id="Trazado_1042850" data-name="Trazado 1042850" d="M114.361,236.78h16.554a2.78,2.78,0,0,1,2.771,2.771v4.309a2.78,2.78,0,0,1-2.771,2.771H114.361a2.78,2.78,0,0,1-2.771-2.771v-4.309A2.78,2.78,0,0,1,114.361,236.78Z" transform="translate(-99.987 -207.581)" fill="#67c6ba" fill-rule="evenodd"/>
        <path id="Trazado_1042851" data-name="Trazado 1042851" d="M114.051,236.78h17.193a2.633,2.633,0,0,1,2.451,2.771v1.527a2.633,2.633,0,0,1-2.451,2.771H114.051a2.633,2.633,0,0,1-2.451-2.771v-1.527A2.631,2.631,0,0,1,114.051,236.78Z" transform="translate(-99.996 -207.581)" fill="#91d3cc" fill-rule="evenodd"/>
        <path id="Trazado_1042852" data-name="Trazado 1042852" d="M141.166,260.45a1.628,1.628,0,1,1-1.626,1.63A1.631,1.631,0,0,1,141.166,260.45Z" transform="translate(-124.046 -227.955)" fill="#597da9" fill-rule="evenodd"/>
        <path id="Trazado_1042853" data-name="Trazado 1042853" d="M220.57,260.45a1.628,1.628,0,1,1-1.63,1.63A1.627,1.627,0,0,1,220.57,260.45Z" transform="translate(-192.39 -227.955)" fill="#597da9" fill-rule="evenodd"/>
        <path id="Trazado_1042854" data-name="Trazado 1042854" d="M264.412,346.31a9.1,9.1,0,1,1-9.1,9.1A9.106,9.106,0,0,1,264.412,346.31Z" transform="translate(-223.696 -301.86)" fill="#fee621" fill-rule="evenodd"/>
        <path id="Trazado_1042855" data-name="Trazado 1042855" d="M290.735,351.5a9.1,9.1,0,0,1-3.425,17.481,9.1,9.1,0,0,1,3.425-17.481Z" transform="translate(-246.463 -306.327)" fill="#f8ed3a" fill-rule="evenodd"/>
      </g>
      <path id="Trazado_1042856" data-name="Trazado 1042856" d="M60.119,79.308a.973.973,0,0,1,1.074-1.622,4.635,4.635,0,0,0,1.8.62c.9,0,1.891-.533,1.891-1.366,0-2.356-5.731-.2-5.731-4.685A3.436,3.436,0,0,1,62,69.049v-.7a.977.977,0,0,1,1.007-.975v0a.974.974,0,0,1,.97.99l-.015.675a4.079,4.079,0,0,1,1.729.848.973.973,0,1,1-1.266,1.477c-1.16-.99-3.324-.344-3.324.884,0,2.356,5.727.2,5.727,4.685a3.44,3.44,0,0,1-2.865,3.209l-.011.691a.975.975,0,0,1-1.949,0v-.734a7.188,7.188,0,0,1-1.882-.8Zm2.87-14.788a10.079,10.079,0,1,1-6.54,17.746,46.547,46.547,0,0,1-11.86,1.5,45.658,45.658,0,0,1-17.733-3.473.969.969,0,0,1-.6-.94,16.437,16.437,0,0,1,.155-2.661c.691-4.752,3.584-8.616,8.814-8.4V65.258c-3.244-.99-5.925-2.534-7.439-4.63H25.6a4.312,4.312,0,0,1-4.3-4.3V53.2a4.313,4.313,0,0,1,4.3-4.307H30.71a18.565,18.565,0,0,1,7.231-4.045V42.686a3.059,3.059,0,0,1,3.051-3.055h7.865a3.061,3.061,0,0,1,3.055,3.055v2.162a18.581,18.581,0,0,1,7.306,4.12,47.436,47.436,0,0,1,4.918-.075,4.313,4.313,0,0,1,4.3,4.307v3.126a4.312,4.312,0,0,1-4.3,4.3H62.05c-1.516,2.108-4.2,3.651-7.432,4.638v3.016c.17,0,.336.013.5.024a10.052,10.052,0,0,1,7.874-3.786ZM54.922,80.642A10.1,10.1,0,0,1,53.9,70.23l-.785.084h0l-.032,0a79.722,79.722,0,0,1-8.489.458,79.678,79.678,0,0,1-8.427-.45,1.187,1.187,0,0,1-.157-.02,8.673,8.673,0,0,0-1.385-.084c-4.6.114-6.346,4.483-6.422,8.509q1.575.633,3.2,1.133V75.4a.975.975,0,1,1,1.949,0v5.013l2.648.6V78.231a2.447,2.447,0,0,1,2.439-2.444H50.746a2.444,2.444,0,0,1,2.439,2.444v2.782c.583-.113,1.164-.235,1.736-.37ZM68.735,68.85a8.129,8.129,0,1,0,0,11.5A8.132,8.132,0,0,0,68.735,68.85ZM50.449,52.565a2.6,2.6,0,1,1-2.6,2.605,2.608,2.608,0,0,1,2.6-2.605Zm.465,2.143a.654.654,0,0,0-.927.923A.654.654,0,0,0,50.914,54.708Zm-11.52-2.143a2.6,2.6,0,1,1-2.605,2.605A2.606,2.606,0,0,1,39.394,52.565Zm.462,2.143a.653.653,0,0,0-.923.923A.653.653,0,0,0,39.856,54.708Zm-3.214-5.439H53.2a3.754,3.754,0,0,1,3.745,3.745v4.309A3.756,3.756,0,0,1,53.2,61.07H36.643A3.756,3.756,0,0,1,32.9,57.324V53.015a3.754,3.754,0,0,1,3.745-3.745ZM53.2,51.219H36.643a1.805,1.805,0,0,0-1.8,1.8v4.309a1.805,1.805,0,0,0,1.8,1.8H53.2a1.8,1.8,0,0,0,1.8-1.8V53.015a1.8,1.8,0,0,0-1.795-1.8ZM51.235,81.341V78.231a.5.5,0,0,0-.49-.493H38.43a.5.5,0,0,0-.49.493v3.111A46.331,46.331,0,0,0,51.235,81.341ZM27.62,47.809a.975.975,0,0,1-1.949,0V43.878a.975.975,0,0,1,1.949,0Zm36.557,0a.975.975,0,0,1-1.949,0V43.878a.975.975,0,0,1,1.949,0ZM39.232,46.5a.818.818,0,0,1-.134.036,16.7,16.7,0,0,0-7.424,4.128.934.934,0,0,1-.17.134,6.768,6.768,0,0,0-3.118,5.671c-.039,4.109,4.761,6.417,9.35,7.428a35.058,35.058,0,0,0,14.173.056c4.554-.964,9.547-3.248,9.547-7.491A6.709,6.709,0,0,0,58.4,50.84l-.228-.174c-4.756-4.7-12.643-5.841-18.938-4.163Zm10.727-2.155V42.686a1.111,1.111,0,0,0-1.106-1.106H40.988a1.107,1.107,0,0,0-1.1,1.106v1.661A24.453,24.453,0,0,1,49.959,44.347ZM26.445,56.461a8.751,8.751,0,0,1,2.076-5.617H25.6A2.364,2.364,0,0,0,23.248,53.2v3.126A2.363,2.363,0,0,0,25.6,58.678H26.78A6.881,6.881,0,0,1,26.445,56.461Zm34.748-5.767a8.4,8.4,0,0,1,1.863,7.984c1.058,0,1.919.131,2.739-.691a2.344,2.344,0,0,0,.691-1.661V53.2a2.364,2.364,0,0,0-2.352-2.356c-.841,0-1.927-.067-2.941-.15ZM52.667,65.779a37.05,37.05,0,0,1-15.491-.008v2.7a78.252,78.252,0,0,0,15.491-.067ZM76.052,29.744a.975.975,0,1,1,0,1.949H70.278a.975.975,0,0,1,0-1.949Zm-10.81-2.282a.975.975,0,0,1,0,1.949h-7.6a.975.975,0,0,1,0-1.949Zm14.844-3.713a.975.975,0,0,1,0,1.949H55.047a.975.975,0,1,1,0-1.949Zm1.054-1.729H53.993c-1.314,0-2.637.856-2.637,2.119v6.177c0,1.259,1.323,2.119,2.637,2.119H71.379a.974.974,0,0,1,.966,1.1l-.273,4.01,4.3-4.784a.97.97,0,0,1,.723-.323H81.14c1.31,0,2.637-.86,2.637-2.119V24.14C83.777,22.877,82.45,22.019,81.14,22.019ZM53.993,20.07H81.14c2.38,0,4.586,1.708,4.586,4.07v6.177c0,2.36-2.207,4.07-4.586,4.07H77.528l-5.892,6.555a.974.974,0,0,1-1.693-.714l.394-5.841H53.993c-2.384,0-4.586-1.708-4.586-4.07V24.14c0-2.36,2.2-4.07,4.586-4.07ZM63.2,35.807a3.4,3.4,0,1,1-3.4,3.4A3.405,3.405,0,0,1,63.2,35.807Zm1.026,2.375a1.452,1.452,0,1,0,0,2.052A1.453,1.453,0,0,0,64.228,38.182ZM26.645,35.807a3.4,3.4,0,1,1-3.4,3.4A3.405,3.405,0,0,1,26.645,35.807Zm1.026,2.375a1.452,1.452,0,1,0,0,2.052A1.453,1.453,0,0,0,27.671,38.182Z" transform="translate(0)"/>
    </g>
  </g>
</svg>
