<svg xmlns="http://www.w3.org/2000/svg" xmlns:xlink="http://www.w3.org/1999/xlink" width="610.16" height="610.16" viewBox="0 0 610.16 610.16">
  <defs>
    <clipPath id="clip-path">
      <rect id="Rectángulo_417732" data-name="Rectángulo 417732" width="610.16" height="610.16" fill="none"/>
    </clipPath>
    <filter id="Trazado_1042353" x="223.146" y="25.888" width="164.29" height="164.29" filterUnits="userSpaceOnUse">
      <feOffset dy="3" input="SourceAlpha"/>
      <feGaussianBlur stdDeviation="3" result="blur"/>
      <feFlood flood-opacity="0.161"/>
      <feComposite operator="in" in2="blur"/>
      <feComposite in="SourceGraphic"/>
    </filter>
    <clipPath id="clip-path-3">
      <rect id="Rectángulo_417727" data-name="Rectángulo 417727" width="167.87" height="45.822" fill="none"/>
    </clipPath>
    <filter id="Trazado_1042372" x="223.146" y="425.981" width="164.29" height="164.292" filterUnits="userSpaceOnUse">
      <feOffset dy="3" input="SourceAlpha"/>
      <feGaussianBlur stdDeviation="3" result="blur-2"/>
      <feFlood flood-opacity="0.161"/>
      <feComposite operator="in" in2="blur-2"/>
      <feComposite in="SourceGraphic"/>
    </filter>
    <clipPath id="clip-path-4">
      <rect id="Rectángulo_417728" data-name="Rectángulo 417728" width="167.87" height="45.823" fill="none"/>
    </clipPath>
    <filter id="Trazado_1042391" x="422.982" y="225.931" width="164.29" height="164.29" filterUnits="userSpaceOnUse">
      <feOffset dy="3" input="SourceAlpha"/>
      <feGaussianBlur stdDeviation="3" result="blur-3"/>
      <feFlood flood-opacity="0.161"/>
      <feComposite operator="in" in2="blur-3"/>
      <feComposite in="SourceGraphic"/>
    </filter>
    <clipPath id="clip-path-5">
      <rect id="Rectángulo_417729" data-name="Rectángulo 417729" width="45.823" height="167.87" fill="none"/>
    </clipPath>
    <filter id="Trazado_1042410" x="22.887" y="225.932" width="164.29" height="164.29" filterUnits="userSpaceOnUse">
      <feOffset dy="3" input="SourceAlpha"/>
      <feGaussianBlur stdDeviation="3" result="blur-4"/>
      <feFlood flood-opacity="0.161"/>
      <feComposite operator="in" in2="blur-4"/>
      <feComposite in="SourceGraphic"/>
    </filter>
    <clipPath id="clip-path-6">
      <rect id="Rectángulo_417730" data-name="Rectángulo 417730" width="45.822" height="167.87" fill="#5a1a8a"/>
    </clipPath>
    <filter id="Trazado_1042450" x="296.291" y="209.158" width="217.835" height="197.836" filterUnits="userSpaceOnUse">
      <feOffset dy="3" input="SourceAlpha"/>
      <feGaussianBlur stdDeviation="3" result="blur-5"/>
      <feFlood flood-opacity="0.161"/>
      <feComposite operator="in" in2="blur-5"/>
      <feComposite in="SourceGraphic"/>
    </filter>
    <filter id="Trazado_1042451" x="96.032" y="209.158" width="218.26" height="197.836" filterUnits="userSpaceOnUse">
      <feOffset dy="3" input="SourceAlpha"/>
      <feGaussianBlur stdDeviation="3" result="blur-6"/>
      <feFlood flood-opacity="0.161"/>
      <feComposite operator="in" in2="blur-6"/>
      <feComposite in="SourceGraphic"/>
    </filter>
    <filter id="Trazado_1042452" x="206.162" y="299.077" width="198.048" height="218.051" filterUnits="userSpaceOnUse">
      <feOffset dy="3" input="SourceAlpha"/>
      <feGaussianBlur stdDeviation="3" result="blur-7"/>
      <feFlood flood-opacity="0.161"/>
      <feComposite operator="in" in2="blur-7"/>
      <feComposite in="SourceGraphic"/>
    </filter>
    <filter id="Trazado_1042453" x="206.374" y="99.032" width="197.623" height="218.045" filterUnits="userSpaceOnUse">
      <feOffset dy="3" input="SourceAlpha"/>
      <feGaussianBlur stdDeviation="3" result="blur-8"/>
      <feFlood flood-opacity="0.161"/>
      <feComposite operator="in" in2="blur-8"/>
      <feComposite in="SourceGraphic"/>
    </filter>
    <clipPath id="clip-path-7">
      <path id="path21" d="M0-682.665H39.432v39.432H0Z" transform="translate(0 682.665)" fill="#0b0a0a"/>
    </clipPath>
    <filter id="Elipse_12526" x="216" y="219.768" width="178" height="178" filterUnits="userSpaceOnUse">
      <feOffset dy="3" input="SourceAlpha"/>
      <feGaussianBlur stdDeviation="3" result="blur-9"/>
      <feFlood flood-opacity="0.161"/>
      <feComposite operator="in" in2="blur-9"/>
      <feComposite in="SourceGraphic"/>
    </filter>
    <clipPath id="clip-path-8">
      <rect id="Rectángulo_417734" data-name="Rectángulo 417734" width="210.817" height="239.999" fill="none"/>
    </clipPath>
  </defs>
  <g id="Grupo_1202720" data-name="Grupo 1202720" transform="translate(-495 -3082.232)">
    <g id="Grupo_1202710" data-name="Grupo 1202710">
      <g id="Grupo_1202706" data-name="Grupo 1202706" transform="translate(495 3083.232)">
        <g id="Grupo_1202705" data-name="Grupo 1202705" transform="translate(0 -1)" clip-path="url(#clip-path)">
          <g id="Grupo_1202704" data-name="Grupo 1202704">
            <g id="Grupo_1202703" data-name="Grupo 1202703" clip-path="url(#clip-path)">
              <path id="Trazado_1042352" data-name="Trazado 1042352" d="M354.709,18.583A89.918,89.918,0,1,0,444.627,108.5a89.917,89.917,0,0,0-89.918-89.918m0,163.063A73.145,73.145,0,1,1,427.854,108.5a73.145,73.145,0,0,1-73.145,73.145" transform="translate(-49.417 -3.468)" fill="#3ad1e9"/>
              <g transform="matrix(1, 0, 0, 1, 0, 0)" filter="url(#Trazado_1042353)">
                <path id="Trazado_1042353-2" data-name="Trazado 1042353" d="M285.412,112.349a73.145,73.145,0,1,1,73.145,73.145,73.145,73.145,0,0,1-73.145-73.145" transform="translate(-53.27 -7.32)" fill="#8eecfc"/>
              </g>
              <g id="Grupo_1202693" data-name="Grupo 1202693" transform="translate(221.145)" opacity="0.7">
                <g id="Grupo_1202692" data-name="Grupo 1202692">
                  <g id="Grupo_1202691" data-name="Grupo 1202691" clip-path="url(#clip-path-3)">
                    <path id="Trazado_1042354" data-name="Trazado 1042354" d="M377.345,2.94A2.94,2.94,0,1,1,374.4,0a2.94,2.94,0,0,1,2.94,2.94" transform="translate(-290.47)" fill="#0a62a5"/>
                    <path id="Trazado_1042355" data-name="Trazado 1042355" d="M360.936,3.631a2.94,2.94,0,1,1-3.3-2.53,2.938,2.938,0,0,1,3.3,2.53" transform="translate(-287.412 -0.201)" fill="#0a62a5"/>
                    <path id="Trazado_1042356" data-name="Trazado 1042356" d="M344.758,6.456a2.94,2.94,0,1,1-3.6-2.078,2.94,2.94,0,0,1,3.6,2.078" transform="translate(-284.407 -0.798)" fill="#0a62a5"/>
                    <path id="Trazado_1042357" data-name="Trazado 1042357" d="M329.087,11.369a2.94,2.94,0,1,1-3.841-1.591,2.94,2.94,0,0,1,3.841,1.591" transform="translate(-281.506 -1.783)" fill="#0a62a5"/>
                    <path id="Trazado_1042358" data-name="Trazado 1042358" d="M314.192,18.287a2.94,2.94,0,1,1-4.016-1.076,2.939,2.939,0,0,1,4.016,1.076" transform="translate(-278.758 -3.138)" fill="#0a62a5"/>
                    <path id="Trazado_1042359" data-name="Trazado 1042359" d="M300.327,27.088a2.94,2.94,0,1,1-4.122-.543,2.938,2.938,0,0,1,4.122.543" transform="translate(-276.21 -4.841)" fill="#0a62a5"/>
                    <path id="Trazado_1042360" data-name="Trazado 1042360" d="M287.729,37.624a2.94,2.94,0,1,1-4.158,0,2.939,2.939,0,0,1,4.158,0" transform="translate(-273.906 -6.861)" fill="#0a62a5"/>
                    <path id="Trazado_1042361" data-name="Trazado 1042361" d="M276.616,49.715a2.94,2.94,0,1,1-4.122.543,2.94,2.94,0,0,1,4.122-.543" transform="translate(-271.886 -9.165)" fill="#0a62a5"/>
                    <path id="Trazado_1042362" data-name="Trazado 1042362" d="M287.729,37.624a2.94,2.94,0,1,1-4.158,0,2.939,2.939,0,0,1,4.158,0" transform="translate(-273.906 -6.861)" fill="#0a62a5"/>
                    <path id="Trazado_1042363" data-name="Trazado 1042363" d="M276.616,49.715a2.94,2.94,0,1,1-4.122.543,2.94,2.94,0,0,1,4.122-.543" transform="translate(-271.886 -9.165)" fill="#0a62a5"/>
                    <path id="Trazado_1042364" data-name="Trazado 1042364" d="M387.873,3.631a2.94,2.94,0,1,0,3.3-2.53,2.939,2.939,0,0,0-3.3,2.53" transform="translate(-293.527 -0.201)" fill="#0a62a5"/>
                    <path id="Trazado_1042365" data-name="Trazado 1042365" d="M404.052,6.456a2.939,2.939,0,1,0,3.6-2.078,2.94,2.94,0,0,0-3.6,2.078" transform="translate(-296.533 -0.798)" fill="#0a62a5"/>
                    <path id="Trazado_1042366" data-name="Trazado 1042366" d="M419.722,11.369a2.94,2.94,0,1,0,3.841-1.591,2.94,2.94,0,0,0-3.841,1.591" transform="translate(-299.434 -1.783)" fill="#0a62a5"/>
                    <path id="Trazado_1042367" data-name="Trazado 1042367" d="M434.617,18.287a2.94,2.94,0,1,0,4.015-1.076,2.938,2.938,0,0,0-4.015,1.076" transform="translate(-302.182 -3.138)" fill="#0a62a5"/>
                    <path id="Trazado_1042368" data-name="Trazado 1042368" d="M448.483,27.088a2.94,2.94,0,1,0,4.121-.543,2.94,2.94,0,0,0-4.121.543" transform="translate(-304.73 -4.841)" fill="#0a62a5"/>
                    <path id="Trazado_1042369" data-name="Trazado 1042369" d="M461.079,37.624a2.94,2.94,0,1,0,4.158,0,2.94,2.94,0,0,0-4.158,0" transform="translate(-307.034 -6.861)" fill="#0a62a5"/>
                    <path id="Trazado_1042370" data-name="Trazado 1042370" d="M472.193,49.715a2.94,2.94,0,1,0,4.122.543,2.939,2.939,0,0,0-4.122-.543" transform="translate(-309.054 -9.165)" fill="#0a62a5"/>
                  </g>
                </g>
              </g>
              <path id="Trazado_1042371" data-name="Trazado 1042371" d="M354.709,690.314A89.918,89.918,0,1,0,264.791,600.4a89.918,89.918,0,0,0,89.918,89.918m0-163.063A73.145,73.145,0,1,1,281.564,600.4a73.146,73.146,0,0,1,73.145-73.146" transform="translate(-49.417 -95.269)" fill="#15da7e"/>
              <g transform="matrix(1, 0, 0, 1, 0, 0)" filter="url(#Trazado_1042372)">
                <path id="Trazado_1042372-2" data-name="Trazado 1042372" d="M431.7,604.245A73.145,73.145,0,1,1,358.557,531.1,73.145,73.145,0,0,1,431.7,604.245" transform="translate(-53.27 -99.12)" fill="#98fccd"/>
              </g>
              <g id="Grupo_1202696" data-name="Grupo 1202696" transform="translate(221.145 564.337)" opacity="0.7">
                <g id="Grupo_1202695" data-name="Grupo 1202695">
                  <g id="Grupo_1202694" data-name="Grupo 1202694" clip-path="url(#clip-path-4)">
                    <path id="Trazado_1042373" data-name="Trazado 1042373" d="M371.465,745.871a2.94,2.94,0,1,1,2.94,2.939,2.94,2.94,0,0,1-2.94-2.939" transform="translate(-290.47 -702.988)" fill="#00aa87"/>
                    <path id="Trazado_1042374" data-name="Trazado 1042374" d="M387.873,745.18a2.94,2.94,0,1,1,3.3,2.53,2.939,2.939,0,0,1-3.3-2.53" transform="translate(-293.527 -702.788)" fill="#00aa87"/>
                    <path id="Trazado_1042375" data-name="Trazado 1042375" d="M404.052,742.354a2.939,2.939,0,1,1,3.6,2.08,2.939,2.939,0,0,1-3.6-2.08" transform="translate(-296.533 -702.19)" fill="#00aa87"/>
                    <path id="Trazado_1042376" data-name="Trazado 1042376" d="M419.722,737.441a2.94,2.94,0,1,1,3.841,1.591,2.94,2.94,0,0,1-3.841-1.591" transform="translate(-299.434 -701.205)" fill="#00aa87"/>
                    <path id="Trazado_1042377" data-name="Trazado 1042377" d="M434.617,730.524a2.94,2.94,0,1,1,4.015,1.076,2.938,2.938,0,0,1-4.015-1.076" transform="translate(-302.182 -699.849)" fill="#00aa87"/>
                    <path id="Trazado_1042378" data-name="Trazado 1042378" d="M448.483,721.723a2.94,2.94,0,1,1,4.121.542,2.94,2.94,0,0,1-4.121-.542" transform="translate(-304.73 -698.147)" fill="#00aa87"/>
                    <path id="Trazado_1042379" data-name="Trazado 1042379" d="M461.079,711.186a2.94,2.94,0,1,1,4.158,0,2.94,2.94,0,0,1-4.158,0" transform="translate(-307.034 -696.127)" fill="#00aa87"/>
                    <path id="Trazado_1042380" data-name="Trazado 1042380" d="M472.193,699.1a2.94,2.94,0,1,1,4.122-.542,2.94,2.94,0,0,1-4.122.542" transform="translate(-309.054 -693.823)" fill="#00aa87"/>
                    <path id="Trazado_1042381" data-name="Trazado 1042381" d="M461.079,711.186a2.94,2.94,0,1,1,4.158,0,2.94,2.94,0,0,1-4.158,0" transform="translate(-307.034 -696.127)" fill="#00aa87"/>
                    <path id="Trazado_1042382" data-name="Trazado 1042382" d="M472.193,699.1a2.94,2.94,0,1,1,4.122-.542,2.94,2.94,0,0,1-4.122.542" transform="translate(-309.054 -693.823)" fill="#00aa87"/>
                    <path id="Trazado_1042383" data-name="Trazado 1042383" d="M360.936,745.18a2.94,2.94,0,1,0-3.3,2.53,2.938,2.938,0,0,0,3.3-2.53" transform="translate(-287.412 -702.788)" fill="#00aa87"/>
                    <path id="Trazado_1042384" data-name="Trazado 1042384" d="M344.758,742.354a2.94,2.94,0,1,0-3.6,2.08,2.939,2.939,0,0,0,3.6-2.08" transform="translate(-284.407 -702.19)" fill="#00aa87"/>
                    <path id="Trazado_1042385" data-name="Trazado 1042385" d="M329.087,737.441a2.94,2.94,0,1,0-3.841,1.591,2.94,2.94,0,0,0,3.841-1.591" transform="translate(-281.506 -701.205)" fill="#00aa87"/>
                    <path id="Trazado_1042386" data-name="Trazado 1042386" d="M314.192,730.524a2.94,2.94,0,1,0-4.016,1.076,2.94,2.94,0,0,0,4.016-1.076" transform="translate(-278.758 -699.849)" fill="#00aa87"/>
                    <path id="Trazado_1042387" data-name="Trazado 1042387" d="M300.327,721.723a2.94,2.94,0,1,0-4.122.542,2.939,2.939,0,0,0,4.122-.542" transform="translate(-276.21 -698.147)" fill="#00aa87"/>
                    <path id="Trazado_1042388" data-name="Trazado 1042388" d="M287.729,711.186a2.94,2.94,0,1,0-4.158,0,2.939,2.939,0,0,0,4.158,0" transform="translate(-273.906 -696.127)" fill="#00aa87"/>
                    <path id="Trazado_1042389" data-name="Trazado 1042389" d="M276.616,699.1a2.94,2.94,0,1,0-4.122-.542,2.941,2.941,0,0,0,4.122.542" transform="translate(-271.886 -693.823)" fill="#00aa87"/>
                  </g>
                </g>
              </g>
              <path id="Trazado_1042390" data-name="Trazado 1042390" d="M690.314,354.444A89.918,89.918,0,1,0,600.4,444.362a89.919,89.919,0,0,0,89.918-89.918m-163.063,0A73.145,73.145,0,1,1,600.4,427.589a73.146,73.146,0,0,1-73.145-73.145" transform="translate(-95.269 -49.368)" fill="#d5e6f8"/>
              <g transform="matrix(1, 0, 0, 1, 0, 0)" filter="url(#Trazado_1042391)">
                <path id="Trazado_1042391-2" data-name="Trazado 1042391" d="M604.245,285.147A73.145,73.145,0,1,1,531.1,358.293a73.146,73.146,0,0,1,73.145-73.146" transform="translate(-99.12 -53.22)" fill="#9cc6f5"/>
              </g>
              <g id="Grupo_1202699" data-name="Grupo 1202699" transform="translate(564.337 221.141)" opacity="0.7">
                <g id="Grupo_1202698" data-name="Grupo 1202698">
                  <g id="Grupo_1202697" data-name="Grupo 1202697" clip-path="url(#clip-path-5)">
                    <path id="Trazado_1042392" data-name="Trazado 1042392" d="M745.87,377.341a2.94,2.94,0,1,1,2.94-2.94,2.94,2.94,0,0,1-2.94,2.94" transform="translate(-702.988 -290.466)" fill="#008cb4"/>
                    <path id="Trazado_1042393" data-name="Trazado 1042393" d="M745.18,360.933a2.94,2.94,0,1,1,2.53-3.3,2.941,2.941,0,0,1-2.53,3.3" transform="translate(-702.787 -287.409)" fill="#008cb4"/>
                    <path id="Trazado_1042394" data-name="Trazado 1042394" d="M742.355,344.755a2.94,2.94,0,1,1,2.079-3.6,2.94,2.94,0,0,1-2.079,3.6" transform="translate(-702.19 -284.403)" fill="#008cb4"/>
                    <path id="Trazado_1042395" data-name="Trazado 1042395" d="M737.44,329.084a2.94,2.94,0,1,1,1.591-3.841,2.941,2.941,0,0,1-1.591,3.841" transform="translate(-701.204 -281.502)" fill="#008cb4"/>
                    <path id="Trazado_1042396" data-name="Trazado 1042396" d="M730.524,314.188a2.94,2.94,0,1,1,1.076-4.016,2.937,2.937,0,0,1-1.076,4.016" transform="translate(-699.849 -278.754)" fill="#008cb4"/>
                    <path id="Trazado_1042397" data-name="Trazado 1042397" d="M721.722,300.323a2.94,2.94,0,1,1,.543-4.122,2.937,2.937,0,0,1-.543,4.122" transform="translate(-698.147 -276.206)" fill="#008cb4"/>
                    <path id="Trazado_1042398" data-name="Trazado 1042398" d="M711.185,287.727a2.94,2.94,0,1,1,0-4.157,2.941,2.941,0,0,1,0,4.157" transform="translate(-696.127 -273.902)" fill="#008cb4"/>
                    <path id="Trazado_1042399" data-name="Trazado 1042399" d="M699.1,276.612a2.939,2.939,0,1,1-.543-4.122,2.941,2.941,0,0,1,.543,4.122" transform="translate(-693.823 -271.882)" fill="#008cb4"/>
                    <path id="Trazado_1042400" data-name="Trazado 1042400" d="M711.185,287.727a2.94,2.94,0,1,1,0-4.157,2.941,2.941,0,0,1,0,4.157" transform="translate(-696.127 -273.902)" fill="#008cb4"/>
                    <path id="Trazado_1042401" data-name="Trazado 1042401" d="M699.1,276.612a2.939,2.939,0,1,1-.543-4.122,2.941,2.941,0,0,1,.543,4.122" transform="translate(-693.823 -271.882)" fill="#008cb4"/>
                    <path id="Trazado_1042402" data-name="Trazado 1042402" d="M745.18,387.87a2.94,2.94,0,1,0,2.53,3.3,2.94,2.94,0,0,0-2.53-3.3" transform="translate(-702.787 -293.524)" fill="#008cb4"/>
                    <path id="Trazado_1042403" data-name="Trazado 1042403" d="M742.355,404.048a2.94,2.94,0,1,0,2.079,3.6,2.939,2.939,0,0,0-2.079-3.6" transform="translate(-702.19 -296.529)" fill="#008cb4"/>
                    <path id="Trazado_1042404" data-name="Trazado 1042404" d="M737.44,419.717a2.94,2.94,0,1,0,1.591,3.842,2.94,2.94,0,0,0-1.591-3.842" transform="translate(-701.204 -299.43)" fill="#008cb4"/>
                    <path id="Trazado_1042405" data-name="Trazado 1042405" d="M730.524,434.614a2.94,2.94,0,1,0,1.076,4.015,2.94,2.94,0,0,0-1.076-4.015" transform="translate(-699.849 -302.179)" fill="#008cb4"/>
                    <path id="Trazado_1042406" data-name="Trazado 1042406" d="M721.722,448.479a2.939,2.939,0,1,0,.543,4.121,2.939,2.939,0,0,0-.543-4.121" transform="translate(-698.147 -304.726)" fill="#008cb4"/>
                    <path id="Trazado_1042407" data-name="Trazado 1042407" d="M711.185,461.076a2.94,2.94,0,1,0,0,4.158,2.942,2.942,0,0,0,0-4.158" transform="translate(-696.127 -307.03)" fill="#008cb4"/>
                    <path id="Trazado_1042408" data-name="Trazado 1042408" d="M699.1,472.191a2.939,2.939,0,1,0-.543,4.122,2.939,2.939,0,0,0,.543-4.122" transform="translate(-693.823 -309.05)" fill="#008cb4"/>
                  </g>
                </g>
              </g>
              <path id="Trazado_1042409" data-name="Trazado 1042409" d="M18.582,354.444A89.918,89.918,0,1,0,108.5,264.526a89.918,89.918,0,0,0-89.918,89.918m163.063,0A73.145,73.145,0,1,1,108.5,281.3a73.146,73.146,0,0,1,73.146,73.146" transform="translate(-3.468 -49.368)" fill="#e3bffe"/>
              <g transform="matrix(1, 0, 0, 1, 0, 0)" filter="url(#Trazado_1042410)">
                <path id="Trazado_1042410-2" data-name="Trazado 1042410" d="M112.348,431.438a73.145,73.145,0,1,1,73.145-73.145,73.145,73.145,0,0,1-73.145,73.145" transform="translate(-7.32 -53.22)" fill="#a530fe"/>
              </g>
              <g id="Grupo_1202702" data-name="Grupo 1202702" transform="translate(0 221.141)" opacity="0.7">
                <g id="Grupo_1202701" data-name="Grupo 1202701">
                  <g id="Grupo_1202700" data-name="Grupo 1202700" clip-path="url(#clip-path-6)">
                    <path id="Trazado_1042411" data-name="Trazado 1042411" d="M2.94,371.461A2.94,2.94,0,1,1,0,374.4a2.94,2.94,0,0,1,2.94-2.94" transform="translate(0 -290.466)" fill="#5a1a8a"/>
                    <path id="Trazado_1042412" data-name="Trazado 1042412" d="M3.63,387.87a2.94,2.94,0,1,1-2.53,3.3,2.939,2.939,0,0,1,2.53-3.3" transform="translate(-0.2 -293.524)" fill="#5a1a8a"/>
                    <path id="Trazado_1042413" data-name="Trazado 1042413" d="M6.456,404.048a2.94,2.94,0,1,1-2.08,3.6,2.939,2.939,0,0,1,2.08-3.6" transform="translate(-0.798 -296.529)" fill="#5a1a8a"/>
                    <path id="Trazado_1042414" data-name="Trazado 1042414" d="M11.369,419.717a2.94,2.94,0,1,1-1.591,3.842,2.94,2.94,0,0,1,1.591-3.842" transform="translate(-1.783 -299.43)" fill="#5a1a8a"/>
                    <path id="Trazado_1042415" data-name="Trazado 1042415" d="M18.286,434.614a2.94,2.94,0,1,1-1.076,4.015,2.941,2.941,0,0,1,1.076-4.015" transform="translate(-3.138 -302.179)" fill="#5a1a8a"/>
                    <path id="Trazado_1042416" data-name="Trazado 1042416" d="M27.087,448.479a2.939,2.939,0,1,1-.543,4.121,2.94,2.94,0,0,1,.543-4.121" transform="translate(-4.841 -304.726)" fill="#5a1a8a"/>
                    <path id="Trazado_1042417" data-name="Trazado 1042417" d="M37.624,461.076a2.94,2.94,0,1,1,0,4.158,2.942,2.942,0,0,1,0-4.158" transform="translate(-6.861 -307.03)" fill="#5a1a8a"/>
                    <path id="Trazado_1042418" data-name="Trazado 1042418" d="M49.715,472.191a2.939,2.939,0,1,1,.543,4.122,2.939,2.939,0,0,1-.543-4.122" transform="translate(-9.165 -309.05)" fill="#5a1a8a"/>
                    <path id="Trazado_1042419" data-name="Trazado 1042419" d="M37.624,461.076a2.94,2.94,0,1,1,0,4.158,2.942,2.942,0,0,1,0-4.158" transform="translate(-6.861 -307.03)" fill="#5a1a8a"/>
                    <path id="Trazado_1042420" data-name="Trazado 1042420" d="M49.715,472.191a2.939,2.939,0,1,1,.543,4.122,2.939,2.939,0,0,1-.543-4.122" transform="translate(-9.165 -309.05)" fill="#5a1a8a"/>
                    <path id="Trazado_1042421" data-name="Trazado 1042421" d="M3.63,360.933a2.94,2.94,0,1,0-2.53-3.3,2.939,2.939,0,0,0,2.53,3.3" transform="translate(-0.2 -287.409)" fill="#5a1a8a"/>
                    <path id="Trazado_1042422" data-name="Trazado 1042422" d="M6.456,344.755a2.94,2.94,0,1,0-2.08-3.6,2.939,2.939,0,0,0,2.08,3.6" transform="translate(-0.798 -284.403)" fill="#5a1a8a"/>
                    <path id="Trazado_1042423" data-name="Trazado 1042423" d="M11.369,329.084a2.94,2.94,0,1,0-1.591-3.841,2.941,2.941,0,0,0,1.591,3.841" transform="translate(-1.783 -281.502)" fill="#5a1a8a"/>
                    <path id="Trazado_1042424" data-name="Trazado 1042424" d="M18.286,314.188a2.94,2.94,0,1,0-1.076-4.016,2.939,2.939,0,0,0,1.076,4.016" transform="translate(-3.138 -278.754)" fill="#5a1a8a"/>
                    <path id="Trazado_1042425" data-name="Trazado 1042425" d="M27.087,300.323a2.94,2.94,0,1,0-.543-4.122,2.938,2.938,0,0,0,.543,4.122" transform="translate(-4.841 -276.206)" fill="#5a1a8a"/>
                    <path id="Trazado_1042426" data-name="Trazado 1042426" d="M37.624,287.727a2.94,2.94,0,1,0,0-4.157,2.94,2.94,0,0,0,0,4.157" transform="translate(-6.861 -273.902)" fill="#5a1a8a"/>
                    <path id="Trazado_1042427" data-name="Trazado 1042427" d="M49.715,276.612a2.939,2.939,0,1,0,.543-4.122,2.941,2.941,0,0,0-.543,4.122" transform="translate(-9.165 -271.882)" fill="#5a1a8a"/>
                  </g>
                </g>
              </g>
              <path id="Trazado_1042446" data-name="Trazado 1042446" d="M379.846,264.526H375.34c1.511,0,3.014.041,4.506.114Z" transform="translate(-70.049 -49.368)" fill="#1e415a"/>
              <path id="Trazado_1042447" data-name="Trazado 1042447" d="M375.34,485.6h4.506v-.115q-2.239.111-4.506.115" transform="translate(-70.049 -90.604)" fill="#1e415a"/>
              <path id="Trazado_1042448" data-name="Trazado 1042448" d="M375.083,485.624h.209c-.07,0-.139-.006-.209-.006Z" transform="translate(-70.001 -90.629)" fill="#1e415a"/>
              <path id="Trazado_1042449" data-name="Trazado 1042449" d="M375.083,264.532c.07,0,.139-.006.209-.006h-.209Z" transform="translate(-70.001 -49.368)" fill="#1e415a"/>
              <g transform="matrix(1, 0, 0, 1, 0, 0)" filter="url(#Trazado_1042450)">
                <path id="Trazado_1042450-2" data-name="Trazado 1042450" d="M485.258,354.444a89.918,89.918,0,0,1,89.918-89.918H375.34a89.918,89.918,0,0,1,89.918,89.918v89.918H575.175a89.918,89.918,0,0,1-89.918-89.918" transform="translate(-70.05 -49.37)" fill="#617080"/>
              </g>
              <g transform="matrix(1, 0, 0, 1, 0, 0)" filter="url(#Trazado_1042451)">
                <path id="Trazado_1042451-2" data-name="Trazado 1042451" d="M239.473,354.444a89.918,89.918,0,0,1,89.918-89.918H129.131a89.918,89.918,0,0,1,0,179.836h200.26a89.918,89.918,0,0,1-89.918-89.918" transform="translate(-24.1 -49.37)" fill="#5a1a8a"/>
              </g>
              <g transform="matrix(1, 0, 0, 1, 0, 0)" filter="url(#Trazado_1042452)">
                <path id="Trazado_1042452-2" data-name="Trazado 1042452" d="M354.66,464.994H264.53V575.127h.212a89.918,89.918,0,0,1,179.836,0V375.076a89.918,89.918,0,0,1-89.918,89.918" transform="translate(-49.37 -70)" fill="#0b7744"/>
              </g>
              <g transform="matrix(1, 0, 0, 1, 0, 0)" filter="url(#Trazado_1042453)">
                <path id="Trazado_1042453-2" data-name="Trazado 1042453" d="M444.414,239.258V135.011a89.907,89.907,0,0,1-179.623-5.88V329.176a89.918,89.918,0,0,1,89.918-89.918Z" transform="translate(-49.42 -24.1)" fill="#1f727f"/>
              </g>
              <path id="Trazado_1042454" data-name="Trazado 1042454" d="M380.918,264.668c.508.025,1.01.077,1.517.111-.506-.033-1.009-.085-1.517-.111" transform="translate(-71.09 -49.394)" fill="#d5da23"/>
              <path id="Trazado_1042455" data-name="Trazado 1042455" d="M325.58,315.745a57.32,57.32,0,0,1,74.57-1.884.23.23,0,0,0,.02.017l-.024-.055,11.185-1.146L410.2,301.621c-.017-.014-.033-.028-.049-.042a73.147,73.147,0,0,0-96.176,3.348l11.071-.229Z" transform="translate(-58.596 -53.219)" fill="#3ad1e9"/>
              <path id="Trazado_1042456" data-name="Trazado 1042456" d="M315.867,402.683a57.319,57.319,0,0,1-1.884-74.569l.017-.02-.055.024L312.8,316.931l-11.056,1.134-.043.049a73.147,73.147,0,0,0,3.349,96.175l-.229-11.071Z" transform="translate(-53.242 -59.148)" fill="#a530fe"/>
              <path id="Trazado_1042457" data-name="Trazado 1042457" d="M402.979,427.427a57.319,57.319,0,0,1-74.57,1.883l-.02-.017.024.054-11.186,1.147,1.133,11.056.049.042a73.146,73.146,0,0,0,96.176-3.347l-11.071.229Z" transform="translate(-59.203 -79.769)" fill="#15da7e"/>
              <path id="Trazado_1042458" data-name="Trazado 1042458" d="M427.744,325.385a57.319,57.319,0,0,1,1.884,74.57l-.017.02.054-.024,1.147,11.186L441.869,410l.042-.049a73.147,73.147,0,0,0-3.349-96.175l.229,11.07Z" transform="translate(-79.829 -58.56)" fill="#76adea"/>
              <g id="opportunity_4098685" transform="translate(84.83 252.102)">
                <g id="Grupo_1202709" data-name="Grupo 1202709" transform="translate(0 3)">
                  <path id="Trazado_1042466" data-name="Trazado 1042466" d="M23.534,30.681a5.246,5.246,0,0,0,2.562-4.5V25.6a2.335,2.335,0,0,0,2.333-2.333,2.311,2.311,0,0,0-.422-1.332l.277-1.384a7.371,7.371,0,0,0-.044-3.117H29.6V20.3l7.433-5.2L29.6,9.9v2.87H24.941A7.426,7.426,0,0,0,20.947,11.6h-.1V10.433h2.87L18.514,3l-5.2,7.433h2.87V11.6H15.6A3.489,3.489,0,0,0,13,12.766H7.433V9.9L0,15.1l7.433,5.2v-2.87H8.614c-.006.1-.015.205-.015.31a4.955,4.955,0,0,0,.038.617l.439,3.508a2.31,2.31,0,0,0-.477,1.4A2.335,2.335,0,0,0,10.932,25.6v.583a5.247,5.247,0,0,0,2.563,4.5,8.723,8.723,0,0,0-3.729,7.163v1.75h17.5v-1.75A8.726,8.726,0,0,0,23.534,30.681Zm-7.156,1.476-.315-.734c.04,0,.078.006.118.006h.925Zm1.987,1.605h.3l1.4,4.666h-3.1Zm.42-1.167h-.542l-.261-.392.532-.532.532.532Zm1.137-1.166h.925c.04,0,.078-.005.118-.006l-.315.734Zm6.174-7V22.1a1.166,1.166,0,0,1,0,2.333Zm4.666-10.5v-1.8L34.994,15.1l-4.232,2.962v-1.8H27.874a7.488,7.488,0,0,0-1.513-2.333h4.4ZM15.551,9.266l2.963-4.232,2.963,4.232h-1.8V11.6H17.348V9.266Zm.047,3.5h5.349A6.316,6.316,0,0,1,27.14,20.32l-.157.788a2.311,2.311,0,0,0-.886-.177V19.664a4.532,4.532,0,0,0-1.337-3.228l-.825.825a3.376,3.376,0,0,1,1,2.4v.024a7.322,7.322,0,0,0-3.968-2.245l-.7-.139v.941a3.336,3.336,0,0,1-1.126,2.5,10.552,10.552,0,0,0-5.557-2.611l-.316-.045V15.1A2.335,2.335,0,0,1,15.6,12.766Zm-4.666,8.165a2.309,2.309,0,0,0-.78.144l-.358-2.861a3.871,3.871,0,0,1-.029-.472,3.826,3.826,0,0,1,2.46-3.562,3.49,3.49,0,0,0-.127.919v3.275a4.521,4.521,0,0,0-1.14,2.557ZM6.266,16.265v1.8L2.034,15.1l4.232-2.962v1.8h4.122a5,5,0,0,0-1.561,2.333H6.266Zm3.5,7A1.168,1.168,0,0,1,10.932,22.1V24.43A1.168,1.168,0,0,1,9.766,23.264ZM12.1,26.18V21.414a3.372,3.372,0,0,1,.8-2.2l.513.073a9.373,9.373,0,0,1,5.269,2.634l.338.338.4-.265A4.5,4.5,0,0,0,21.4,18.76a6.151,6.151,0,0,1,3.392,2.688l.136.227v4.5a4.087,4.087,0,0,1-4.083,4.083H16.181A4.087,4.087,0,0,1,12.1,26.18ZM10.933,37.845a7.563,7.563,0,0,1,3.8-6.567L15.985,34.2l1.156-1.156.153.229-1.546,5.154H14.431v-3.5H13.265v3.5H10.933Zm15.164.583H23.763v-3.5H22.6v3.5H21.281l-1.546-5.154.153-.229L21.044,34.2,22.3,31.277a7.566,7.566,0,0,1,3.8,6.568Z" transform="translate(0 -3)" fill="#fff"/>
                  <path id="Trazado_1042467" data-name="Trazado 1042467" d="M385,320.324l-2.5-2.5-.825.825L385,321.973l1.361-1.361.846,5.075-5.075-.846,1.361-1.361-3.328-3.328-.825.825,2.5,2.5L379.7,325.62l8.922,1.487-1.487-8.922Z" transform="translate(-351.904 -295.052)" fill="#fff"/>
                  <path id="Trazado_1042468" data-name="Trazado 1042468" d="M12.713,320.153l-3.329,3.328,1.361,1.361-5.076.846.846-5.075,1.361,1.361,3.329-3.329-.825-.825-2.5,2.5-2.139-2.139L4.25,327.107l8.922-1.487-2.139-2.139,2.5-2.5Z" transform="translate(-3.943 -295.052)" fill="#fff"/>
                </g>
              </g>
              <g id="g15" transform="translate(285 740.049)">
                <g id="g17" transform="translate(0 -682.665)">
                  <g id="g19" clip-path="url(#clip-path-7)">
                    <g id="g25" transform="translate(12.785 12.785)">
                      <path id="path27" d="M-226.136-113.068a6.931,6.931,0,0,1-6.931,6.931A6.931,6.931,0,0,1-240-113.068,6.931,6.931,0,0,1-233.068-120,6.931,6.931,0,0,1-226.136-113.068Z" transform="translate(239.999 120)" fill="none" stroke="#0a0909" stroke-linecap="round" stroke-linejoin="round" stroke-miterlimit="10" stroke-width="1.2"/>
                    </g>
                    <g id="g29" transform="translate(17.406 17.406)">
                      <path id="path31" d="M-75.379-37.689a2.311,2.311,0,0,1-2.31,2.31A2.311,2.311,0,0,1-80-37.689,2.311,2.311,0,0,1-77.689-40,2.311,2.311,0,0,1-75.379-37.689Z" transform="translate(80 40)" fill="none" stroke="#0a0909" stroke-linecap="round" stroke-linejoin="round" stroke-miterlimit="10" stroke-width="1.2"/>
                    </g>
                    <g id="g33" transform="translate(27.495 1.155)">
                      <path id="path35" d="M0,0H10.782" fill="none" stroke="#0a0909" stroke-linecap="round" stroke-linejoin="round" stroke-miterlimit="10" stroke-width="1.2"/>
                    </g>
                    <g id="g37" transform="translate(29.035 5.776)">
                      <path id="path39" d="M0,0H9.242" fill="none" stroke="#0a0909" stroke-linecap="round" stroke-linejoin="round" stroke-miterlimit="10" stroke-width="1.2"/>
                    </g>
                    <g id="g41" transform="translate(33.656 33.656)">
                      <path id="path43" d="M-75.379-37.689a2.311,2.311,0,0,1-2.31,2.31A2.311,2.311,0,0,1-80-37.689,2.311,2.311,0,0,1-77.689-40,2.311,2.311,0,0,1-75.379-37.689Z" transform="translate(80 40)" fill="none" stroke="#0a0909" stroke-linecap="round" stroke-linejoin="round" stroke-miterlimit="10" stroke-width="1.2"/>
                    </g>
                    <g id="g45" transform="translate(1.155 33.656)">
                      <path id="path47" d="M0-37.689a2.311,2.311,0,0,0,2.31,2.31,2.311,2.311,0,0,0,2.31-2.31A2.311,2.311,0,0,0,2.31-40,2.311,2.311,0,0,0,0-37.689Z" transform="translate(0 40)" fill="none" stroke="#0a0909" stroke-linecap="round" stroke-linejoin="round" stroke-miterlimit="10" stroke-width="1.2"/>
                    </g>
                    <g id="g49" transform="translate(1.155 1.155)">
                      <path id="path51" d="M0-37.689A2.311,2.311,0,0,1,2.31-40a2.311,2.311,0,0,1,2.31,2.31,2.311,2.311,0,0,1-2.31,2.31A2.311,2.311,0,0,1,0-37.689Z" transform="translate(0 40)" fill="none" stroke="#0a0909" stroke-linecap="round" stroke-linejoin="round" stroke-miterlimit="10" stroke-width="1.2"/>
                    </g>
                    <g id="g53" transform="translate(29.035 28.279)">
                      <path id="path55" d="M0,0V6.147L4.676,7.186" fill="none" stroke="#0a0909" stroke-linecap="round" stroke-linejoin="round" stroke-miterlimit="10" stroke-width="1.2"/>
                    </g>
                    <g id="g57" transform="translate(5.721 28.279)">
                      <path id="path59" d="M-76.278,0V6.147l-4.676,1.039" transform="translate(80.954)" fill="none" stroke="#0a0909" stroke-linecap="round" stroke-linejoin="round" stroke-miterlimit="10" stroke-width="1.2"/>
                    </g>
                    <g id="g61" transform="translate(5.721 3.967)">
                      <path id="path63" d="M-76.278-117.229v-6.147l-4.676-1.039" transform="translate(80.954 124.416)" fill="none" stroke="#0a0909" stroke-linecap="round" stroke-linejoin="round" stroke-miterlimit="10" stroke-width="1.2"/>
                    </g>
                    <g id="g65" transform="translate(1.232 8.164)">
                      <path id="path67" d="M-603.031-188.447s-8.276,11.552-18.484,11.552S-640-188.447-640-188.447-631.723-200-621.514-200-603.031-188.447-603.031-188.447Z" transform="translate(639.998 200)" fill="none" stroke="#0a0909" stroke-linecap="round" stroke-linejoin="round" stroke-miterlimit="10" stroke-width="1.2"/>
                    </g>
                  </g>
                </g>
              </g>
              <path id="Trazado_1043127" data-name="Trazado 1043127" d="M13.874,17H12.311l-1.875-3.141a6.84,6.84,0,0,0-.5-.746,2.85,2.85,0,0,0-.5-.5,1.718,1.718,0,0,0-.547-.285,2.249,2.249,0,0,0-.66-.09H7.155V17H5.843V5.8H9.186a4.765,4.765,0,0,1,1.355.184,3.033,3.033,0,0,1,1.078.559,2.6,2.6,0,0,1,.715.934,3.1,3.1,0,0,1,.258,1.309,3.151,3.151,0,0,1-.176,1.074,2.805,2.805,0,0,1-.5.871,3.031,3.031,0,0,1-.781.652,3.988,3.988,0,0,1-1.027.418v.031a2.363,2.363,0,0,1,.488.285,2.687,2.687,0,0,1,.395.379,5.019,5.019,0,0,1,.371.5q.184.277.41.645ZM7.155,6.984v4.063H8.936a2.7,2.7,0,0,0,.91-.148,2.107,2.107,0,0,0,.723-.426,1.931,1.931,0,0,0,.477-.68,2.275,2.275,0,0,0,.172-.9,1.756,1.756,0,0,0-.582-1.4,2.5,2.5,0,0,0-1.684-.5Zm10.963,10.2a3.711,3.711,0,0,1-2.832-1.121,4.153,4.153,0,0,1-1.059-2.973,4.326,4.326,0,0,1,1.1-3.148,3.96,3.96,0,0,1,2.977-1.133,3.588,3.588,0,0,1,2.793,1.1,4.368,4.368,0,0,1,1,3.055,4.3,4.3,0,0,1-1.082,3.066A3.791,3.791,0,0,1,18.118,17.188Zm.094-7.3a2.437,2.437,0,0,0-1.953.84,3.449,3.449,0,0,0-.719,2.316,3.262,3.262,0,0,0,.727,2.242,2.469,2.469,0,0,0,1.945.82,2.342,2.342,0,0,0,1.91-.8,3.492,3.492,0,0,0,.668-2.289,3.552,3.552,0,0,0-.668-2.312A2.332,2.332,0,0,0,18.211,9.891Zm7.252,5.953h-.031V17H24.151V5.156h1.281v5.25h.031a3.03,3.03,0,0,1,2.766-1.594,2.932,2.932,0,0,1,2.41,1.074,4.436,4.436,0,0,1,.871,2.879,4.959,4.959,0,0,1-.977,3.215,3.251,3.251,0,0,1-2.672,1.207A2.631,2.631,0,0,1,25.463,15.844Zm-.031-3.227v1.117a2.379,2.379,0,0,0,.645,1.684,2.3,2.3,0,0,0,3.461-.2,4.086,4.086,0,0,0,.66-2.477,3.225,3.225,0,0,0-.617-2.094,2.043,2.043,0,0,0-1.672-.758,2.27,2.27,0,0,0-1.8.777A2.854,2.854,0,0,0,25.432,12.617Zm11.47,4.57a3.711,3.711,0,0,1-2.832-1.121,4.153,4.153,0,0,1-1.059-2.973,4.326,4.326,0,0,1,1.1-3.148A3.96,3.96,0,0,1,37.09,8.813a3.588,3.588,0,0,1,2.793,1.1,4.368,4.368,0,0,1,1,3.055A4.3,4.3,0,0,1,39.8,16.035,3.791,3.791,0,0,1,36.9,17.188ZM37,9.891a2.437,2.437,0,0,0-1.953.84,3.449,3.449,0,0,0-.719,2.316,3.262,3.262,0,0,0,.727,2.242,2.469,2.469,0,0,0,1.945.82,2.342,2.342,0,0,0,1.91-.8,3.492,3.492,0,0,0,.668-2.289,3.552,3.552,0,0,0-.668-2.312A2.332,2.332,0,0,0,37,9.891Zm1.875-4.969L36.824,7.484h-.992l1.742-2.562Zm7.775,12a2.47,2.47,0,0,1-1.2.25q-2.1,0-2.1-2.344V10.094H41.974V9h1.375V7.047l1.281-.414V9h2.016v1.094H44.63V14.6A1.869,1.869,0,0,0,44.9,15.75a1.091,1.091,0,0,0,.906.344,1.347,1.347,0,0,0,.836-.266Zm2.369-9.953a.812.812,0,0,1-.586-.234.791.791,0,0,1-.242-.594.821.821,0,0,1,.828-.836.827.827,0,0,1,.6.238.835.835,0,0,1,0,1.184A.82.82,0,0,1,49.015,6.969ZM49.64,17H48.358V9H49.64Zm8.048-.367a4.163,4.163,0,0,1-2.187.555,3.622,3.622,0,0,1-2.762-1.113,4.035,4.035,0,0,1-1.051-2.887,4.435,4.435,0,0,1,1.133-3.176,3.963,3.963,0,0,1,3.023-1.2A4.209,4.209,0,0,1,57.7,9.2v1.313A3.258,3.258,0,0,0,55.8,9.891a2.576,2.576,0,0,0-2.012.879A3.335,3.335,0,0,0,53,13.078a3.176,3.176,0,0,0,.738,2.219,2.545,2.545,0,0,0,1.98.813,3.211,3.211,0,0,0,1.969-.7ZM65.354,17H64.073V15.75h-.031a2.682,2.682,0,0,1-2.461,1.438,2.63,2.63,0,0,1-1.871-.633,2.192,2.192,0,0,1-.676-1.68q0-2.242,2.641-2.609l2.4-.336q0-2.039-1.648-2.039a3.938,3.938,0,0,0-2.609.984V9.563a4.958,4.958,0,0,1,2.719-.75q2.82,0,2.82,2.984Zm-1.281-4.047-1.93.266a3.133,3.133,0,0,0-1.344.441,1.273,1.273,0,0,0-.453,1.121,1.221,1.221,0,0,0,.418.957,1.615,1.615,0,0,0,1.113.371,2.056,2.056,0,0,0,1.574-.668,2.387,2.387,0,0,0,.621-1.691ZM78.521,9l-3.68,9.281q-.984,2.484-2.766,2.484a2.931,2.931,0,0,1-.836-.1V19.516a2.375,2.375,0,0,0,.758.141A1.57,1.57,0,0,0,73.451,18.5l.641-1.516L70.966,9h1.422l2.164,6.156q.039.117.164.609h.047q.039-.187.156-.594L77.193,9Zm12.05,0-3.187,8H86.126L83.095,9H84.5l2.031,5.813a5.217,5.217,0,0,1,.281,1.117h.031a5.283,5.283,0,0,1,.25-1.086L89.22,9ZM92.6,6.969a.812.812,0,0,1-.586-.234.791.791,0,0,1-.242-.594A.821.821,0,0,1,92.6,5.3a.827.827,0,0,1,.6.238.835.835,0,0,1,0,1.184A.82.82,0,0,1,92.6,6.969ZM93.229,17H91.948V9h1.281Zm2.111-.289V15.336a3.792,3.792,0,0,0,2.3.773q1.688,0,1.688-1.125a.976.976,0,0,0-.145-.543,1.44,1.44,0,0,0-.391-.395,3.007,3.007,0,0,0-.578-.309q-.332-.137-.715-.285a9.207,9.207,0,0,1-.934-.426,2.82,2.82,0,0,1-.672-.484,1.8,1.8,0,0,1-.406-.613,2.17,2.17,0,0,1-.137-.8,1.912,1.912,0,0,1,.258-1A2.286,2.286,0,0,1,96.3,9.4a3.206,3.206,0,0,1,.98-.441,4.349,4.349,0,0,1,1.137-.148,4.59,4.59,0,0,1,1.859.359v1.3a3.624,3.624,0,0,0-2.031-.578,2.374,2.374,0,0,0-.648.082,1.587,1.587,0,0,0-.5.23,1.065,1.065,0,0,0-.32.355.936.936,0,0,0-.113.457,1.1,1.1,0,0,0,.113.523,1.152,1.152,0,0,0,.332.375,2.538,2.538,0,0,0,.531.3q.313.133.711.289a9.9,9.9,0,0,1,.953.418,3.269,3.269,0,0,1,.719.484,1.893,1.893,0,0,1,.457.621,2,2,0,0,1,.16.836,1.971,1.971,0,0,1-.262,1.031,2.243,2.243,0,0,1-.7.727,3.2,3.2,0,0,1-1.008.43,4.976,4.976,0,0,1-1.2.141A4.539,4.539,0,0,1,95.34,16.711Zm7.931-9.742a.812.812,0,0,1-.586-.234.791.791,0,0,1-.242-.594.821.821,0,0,1,.828-.836.827.827,0,0,1,.6.238.835.835,0,0,1,0,1.184A.82.82,0,0,1,103.271,6.969ZM103.9,17h-1.281V9H103.9Zm5.939.188A3.711,3.711,0,0,1,107,16.066a4.153,4.153,0,0,1-1.059-2.973,4.326,4.326,0,0,1,1.1-3.148,3.96,3.96,0,0,1,2.977-1.133,3.588,3.588,0,0,1,2.793,1.1,4.368,4.368,0,0,1,1,3.055,4.3,4.3,0,0,1-1.082,3.066A3.791,3.791,0,0,1,109.835,17.188Zm.094-7.3a2.437,2.437,0,0,0-1.953.84,3.449,3.449,0,0,0-.719,2.316,3.262,3.262,0,0,0,.727,2.242,2.469,2.469,0,0,0,1.945.82,2.342,2.342,0,0,0,1.91-.8,3.492,3.492,0,0,0,.668-2.289,3.552,3.552,0,0,0-.668-2.312A2.332,2.332,0,0,0,109.929,9.891ZM111.8,4.922l-2.047,2.563h-.992l1.742-2.562ZM122.509,17h-1.281V12.438q0-2.547-1.859-2.547a2.017,2.017,0,0,0-1.59.723,2.679,2.679,0,0,0-.629,1.824V17h-1.281V9h1.281v1.328h.031a2.887,2.887,0,0,1,2.625-1.516,2.448,2.448,0,0,1,2.008.848,3.776,3.776,0,0,1,.7,2.449ZM43.434,36H42.153V34.75h-.031a2.682,2.682,0,0,1-2.461,1.438,2.63,2.63,0,0,1-1.871-.633,2.192,2.192,0,0,1-.676-1.68q0-2.242,2.641-2.609l2.4-.336q0-2.039-1.648-2.039a3.938,3.938,0,0,0-2.609.984V28.563a4.958,4.958,0,0,1,2.719-.75q2.82,0,2.82,2.984Zm-1.281-4.047-1.93.266a3.133,3.133,0,0,0-1.344.441,1.273,1.273,0,0,0-.453,1.121,1.221,1.221,0,0,0,.418.957,1.615,1.615,0,0,0,1.113.371,2.056,2.056,0,0,0,1.574-.668,2.387,2.387,0,0,0,.621-1.691ZM50.022,29.3a1.567,1.567,0,0,0-.969-.258,1.635,1.635,0,0,0-1.371.773,3.576,3.576,0,0,0-.551,2.109V36H45.85V28h1.281v1.648h.031A2.793,2.793,0,0,1,48,28.332a1.906,1.906,0,0,1,1.258-.473,2.092,2.092,0,0,1,.766.109Zm5.1,6.625a2.47,2.47,0,0,1-1.2.25q-2.1,0-2.1-2.344V29.094H50.453V28h1.375V26.047l1.281-.414V28h2.016v1.094H53.109V33.6a1.869,1.869,0,0,0,.273,1.148,1.091,1.091,0,0,0,.906.344,1.347,1.347,0,0,0,.836-.266Zm2.369-9.953a.812.812,0,0,1-.586-.234.791.791,0,0,1-.242-.594.821.821,0,0,1,.828-.836.827.827,0,0,1,.6.238.835.835,0,0,1,0,1.184A.82.82,0,0,1,57.494,25.969ZM58.119,36H56.837V28h1.281Zm6.548-10.719a1.707,1.707,0,0,0-.852-.211q-1.344,0-1.344,1.7V28h1.875v1.094H62.472V36H61.2V29.094H59.831V28H61.2V26.7a2.7,2.7,0,0,1,.727-1.988,2.453,2.453,0,0,1,1.813-.73,2.511,2.511,0,0,1,.93.141Zm1.713.688a.812.812,0,0,1-.586-.234.791.791,0,0,1-.242-.594.821.821,0,0,1,.828-.836.827.827,0,0,1,.6.238.835.835,0,0,1,0,1.184A.82.82,0,0,1,66.38,25.969ZM67,36H65.723V28H67Zm8.048-.367a4.163,4.163,0,0,1-2.187.555A3.622,3.622,0,0,1,70.1,35.074a4.035,4.035,0,0,1-1.051-2.887,4.435,4.435,0,0,1,1.133-3.176,3.963,3.963,0,0,1,3.023-1.2,4.209,4.209,0,0,1,1.859.391v1.313a3.258,3.258,0,0,0-1.906-.625,2.576,2.576,0,0,0-2.012.879,3.335,3.335,0,0,0-.785,2.309A3.176,3.176,0,0,0,71.1,34.3a2.545,2.545,0,0,0,1.98.813,3.211,3.211,0,0,0,1.969-.7Zm2.6-9.664a.812.812,0,0,1-.586-.234.791.791,0,0,1-.242-.594.821.821,0,0,1,.828-.836.827.827,0,0,1,.6.238.835.835,0,0,1,0,1.184A.82.82,0,0,1,77.649,25.969ZM78.274,36H76.992V28h1.281ZM86.6,36H85.314V34.75h-.031a2.682,2.682,0,0,1-2.461,1.438,2.63,2.63,0,0,1-1.871-.633,2.192,2.192,0,0,1-.676-1.68q0-2.242,2.641-2.609l2.4-.336q0-2.039-1.648-2.039a3.938,3.938,0,0,0-2.609.984V28.563a4.958,4.958,0,0,1,2.719-.75q2.82,0,2.82,2.984Zm-1.281-4.047-1.93.266a3.133,3.133,0,0,0-1.344.441,1.273,1.273,0,0,0-.453,1.121,1.221,1.221,0,0,0,.418.957,1.615,1.615,0,0,0,1.113.371,2.056,2.056,0,0,0,1.574-.668,2.387,2.387,0,0,0,.621-1.691ZM90.292,36H89.011V24.156h1.281Z" transform="translate(241 101.08)" fill="#0b0a0a"/>
              <g id="transformation_12122467" transform="translate(283.299 459.969)">
                <path id="Trazado_1042469" data-name="Trazado 1042469" d="M37.383,31.323a1.165,1.165,0,0,0,1.461-.744l1.066-3.27a.674.674,0,0,0-.429-.844L38,25.982a13.152,13.152,0,0,0,0-3.136l1.012-.328a1.153,1.153,0,0,0,.677-.576,1.129,1.129,0,0,0,.067-.885l-.911-2.8a1.157,1.157,0,0,0-1.461-.744l-1.012.328a13.725,13.725,0,0,0-1.843-2.54l.63-.864a1.165,1.165,0,0,0-.255-1.622l-2.386-1.736a1.165,1.165,0,0,0-1.622.255l-.63.864a13.156,13.156,0,0,0-2.982-.972V10.159A1.16,1.16,0,0,0,26.124,9H23.176a1.16,1.16,0,0,0-1.159,1.159v1.066a13.156,13.156,0,0,0-2.982.972l-.63-.864a1.164,1.164,0,0,0-1.622-.255L14.4,12.813a1.123,1.123,0,0,0-.462.757,1.162,1.162,0,0,0,.208.864l.623.864a13.5,13.5,0,0,0-1.843,2.54l-1.012-.328a1.154,1.154,0,0,0-1.461.744l-.911,2.8a1.154,1.154,0,0,0,.744,1.461l1.012.328a13.152,13.152,0,0,0,0,3.136l-1.481.483a.674.674,0,0,0-.429.844l1.066,3.27a1.153,1.153,0,0,0,.576.677,1.129,1.129,0,0,0,.885.067l1.012-.328a13.5,13.5,0,0,0,1.843,2.54l-.623.864a1.17,1.17,0,0,0-.208.864,1.148,1.148,0,0,0,.462.757l2.386,1.736A1.165,1.165,0,0,0,18.4,37.5l.63-.864a13.156,13.156,0,0,0,2.982.972v1.066a1.16,1.16,0,0,0,1.159,1.159h2.949a1.16,1.16,0,0,0,1.159-1.159V37.609a13.156,13.156,0,0,0,2.982-.972l.623.864a1.159,1.159,0,0,0,1.622.255L34.9,36.021a1.159,1.159,0,0,0,.255-1.622l-.623-.864a13.5,13.5,0,0,0,1.843-2.54Zm-2.118-1.1a12.276,12.276,0,0,1-1.809,2.493,1.166,1.166,0,0,0-.1,1.481l.61.838-2.1,1.521-.61-.838a1.165,1.165,0,0,0-1.441-.362,11.929,11.929,0,0,1-2.922.952,1.163,1.163,0,0,0-.952,1.139V38.48H23.35V37.448a1.163,1.163,0,0,0-.952-1.139,12.071,12.071,0,0,1-2.929-.952,1.165,1.165,0,0,0-1.441.362l-.61.838-2.1-1.521.61-.838a1.157,1.157,0,0,0-.1-1.481,12.276,12.276,0,0,1-1.809-2.493,1.16,1.16,0,0,0-1.374-.55L11.662,30l-.8-2.466.985-.322a1.162,1.162,0,0,0,.791-1.26,11.867,11.867,0,0,1,0-3.083,1.167,1.167,0,0,0-.791-1.26l-.985-.322.8-2.466.985.322a1.169,1.169,0,0,0,1.381-.55A12.276,12.276,0,0,1,15.838,16.1a1.157,1.157,0,0,0,.1-1.481l-.61-.838,2.1-1.521.61.838a1.165,1.165,0,0,0,1.441.362A11.929,11.929,0,0,1,22.4,12.5a1.163,1.163,0,0,0,.952-1.139V10.334h2.593v1.032A1.163,1.163,0,0,0,26.9,12.5a12.071,12.071,0,0,1,2.929.952,1.165,1.165,0,0,0,1.441-.362l.61-.838,2.1,1.521-.61.838a1.157,1.157,0,0,0,.1,1.481,12.276,12.276,0,0,1,1.809,2.493,1.16,1.16,0,0,0,1.374.55l.985-.322.8,2.466-.985.322a1.162,1.162,0,0,0-.791,1.26,11.867,11.867,0,0,1,0,3.083,1.167,1.167,0,0,0,.791,1.26l.985.322L37.631,30l-.985-.322a1.157,1.157,0,0,0-1.374.55Z" transform="translate(-2.748 -2.633)" fill="#0b0a0a"/>
                <path id="Trazado_1042470" data-name="Trazado 1042470" d="M27.052,17A10.052,10.052,0,1,0,37.1,27.052,10.065,10.065,0,0,0,27.052,17Zm0,18.764a8.712,8.712,0,1,1,8.712-8.712A8.72,8.72,0,0,1,27.052,35.764Z" transform="translate(-5.271 -5.271)" fill="#0b0a0a"/>
                <path id="Trazado_1042471" data-name="Trazado 1042471" d="M34.3,28.84h1.005v3.351H34.3v1.34h3.351v-1.34H36.646V28.84h1.005V27.5H34.3Z" transform="translate(-10.978 -8.735)" fill="#0b0a0a"/>
                <path id="Trazado_1042472" data-name="Trazado 1042472" d="M27.913,27.5h-1.34a.681.681,0,0,0-.657.523L24.69,33.531h1.374l.295-1.34h1.756l.295,1.34h1.374l-1.226-5.509A.668.668,0,0,0,27.9,27.5Zm-1.246,3.351.449-2.01h.268l.449,2.01H26.674Z" transform="translate(-7.808 -8.735)" fill="#0b0a0a"/>
                <path id="Trazado_1042473" data-name="Trazado 1042473" d="M33.956,55.012a19.442,19.442,0,0,1-22.973-2.593l1.28.181.188-1.327L9.133,50.8a.678.678,0,0,0-.57.188.664.664,0,0,0-.188.57l.476,3.317,1.327-.188L9.984,53.33a20.779,20.779,0,0,0,24.648,2.835l-.67-1.159Z" transform="translate(-2.424 -16.417)" fill="#0b0a0a"/>
                <path id="Trazado_1042474" data-name="Trazado 1042474" d="M56.282,16.71l-1.166.663a19.49,19.49,0,0,1-2.687,22.805l.181-1.28-1.327-.188-.476,3.317a.685.685,0,0,0,.188.57.663.663,0,0,0,.476.194h.094l3.317-.476-.188-1.327-1.374.194a20.822,20.822,0,0,0,2.962-24.467Z" transform="translate(-16.421 -5.176)" fill="#0b0a0a"/>
                <path id="Trazado_1042475" data-name="Trazado 1042475" d="M16.71,3.7l.663,1.166A19.481,19.481,0,0,1,40.179,7.56L38.9,7.379l-.188,1.327,3.317.476h.094a.675.675,0,0,0,.476-.194.664.664,0,0,0,.188-.57L42.31,5.1l-1.327.188.194,1.374A20.82,20.82,0,0,0,16.71,3.7Z" transform="translate(-5.176 0)" fill="#0b0a0a"/>
                <path id="Trazado_1042476" data-name="Trazado 1042476" d="M7.373,12.263l1.327.188.476-3.317a.685.685,0,0,0-.188-.57.658.658,0,0,0-.57-.188L5.1,8.852l.188,1.327,1.374-.194A20.82,20.82,0,0,0,3.7,34.452l1.166-.663A19.481,19.481,0,0,1,7.56,10.983l-.181,1.28Z" transform="translate(0 -2.424)" fill="#0b0a0a"/>
              </g>
            </g>
          </g>
        </g>
      </g>
      <path id="Trazado_1043128" data-name="Trazado 1043128" d="M7.865,17H1.928V5.8H7.615V6.984H3.24v3.727H7.287v1.18H3.24v3.922H7.865ZM6.732,2.211,4.686,4.773H3.693L5.436,2.211ZM16.492,17H15.211V12.438q0-2.547-1.859-2.547a2.017,2.017,0,0,0-1.59.723,2.679,2.679,0,0,0-.629,1.824V17H9.851V9h1.281v1.328h.031a2.887,2.887,0,0,1,2.625-1.516A2.448,2.448,0,0,1,15.8,9.66a3.776,3.776,0,0,1,.7,2.449ZM22.861,6.281a1.707,1.707,0,0,0-.852-.211q-1.344,0-1.344,1.7V9H22.54v1.094H20.665V17H19.392V10.094H18.025V9h1.367V7.7a2.7,2.7,0,0,1,.727-1.988,2.453,2.453,0,0,1,1.813-.73,2.511,2.511,0,0,1,.93.141ZM29.644,17H28.362V15.75h-.031a2.682,2.682,0,0,1-2.461,1.438A2.63,2.63,0,0,1,24,16.555a2.192,2.192,0,0,1-.676-1.68q0-2.242,2.641-2.609l2.4-.336q0-2.039-1.648-2.039a3.938,3.938,0,0,0-2.609.984V9.563a4.958,4.958,0,0,1,2.719-.75q2.82,0,2.82,2.984Zm-1.281-4.047-1.93.266a3.133,3.133,0,0,0-1.344.441,1.273,1.273,0,0,0-.453,1.121,1.221,1.221,0,0,0,.418.957,1.615,1.615,0,0,0,1.113.371,2.056,2.056,0,0,0,1.574-.668,2.387,2.387,0,0,0,.621-1.691Zm3.213,3.758V15.336a3.792,3.792,0,0,0,2.3.773q1.688,0,1.688-1.125a.976.976,0,0,0-.145-.543,1.44,1.44,0,0,0-.391-.395,3.007,3.007,0,0,0-.578-.309q-.332-.137-.715-.285a9.207,9.207,0,0,1-.934-.426,2.82,2.82,0,0,1-.672-.484,1.8,1.8,0,0,1-.406-.613,2.17,2.17,0,0,1-.137-.8,1.912,1.912,0,0,1,.258-1,2.286,2.286,0,0,1,.688-.727,3.206,3.206,0,0,1,.98-.441,4.349,4.349,0,0,1,1.137-.148,4.59,4.59,0,0,1,1.859.359v1.3a3.624,3.624,0,0,0-2.031-.578,2.374,2.374,0,0,0-.648.082,1.587,1.587,0,0,0-.5.23,1.065,1.065,0,0,0-.32.355.936.936,0,0,0-.113.457,1.1,1.1,0,0,0,.113.523,1.152,1.152,0,0,0,.332.375,2.538,2.538,0,0,0,.531.3q.312.133.711.289a9.894,9.894,0,0,1,.953.418,3.269,3.269,0,0,1,.719.484,1.893,1.893,0,0,1,.457.621,2,2,0,0,1,.16.836,1.971,1.971,0,0,1-.262,1.031,2.243,2.243,0,0,1-.7.727,3.2,3.2,0,0,1-1.008.43,4.976,4.976,0,0,1-1.2.141A4.539,4.539,0,0,1,31.575,16.711Zm7.931-9.742a.812.812,0,0,1-.586-.234.791.791,0,0,1-.242-.594.821.821,0,0,1,.828-.836.827.827,0,0,1,.6.238.835.835,0,0,1,0,1.184A.82.82,0,0,1,39.506,6.969ZM40.131,17H38.85V9h1.281Zm2.111-.289V15.336a3.792,3.792,0,0,0,2.3.773q1.688,0,1.688-1.125a.976.976,0,0,0-.145-.543,1.44,1.44,0,0,0-.391-.395,3.007,3.007,0,0,0-.578-.309q-.332-.137-.715-.285a9.207,9.207,0,0,1-.934-.426,2.82,2.82,0,0,1-.672-.484,1.8,1.8,0,0,1-.406-.613,2.17,2.17,0,0,1-.137-.8,1.912,1.912,0,0,1,.258-1A2.286,2.286,0,0,1,43.2,9.4a3.206,3.206,0,0,1,.98-.441,4.349,4.349,0,0,1,1.137-.148,4.59,4.59,0,0,1,1.859.359v1.3a3.624,3.624,0,0,0-2.031-.578,2.374,2.374,0,0,0-.648.082,1.587,1.587,0,0,0-.5.23,1.065,1.065,0,0,0-.32.355.936.936,0,0,0-.113.457,1.1,1.1,0,0,0,.113.523,1.152,1.152,0,0,0,.332.375,2.538,2.538,0,0,0,.531.3q.312.133.711.289a9.894,9.894,0,0,1,.953.418,3.269,3.269,0,0,1,.719.484,1.893,1.893,0,0,1,.457.621,2,2,0,0,1,.16.836,1.971,1.971,0,0,1-.262,1.031,2.243,2.243,0,0,1-.7.727,3.2,3.2,0,0,1-1.008.43,4.976,4.976,0,0,1-1.2.141A4.539,4.539,0,0,1,42.242,16.711ZM60.331,13.32H54.683a2.992,2.992,0,0,0,.719,2.063,2.478,2.478,0,0,0,1.891.727,3.931,3.931,0,0,0,2.484-.891v1.2a4.643,4.643,0,0,1-2.789.766,3.381,3.381,0,0,1-2.664-1.09,4.461,4.461,0,0,1-.969-3.066,4.375,4.375,0,0,1,1.059-3.043,3.394,3.394,0,0,1,2.629-1.176,3.008,3.008,0,0,1,2.43,1.016,4.234,4.234,0,0,1,.859,2.82Zm-1.312-1.086a2.607,2.607,0,0,0-.535-1.727,1.823,1.823,0,0,0-1.465-.617,2.07,2.07,0,0,0-1.539.648,2.943,2.943,0,0,0-.781,1.7ZM68.911,17H67.63V12.438q0-2.547-1.859-2.547a2.017,2.017,0,0,0-1.59.723,2.679,2.679,0,0,0-.629,1.824V17H62.27V9h1.281v1.328h.031a2.887,2.887,0,0,1,2.625-1.516,2.448,2.448,0,0,1,2.008.848,3.776,3.776,0,0,1,.7,2.449Zm8.081,0H75.711V5.156h1.281Zm8.322,0H84.033V15.75H84a2.682,2.682,0,0,1-2.461,1.438,2.63,2.63,0,0,1-1.871-.633,2.192,2.192,0,0,1-.676-1.68q0-2.242,2.641-2.609l2.4-.336q0-2.039-1.648-2.039a3.938,3.938,0,0,0-2.609.984V9.563a4.958,4.958,0,0,1,2.719-.75q2.82,0,2.82,2.984Zm-1.281-4.047-1.93.266a3.133,3.133,0,0,0-1.344.441,1.273,1.273,0,0,0-.453,1.121,1.221,1.221,0,0,0,.418.957,1.615,1.615,0,0,0,1.113.371,2.056,2.056,0,0,0,1.574-.668,2.387,2.387,0,0,0,.621-1.691Zm11.792,3.969a2.47,2.47,0,0,1-1.2.25q-2.1,0-2.1-2.344V10.094H91.153V9h1.375V7.047l1.281-.414V9h2.016v1.094H93.81V14.6a1.869,1.869,0,0,0,.273,1.148,1.091,1.091,0,0,0,.906.344,1.347,1.347,0,0,0,.836-.266Zm5.056.266a3.711,3.711,0,0,1-2.832-1.121,4.153,4.153,0,0,1-1.059-2.973,4.326,4.326,0,0,1,1.1-3.148,3.96,3.96,0,0,1,2.977-1.133,3.588,3.588,0,0,1,2.793,1.1,4.368,4.368,0,0,1,1,3.055,4.3,4.3,0,0,1-1.082,3.066A3.791,3.791,0,0,1,100.882,17.188Zm.094-7.3a2.437,2.437,0,0,0-1.953.84,3.449,3.449,0,0,0-.719,2.316,3.262,3.262,0,0,0,.727,2.242,2.469,2.469,0,0,0,1.945.82,2.342,2.342,0,0,0,1.91-.8,3.492,3.492,0,0,0,.668-2.289,3.552,3.552,0,0,0-.668-2.312A2.332,2.332,0,0,0,100.975,9.891ZM118.274,17h-1.281V12.406a3.466,3.466,0,0,0-.41-1.922,1.555,1.555,0,0,0-1.379-.594,1.708,1.708,0,0,0-1.395.75,2.869,2.869,0,0,0-.574,1.8V17h-1.281V12.25q0-2.359-1.82-2.359a1.686,1.686,0,0,0-1.391.707,2.923,2.923,0,0,0-.547,1.84V17h-1.281V9H108.2v1.266h.031a2.718,2.718,0,0,1,2.484-1.453,2.311,2.311,0,0,1,2.266,1.656,2.855,2.855,0,0,1,2.656-1.656q2.641,0,2.641,3.258Zm8.15,0h-1.281V15.75h-.031a2.682,2.682,0,0,1-2.461,1.438,2.63,2.63,0,0,1-1.871-.633,2.192,2.192,0,0,1-.676-1.68q0-2.242,2.641-2.609l2.4-.336q0-2.039-1.648-2.039a3.938,3.938,0,0,0-2.609.984V9.563a4.958,4.958,0,0,1,2.719-.75q2.82,0,2.82,2.984Zm-1.281-4.047-1.93.266a3.133,3.133,0,0,0-1.344.441,1.273,1.273,0,0,0-.453,1.121,1.221,1.221,0,0,0,.418.957,1.615,1.615,0,0,0,1.113.371,2.056,2.056,0,0,0,1.574-.668,2.387,2.387,0,0,0,.621-1.691ZM24.377,36H23.1V34.641h-.031a2.958,2.958,0,0,1-2.75,1.547,2.988,2.988,0,0,1-2.41-1.074,4.407,4.407,0,0,1-.9-2.926,4.794,4.794,0,0,1,1-3.18,3.3,3.3,0,0,1,2.664-1.2,2.564,2.564,0,0,1,2.4,1.3H23.1V24.156h1.281ZM23.1,32.383V31.2a2.289,2.289,0,0,0-.641-1.641,2.149,2.149,0,0,0-1.625-.672,2.212,2.212,0,0,0-1.844.859,3.766,3.766,0,0,0-.672,2.375,3.387,3.387,0,0,0,.645,2.184,2.107,2.107,0,0,0,1.73.8,2.188,2.188,0,0,0,1.738-.773A2.882,2.882,0,0,0,23.1,32.383ZM33.4,32.32H27.754a2.992,2.992,0,0,0,.719,2.063,2.478,2.478,0,0,0,1.891.727,3.931,3.931,0,0,0,2.484-.891v1.2a4.643,4.643,0,0,1-2.789.766,3.381,3.381,0,0,1-2.664-1.09,4.461,4.461,0,0,1-.969-3.066,4.375,4.375,0,0,1,1.059-3.043,3.394,3.394,0,0,1,2.629-1.176,3.008,3.008,0,0,1,2.43,1.016,4.234,4.234,0,0,1,.859,2.82ZM32.09,31.234a2.607,2.607,0,0,0-.535-1.727,1.823,1.823,0,0,0-1.465-.617,2.07,2.07,0,0,0-1.539.648,2.943,2.943,0,0,0-.781,1.7ZM46.554,36H45.273V34.641h-.031a2.958,2.958,0,0,1-2.75,1.547,2.988,2.988,0,0,1-2.41-1.074,4.407,4.407,0,0,1-.9-2.926,4.794,4.794,0,0,1,1-3.18,3.3,3.3,0,0,1,2.664-1.2,2.564,2.564,0,0,1,2.4,1.3h.031V24.156h1.281Zm-1.281-3.617V31.2a2.289,2.289,0,0,0-.641-1.641,2.149,2.149,0,0,0-1.625-.672,2.212,2.212,0,0,0-1.844.859,3.766,3.766,0,0,0-.672,2.375,3.387,3.387,0,0,0,.645,2.184,2.107,2.107,0,0,0,1.73.8,2.188,2.188,0,0,0,1.738-.773A2.882,2.882,0,0,0,45.273,32.383Zm10.306-.062H49.93a2.992,2.992,0,0,0,.719,2.063,2.478,2.478,0,0,0,1.891.727,3.931,3.931,0,0,0,2.484-.891v1.2a4.643,4.643,0,0,1-2.789.766,3.381,3.381,0,0,1-2.664-1.09,4.461,4.461,0,0,1-.969-3.066,4.375,4.375,0,0,1,1.059-3.043,3.394,3.394,0,0,1,2.629-1.176,3.008,3.008,0,0,1,2.43,1.016,4.234,4.234,0,0,1,.859,2.82Zm-1.312-1.086a2.607,2.607,0,0,0-.535-1.727,1.823,1.823,0,0,0-1.465-.617,2.07,2.07,0,0,0-1.539.648,2.943,2.943,0,0,0-.781,1.7Zm8.7,4.4a4.163,4.163,0,0,1-2.187.555,3.622,3.622,0,0,1-2.762-1.113,4.035,4.035,0,0,1-1.051-2.887A4.435,4.435,0,0,1,58.1,29.012a3.963,3.963,0,0,1,3.023-1.2,4.209,4.209,0,0,1,1.859.391v1.313a3.258,3.258,0,0,0-1.906-.625,2.576,2.576,0,0,0-2.012.879,3.335,3.335,0,0,0-.785,2.309,3.176,3.176,0,0,0,.738,2.219,2.545,2.545,0,0,0,1.98.813,3.211,3.211,0,0,0,1.969-.7Zm2.6-9.664a.812.812,0,0,1-.586-.234.791.791,0,0,1-.242-.594.821.821,0,0,1,.828-.836.827.827,0,0,1,.6.238.835.835,0,0,1,0,1.184A.82.82,0,0,1,65.566,25.969ZM66.191,36H64.91V28h1.281Zm2.111-.289V34.336a3.792,3.792,0,0,0,2.3.773q1.688,0,1.688-1.125a.976.976,0,0,0-.145-.543,1.44,1.44,0,0,0-.391-.395,3.007,3.007,0,0,0-.578-.309q-.332-.137-.715-.285a9.206,9.206,0,0,1-.934-.426,2.82,2.82,0,0,1-.672-.484,1.8,1.8,0,0,1-.406-.613,2.17,2.17,0,0,1-.137-.8,1.912,1.912,0,0,1,.258-1,2.286,2.286,0,0,1,.688-.727,3.206,3.206,0,0,1,.98-.441,4.349,4.349,0,0,1,1.137-.148,4.59,4.59,0,0,1,1.859.359v1.3a3.624,3.624,0,0,0-2.031-.578,2.374,2.374,0,0,0-.648.082,1.587,1.587,0,0,0-.5.23,1.065,1.065,0,0,0-.32.355.936.936,0,0,0-.113.457,1.1,1.1,0,0,0,.113.523,1.152,1.152,0,0,0,.332.375,2.538,2.538,0,0,0,.531.3q.313.133.711.289a9.9,9.9,0,0,1,.953.418,3.269,3.269,0,0,1,.719.484,1.893,1.893,0,0,1,.457.621,2,2,0,0,1,.16.836,1.971,1.971,0,0,1-.262,1.031,2.243,2.243,0,0,1-.7.727,3.2,3.2,0,0,1-1.008.43,4.976,4.976,0,0,1-1.2.141A4.539,4.539,0,0,1,68.3,35.711Zm7.931-9.742a.812.812,0,0,1-.586-.234.791.791,0,0,1-.242-.594.821.821,0,0,1,.828-.836.827.827,0,0,1,.6.238.835.835,0,0,1,0,1.184A.82.82,0,0,1,76.234,25.969ZM76.859,36H75.577V28h1.281Zm5.939.188a3.711,3.711,0,0,1-2.832-1.121,4.153,4.153,0,0,1-1.059-2.973,4.326,4.326,0,0,1,1.1-3.148,3.96,3.96,0,0,1,2.977-1.133,3.588,3.588,0,0,1,2.793,1.1,4.368,4.368,0,0,1,1,3.055A4.3,4.3,0,0,1,85.7,35.035,3.791,3.791,0,0,1,82.8,36.188Zm.094-7.3a2.437,2.437,0,0,0-1.953.84,3.449,3.449,0,0,0-.719,2.316,3.262,3.262,0,0,0,.727,2.242,2.469,2.469,0,0,0,1.945.82,2.342,2.342,0,0,0,1.91-.8,3.492,3.492,0,0,0,.668-2.289A3.552,3.552,0,0,0,84.8,29.7,2.332,2.332,0,0,0,82.892,28.891ZM95.471,36H94.19V31.438q0-2.547-1.859-2.547a2.017,2.017,0,0,0-1.59.723,2.679,2.679,0,0,0-.629,1.824V36H88.831V28h1.281v1.328h.031a2.887,2.887,0,0,1,2.625-1.516,2.448,2.448,0,0,1,2.008.848,3.776,3.776,0,0,1,.7,2.449Zm8.845-3.68H98.668a2.992,2.992,0,0,0,.719,2.063,2.478,2.478,0,0,0,1.891.727,3.931,3.931,0,0,0,2.484-.891v1.2a4.643,4.643,0,0,1-2.789.766,3.381,3.381,0,0,1-2.664-1.09,4.461,4.461,0,0,1-.969-3.066A4.375,4.375,0,0,1,98.4,28.988a3.394,3.394,0,0,1,2.629-1.176,3.008,3.008,0,0,1,2.43,1.016,4.234,4.234,0,0,1,.859,2.82ZM103,31.234a2.607,2.607,0,0,0-.535-1.727A1.823,1.823,0,0,0,101,28.891a2.07,2.07,0,0,0-1.539.648,2.943,2.943,0,0,0-.781,1.7Zm2.767,4.477V34.336a3.792,3.792,0,0,0,2.3.773q1.688,0,1.688-1.125a.976.976,0,0,0-.145-.543,1.44,1.44,0,0,0-.391-.395,3.007,3.007,0,0,0-.578-.309q-.332-.137-.715-.285a9.206,9.206,0,0,1-.934-.426,2.82,2.82,0,0,1-.672-.484,1.8,1.8,0,0,1-.406-.613,2.17,2.17,0,0,1-.137-.8,1.912,1.912,0,0,1,.258-1,2.286,2.286,0,0,1,.688-.727,3.206,3.206,0,0,1,.98-.441,4.349,4.349,0,0,1,1.137-.148,4.59,4.59,0,0,1,1.859.359v1.3a3.624,3.624,0,0,0-2.031-.578,2.374,2.374,0,0,0-.648.082,1.587,1.587,0,0,0-.5.23,1.065,1.065,0,0,0-.32.355.936.936,0,0,0-.113.457,1.1,1.1,0,0,0,.113.523,1.152,1.152,0,0,0,.332.375,2.538,2.538,0,0,0,.531.3q.313.133.711.289a9.9,9.9,0,0,1,.953.418,3.269,3.269,0,0,1,.719.484,1.893,1.893,0,0,1,.457.621,2,2,0,0,1,.16.836,1.971,1.971,0,0,1-.262,1.031,2.243,2.243,0,0,1-.7.727,3.2,3.2,0,0,1-1.008.43,4.976,4.976,0,0,1-1.2.141A4.539,4.539,0,0,1,105.771,35.711Z" transform="translate(534.646 3383.313)" fill="#fff"/>
      <path id="Trazado_1043126" data-name="Trazado 1043126" d="M3.453,12.766V17H2.14V5.8H5.218A4.063,4.063,0,0,1,8,6.672a3.124,3.124,0,0,1,.988,2.469,3.4,3.4,0,0,1-1.1,2.609,4.194,4.194,0,0,1-2.965,1.016Zm0-5.781v4.594H4.828A3.074,3.074,0,0,0,6.9,10.957,2.2,2.2,0,0,0,7.617,9.2q0-2.219-2.625-2.219ZM15.1,10.3a1.567,1.567,0,0,0-.969-.258,1.635,1.635,0,0,0-1.371.773,3.576,3.576,0,0,0-.551,2.109V17H10.931V9h1.281v1.648h.031a2.793,2.793,0,0,1,.836-1.316,1.906,1.906,0,0,1,1.258-.473,2.092,2.092,0,0,1,.766.109Zm4.736,6.891a3.711,3.711,0,0,1-2.832-1.121,4.153,4.153,0,0,1-1.059-2.973,4.326,4.326,0,0,1,1.1-3.148,3.96,3.96,0,0,1,2.977-1.133,3.588,3.588,0,0,1,2.793,1.1,4.368,4.368,0,0,1,1,3.055,4.3,4.3,0,0,1-1.082,3.066A3.791,3.791,0,0,1,19.839,17.188Zm.094-7.3a2.437,2.437,0,0,0-1.953.84,3.449,3.449,0,0,0-.719,2.316,3.262,3.262,0,0,0,.727,2.242,2.469,2.469,0,0,0,1.945.82,2.342,2.342,0,0,0,1.91-.8,3.492,3.492,0,0,0,.668-2.289,3.552,3.552,0,0,0-.668-2.312A2.332,2.332,0,0,0,19.933,9.891Zm11.392,6.742a4.163,4.163,0,0,1-2.187.555,3.622,3.622,0,0,1-2.762-1.113,4.035,4.035,0,0,1-1.051-2.887,4.435,4.435,0,0,1,1.133-3.176,3.963,3.963,0,0,1,3.023-1.2A4.209,4.209,0,0,1,31.34,9.2v1.313a3.258,3.258,0,0,0-1.906-.625,2.576,2.576,0,0,0-2.012.879,3.335,3.335,0,0,0-.785,2.309,3.176,3.176,0,0,0,.738,2.219,2.545,2.545,0,0,0,1.98.813,3.211,3.211,0,0,0,1.969-.7Zm8.369-3.312H34.045a2.992,2.992,0,0,0,.719,2.063,2.478,2.478,0,0,0,1.891.727,3.931,3.931,0,0,0,2.484-.891v1.2a4.643,4.643,0,0,1-2.789.766,3.381,3.381,0,0,1-2.664-1.09,4.461,4.461,0,0,1-.969-3.066,4.375,4.375,0,0,1,1.059-3.043A3.394,3.394,0,0,1,36.4,8.813a3.008,3.008,0,0,1,2.43,1.016,4.234,4.234,0,0,1,.859,2.82Zm-1.312-1.086a2.607,2.607,0,0,0-.535-1.727,1.823,1.823,0,0,0-1.465-.617,2.07,2.07,0,0,0-1.539.648,2.943,2.943,0,0,0-.781,1.7Zm2.767,4.477V15.336a3.792,3.792,0,0,0,2.3.773q1.688,0,1.688-1.125A.976.976,0,0,0,45,14.441a1.44,1.44,0,0,0-.391-.395,3.007,3.007,0,0,0-.578-.309q-.332-.137-.715-.285a9.207,9.207,0,0,1-.934-.426,2.82,2.82,0,0,1-.672-.484,1.8,1.8,0,0,1-.406-.613,2.17,2.17,0,0,1-.137-.8,1.912,1.912,0,0,1,.258-1,2.286,2.286,0,0,1,.688-.727,3.206,3.206,0,0,1,.98-.441,4.349,4.349,0,0,1,1.137-.148,4.59,4.59,0,0,1,1.859.359v1.3a3.624,3.624,0,0,0-2.031-.578,2.374,2.374,0,0,0-.648.082,1.587,1.587,0,0,0-.5.23,1.065,1.065,0,0,0-.32.355.936.936,0,0,0-.113.457,1.1,1.1,0,0,0,.113.523,1.152,1.152,0,0,0,.332.375,2.538,2.538,0,0,0,.531.3q.312.133.711.289a9.894,9.894,0,0,1,.953.418,3.269,3.269,0,0,1,.719.484,1.893,1.893,0,0,1,.457.621,2,2,0,0,1,.16.836,1.971,1.971,0,0,1-.262,1.031,2.243,2.243,0,0,1-.7.727,3.2,3.2,0,0,1-1.008.43,4.976,4.976,0,0,1-1.2.141A4.539,4.539,0,0,1,41.148,16.711Zm13,.289H52.869V15.75h-.031a2.682,2.682,0,0,1-2.461,1.438,2.63,2.63,0,0,1-1.871-.633,2.192,2.192,0,0,1-.676-1.68q0-2.242,2.641-2.609l2.4-.336q0-2.039-1.648-2.039a3.938,3.938,0,0,0-2.609.984V9.563a4.958,4.958,0,0,1,2.719-.75q2.82,0,2.82,2.984Zm-1.281-4.047-1.93.266a3.133,3.133,0,0,0-1.344.441,1.273,1.273,0,0,0-.453,1.121,1.221,1.221,0,0,0,.418.957,1.615,1.615,0,0,0,1.113.371,2.056,2.056,0,0,0,1.574-.668,2.387,2.387,0,0,0,.621-1.691ZM67.925,17H66.644V12.406a3.466,3.466,0,0,0-.41-1.922,1.555,1.555,0,0,0-1.379-.594,1.708,1.708,0,0,0-1.395.75,2.869,2.869,0,0,0-.574,1.8V17H61.6V12.25q0-2.359-1.82-2.359a1.686,1.686,0,0,0-1.391.707,2.923,2.923,0,0,0-.547,1.84V17H56.566V9h1.281v1.266h.031a2.718,2.718,0,0,1,2.484-1.453,2.311,2.311,0,0,1,2.266,1.656,2.855,2.855,0,0,1,2.656-1.656q2.641,0,2.641,3.258ZM71,6.969a.812.812,0,0,1-.586-.234.791.791,0,0,1-.242-.594A.821.821,0,0,1,71,5.3a.827.827,0,0,1,.6.238.835.835,0,0,1,0,1.184A.82.82,0,0,1,71,6.969ZM71.63,17H70.348V9H71.63Zm9.025-3.68H75.006a2.992,2.992,0,0,0,.719,2.063,2.478,2.478,0,0,0,1.891.727,3.931,3.931,0,0,0,2.484-.891v1.2a4.643,4.643,0,0,1-2.789.766,3.381,3.381,0,0,1-2.664-1.09,4.461,4.461,0,0,1-.969-3.066,4.375,4.375,0,0,1,1.059-3.043,3.394,3.394,0,0,1,2.629-1.176A3.008,3.008,0,0,1,79.8,9.828a4.234,4.234,0,0,1,.859,2.82Zm-1.312-1.086a2.607,2.607,0,0,0-.535-1.727,1.823,1.823,0,0,0-1.465-.617,2.07,2.07,0,0,0-1.539.648,2.943,2.943,0,0,0-.781,1.7ZM89.234,17H87.953V12.438q0-2.547-1.859-2.547a2.017,2.017,0,0,0-1.59.723,2.679,2.679,0,0,0-.629,1.824V17H82.594V9h1.281v1.328h.031a2.887,2.887,0,0,1,2.625-1.516,2.448,2.448,0,0,1,2.008.848,3.776,3.776,0,0,1,.7,2.449Zm6.127-.078a2.47,2.47,0,0,1-1.2.25q-2.1,0-2.1-2.344V10.094H90.689V9h1.375V7.047l1.281-.414V9h2.016v1.094H93.345V14.6a1.869,1.869,0,0,0,.273,1.148,1.091,1.091,0,0,0,.906.344,1.347,1.347,0,0,0,.836-.266Zm5.056.266a3.711,3.711,0,0,1-2.832-1.121,4.153,4.153,0,0,1-1.059-2.973,4.326,4.326,0,0,1,1.1-3.148A3.96,3.96,0,0,1,100.6,8.813a3.588,3.588,0,0,1,2.793,1.1,4.368,4.368,0,0,1,1,3.055,4.3,4.3,0,0,1-1.082,3.066A3.791,3.791,0,0,1,100.417,17.188Zm.094-7.3a2.437,2.437,0,0,0-1.953.84,3.449,3.449,0,0,0-.719,2.316,3.262,3.262,0,0,0,.727,2.242,2.469,2.469,0,0,0,1.945.82,2.342,2.342,0,0,0,1.91-.8,3.492,3.492,0,0,0,.668-2.289,3.552,3.552,0,0,0-.668-2.312A2.332,2.332,0,0,0,100.511,9.891ZM117.663,17h-1.281V15.641h-.031a2.958,2.958,0,0,1-2.75,1.547,2.988,2.988,0,0,1-2.41-1.074,4.407,4.407,0,0,1-.9-2.926,4.794,4.794,0,0,1,1-3.18,3.3,3.3,0,0,1,2.664-1.2,2.564,2.564,0,0,1,2.4,1.3h.031V5.156h1.281Zm-1.281-3.617V12.2a2.289,2.289,0,0,0-.641-1.641,2.149,2.149,0,0,0-1.625-.672,2.212,2.212,0,0,0-1.844.859,3.766,3.766,0,0,0-.672,2.375,3.387,3.387,0,0,0,.645,2.184,2.107,2.107,0,0,0,1.73.8,2.188,2.188,0,0,0,1.738-.773A2.882,2.882,0,0,0,116.382,13.383Zm10.306-.062h-5.648a2.992,2.992,0,0,0,.719,2.063,2.478,2.478,0,0,0,1.891.727,3.931,3.931,0,0,0,2.484-.891v1.2a4.643,4.643,0,0,1-2.789.766,3.381,3.381,0,0,1-2.664-1.09,4.461,4.461,0,0,1-.969-3.066,4.375,4.375,0,0,1,1.059-3.043A3.394,3.394,0,0,1,123.4,8.813a3.008,3.008,0,0,1,2.43,1.016,4.234,4.234,0,0,1,.859,2.82Zm-1.312-1.086a2.607,2.607,0,0,0-.535-1.727,1.823,1.823,0,0,0-1.465-.617,2.07,2.07,0,0,0-1.539.648,2.943,2.943,0,0,0-.781,1.7ZM9.672,36H8.39V24.156H9.672ZM18.7,32.32H13.048a2.992,2.992,0,0,0,.719,2.063,2.478,2.478,0,0,0,1.891.727,3.931,3.931,0,0,0,2.484-.891v1.2a4.643,4.643,0,0,1-2.789.766,3.381,3.381,0,0,1-2.664-1.09,4.461,4.461,0,0,1-.969-3.066,4.375,4.375,0,0,1,1.059-3.043,3.394,3.394,0,0,1,2.629-1.176,3.008,3.008,0,0,1,2.43,1.016,4.234,4.234,0,0,1,.859,2.82Zm-1.312-1.086a2.607,2.607,0,0,0-.535-1.727,1.823,1.823,0,0,0-1.465-.617,2.07,2.07,0,0,0-1.539.648,2.943,2.943,0,0,0-.781,1.7ZM27.276,36H26V31.438q0-2.547-1.859-2.547a2.017,2.017,0,0,0-1.59.723,2.679,2.679,0,0,0-.629,1.824V36H20.636V28h1.281v1.328h.031a2.887,2.887,0,0,1,2.625-1.516,2.448,2.448,0,0,1,2.008.848,3.776,3.776,0,0,1,.7,2.449Zm9.244-.641q0,4.406-4.219,4.406a5.664,5.664,0,0,1-2.594-.562V37.922a5.327,5.327,0,0,0,2.578.75q2.953,0,2.953-3.141v-.875h-.031a3.237,3.237,0,0,1-5.152.465,4.263,4.263,0,0,1-.91-2.863,4.981,4.981,0,0,1,.98-3.242,3.275,3.275,0,0,1,2.684-1.2,2.608,2.608,0,0,1,2.4,1.3h.031V28H36.52Zm-1.281-2.977V31.2a2.289,2.289,0,0,0-.645-1.633,2.122,2.122,0,0,0-1.605-.68,2.225,2.225,0,0,0-1.859.863,3.853,3.853,0,0,0-.672,2.418,3.308,3.308,0,0,0,.645,2.137,2.082,2.082,0,0,0,1.707.8,2.23,2.23,0,0,0,1.754-.766A2.854,2.854,0,0,0,35.239,32.383ZM45.584,36H44.3V34.734h-.031A2.631,2.631,0,0,1,41.8,36.188q-2.859,0-2.859-3.406V28h1.273v4.578q0,2.531,1.938,2.531a1.96,1.96,0,0,0,1.543-.691,2.645,2.645,0,0,0,.605-1.809V28h1.281ZM53.9,36H52.617V34.75h-.031a2.682,2.682,0,0,1-2.461,1.438,2.63,2.63,0,0,1-1.871-.633,2.192,2.192,0,0,1-.676-1.68q0-2.242,2.641-2.609l2.4-.336q0-2.039-1.648-2.039a3.938,3.938,0,0,0-2.609.984V28.563a4.958,4.958,0,0,1,2.719-.75q2.82,0,2.82,2.984Zm-1.281-4.047-1.93.266a3.133,3.133,0,0,0-1.344.441,1.273,1.273,0,0,0-.453,1.121,1.221,1.221,0,0,0,.418.957,1.615,1.615,0,0,0,1.113.371A2.056,2.056,0,0,0,52,34.441a2.387,2.387,0,0,0,.621-1.691ZM57.6,35.664A5.014,5.014,0,0,1,56.8,38.7a2.658,2.658,0,0,1-2.27,1.066,2.409,2.409,0,0,1-1.062-.25v-1.2a2.12,2.12,0,0,0,1.094.352q1.75,0,1.75-2.8V28H57.6Zm-.625-9.7a.812.812,0,0,1-.586-.234.791.791,0,0,1-.242-.594.821.821,0,0,1,.828-.836.827.827,0,0,1,.6.238.835.835,0,0,1,0,1.184A.82.82,0,0,1,56.97,25.969Zm9.65,6.352H60.972a2.992,2.992,0,0,0,.719,2.063,2.478,2.478,0,0,0,1.891.727,3.931,3.931,0,0,0,2.484-.891v1.2a4.643,4.643,0,0,1-2.789.766,3.381,3.381,0,0,1-2.664-1.09,4.461,4.461,0,0,1-.969-3.066A4.375,4.375,0,0,1,60.7,28.988a3.394,3.394,0,0,1,2.629-1.176,3.008,3.008,0,0,1,2.43,1.016,4.234,4.234,0,0,1,.859,2.82Zm-1.312-1.086a2.607,2.607,0,0,0-.535-1.727,1.823,1.823,0,0,0-1.465-.617,2.07,2.07,0,0,0-1.539.648,2.943,2.943,0,0,0-.781,1.7ZM79.584,36H78.3V31.438q0-2.547-1.859-2.547a2.017,2.017,0,0,0-1.59.723,2.679,2.679,0,0,0-.629,1.824V36H72.944V28h1.281v1.328h.031a2.887,2.887,0,0,1,2.625-1.516,2.448,2.448,0,0,1,2.008.848,3.776,3.776,0,0,1,.7,2.449Zm8.142,0H86.445V34.75h-.031a2.682,2.682,0,0,1-2.461,1.438,2.63,2.63,0,0,1-1.871-.633,2.192,2.192,0,0,1-.676-1.68q0-2.242,2.641-2.609l2.4-.336q0-2.039-1.648-2.039a3.938,3.938,0,0,0-2.609.984V28.563a4.958,4.958,0,0,1,2.719-.75q2.82,0,2.82,2.984Zm-1.281-4.047-1.93.266a3.133,3.133,0,0,0-1.344.441,1.273,1.273,0,0,0-.453,1.121,1.221,1.221,0,0,0,.418.957,1.615,1.615,0,0,0,1.113.371,2.056,2.056,0,0,0,1.574-.668,2.387,2.387,0,0,0,.621-1.691Zm7.408,3.969a2.47,2.47,0,0,1-1.2.25q-2.1,0-2.1-2.344V29.094H89.181V28h1.375V26.047l1.281-.414V28h2.016v1.094H91.838V33.6a1.869,1.869,0,0,0,.273,1.148,1.091,1.091,0,0,0,.906.344,1.347,1.347,0,0,0,.836-.266Zm8.181.078h-1.281V34.734h-.031a2.631,2.631,0,0,1-2.469,1.453q-2.859,0-2.859-3.406V28h1.273v4.578q0,2.531,1.938,2.531a1.96,1.96,0,0,0,1.543-.691,2.645,2.645,0,0,0,.605-1.809V28h1.281Zm6.759-6.7a1.567,1.567,0,0,0-.969-.258,1.635,1.635,0,0,0-1.371.773,3.576,3.576,0,0,0-.551,2.109V36h-1.281V28H105.9v1.648h.031a2.793,2.793,0,0,1,.836-1.316,1.906,1.906,0,0,1,1.258-.473,2.092,2.092,0,0,1,.766.109Zm7.119,6.7h-1.281V34.75H114.6a2.682,2.682,0,0,1-2.461,1.438,2.63,2.63,0,0,1-1.871-.633,2.192,2.192,0,0,1-.676-1.68q0-2.242,2.641-2.609l2.4-.336q0-2.039-1.648-2.039a3.938,3.938,0,0,0-2.609.984V28.563a4.958,4.958,0,0,1,2.719-.75q2.82,0,2.82,2.984Zm-1.281-4.047-1.93.266a3.133,3.133,0,0,0-1.344.441,1.273,1.273,0,0,0-.453,1.121,1.221,1.221,0,0,0,.418.957,1.615,1.615,0,0,0,1.113.371,2.056,2.056,0,0,0,1.574-.668,2.387,2.387,0,0,0,.621-1.691ZM119.61,36h-1.281V24.156h1.281Z" transform="translate(933 3383.313)" fill="#0b0a0a"/>
      <path id="Trazado_1043129" data-name="Trazado 1043129" d="M32.32,17H30.867l-1.187-3.141h-4.75L23.812,17H22.351l4.3-11.2h1.359Zm-3.07-4.32L27.492,7.906a4.571,4.571,0,0,1-.172-.75h-.031a4.185,4.185,0,0,1-.18.75L25.367,12.68Zm5.861,3.164H35.08V20.68H33.8V9H35.08v1.406h.031a3.03,3.03,0,0,1,2.766-1.594A2.93,2.93,0,0,1,40.29,9.887a4.449,4.449,0,0,1,.867,2.879,4.959,4.959,0,0,1-.977,3.215,3.251,3.251,0,0,1-2.672,1.207A2.676,2.676,0,0,1,35.111,15.844Zm-.031-3.227v1.117a2.379,2.379,0,0,0,.645,1.684,2.3,2.3,0,0,0,3.461-.2,4.086,4.086,0,0,0,.66-2.477,3.225,3.225,0,0,0-.617-2.094,2.043,2.043,0,0,0-1.672-.758,2.27,2.27,0,0,0-1.8.777A2.854,2.854,0,0,0,35.08,12.617Zm12.3-2.32a1.567,1.567,0,0,0-.969-.258,1.635,1.635,0,0,0-1.371.773,3.576,3.576,0,0,0-.551,2.109V17H43.206V9h1.281v1.648h.031a2.794,2.794,0,0,1,.836-1.316,1.906,1.906,0,0,1,1.258-.473,2.092,2.092,0,0,1,.766.109ZM55.2,13.32H49.551a2.992,2.992,0,0,0,.719,2.063,2.478,2.478,0,0,0,1.891.727,3.931,3.931,0,0,0,2.484-.891v1.2a4.643,4.643,0,0,1-2.789.766,3.381,3.381,0,0,1-2.664-1.09,4.461,4.461,0,0,1-.969-3.066,4.375,4.375,0,0,1,1.059-3.043,3.394,3.394,0,0,1,2.629-1.176,3.008,3.008,0,0,1,2.43,1.016,4.234,4.234,0,0,1,.859,2.82Zm-1.312-1.086a2.607,2.607,0,0,0-.535-1.727,1.823,1.823,0,0,0-1.465-.617,2.07,2.07,0,0,0-1.539.648,2.943,2.943,0,0,0-.781,1.7ZM63.78,17H62.5V12.438q0-2.547-1.859-2.547a2.017,2.017,0,0,0-1.59.723,2.679,2.679,0,0,0-.629,1.824V17H57.139V9H58.42v1.328h.031a2.887,2.887,0,0,1,2.625-1.516,2.448,2.448,0,0,1,2.008.848,3.776,3.776,0,0,1,.7,2.449Zm9.244,0H71.742V15.641h-.031a2.958,2.958,0,0,1-2.75,1.547,2.988,2.988,0,0,1-2.41-1.074,4.407,4.407,0,0,1-.9-2.926,4.794,4.794,0,0,1,1-3.18,3.3,3.3,0,0,1,2.664-1.2,2.564,2.564,0,0,1,2.4,1.3h.031V5.156h1.281Zm-1.281-3.617V12.2a2.289,2.289,0,0,0-.641-1.641,2.149,2.149,0,0,0-1.625-.672,2.212,2.212,0,0,0-1.844.859,3.766,3.766,0,0,0-.672,2.375,3.387,3.387,0,0,0,.645,2.184,2.107,2.107,0,0,0,1.73.8,2.188,2.188,0,0,0,1.738-.773A2.882,2.882,0,0,0,71.742,13.383Zm4.533-6.414a.812.812,0,0,1-.586-.234.791.791,0,0,1-.242-.594.821.821,0,0,1,.828-.836.827.827,0,0,1,.6.238.835.835,0,0,1,0,1.184A.82.82,0,0,1,76.275,6.969ZM76.9,17H75.619V9H76.9Zm8.173-7.633-4.734,6.539h4.688V17h-6.57v-.4l4.734-6.508H78.9V9h6.172ZM92.458,17H91.177V15.75h-.031a2.682,2.682,0,0,1-2.461,1.438,2.63,2.63,0,0,1-1.871-.633,2.192,2.192,0,0,1-.676-1.68q0-2.242,2.641-2.609l2.4-.336q0-2.039-1.648-2.039a3.938,3.938,0,0,0-2.609.984V9.563a4.958,4.958,0,0,1,2.719-.75q2.82,0,2.82,2.984Zm-1.281-4.047-1.93.266a3.133,3.133,0,0,0-1.344.441,1.273,1.273,0,0,0-.453,1.121,1.221,1.221,0,0,0,.418.957,1.615,1.615,0,0,0,1.113.371,2.056,2.056,0,0,0,1.574-.668,2.387,2.387,0,0,0,.621-1.691Zm4.978,3.711a5.014,5.014,0,0,1-.793,3.035,2.658,2.658,0,0,1-2.27,1.066,2.409,2.409,0,0,1-1.062-.25v-1.2a2.12,2.12,0,0,0,1.094.352q1.75,0,1.75-2.8V9h1.281Zm-.625-9.7a.812.812,0,0,1-.586-.234.791.791,0,0,1-.242-.594A.821.821,0,0,1,95.53,5.3a.827.827,0,0,1,.6.238.835.835,0,0,1,0,1.184A.82.82,0,0,1,95.53,6.969Zm9.65,6.352H99.531a2.992,2.992,0,0,0,.719,2.063,2.478,2.478,0,0,0,1.891.727,3.931,3.931,0,0,0,2.484-.891v1.2a4.643,4.643,0,0,1-2.789.766,3.381,3.381,0,0,1-2.664-1.09,4.461,4.461,0,0,1-.969-3.066,4.375,4.375,0,0,1,1.059-3.043,3.394,3.394,0,0,1,2.629-1.176,3.008,3.008,0,0,1,2.43,1.016,4.234,4.234,0,0,1,.859,2.82Zm-1.312-1.086a2.607,2.607,0,0,0-.535-1.727,1.823,1.823,0,0,0-1.465-.617,2.07,2.07,0,0,0-1.539.648,2.943,2.943,0,0,0-.781,1.7ZM31.028,36H29.747V34.75h-.031a2.682,2.682,0,0,1-2.461,1.438,2.63,2.63,0,0,1-1.871-.633,2.192,2.192,0,0,1-.676-1.68q0-2.242,2.641-2.609l2.4-.336q0-2.039-1.648-2.039a3.938,3.938,0,0,0-2.609.984V28.563a4.958,4.958,0,0,1,2.719-.75q2.82,0,2.82,2.984Zm-1.281-4.047-1.93.266a3.133,3.133,0,0,0-1.344.441,1.273,1.273,0,0,0-.453,1.121,1.221,1.221,0,0,0,.418.957,1.615,1.615,0,0,0,1.113.371,2.056,2.056,0,0,0,1.574-.668,2.387,2.387,0,0,0,.621-1.691ZM39.912,36H38.631V34.734H38.6a2.631,2.631,0,0,1-2.469,1.453q-2.859,0-2.859-3.406V28h1.273v4.578q0,2.531,1.938,2.531a1.96,1.96,0,0,0,1.543-.691,2.645,2.645,0,0,0,.605-1.809V28h1.281Zm6.3-.078a2.47,2.47,0,0,1-1.2.25q-2.1,0-2.1-2.344V29.094H41.539V28h1.375V26.047l1.281-.414V28h2.016v1.094H44.2V33.6a1.869,1.869,0,0,0,.273,1.148,1.091,1.091,0,0,0,.906.344,1.347,1.347,0,0,0,.836-.266Zm5.056.266a3.711,3.711,0,0,1-2.832-1.121,4.153,4.153,0,0,1-1.059-2.973,4.326,4.326,0,0,1,1.1-3.148,3.96,3.96,0,0,1,2.977-1.133,3.588,3.588,0,0,1,2.793,1.1,4.368,4.368,0,0,1,1,3.055,4.3,4.3,0,0,1-1.082,3.066A3.791,3.791,0,0,1,51.267,36.188Zm.094-7.3a2.437,2.437,0,0,0-1.953.84,3.449,3.449,0,0,0-.719,2.316,3.262,3.262,0,0,0,.727,2.242,2.469,2.469,0,0,0,1.945.82,2.342,2.342,0,0,0,1.91-.8,3.492,3.492,0,0,0,.668-2.289,3.552,3.552,0,0,0-.668-2.312A2.332,2.332,0,0,0,51.361,28.891ZM68.659,36H67.378V31.406a3.466,3.466,0,0,0-.41-1.922,1.555,1.555,0,0,0-1.379-.594,1.708,1.708,0,0,0-1.395.75,2.869,2.869,0,0,0-.574,1.8V36H62.339V31.25q0-2.359-1.82-2.359a1.686,1.686,0,0,0-1.391.707,2.923,2.923,0,0,0-.547,1.84V36H57.3V28h1.281v1.266h.031A2.718,2.718,0,0,1,61.1,27.813a2.311,2.311,0,0,1,2.266,1.656,2.855,2.855,0,0,1,2.656-1.656q2.641,0,2.641,3.258Zm8.15,0H75.528V34.75H75.5a2.682,2.682,0,0,1-2.461,1.438,2.63,2.63,0,0,1-1.871-.633,2.192,2.192,0,0,1-.676-1.68q0-2.242,2.641-2.609l2.4-.336q0-2.039-1.648-2.039a3.938,3.938,0,0,0-2.609.984V28.563a4.958,4.958,0,0,1,2.719-.75q2.82,0,2.82,2.984Zm-1.281-4.047-1.93.266a3.133,3.133,0,0,0-1.344.441,1.273,1.273,0,0,0-.453,1.121,1.221,1.221,0,0,0,.418.957,1.615,1.615,0,0,0,1.113.371,2.056,2.056,0,0,0,1.574-.668,2.387,2.387,0,0,0,.621-1.691Zm.172-8.031-2.047,2.563h-.992L74.4,23.922Zm7.236,12a2.47,2.47,0,0,1-1.2.25q-2.1,0-2.1-2.344V29.094H78.264V28h1.375V26.047l1.281-.414V28h2.016v1.094H80.92V33.6a1.869,1.869,0,0,0,.273,1.148,1.091,1.091,0,0,0,.906.344,1.347,1.347,0,0,0,.836-.266ZM85.3,25.969a.812.812,0,0,1-.586-.234.791.791,0,0,1-.242-.594A.821.821,0,0,1,85.3,24.3a.827.827,0,0,1,.6.238.835.835,0,0,1,0,1.184A.82.82,0,0,1,85.3,25.969ZM85.93,36H84.649V28H85.93Zm8.048-.367a4.163,4.163,0,0,1-2.187.555,3.622,3.622,0,0,1-2.762-1.113,4.035,4.035,0,0,1-1.051-2.887,4.435,4.435,0,0,1,1.133-3.176,3.963,3.963,0,0,1,3.023-1.2,4.209,4.209,0,0,1,1.859.391v1.313a3.258,3.258,0,0,0-1.906-.625,2.576,2.576,0,0,0-2.012.879,3.335,3.335,0,0,0-.785,2.309,3.176,3.176,0,0,0,.738,2.219,2.545,2.545,0,0,0,1.98.813,3.211,3.211,0,0,0,1.969-.7Zm5.283.555a3.711,3.711,0,0,1-2.832-1.121,4.153,4.153,0,0,1-1.059-2.973,4.326,4.326,0,0,1,1.1-3.148,3.96,3.96,0,0,1,2.977-1.133,3.588,3.588,0,0,1,2.793,1.1,4.368,4.368,0,0,1,1,3.055,4.3,4.3,0,0,1-1.082,3.066A3.791,3.791,0,0,1,99.261,36.188Zm.094-7.3a2.437,2.437,0,0,0-1.953.84,3.449,3.449,0,0,0-.719,2.316,3.262,3.262,0,0,0,.727,2.242,2.469,2.469,0,0,0,1.945.82,2.342,2.342,0,0,0,1.91-.8,3.492,3.492,0,0,0,.668-2.289,3.552,3.552,0,0,0-.668-2.312A2.332,2.332,0,0,0,99.355,28.891Z" transform="translate(735.646 3591.313)" fill="#0b0a0a"/>
      <path id="voice_10349880" d="M38.176,41.753A14.65,14.65,0,0,0,21.269,19.6a13.814,13.814,0,0,0-9.618,15.544l-4,6.448A.992.992,0,0,0,8.4,43.105l3.623.318v3.371H9.214a.477.477,0,1,0,0,.954h2.811v2a2.466,2.466,0,0,0,2.463,2.463h4.466a.473.473,0,0,1,.476.425l.333,2.94a.992.992,0,0,0,.983.88l15.787.047h0a.992.992,0,0,0,.965-1.222,27.412,27.412,0,0,1-.369-10.966,6.068,6.068,0,0,1,1.042-2.565ZM36.574,55.5a.027.027,0,0,1-.007.032c-.01.013-.011.014-.03.014L20.75,55.5a.036.036,0,0,1-.037-.033l-.333-2.94a1.433,1.433,0,0,0-1.424-1.272H14.488A1.511,1.511,0,0,1,12.98,49.75v-2h1.068a.477.477,0,0,0,.448-.314l.208-.573.713,2.045a.477.477,0,0,0,.9,0l1.724-4.948,1.6,4.407a.477.477,0,0,0,.9,0l.547-1.505.2.567a.477.477,0,0,0,.451.32h2.887a.477.477,0,1,0,0-.954H22.076l-.527-1.512a.477.477,0,0,0-.447-.32h0a.477.477,0,0,0-.448.314l-.557,1.532-1.613-4.434a.477.477,0,0,0-.9.006L15.868,47.3l-.7-2.018a.477.477,0,0,0-.447-.32h0a.477.477,0,0,0-.448.314l-.552,1.518H12.98V42.986a.477.477,0,0,0-.435-.475l-4.059-.356a.029.029,0,0,1-.031-.021.028.028,0,0,1,0-.037l4.1-6.6a.477.477,0,0,0,.064-.338,12.861,12.861,0,0,1,8.933-14.645l.02-.007A13.7,13.7,0,0,1,37.392,41.21a6.978,6.978,0,0,0-1.2,2.949A28.363,28.363,0,0,0,36.574,55.5Zm-4.4-22.862h2.054a1.364,1.364,0,1,0,0-.954H32.178V29.395h.765a1.364,1.364,0,1,0,0-.954h-.765V28.1A1.885,1.885,0,0,0,30.3,26.217h-.341v-.765a1.364,1.364,0,1,0-.954,0v.765H26.707V24.163a1.364,1.364,0,1,0-.954,0v2.054H23.459v-.765a1.364,1.364,0,1,0-.954,0v.765h-.341A1.885,1.885,0,0,0,20.281,28.1v.341h-.765a1.364,1.364,0,1,0,0,.954h.765v2.293H18.227a1.364,1.364,0,1,0,0,.954h2.054v2.293h-.765a1.364,1.364,0,1,0,0,.954h.765v.341a1.885,1.885,0,0,0,1.882,1.883h.342v.765a1.364,1.364,0,1,0,.954,0v-.765h2.293v2.054a1.364,1.364,0,1,0,.954,0V38.114H29v.765a1.364,1.364,0,1,0,.954,0v-.765H30.3a1.885,1.885,0,0,0,1.883-1.883V35.89h.765a1.364,1.364,0,1,0,0-.954h-.765Zm3.33-.887a.41.41,0,1,1-.41.41.41.41,0,0,1,.41-.41Zm-1.289-3.248a.41.41,0,1,1-.41.41.41.41,0,0,1,.41-.41Zm-4.742-4.742a.41.41,0,1,1-.41.41.41.41,0,0,1,.41-.41ZM26.23,22.477a.41.41,0,1,1-.41.41.41.41,0,0,1,.41-.41Zm-3.247,1.289a.41.41,0,1,1-.41.41.41.41,0,0,1,.41-.41ZM18.24,29.327a.41.41,0,1,1,.41-.41.41.41,0,0,1-.41.41Zm-1.289,3.248a.41.41,0,1,1,.41-.41A.41.41,0,0,1,16.951,32.575Zm1.289,3.248a.41.41,0,1,1,.41-.41.41.41,0,0,1-.41.41Zm4.742,4.742a.41.41,0,1,1,.41-.41A.41.41,0,0,1,22.982,40.564Zm3.247,1.289a.41.41,0,1,1,.41-.41.41.41,0,0,1-.41.41Zm3.248-1.289a.41.41,0,1,1,.41-.41.41.41,0,0,1-.41.41Zm1.746-4.333a.929.929,0,0,1-.928.928H23.46l0-4.669,1.866-1.077a1.384,1.384,0,1,0-.45-.842L22.747,31.8a.477.477,0,0,0-.239.413l0,4.945h-.342a.929.929,0,0,1-.928-.928V28.1a.929.929,0,0,1,.928-.928H29v4.67l-1.864,1.076a1.36,1.36,0,1,0,.45.842l2.13-1.23a.477.477,0,0,0,.239-.414V27.171H30.3a.929.929,0,0,1,.928.928Zm-5.4-5.84a.41.41,0,1,1,.41.41.41.41,0,0,1-.41-.41Zm.823,3.547a.41.41,0,1,1-.41-.41.41.41,0,0,1,.41.41ZM34.219,35a.41.41,0,1,1-.41.41.41.41,0,0,1,.41-.41ZM3.763,53.614a.477.477,0,1,1-.675.675,10.364,10.364,0,0,1,0-14.64.477.477,0,1,1,.675.675,9.409,9.409,0,0,0,0,13.291Zm1.39-1.39a7.441,7.441,0,0,1,0-10.512.477.477,0,1,1,.675.675,6.486,6.486,0,0,0,0,9.162.477.477,0,1,1-.675.675Zm2.739-7.773a3.563,3.563,0,0,0,0,5.034.477.477,0,1,1-.675.675,4.519,4.519,0,0,1,0-6.383.477.477,0,1,1,.675.675Z" transform="translate(976.939 3320.193)"/>
    </g>
    <g transform="matrix(1, 0, 0, 1, 495, 3082.23)" filter="url(#Elipse_12526)">
      <circle id="Elipse_12526-2" data-name="Elipse 12526" cx="80" cy="80" r="80" transform="translate(225 225.77)" fill="#fff"/>
    </g>
    <g id="Grupo_1202712" data-name="Grupo 1202712" transform="translate(-14.791 1)">
      <g id="Grupo_1202711" data-name="Grupo 1202711" transform="translate(676.472 3236.897)">
        <g id="Grupo_1202711-2" data-name="Grupo 1202711" clip-path="url(#clip-path-8)">
          <path id="Trazado_1042477" data-name="Trazado 1042477" d="M680.918,601.579s7.843,2.582,32.333,8.267,22.573,21.86,25.634,48.538,2.426,49.491-5.446,61.736-12.317,19.608-29.372,8.237a143.653,143.653,0,0,0,5.164,37.172h-102.8s4.81-36.871,4.81-54.8S604.313,670.7,609.2,646.14c3.73-18.763,30.834-31.457,42.911-36.268s28.812-8.293,28.812-8.293" transform="translate(-529.773 -525.53)" fill="#50a098"/>
          <path id="Trazado_1042478" data-name="Trazado 1042478" d="M694.928,795.843c29.729,8.86,64.061,1.073,92.994-7.111-28.313,9.3-63.818,17.144-92.994,7.111" transform="translate(-607.078 -689.024)" fill="#edf7f6"/>
          <path id="Trazado_1042479" data-name="Trazado 1042479" d="M694.928,966.318c27.3,9.13,58.676,3.776,85.689-3.5-26.409,8.414-59.016,13.764-85.689,3.5" transform="translate(-607.078 -841.105)" fill="#edf7f6"/>
          <path id="Trazado_1042480" data-name="Trazado 1042480" d="M1408.014,847.984c8.536,4.218,17.772,4.732,27.115,5.391-9.12.536-19.287-.174-27.115-5.391" transform="translate(-1230.019 -740.786)" fill="#edf7f6"/>
          <path id="Trazado_1042481" data-name="Trazado 1042481" d="M1381.121,1027.974a65.386,65.386,0,0,0,32.031-2.794,46.682,46.682,0,0,1-32.031,2.794" transform="translate(-1206.526 -895.582)" fill="#edf7f6"/>
          <path id="Trazado_1042482" data-name="Trazado 1042482" d="M1389.458,1189.518c11.31,1.988,22.679,1.756,33.632-1.893-10.417,4.752-22.756,4.993-33.632,1.893" transform="translate(-1213.809 -1037.491)" fill="#edf7f6"/>
          <path id="Trazado_1042483" data-name="Trazado 1042483" d="M853.594,666.827c22.85,1.27,46.7-1.208,68.454-8.507-21.147,8.385-45.927,10.994-68.454,8.507" transform="translate(-745.687 -575.098)" fill="#edf7f6"/>
          <path id="Trazado_1042484" data-name="Trazado 1042484" d="M664.147,1143.152c29.275,2.309,62.23,3.375,90.271-6.876-27.265,11.312-61.522,10.4-90.271,6.876" transform="translate(-580.189 -992.633)" fill="#edf7f6"/>
          <path id="Trazado_1042485" data-name="Trazado 1042485" d="M678.993,1384.36c28.024,5.763,57.576,5.846,85.852,2.041-27.8,5.032-58.378,4.913-85.852-2.041" transform="translate(-593.158 -1209.355)" fill="#edf7f6"/>
          <path id="Trazado_1042486" data-name="Trazado 1042486" d="M646.261,1566.466c29.666,8.861,61.513,10.421,92.273,9.678-30.407,2.027-63.229.336-92.273-9.678" transform="translate(-564.563 -1368.441)" fill="#edf7f6"/>
          <path id="Trazado_1042487" data-name="Trazado 1042487" d="M627.594,1775.721c31.431,6.736,64.691,7.128,96.413,2.276-31.268,6.083-65.536,5.65-96.413-2.276" transform="translate(-548.257 -1551.242)" fill="#edf7f6"/>
          <path id="Trazado_1042488" data-name="Trazado 1042488" d="M1548.125,1331.089a58.046,58.046,0,0,0,13.574-3.226,19.959,19.959,0,0,1-13.574,3.226" transform="translate(-1352.418 -1160.001)" fill="#edf7f6"/>
          <path id="Trazado_1042489" data-name="Trazado 1042489" d="M1470.694,1342.282c10.34,9.923,3.768,27.049-1.379,38.018,4.251-11.655,10.543-27.257,1.379-38.018" transform="translate(-1283.571 -1172.597)" fill="#edf7f6"/>
          <path id="Trazado_1042490" data-name="Trazado 1042490" d="M1545.472,1366.712c6.437,5.1,9.18,12.209,8.359,20.451-.389-8.278-2.71-14.427-8.359-20.451" transform="translate(-1350.101 -1193.939)" fill="#edf7f6"/>
          <path id="Trazado_1042491" data-name="Trazado 1042491" d="M633.375,943a21.622,21.622,0,0,0,6.349,8.418A11.671,11.671,0,0,1,633.375,943" transform="translate(-553.307 -823.789)" fill="#edf7f6"/>
          <path id="Trazado_1042492" data-name="Trazado 1042492" d="M659.138,947.363c-2.668,17.457-4.6,34.889-6.122,52.474a152.5,152.5,0,0,1,6.122-52.474" transform="translate(-570.242 -827.602)" fill="#38706b"/>
          <path id="Trazado_1042493" data-name="Trazado 1042493" d="M1378.323,739.82c-17.939,19.774-9.05,48.246-10.495,71.86-1.009-22.887-9.365-54.081,10.495-71.86" transform="translate(-1192.643 -646.295)" fill="#38706b"/>
          <path id="Trazado_1042494" data-name="Trazado 1042494" d="M1358.121,1300.2c9.309.427,21.45,3.371,27.993,10.64-8.3-5.547-18.583-7.822-27.993-10.64" transform="translate(-1186.434 -1135.831)" fill="#38706b"/>
          <path id="Trazado_1042495" data-name="Trazado 1042495" d="M1286.633,1528.494a63.13,63.13,0,0,1,11.644,9.6,24.025,24.025,0,0,1-11.644-9.6" transform="translate(-1123.983 -1335.269)" fill="#38706b"/>
          <path id="Trazado_1042496" data-name="Trazado 1042496" d="M1332.688,1355.922c7.576-7.292,10.219-17.924,10.986-28.053,1.094,10.033-2.192,22.215-10.986,28.053" transform="translate(-1164.216 -1160.006)" fill="#38706b"/>
          <path id="Trazado_1042497" data-name="Trazado 1042497" d="M924.592,624.123c10.8-8.523,12.114-18.007,12.059-21.273-2.54-.727-4.325-1.272-4.325-1.272s-17.4,2.07-28.812,8.293a18.619,18.619,0,0,0-9.241,12.827c-1.119,5.84,17.433,11.593,30.318,1.424" transform="translate(-781.182 -525.53)" fill="#3d7a74"/>
          <path id="Trazado_1042498" data-name="Trazado 1042498" d="M687.055,1091.352s3.2,14.734-9.037,28.86c-9.328-4.956-33.117-25.362-40.317-25.362s-8.8-1.18-12.448-4.824c-5.83,3.207-13.264,4.824-15.013-2.464-2.915,0-3.644-1.472-3.644-4.526-2.474-2.474-4.664-5.823,5.393-13.694-3.164-1-4.724-1.227-9.825,1.688s-11,4.218-12.209.911c-.424-1.269,14.017-10.354,20.576-10.354s12.388-1.427,16.761.76,20.374,14.8,27.611,18.74,25.585,9.161,32.152,10.265" transform="translate(-515.368 -926.987)" fill="#ffa959"/>
          <path id="Trazado_1042499" data-name="Trazado 1042499" d="M721.655,1164.966c.119-1.6,5.393-7.669,11.515-10.05-3.687,2.707-8.584,6.2-11.515,10.05" transform="translate(-630.427 -1008.917)" fill="#bd6f26"/>
          <path id="Trazado_1042500" data-name="Trazado 1042500" d="M764.317,1099.9a12.791,12.791,0,0,1,6.122-3.79,17.364,17.364,0,0,1-6.122,3.79" transform="translate(-667.696 -957.547)" fill="#bd6f26"/>
          <path id="Trazado_1042501" data-name="Trazado 1042501" d="M750.481,1213.812c1.686-4.247,6.984-6.936,11.078-8.162-3.735,2.446-8.276,4.559-11.078,8.162" transform="translate(-655.609 -1053.237)" fill="#bd6f26"/>
          <path id="Trazado_1042502" data-name="Trazado 1042502" d="M815.95,1273.791c-1.6-1.314-8.8-3.156-7.142.888-2.332-2.332,2.984-5.371,7.142-.888" transform="translate(-706.064 -1110.751)" fill="#bd6f26"/>
          <path id="Trazado_1042503" data-name="Trazado 1042503" d="M700,41.635s-10.831-17.629-6.414-34.108c3.79-14.139,13.647-4.207,23.9-3.207,11.952,1.166,32.5-6.7,37.9,10.495,7.288,3.79,7.265,12.983-4.4,46.216-7.871,0-50.992-19.4-50.992-19.4" transform="translate(-604.979 0)" fill="#1c2928"/>
          <path id="Trazado_1042504" data-name="Trazado 1042504" d="M723.484,56.8c2.649,6.391,8.832,8.5,15.093,9.4-6.325.915-14.281-2.26-15.093-9.4" transform="translate(-632.025 -49.624)" fill="#374040"/>
          <path id="Trazado_1042505" data-name="Trazado 1042505" d="M747.667,150.65s-9.364,56.084,19.276,60.019a34,34,0,0,1,2.186,12.462c0,4.154,14.492,8.075,25.478-1.749,7.148-6.391,8.409-16.4,8.409-16.4s-4.091-7.155-6.059-20.054c2.514-2.514,5.248-9.842,4.7-16.826-.391-4.99-7.738-7.876-11.5,1.227-1.312-10.713-8.576-7.161-8.576-19.168-4.276-2.811-25.459-4.178-33.913.486" transform="translate(-651.871 -128.936)" fill="#ffa959"/>
          <path id="Trazado_1042506" data-name="Trazado 1042506" d="M826.534,346.645c-1.33,5.679-8.338,23.055,4.227,16.034-12.152,9.473-7.517-8.9-4.227-16.034" transform="translate(-718.835 -302.824)" fill="#bd6f26"/>
          <path id="Trazado_1042507" data-name="Trazado 1042507" d="M850.2,506.454a10.426,10.426,0,0,0,8.529-4.152,6.034,6.034,0,0,1-8.529,4.152" transform="translate(-742.72 -438.803)" fill="#bd6f26"/>
          <path id="Trazado_1042508" data-name="Trazado 1042508" d="M1115.211,442.942c-.671,2.47-3.184,2.532-4.7.806a4.264,4.264,0,0,0,4.7-.806" transform="translate(-970.125 -386.947)" fill="#bd6f26"/>
          <path id="Trazado_1042509" data-name="Trazado 1042509" d="M914.718,359.265a1.729,1.729,0,1,1-1.725-1.844,1.788,1.788,0,0,1,1.725,1.844" transform="translate(-796.069 -312.238)" fill="#1c2928"/>
          <path id="Trazado_1042510" data-name="Trazado 1042510" d="M788.4,359.265a1.729,1.729,0,1,1-1.726-1.844,1.788,1.788,0,0,1,1.726,1.844" transform="translate(-685.721 -312.238)" fill="#1c2928"/>
          <path id="Trazado_1042511" data-name="Trazado 1042511" d="M889.986,332.179c1.913-3.637,6.618-3.277,8.6,0-2.7-1.917-5.883-2.223-8.6,0" transform="translate(-777.478 -287.92)" fill="#bd6f26"/>
          <path id="Trazado_1042512" data-name="Trazado 1042512" d="M878.465,269.47s6.34-3.012,12.729,0a6.7,6.7,0,0,0-6.365-4.161,6.885,6.885,0,0,0-6.365,4.161" transform="translate(-767.414 -231.77)" fill="#1c2928"/>
          <path id="Trazado_1042513" data-name="Trazado 1042513" d="M775.856,336.069a5.679,5.679,0,0,0-7.7,0c1.669-3.279,6.083-3.471,7.7,0" transform="translate(-671.052 -291.372)" fill="#bd6f26"/>
          <path id="Trazado_1042514" data-name="Trazado 1042514" d="M774.384,272.538s-5.17-2.721-9.912,0c1.365-3.279,3.624-3.717,4.915-3.717,3.744,0,5,3.717,5,3.717" transform="translate(-667.831 -234.838)" fill="#1c2928"/>
          <path id="Trazado_1042515" data-name="Trazado 1042515" d="M1110.51,316.049s2.515-7.193,5.259-5.733-.777,14.285-4.664,12.827c0,0,2.522-3.207-.595-7.094" transform="translate(-970.125 -270.917)" fill="#bd6f26"/>
          <path id="Trazado_1042516" data-name="Trazado 1042516" d="M934.376,495.381c-8.454,19.823-24.112,19.109-24.112,19.109a24.4,24.4,0,0,1,.887,2.583c13.6-.848,21.767-14.185,23.224-21.692" transform="translate(-795.193 -432.757)" fill="#bd6f26"/>
          <path id="Trazado_1042517" data-name="Trazado 1042517" d="M112.508,1176.559,60.475,1130.21H.583L0,1131.378l3.539,1.465,49.078,43.716h56.489l2.819,1.167Z" transform="translate(0 -987.334)" fill="#3b4746"/>
          <path id="Trazado_1042518" data-name="Trazado 1042518" d="M111.924,1185.793H52.033L0,1139.444H59.891Z" transform="translate(0 -995.401)" fill="#4a5958"/>
          <path id="Trazado_1042519" data-name="Trazado 1042519" d="M0,1139.444l111.925,46.349H52.033Z" transform="translate(0 -995.401)" fill="#445251"/>
          <path id="Trazado_1042520" data-name="Trazado 1042520" d="M450.134,1170.859a1.668,1.668,0,1,1-2.383-.769,1.778,1.778,0,0,1,2.383.769" transform="translate(-390.489 -1021.991)" fill="#263332"/>
          <path id="Trazado_1042521" data-name="Trazado 1042521" d="M411.477,1177.6a1.081,1.081,0,1,1-1.544-.5,1.152,1.152,0,0,1,1.544.5" transform="translate(-357.684 -1028.177)" fill="#263332"/>
          <path id="Trazado_1042522" data-name="Trazado 1042522" d="M993.31,1212.318h0a42.018,42.018,0,0,1,5.618,2.948c2.72-3.523,7.488-10.708,8.348-17.523-1.383-.752-3.088-1.822-4.969-3.076a39.865,39.865,0,0,1-9,17.651" transform="translate(-867.74 -1043.643)" fill="#3b4746"/>
          <path id="Trazado_1042523" data-name="Trazado 1042523" d="M1035.09,1215.539a5.846,5.846,0,1,1-5.846-5.846,5.846,5.846,0,0,1,5.846,5.846" transform="translate(-894.025 -1056.769)" fill="#445251"/>
          <path id="Trazado_1042524" data-name="Trazado 1042524" d="M1042.9,1224.665a4.525,4.525,0,1,1-4.525-4.525,4.525,4.525,0,0,1,4.525,4.525" transform="translate(-903.151 -1065.896)" fill="#edf7f6"/>
          <path id="Trazado_1042525" data-name="Trazado 1042525" d="M1054.516,1241.894h-.008a.378.378,0,0,1-.291-.145l-2.009-2.571a.379.379,0,0,1,.6-.467l1.723,2.2,1.36-1.6a.379.379,0,0,1,.578.492l-1.661,1.95a.379.379,0,0,1-.289.133" transform="translate(-919.123 -1081.991)" fill="#4a5958"/>
          <path id="Trazado_1042526" data-name="Trazado 1042526" d="M200.329,1304.873A236.355,236.355,0,0,1,168.8,1293.6c-5.539-.729-13.993.874-18.074-5.247-4.081-1.6-5.393-3.936-5.393-7.142-2.041-2.041-2.769-5.393-1.6-8.891-3.134-3.134-10.349-12.681-3.061-14.576s12.1-2.478,12.1-.875-3.658,4.46-8.461,5.874l8.307,7.4s17.937-2.524,20.852-.738c2.5,1.534,1.166,2.77,1.166,2.77s3.11-.331,4.53,2.2c.987,1.757-1.42,3.05-1.42,3.05s5.271,1.025,3.232,3.9c-1.433,2.023-10.156,5.034-10.156,5.034l1.351,1.2H201.5s-.366,9.756-1.169,17.312" transform="translate(-120.133 -1097.169)" fill="#ffa959"/>
          <path id="Trazado_1042527" data-name="Trazado 1042527" d="M280.006,1384.367a137.8,137.8,0,0,1-21.864,4.907,110.417,110.417,0,0,1,21.864-4.907" transform="translate(-225.509 -1209.361)" fill="#bd6f26"/>
          <path id="Trazado_1042528" data-name="Trazado 1042528" d="M315.348,1425.875a138.054,138.054,0,0,1-20.309,5.587,89.418,89.418,0,0,1,20.309-5.587" transform="translate(-257.742 -1245.623)" fill="#bd6f26"/>
          <path id="Trazado_1042529" data-name="Trazado 1042529" d="M341.328,1496.568a24.2,24.2,0,0,1-8.624,3.162,22.132,22.132,0,0,1,8.624-3.162" transform="translate(-290.645 -1307.379)" fill="#bd6f26"/>
          <path id="Trazado_1042530" data-name="Trazado 1042530" d="M217.025,1368.26a16.224,16.224,0,0,1-5.773,2.031,8.3,8.3,0,0,1,5.773-2.031" transform="translate(-184.546 -1195.286)" fill="#bd6f26"/>
        </g>
      </g>
    </g>
  </g>
</svg>
