<svg xmlns="http://www.w3.org/2000/svg" xmlns:xlink="http://www.w3.org/1999/xlink" width="118" height="118" viewBox="0 0 118 118">
  <defs>
    <filter id="Trazado_982547" x="0" y="0" width="118" height="118" filterUnits="userSpaceOnUse">
      <feOffset dy="3" input="SourceAlpha"/>
      <feGaussianBlur stdDeviation="3" result="blur"/>
      <feFlood flood-opacity="0.161"/>
      <feComposite operator="in" in2="blur"/>
      <feComposite in="SourceGraphic"/>
    </filter>
  </defs>
  <g id="Grupo_1202751" data-name="Grupo 1202751" transform="translate(-741.25 -1353.932)">
    <g id="Grupo_1202667" data-name="Grupo 1202667" transform="translate(752.75 1362.432)">
      <g id="Grupo_1174813" data-name="Grupo 1174813" transform="translate(-2.5 -2.5)">
        <g id="Grupo_1201680" data-name="Grupo 1201680">
          <g id="Grupo_1201330" data-name="Grupo 1201330">
            <g id="Grupo_1172010" data-name="Grupo 1172010">
              <g id="Grupo_1171046" data-name="Grupo 1171046">
                <g id="Grupo_1148525" data-name="Grupo 1148525">
                  <g transform="matrix(1, 0, 0, 1, -9, -6)" filter="url(#Trazado_982547)">
                    <g id="Trazado_982547-2" data-name="Trazado 982547" transform="translate(9 6)" fill="#f5e9fe">
                      <path d="M 50 98.5 C 43.45188522338867 98.5 37.10042953491211 97.21787261962891 31.12207221984863 94.68923950195312 C 25.34691429138184 92.24655914306641 20.15997123718262 88.74931335449219 15.70532894134521 84.29468536376953 C 11.2506856918335 79.84004211425781 7.753442764282227 74.65309906005859 5.310757160186768 68.8779296875 C 2.782128572463989 62.89957046508789 1.5 56.54811477661133 1.5 50 C 1.5 43.45188522338867 2.782128572463989 37.10042953491211 5.310757160186768 31.12207221984863 C 7.753442764282227 25.34691429138184 11.2506856918335 20.15997123718262 15.70532894134521 15.70532894134521 C 20.15997123718262 11.2506856918335 25.34691429138184 7.753442764282227 31.12207221984863 5.310757160186768 C 37.10042953491211 2.782128572463989 43.45188522338867 1.5 50 1.5 C 56.54811477661133 1.5 62.89957046508789 2.782128572463989 68.8779296875 5.310757160186768 C 74.65309906005859 7.753442764282227 79.84004211425781 11.2506856918335 84.29468536376953 15.70532894134521 C 88.74931335449219 20.15997123718262 92.24655914306641 25.34691429138184 94.68923950195312 31.12207221984863 C 97.21787261962891 37.10042953491211 98.5 43.45188522338867 98.5 50 C 98.5 56.54811477661133 97.21787261962891 62.89957046508789 94.68923950195312 68.8779296875 C 92.24655914306641 74.65309906005859 88.74931335449219 79.84004211425781 84.29468536376953 84.29468536376953 C 79.84004211425781 88.74931335449219 74.65309906005859 92.24655914306641 68.8779296875 94.68923950195312 C 62.89957046508789 97.21787261962891 56.54811477661133 98.5 50 98.5 Z" stroke="none"/>
                      <path d="M 50 3 C 43.65372467041016 3 37.49886322021484 4.242263793945312 31.70639801025391 6.6922607421875 C 26.11003112792969 9.059326171875 21.08335113525391 12.44861602783203 16.76598358154297 16.76598358154297 C 12.44861602783203 21.08335113525391 9.059326171875 26.11003112792969 6.6922607421875 31.70639801025391 C 4.242263793945312 37.49886322021484 3 43.65372467041016 3 50 C 3 56.34627532958984 4.242263793945312 62.50113677978516 6.6922607421875 68.29360198974609 C 9.059326171875 73.88996887207031 12.44861602783203 78.91666412353516 16.76598358154297 83.23401641845703 C 21.08335113525391 87.55138397216797 26.11003112792969 90.940673828125 31.70639801025391 93.3077392578125 C 37.49886322021484 95.75773620605469 43.65372467041016 97 50 97 C 56.34627532958984 97 62.50113677978516 95.75773620605469 68.29360198974609 93.3077392578125 C 73.88996887207031 90.940673828125 78.91666412353516 87.55138397216797 83.23401641845703 83.23401641845703 C 87.55138397216797 78.91666412353516 90.940673828125 73.88996887207031 93.3077392578125 68.29360198974609 C 95.75773620605469 62.50113677978516 97 56.34627532958984 97 50 C 97 43.65372467041016 95.75773620605469 37.49886322021484 93.3077392578125 31.70639801025391 C 90.940673828125 26.11003112792969 87.55138397216797 21.08335113525391 83.23401641845703 16.76598358154297 C 78.91666412353516 12.44861602783203 73.88996887207031 9.059326171875 68.29360198974609 6.6922607421875 C 62.50113677978516 4.242263793945312 56.34627532958984 3 50 3 M 50 0 C 77.61424255371094 0 100 22.38577270507812 100 50 C 100 77.61424255371094 77.61424255371094 100 50 100 C 22.38577270507812 100 0 77.61424255371094 0 50 C 0 22.38577270507812 22.38577270507812 0 50 0 Z" stroke="none" fill="#a530fe"/>
                    </g>
                  </g>
                </g>
              </g>
            </g>
          </g>
        </g>
      </g>
    </g>
    <g id="artificial-intelligence_12429417" transform="translate(741.026 1333.075)">
      <path id="Trazado_1042638" data-name="Trazado 1042638" d="M153.072,105.4h8.056a4.243,4.243,0,0,0,4.235-4.235V95.193c8.413-2.31,4.142-4.116,0-14.578v-5.13A23.6,23.6,0,1,0,121.21,87.094v23.341h31.862Z" transform="translate(-78.957 -4.303)" fill="#f1cbbc" fill-rule="evenodd"/>
      <path id="Trazado_1042639" data-name="Trazado 1042639" d="M209.02,127.377h17.049v19.64h-19.64V129.968Z" transform="translate(-154.564 -68.967)" fill="#615260" fill-rule="evenodd"/>
      <path id="Trazado_1042640" data-name="Trazado 1042640" d="M52.818,320.617a10.953,10.953,0,0,0,0-3.153,1.355,1.355,0,0,0-1.349-1.165,2.74,2.74,0,0,1-2.375-4.115,1.355,1.355,0,0,0-.336-1.753,11.073,11.073,0,0,0-2.728-1.575,1.355,1.355,0,0,0-1.686.585,2.74,2.74,0,0,1-4.751,0,1.355,1.355,0,0,0-1.683-.586,10.953,10.953,0,0,0-2.732,1.574,1.355,1.355,0,0,0-.335,1.753,2.74,2.74,0,0,1-2.376,4.115,1.355,1.355,0,0,0-1.35,1.167,10.951,10.951,0,0,0,0,3.153,1.355,1.355,0,0,0,1.349,1.165,2.74,2.74,0,0,1,2.375,4.115,1.355,1.355,0,0,0,.336,1.753,11.076,11.076,0,0,0,2.728,1.575,1.355,1.355,0,0,0,1.686-.585,2.74,2.74,0,0,1,4.751,0,1.355,1.355,0,0,0,1.683.586,10.951,10.951,0,0,0,2.732-1.574,1.355,1.355,0,0,0,.335-1.753,2.74,2.74,0,0,1,2.376-4.115,1.355,1.355,0,0,0,1.35-1.167Zm-7.621.29a3.732,3.732,0,1,1-1.366-5.1,3.732,3.732,0,0,1,1.366,5.1Z" transform="translate(-4.296 -224.334)" fill="#ffd266" fill-rule="evenodd"/>
      <path id="Trazado_1042641" data-name="Trazado 1042641" d="M40.278,96.215A3.015,3.015,0,1,1,35.057,93.2a2.987,2.987,0,0,1,1.83-1.4,3.143,3.143,0,0,1,.785-.107,3.023,3.023,0,0,1,2.606,4.526Zm-.386-5.359a4.448,4.448,0,1,0-2.232,8.3,4.448,4.448,0,0,0,2.232-8.3ZM90.421,88.1c-.332.745-1.629,1.4-4.206,2.1a.719.719,0,0,0-.527.692v5.97a3.522,3.522,0,0,1-3.517,3.519H80.736V76.108a.7.7,0,0,0-.148-.437l-2.044-2.666a.719.719,0,0,0-.569-.275H72.219V70.682H82.253L85.688,74.7V76.31a.741.741,0,0,0,.051.269c1.086,2.74,2.175,4.882,3.051,6.608,1.224,2.411,2.032,4,1.632,4.909ZM74.114,100.378H79.3V76.35l-1.681-2.189h-5.4v3.888a.718.718,0,0,1-.717.719H67.615v6.42l1.689,1.35a.714.714,0,0,1,.27.557v18.32H73.4V101.1A.718.718,0,0,1,74.114,100.378Zm-31.145,4.735a11.59,11.59,0,0,0,1.934-1.229,2.069,2.069,0,0,0,.512-2.68,2.019,2.019,0,0,1,1.751-3.036h.008a2.067,2.067,0,0,0,2.058-1.786,11.651,11.651,0,0,0,0-3.358,2.069,2.069,0,0,0-2.057-1.78h0a2.019,2.019,0,0,1-1.751-3.036,2.059,2.059,0,0,0-.513-2.673A11.718,11.718,0,0,0,42.969,84.3V82.79a.752.752,0,0,0-.093-.356c-.087-.148-.169-.3-.252-.463l6.312-7.81h2.21v3.888a.718.718,0,0,0,.717.719H55.75v5.111l-4.231,3.21a.731.731,0,0,0-.284.578v17.749H42.969Zm-2.3-1.162a.643.643,0,0,0,.8.275,10.3,10.3,0,0,0,2.554-1.471.644.644,0,0,0,.159-.833,3.455,3.455,0,0,1,2.991-5.191h.007a.642.642,0,0,0,.638-.551,10.23,10.23,0,0,0,0-2.948.643.643,0,0,0-.638-.551h0a3.455,3.455,0,0,1-2.992-5.191.644.644,0,0,0-.159-.833,10.384,10.384,0,0,0-2.551-1.471.638.638,0,0,0-.8.275,3.455,3.455,0,0,1-5.994.007.639.639,0,0,0-.8-.282,10.309,10.309,0,0,0-2.554,1.471.644.644,0,0,0-.159.833,3.455,3.455,0,0,1-2.991,5.191h-.008a.642.642,0,0,0-.638.551,10.23,10.23,0,0,0,0,2.948.637.637,0,0,0,.638.551h0a3.456,3.456,0,0,1,2.993,5.191.643.643,0,0,0,.159.833,10.171,10.171,0,0,0,2.551,1.471.638.638,0,0,0,.8-.275,3.458,3.458,0,0,1,5.994,0Zm-.737-33.269c0,.168-.006.336-.006.5a22.9,22.9,0,0,0,2,9.368l6.11-7.562a.715.715,0,0,1,.558-.262h2.552V70.682Zm11.219-4.909H40.568a22.737,22.737,0,0,1,3.486-7.689l3.126,5.292a.714.714,0,0,0,.618.356h3.348Zm0,3.479H40c.058-.692.146-1.37.264-2.041H51.145v2.041Zm2.4-18.992a23.026,23.026,0,0,0-8.554,6.581l3.22,5.453h2.939V61a.713.713,0,0,1,.21-.5L53.946,57.9a.717.717,0,0,1,.507-.208h1.3V55.471L53.8,53.86a.733.733,0,0,1-.26-.557ZM62.7,57.694H60.661V48.4q1.01-.091,2.043-.1Zm3.477-3.055v3.056H64.138V48.34a22.865,22.865,0,0,1,4.873.813v3.64l-2.431,1.2a.718.718,0,0,0-.4.645Zm-9.256-.061-1.949-1.612V49.676a22.475,22.475,0,0,1,4.251-1.095v9.113H57.184V55.136a.733.733,0,0,0-.26-.557ZM52.58,77.331V61.3l2.171-2.176H70.785V77.33H52.58ZM58.5,90.654l1.9-1.538a.717.717,0,0,0,.266-.557V78.768H62.7v26.647H58.5Zm-1.314-6.42a.718.718,0,0,1-.284.571l-4.231,3.21v17.4h4.395v-15.1a.716.716,0,0,1,.266-.557l1.9-1.538V78.768H57.184v5.467Zm9.266,1.86,1.689,1.35v17.971h-4V78.768H66.18V85.53A.718.718,0,0,0,66.45,86.094ZM82.4,59.373a22.982,22.982,0,0,0-11.953-9.758v3.62a.717.717,0,0,1-.4.645l-2.431,1.2v2.612H71.5a.717.717,0,0,1,.717.712v3.888h7.223ZM72.219,67.21v2.041H82.583a.708.708,0,0,1,.545.248l2.56,2.988v-1.3a22.908,22.908,0,0,0-.346-3.976Zm0-3.479h7.518a.712.712,0,0,0,.5-.208l2.884-2.854a22.65,22.65,0,0,1,1.915,5.1H72.219Zm17.848,18.8c-.848-1.665-1.9-3.74-2.945-6.36v-4.99A24.318,24.318,0,1,0,41.535,82.978v.752a2.064,2.064,0,0,0-2.113,1.021,2.024,2.024,0,0,1-3.508,0,2.056,2.056,0,0,0-2.57-.893,11.577,11.577,0,0,0-2.911,1.679,2.06,2.06,0,0,0-.512,2.673,2.019,2.019,0,0,1-1.75,3.036h-.008a2.067,2.067,0,0,0-2.057,1.786,11.651,11.651,0,0,0,0,3.358,2.068,2.068,0,0,0,2.057,1.78h0a2.02,2.02,0,0,1,1.751,3.036,2.069,2.069,0,0,0,.513,2.68,11.806,11.806,0,0,0,2.905,1.672,2.016,2.016,0,0,0,.782.154,2.067,2.067,0,0,0,1.792-1.048,2.024,2.024,0,0,1,3.508,0,2.064,2.064,0,0,0,2.114,1.021v.45a.718.718,0,0,0,.717.719H74.114a.718.718,0,0,0,.717-.719v-4.318H82.17a4.959,4.959,0,0,0,4.952-4.956V91.433c2.79-.813,4.1-1.605,4.611-2.76.676-1.531-.205-3.264-1.665-6.138Z" transform="translate(0)" fill-rule="evenodd"/>
    </g>
  </g>
</svg>
