<svg xmlns="http://www.w3.org/2000/svg" xmlns:xlink="http://www.w3.org/1999/xlink" width="118" height="118" viewBox="0 0 118 118">
  <defs>
    <filter id="Trazado_982547" x="0" y="0" width="118" height="118" filterUnits="userSpaceOnUse">
      <feOffset dy="3" input="SourceAlpha"/>
      <feGaussianBlur stdDeviation="3" result="blur"/>
      <feFlood flood-opacity="0.161"/>
      <feComposite operator="in" in2="blur"/>
      <feComposite in="SourceGraphic"/>
    </filter>
  </defs>
  <g id="Grupo_1202753" data-name="Grupo 1202753" transform="translate(-1161.25 -1353.932)">
    <g id="Grupo_1202668" data-name="Grupo 1202668" transform="translate(1172.75 1362.432)">
      <g id="Grupo_1174813" data-name="Grupo 1174813" transform="translate(-2.5 -2.5)">
        <g id="Grupo_1201680" data-name="Grupo 1201680">
          <g id="Grupo_1201330" data-name="Grupo 1201330">
            <g id="Grupo_1172010" data-name="Grupo 1172010">
              <g id="Grupo_1171046" data-name="Grupo 1171046">
                <g id="Grupo_1148525" data-name="Grupo 1148525">
                  <g transform="matrix(1, 0, 0, 1, -9, -6)" filter="url(#Trazado_982547)">
                    <g id="Trazado_982547-2" data-name="Trazado 982547" transform="translate(9 6)" fill="#f5e9fe">
                      <path d="M 50 98.5 C 43.45188522338867 98.5 37.10042953491211 97.21787261962891 31.12207221984863 94.68923950195312 C 25.34691429138184 92.24655914306641 20.15997123718262 88.74931335449219 15.70532894134521 84.29468536376953 C 11.2506856918335 79.84004211425781 7.753442764282227 74.65309906005859 5.310757160186768 68.8779296875 C 2.782128572463989 62.89957046508789 1.5 56.54811477661133 1.5 50 C 1.5 43.45188522338867 2.782128572463989 37.10042953491211 5.310757160186768 31.12207221984863 C 7.753442764282227 25.34691429138184 11.2506856918335 20.15997123718262 15.70532894134521 15.70532894134521 C 20.15997123718262 11.2506856918335 25.34691429138184 7.753442764282227 31.12207221984863 5.310757160186768 C 37.10042953491211 2.782128572463989 43.45188522338867 1.5 50 1.5 C 56.54811477661133 1.5 62.89957046508789 2.782128572463989 68.8779296875 5.310757160186768 C 74.65309906005859 7.753442764282227 79.84004211425781 11.2506856918335 84.29468536376953 15.70532894134521 C 88.74931335449219 20.15997123718262 92.24655914306641 25.34691429138184 94.68923950195312 31.12207221984863 C 97.21787261962891 37.10042953491211 98.5 43.45188522338867 98.5 50 C 98.5 56.54811477661133 97.21787261962891 62.89957046508789 94.68923950195312 68.8779296875 C 92.24655914306641 74.65309906005859 88.74931335449219 79.84004211425781 84.29468536376953 84.29468536376953 C 79.84004211425781 88.74931335449219 74.65309906005859 92.24655914306641 68.8779296875 94.68923950195312 C 62.89957046508789 97.21787261962891 56.54811477661133 98.5 50 98.5 Z" stroke="none"/>
                      <path d="M 50 3 C 43.65372467041016 3 37.49886322021484 4.242263793945312 31.70639801025391 6.6922607421875 C 26.11003112792969 9.059326171875 21.08335113525391 12.44861602783203 16.76598358154297 16.76598358154297 C 12.44861602783203 21.08335113525391 9.059326171875 26.11003112792969 6.6922607421875 31.70639801025391 C 4.242263793945312 37.49886322021484 3 43.65372467041016 3 50 C 3 56.34627532958984 4.242263793945312 62.50113677978516 6.6922607421875 68.29360198974609 C 9.059326171875 73.88996887207031 12.44861602783203 78.91666412353516 16.76598358154297 83.23401641845703 C 21.08335113525391 87.55138397216797 26.11003112792969 90.940673828125 31.70639801025391 93.3077392578125 C 37.49886322021484 95.75773620605469 43.65372467041016 97 50 97 C 56.34627532958984 97 62.50113677978516 95.75773620605469 68.29360198974609 93.3077392578125 C 73.88996887207031 90.940673828125 78.91666412353516 87.55138397216797 83.23401641845703 83.23401641845703 C 87.55138397216797 78.91666412353516 90.940673828125 73.88996887207031 93.3077392578125 68.29360198974609 C 95.75773620605469 62.50113677978516 97 56.34627532958984 97 50 C 97 43.65372467041016 95.75773620605469 37.49886322021484 93.3077392578125 31.70639801025391 C 90.940673828125 26.11003112792969 87.55138397216797 21.08335113525391 83.23401641845703 16.76598358154297 C 78.91666412353516 12.44861602783203 73.88996887207031 9.059326171875 68.29360198974609 6.6922607421875 C 62.50113677978516 4.242263793945312 56.34627532958984 3 50 3 M 50 0 C 77.61424255371094 0 100 22.38577270507812 100 50 C 100 77.61424255371094 77.61424255371094 100 50 100 C 22.38577270507812 100 0 77.61424255371094 0 50 C 0 22.38577270507812 22.38577270507812 0 50 0 Z" stroke="none" fill="#a530fe"/>
                    </g>
                  </g>
                </g>
              </g>
            </g>
          </g>
        </g>
      </g>
    </g>
    <g id="Page-1" transform="translate(1193.359 1378.698)">
      <g id="_054---Ai-Security" data-name="054---Ai-Security" transform="translate(0 0)">
        <g id="Icons" transform="translate(1.11 1.11)">
          <path id="Shape" d="M7.163,21a5.71,5.71,0,0,0-1.643.244" transform="translate(0.608 2.311)" fill="#02a9f4"/>
          <path id="Shape-2" data-name="Shape" d="M14.431,29.321V44.862a2.227,2.227,0,0,0,2.22,2.22h8.88v6.66a8.88,8.88,0,1,1-17.761,0,6.66,6.66,0,0,1-6.66-6.66,6.537,6.537,0,0,1,1.776-4.507,6.651,6.651,0,0,1,.977-11.522,5.566,5.566,0,0,1,2.253-9.258h.011A5.55,5.55,0,0,1,5.55,19.33,5.485,5.485,0,0,1,6.66,16H17.95l6.017,6.005a2.212,2.212,0,0,0,1.565.655V27.1h-8.88A2.227,2.227,0,0,0,14.431,29.321Z" transform="translate(0 1.761)" fill="#ef314c"/>
          <g id="Grupo_1202752" data-name="Grupo 1202752" transform="translate(11.101 17.761)">
            <path id="Shape-3" data-name="Shape" d="M15.55,26H12.22A2.227,2.227,0,0,0,10,28.22V43.761a2.227,2.227,0,0,0,2.22,2.22h3.33a2.227,2.227,0,0,1-2.22-2.22V28.22A2.227,2.227,0,0,1,15.55,26Z" transform="translate(-10 -14.899)" fill="#bb193b"/>
            <path id="Shape-4" data-name="Shape" d="M20.715,50.66A8.88,8.88,0,0,1,13.5,59.38a8.864,8.864,0,0,0,10.546-8.72V44h-3.33Z" transform="translate(-9.615 -12.918)" fill="#bb193b"/>
            <path id="Shape-5" data-name="Shape" d="M22.517,22.005,16.5,16H13.17l6.017,6.005a2.212,2.212,0,0,0,1.565.655V27.1h3.33V22.66A2.212,2.212,0,0,1,22.517,22.005Z" transform="translate(-9.651 -16)" fill="#bb193b"/>
          </g>
          <rect id="Rectangle-path" width="22" height="20" rx="2" transform="translate(14.532 29.192)" fill="#ff9801"/>
          <path id="Shape-6" data-name="Shape" d="M31.33,26H28a2.227,2.227,0,0,1,2.22,2.22V43.761A2.227,2.227,0,0,1,28,45.981h3.33a2.227,2.227,0,0,0,2.22-2.22V28.22A2.227,2.227,0,0,0,31.33,26Z" transform="translate(3.082 2.862)" fill="#f57c00"/>
          <path id="Shape-7" data-name="Shape" d="M45.645,42.575a6.537,6.537,0,0,1,1.776,4.507,6.66,6.66,0,0,1-6.66,6.66,8.88,8.88,0,1,1-17.761,0v-6.66h8.88a2.227,2.227,0,0,0,2.22-2.22V29.321a2.227,2.227,0,0,0-2.22-2.22H23V22.66a2.212,2.212,0,0,0,1.565-.655L30.582,16H41.871a5.485,5.485,0,0,1,1.11,3.33,5.55,5.55,0,0,1-.577,2.464h.011a5.566,5.566,0,0,1,2.253,9.258,6.651,6.651,0,0,1,.977,11.522Z" transform="translate(2.532 1.761)" fill="#ef314c"/>
          <path id="Shape-8" data-name="Shape" d="M47.816,37.091a6.66,6.66,0,0,0-3.863-6.039A5.566,5.566,0,0,0,41.7,21.795h-.011a5.55,5.55,0,0,0,.577-2.464A5.485,5.485,0,0,0,41.156,16h-3.33a5.485,5.485,0,0,1,1.11,3.33,5.55,5.55,0,0,1-.577,2.464h.011a5.566,5.566,0,0,1,2.253,9.258A6.651,6.651,0,0,1,41.6,42.575a6.537,6.537,0,0,1,1.776,4.507,6.66,6.66,0,0,1-6.66,6.66,8.88,8.88,0,0,1-7.215,8.72,8.864,8.864,0,0,0,10.546-8.72,6.66,6.66,0,0,0,6.66-6.66,6.537,6.537,0,0,0-1.776-4.507A6.645,6.645,0,0,0,47.816,37.091Z" transform="translate(3.247 1.761)" fill="#bb193b"/>
          <path id="Shape-9" data-name="Shape" d="M40.643,21.244A5.71,5.71,0,0,0,39,21" transform="translate(4.293 2.311)" fill="#02a9f4"/>
          <path id="Shape-10" data-name="Shape" d="M47.4,2.22V15.541a2.227,2.227,0,0,1-2.22,2.22h-12.4l-6.017,6.005a2.2,2.2,0,0,1-3.13,0l-6.017-6.005H5.22A2.227,2.227,0,0,1,3,15.541V2.22A2.227,2.227,0,0,1,5.22,0H45.182A2.227,2.227,0,0,1,47.4,2.22Z" transform="translate(0.331)" fill="#02a9f4"/>
        </g>
        <g id="Layer_11">
          <path id="Shape-11" data-name="Shape" d="M30.44,32.11A1.11,1.11,0,0,0,29.33,31H27.11a1.11,1.11,0,1,0,0,2.22v6.66a1.11,1.11,0,1,0,0,2.22h2.22a1.11,1.11,0,1,0,0-2.22V33.22A1.11,1.11,0,0,0,30.44,32.11Z" transform="translate(2.862 3.412)"/>
          <path id="Shape-12" data-name="Shape" d="M20.886,31a3,3,0,0,0-2.973,2.624l-.9,7.229a1.11,1.11,0,1,0,2.2.275l.3-2.358h2.757l.3,2.358a1.11,1.11,0,0,0,1.1.972,1.18,1.18,0,0,0,.139-.009,1.11,1.11,0,0,0,.964-1.239l-.9-7.229A3,3,0,0,0,20.886,31Zm-1.1,5.55.333-2.651a.777.777,0,0,1,1.541,0l.333,2.651Z" transform="translate(1.871 3.412)"/>
          <path id="Shape-13" data-name="Shape" d="M0,39.962a7.77,7.77,0,0,0,2.442,5.651A7.659,7.659,0,0,0,1.11,49.953a7.783,7.783,0,0,0,6.714,7.7,9.991,9.991,0,0,0,18.818,3.536,9.991,9.991,0,0,0,18.818-3.536,7.783,7.783,0,0,0,6.714-7.7,7.659,7.659,0,0,0-1.332-4.339,7.759,7.759,0,0,0-.858-12,6.678,6.678,0,0,0-2.513-9.562,6.594,6.594,0,0,0-.154-4.146,3.33,3.33,0,0,0,2.638-3.255V3.33A3.33,3.33,0,0,0,46.622,0H6.66A3.33,3.33,0,0,0,3.33,3.33V16.651a3.33,3.33,0,0,0,2.636,3.255,6.594,6.594,0,0,0-.154,4.146A6.678,6.678,0,0,0,3.3,33.614,7.8,7.8,0,0,0,0,39.962Zm48.843-9.991a4.447,4.447,0,0,1-1.315,3.164,4.192,4.192,0,0,1-.457.394A1.11,1.11,0,1,0,48.4,35.305c.016-.012.029-.027.044-.038a5.52,5.52,0,0,1,.888,8.706,7.807,7.807,0,0,0-2.285-1.323,1.11,1.11,0,0,0-.76,2.085A5.565,5.565,0,0,1,48.473,46.2h.007V46.2a5.426,5.426,0,0,1,1.473,3.749A5.55,5.55,0,0,1,45.43,55.4a9.919,9.919,0,0,0-.645-2.532,1.11,1.11,0,1,0-2.057.833,7.77,7.77,0,1,1-14.977,2.914v-5.55h7.77a3.33,3.33,0,0,0,3.33-3.33V32.192a3.33,3.33,0,0,0-3.33-3.33h-7.77V26.44a3.3,3.3,0,0,0,1.24-.777l5.691-5.682H44.909a4.249,4.249,0,0,1,.426,3.4,6.708,6.708,0,0,0-.932-.07,1.11,1.11,0,0,0,0,2.22,4.475,4.475,0,0,1,1.322.2h.011a4.42,4.42,0,0,1,3.107,4.24ZM17.761,48.843a1.11,1.11,0,0,1-1.11-1.11V32.192a1.11,1.11,0,0,1,1.11-1.11H35.522a1.11,1.11,0,0,1,1.11,1.11V47.733a1.11,1.11,0,0,1-1.11,1.11ZM5.55,16.651V3.33A1.11,1.11,0,0,1,6.66,2.22H46.622a1.11,1.11,0,0,1,1.11,1.11V16.651a1.11,1.11,0,0,1-1.11,1.11H29.972a1.11,1.11,0,1,0,0,2.22h1.567L27.418,24.1a1.11,1.11,0,0,1-1.554,0l-4.121-4.115h1.567a1.11,1.11,0,1,0,0-2.22H6.66a1.11,1.11,0,0,1-1.11-1.11ZM4.833,35.267c.016.011.029.026.044.038A1.11,1.11,0,0,0,6.21,33.528a4.192,4.192,0,0,1-.457-.394,4.451,4.451,0,0,1,1.8-7.4h.011a4.475,4.475,0,0,1,1.321-.2,1.11,1.11,0,0,0,0-2.22,6.708,6.708,0,0,0-.932.07,4.249,4.249,0,0,1,.426-3.4H18.6l5.686,5.676a3.308,3.308,0,0,0,1.245.784v2.421h-7.77a3.33,3.33,0,0,0-3.33,3.33V47.733a3.33,3.33,0,0,0,3.33,3.33h7.77v5.55A7.77,7.77,0,1,1,10.554,53.7,1.11,1.11,0,1,0,8.5,52.867,9.918,9.918,0,0,0,7.853,55.4,5.55,5.55,0,0,1,3.33,49.953,5.426,5.426,0,0,1,4.8,46.208V46.2H4.81a5.565,5.565,0,0,1,2.183-1.465A1.111,1.111,0,0,0,6.23,42.65a7.807,7.807,0,0,0-2.285,1.323,5.52,5.52,0,0,1,.888-8.706Z" transform="translate(0 0)"/>
          <path id="Shape-14" data-name="Shape" d="M9,12.77a1.11,1.11,0,0,0,1.11,1.11h2.22a1.11,1.11,0,0,0,0-2.22V6.11a1.11,1.11,0,0,0-1.895-.785l-1.11,1.11A1.11,1.11,0,0,0,10.11,8.33v3.33A1.11,1.11,0,0,0,9,12.77Z" transform="translate(0.991 0.55)"/>
          <path id="Shape-15" data-name="Shape" d="M35,12.77a1.11,1.11,0,0,0,1.11,1.11h2.22a1.11,1.11,0,0,0,0-2.22V6.11a1.11,1.11,0,0,0-1.895-.785l-1.11,1.11A1.11,1.11,0,0,0,36.11,8.33v3.33A1.11,1.11,0,0,0,35,12.77Z" transform="translate(3.852 0.55)"/>
          <path id="Shape-16" data-name="Shape" d="M17.33,13.88a3.33,3.33,0,0,0,3.33-3.33V8.33a3.33,3.33,0,0,0-6.66,0v2.22A3.33,3.33,0,0,0,17.33,13.88ZM16.22,8.33a1.11,1.11,0,0,1,2.22,0v2.22a1.11,1.11,0,1,1-2.22,0Z" transform="translate(1.541 0.55)"/>
          <path id="Shape-17" data-name="Shape" d="M22,12.77a1.11,1.11,0,0,0,1.11,1.11h2.22a1.11,1.11,0,1,0,0-2.22V6.11a1.11,1.11,0,0,0-1.895-.785l-1.11,1.11A1.11,1.11,0,0,0,23.11,8.33v3.33A1.11,1.11,0,0,0,22,12.77Z" transform="translate(2.421 0.55)"/>
          <path id="Shape-18" data-name="Shape" d="M30.33,13.88a3.33,3.33,0,0,0,3.33-3.33V8.33a3.33,3.33,0,1,0-6.66,0v2.22A3.33,3.33,0,0,0,30.33,13.88ZM29.22,8.33a1.11,1.11,0,0,1,2.22,0v2.22a1.11,1.11,0,1,1-2.22,0Z" transform="translate(2.972 0.55)"/>
        </g>
      </g>
    </g>
  </g>
</svg>
