<svg xmlns="http://www.w3.org/2000/svg" xmlns:xlink="http://www.w3.org/1999/xlink" width="118" height="118" viewBox="0 0 118 118">
  <defs>
    <filter id="Trazado_982547" x="0" y="0" width="118" height="118" filterUnits="userSpaceOnUse">
      <feOffset dy="3" input="SourceAlpha"/>
      <feGaussianBlur stdDeviation="3" result="blur"/>
      <feFlood flood-opacity="0.161"/>
      <feComposite operator="in" in2="blur"/>
      <feComposite in="SourceGraphic"/>
    </filter>
  </defs>
  <g id="Grupo_1202861" data-name="Grupo 1202861" transform="translate(-898.5 -3703)">
    <g id="Grupo_1202730" data-name="Grupo 1202730" transform="translate(907.5 3709)">
      <g id="Grupo_1174813" data-name="Grupo 1174813">
        <g id="Grupo_1201680" data-name="Grupo 1201680">
          <g id="Grupo_1201330" data-name="Grupo 1201330">
            <g id="Grupo_1172010" data-name="Grupo 1172010">
              <g id="Grupo_1171046" data-name="Grupo 1171046">
                <g id="Grupo_1148525" data-name="Grupo 1148525">
                  <g transform="matrix(1, 0, 0, 1, -9, -6)" filter="url(#Trazado_982547)">
                    <g id="Trazado_982547-2" data-name="Trazado 982547" transform="translate(9 6)" fill="#eafafc">
                      <path d="M 50 98.5 C 43.45188522338867 98.5 37.10042953491211 97.21787261962891 31.12207221984863 94.68923950195312 C 25.34691429138184 92.24655914306641 20.15997123718262 88.74931335449219 15.70532894134521 84.29468536376953 C 11.2506856918335 79.84004211425781 7.753442764282227 74.65309906005859 5.310757160186768 68.8779296875 C 2.782128572463989 62.89957046508789 1.5 56.54811477661133 1.5 50 C 1.5 43.45188522338867 2.782128572463989 37.10042953491211 5.310757160186768 31.12207221984863 C 7.753442764282227 25.34691429138184 11.2506856918335 20.15997123718262 15.70532894134521 15.70532894134521 C 20.15997123718262 11.2506856918335 25.34691429138184 7.753442764282227 31.12207221984863 5.310757160186768 C 37.10042953491211 2.782128572463989 43.45188522338867 1.5 50 1.5 C 56.54811477661133 1.5 62.89957046508789 2.782128572463989 68.8779296875 5.310757160186768 C 74.65309906005859 7.753442764282227 79.84004211425781 11.2506856918335 84.29468536376953 15.70532894134521 C 88.74931335449219 20.15997123718262 92.24655914306641 25.34691429138184 94.68923950195312 31.12207221984863 C 97.21787261962891 37.10042953491211 98.5 43.45188522338867 98.5 50 C 98.5 56.54811477661133 97.21787261962891 62.89957046508789 94.68923950195312 68.8779296875 C 92.24655914306641 74.65309906005859 88.74931335449219 79.84004211425781 84.29468536376953 84.29468536376953 C 79.84004211425781 88.74931335449219 74.65309906005859 92.24655914306641 68.8779296875 94.68923950195312 C 62.89957046508789 97.21787261962891 56.54811477661133 98.5 50 98.5 Z" stroke="none"/>
                      <path d="M 50 3 C 43.65372467041016 3 37.49886322021484 4.242263793945312 31.70639801025391 6.6922607421875 C 26.11003112792969 9.059326171875 21.08335113525391 12.44861602783203 16.76598358154297 16.76598358154297 C 12.44861602783203 21.08335113525391 9.059326171875 26.11003112792969 6.6922607421875 31.70639801025391 C 4.242263793945312 37.49886322021484 3 43.65372467041016 3 50 C 3 56.34627532958984 4.242263793945312 62.50113677978516 6.6922607421875 68.29360198974609 C 9.059326171875 73.88996887207031 12.44861602783203 78.91666412353516 16.76598358154297 83.23401641845703 C 21.08335113525391 87.55138397216797 26.11003112792969 90.940673828125 31.70639801025391 93.3077392578125 C 37.49886322021484 95.75773620605469 43.65372467041016 97 50 97 C 56.34627532958984 97 62.50113677978516 95.75773620605469 68.29360198974609 93.3077392578125 C 73.88996887207031 90.940673828125 78.91666412353516 87.55138397216797 83.23401641845703 83.23401641845703 C 87.55138397216797 78.91666412353516 90.940673828125 73.88996887207031 93.3077392578125 68.29360198974609 C 95.75773620605469 62.50113677978516 97 56.34627532958984 97 50 C 97 43.65372467041016 95.75773620605469 37.49886322021484 93.3077392578125 31.70639801025391 C 90.940673828125 26.11003112792969 87.55138397216797 21.08335113525391 83.23401641845703 16.76598358154297 C 78.91666412353516 12.44861602783203 73.88996887207031 9.059326171875 68.29360198974609 6.6922607421875 C 62.50113677978516 4.242263793945312 56.34627532958984 3 50 3 M 50 0 C 77.61424255371094 0 100 22.38577270507812 100 50 C 100 77.61424255371094 77.61424255371094 100 50 100 C 22.38577270507812 100 0 77.61424255371094 0 50 C 0 22.38577270507812 22.38577270507812 0 50 0 Z" stroke="none" fill="#3ad1e9"/>
                    </g>
                  </g>
                </g>
              </g>
            </g>
          </g>
        </g>
      </g>
    </g>
    <g id="bionic-eye_8598581" transform="translate(922.738 3722.545)">
      <g id="Grupo_1202859" data-name="Grupo 1202859" transform="translate(5.664 7.574)">
        <path id="Trazado_1042896" data-name="Trazado 1042896" d="M55.618,119.394a29.5,29.5,0,0,0-41.713,0l-8.241,8.241,8.241,8.241a29.5,29.5,0,0,0,41.713,0l8.241-8.241Z" transform="translate(-5.664 -98.758)" fill="#e3edf6"/>
        <path id="Trazado_1042897" data-name="Trazado 1042897" d="M15.686,248.858l-8.241-8.241L5.664,242.4l8.241,8.241a29.5,29.5,0,0,0,41.713,0l1.781-1.781A29.5,29.5,0,0,1,15.686,248.858Z" transform="translate(-5.664 -213.522)" fill="#c5d9ec"/>
        <circle id="Elipse_12572" data-name="Elipse 12572" cx="16.834" cy="16.834" r="16.834" transform="translate(12.263 12.042)" fill="#6efeeb"/>
        <path id="Trazado_1042898" data-name="Trazado 1042898" d="M129.781,173.864a16.834,16.834,0,0,1-12.774-27.8A16.834,16.834,0,1,0,140.745,169.8,16.767,16.767,0,0,1,129.781,173.864Z" transform="translate(-98.873 -129.964)" fill="#24eed7"/>
        <path id="Trazado_1042899" data-name="Trazado 1042899" d="M190.008,176.4a7.841,7.841,0,0,0-.2-1.774l2.084-2.35-1.279-2.215-3.079.63a7.81,7.81,0,0,0-3.072-1.776l-.993-2.978h-2.558l-.993,2.978a7.811,7.811,0,0,0-3.072,1.776l-3.079-.63-1.279,2.215,2.084,2.35a7.8,7.8,0,0,0,0,3.548l-2.084,2.35,1.279,2.215,3.079-.63a7.811,7.811,0,0,0,3.072,1.776l.993,2.978h2.558l.993-2.978a7.812,7.812,0,0,0,3.072-1.776l3.079.63,1.279-2.215-2.084-2.35A7.84,7.84,0,0,0,190.008,176.4Z" transform="translate(-153.088 -147.524)" fill="#4b6276"/>
        <circle id="Elipse_12573" data-name="Elipse 12573" cx="4.333" cy="4.333" r="4.333" transform="translate(24.764 24.544)" fill="#f072ae"/>
        <path id="Trazado_1042900" data-name="Trazado 1042900" d="M224.8,229.329a4.333,4.333,0,0,1-3.832-6.354,4.333,4.333,0,1,0,5.854,5.854A4.313,4.313,0,0,1,224.8,229.329Z" transform="translate(-193.895 -197.931)" fill="#e54696"/>
        <path id="Trazado_1042901" data-name="Trazado 1042901" d="M16.321,7.574H7.5V16.4h3.6V11.175h5.221Z" transform="translate(-7.287 -7.574)" fill="#5b92f2"/>
        <path id="Trazado_1042902" data-name="Trazado 1042902" d="M428.585,7.574h8.821V16.4h-3.6V11.175h-5.221Z" transform="translate(-379.413 -7.574)" fill="#5b92f2"/>
        <path id="Trazado_1042903" data-name="Trazado 1042903" d="M428.585,437.332h8.821v-8.821h-3.6v5.221h-5.221Z" transform="translate(-379.413 -379.57)" fill="#5b92f2"/>
        <path id="Trazado_1042904" data-name="Trazado 1042904" d="M16.321,437.332H7.5v-8.821h3.6v5.221h5.221Z" transform="translate(-7.287 -379.57)" fill="#5b92f2"/>
        <line id="Línea_860" data-name="Línea 860" y2="1.744" transform="translate(21.268 17.54)" fill="none" stroke="#fff" stroke-miterlimit="10" stroke-width="1"/>
      </g>
      <g id="Grupo_1202860" data-name="Grupo 1202860" transform="translate(5.664 7.574)">
        <path id="Trazado_1042905" data-name="Trazado 1042905" d="M58.626,132.867l-3.009,3.009a29.5,29.5,0,0,1-41.713,0l-8.241-8.241,8.241-8.241a29.5,29.5,0,0,1,41.713,0l8.241,8.241-3.893,3.893" transform="translate(-5.664 -98.758)" fill="none" stroke="#000" stroke-linejoin="bevel" stroke-miterlimit="10" stroke-width="1"/>
        <circle id="Elipse_12574" data-name="Elipse 12574" cx="16.834" cy="16.834" r="16.834" transform="translate(12.263 12.042)" fill="none" stroke="#000" stroke-linejoin="bevel" stroke-miterlimit="10" stroke-width="1"/>
        <circle id="Elipse_12575" data-name="Elipse 12575" cx="4.333" cy="4.333" r="4.333" transform="translate(24.764 24.544)" fill="none" stroke="#000" stroke-linejoin="bevel" stroke-miterlimit="10" stroke-width="1"/>
        <path id="Trazado_1042906" data-name="Trazado 1042906" d="M16.321,7.574H7.5V16.4h3.6V11.175h5.221Z" transform="translate(-7.287 -7.574)" fill="none" stroke="#000" stroke-miterlimit="10" stroke-width="1"/>
        <line id="Línea_861" data-name="Línea 861" y2="5.232" transform="translate(9.035 6.204)" fill="none" stroke="#000" stroke-miterlimit="10" stroke-width="1"/>
        <line id="Línea_862" data-name="Línea 862" x1="5.232" transform="translate(6.419 8.82)" fill="none" stroke="#000" stroke-miterlimit="10" stroke-width="1"/>
        <path id="Trazado_1042907" data-name="Trazado 1042907" d="M428.585,7.574h8.821V16.4h-3.6V11.175h-5.221Z" transform="translate(-379.413 -7.574)" fill="none" stroke="#000" stroke-miterlimit="10" stroke-width="1"/>
        <line id="Línea_863" data-name="Línea 863" y2="5.232" transform="translate(49.172 6.204)" fill="none" stroke="#000" stroke-miterlimit="10" stroke-width="1"/>
        <line id="Línea_864" data-name="Línea 864" x2="5.232" transform="translate(46.556 8.82)" fill="none" stroke="#000" stroke-miterlimit="10" stroke-width="1"/>
        <path id="Trazado_1042908" data-name="Trazado 1042908" d="M428.585,437.332h8.821v-8.821h-3.6v5.221h-5.221Z" transform="translate(-379.413 -379.57)" fill="none" stroke="#000" stroke-miterlimit="10" stroke-width="1"/>
        <line id="Línea_865" data-name="Línea 865" y1="5.232" transform="translate(49.172 46.326)" fill="none" stroke="#000" stroke-miterlimit="10" stroke-width="1"/>
        <line id="Línea_866" data-name="Línea 866" x2="5.232" transform="translate(46.556 48.942)" fill="none" stroke="#000" stroke-miterlimit="10" stroke-width="1"/>
        <path id="Trazado_1042909" data-name="Trazado 1042909" d="M16.321,437.332H7.5v-8.821h3.6v5.221h5.221Z" transform="translate(-7.287 -379.57)" fill="none" stroke="#000" stroke-miterlimit="10" stroke-width="1"/>
        <line id="Línea_867" data-name="Línea 867" y1="5.232" transform="translate(9.035 46.326)" fill="none" stroke="#000" stroke-miterlimit="10" stroke-width="1"/>
        <line id="Línea_868" data-name="Línea 868" x1="5.232" transform="translate(6.419 48.942)" fill="none" stroke="#000" stroke-miterlimit="10" stroke-width="1"/>
        <path id="Trazado_1042910" data-name="Trazado 1042910" d="M190.008,176.4a7.841,7.841,0,0,0-.2-1.774l2.084-2.35-1.279-2.215-3.079.63a7.81,7.81,0,0,0-3.072-1.776l-.993-2.978h-2.558l-.993,2.978a7.811,7.811,0,0,0-3.072,1.776l-3.079-.63-1.279,2.215,2.084,2.35a7.8,7.8,0,0,0,0,3.548l-2.084,2.35,1.279,2.215,3.079-.63a7.811,7.811,0,0,0,3.072,1.776l.993,2.978h2.558l.993-2.978a7.812,7.812,0,0,0,3.072-1.776l3.079.63,1.279-2.215-2.084-2.35A7.84,7.84,0,0,0,190.008,176.4Z" transform="translate(-153.088 -147.524)" fill="none" stroke="#000" stroke-miterlimit="10" stroke-width="1"/>
      </g>
    </g>
  </g>
</svg>
