<svg xmlns="http://www.w3.org/2000/svg" xmlns:xlink="http://www.w3.org/1999/xlink" width="118" height="118" viewBox="0 0 118 118">
  <defs>
    <filter id="Trazado_982547" x="0" y="0" width="118" height="118" filterUnits="userSpaceOnUse">
      <feOffset dy="3" input="SourceAlpha"/>
      <feGaussianBlur stdDeviation="3" result="blur"/>
      <feFlood flood-opacity="0.161"/>
      <feComposite operator="in" in2="blur"/>
      <feComposite in="SourceGraphic"/>
    </filter>
  </defs>
  <g id="Grupo_1202755" data-name="Grupo 1202755" transform="translate(-268.5 -2585.932)">
    <g id="Grupo_1202681" data-name="Grupo 1202681" transform="translate(277.5 2591.932)">
      <g id="Grupo_1174813" data-name="Grupo 1174813">
        <g id="Grupo_1201680" data-name="Grupo 1201680">
          <g id="Grupo_1201330" data-name="Grupo 1201330">
            <g id="Grupo_1172010" data-name="Grupo 1172010">
              <g id="Grupo_1171046" data-name="Grupo 1171046">
                <g id="Grupo_1148525" data-name="Grupo 1148525">
                  <g transform="matrix(1, 0, 0, 1, -9, -6)" filter="url(#Trazado_982547)">
                    <g id="Trazado_982547-2" data-name="Trazado 982547" transform="translate(9 6)" fill="#f5e9fe">
                      <path d="M 50 98.5 C 43.45188522338867 98.5 37.10042953491211 97.21787261962891 31.12207221984863 94.68923950195312 C 25.34691429138184 92.24655914306641 20.15997123718262 88.74931335449219 15.70532894134521 84.29468536376953 C 11.2506856918335 79.84004211425781 7.753442764282227 74.65309906005859 5.310757160186768 68.8779296875 C 2.782128572463989 62.89957046508789 1.5 56.54811477661133 1.5 50 C 1.5 43.45188522338867 2.782128572463989 37.10042953491211 5.310757160186768 31.12207221984863 C 7.753442764282227 25.34691429138184 11.2506856918335 20.15997123718262 15.70532894134521 15.70532894134521 C 20.15997123718262 11.2506856918335 25.34691429138184 7.753442764282227 31.12207221984863 5.310757160186768 C 37.10042953491211 2.782128572463989 43.45188522338867 1.5 50 1.5 C 56.54811477661133 1.5 62.89957046508789 2.782128572463989 68.8779296875 5.310757160186768 C 74.65309906005859 7.753442764282227 79.84004211425781 11.2506856918335 84.29468536376953 15.70532894134521 C 88.74931335449219 20.15997123718262 92.24655914306641 25.34691429138184 94.68923950195312 31.12207221984863 C 97.21787261962891 37.10042953491211 98.5 43.45188522338867 98.5 50 C 98.5 56.54811477661133 97.21787261962891 62.89957046508789 94.68923950195312 68.8779296875 C 92.24655914306641 74.65309906005859 88.74931335449219 79.84004211425781 84.29468536376953 84.29468536376953 C 79.84004211425781 88.74931335449219 74.65309906005859 92.24655914306641 68.8779296875 94.68923950195312 C 62.89957046508789 97.21787261962891 56.54811477661133 98.5 50 98.5 Z" stroke="none"/>
                      <path d="M 50 3 C 43.65372467041016 3 37.49886322021484 4.242263793945312 31.70639801025391 6.6922607421875 C 26.11003112792969 9.059326171875 21.08335113525391 12.44861602783203 16.76598358154297 16.76598358154297 C 12.44861602783203 21.08335113525391 9.059326171875 26.11003112792969 6.6922607421875 31.70639801025391 C 4.242263793945312 37.49886322021484 3 43.65372467041016 3 50 C 3 56.34627532958984 4.242263793945312 62.50113677978516 6.6922607421875 68.29360198974609 C 9.059326171875 73.88996887207031 12.44861602783203 78.91666412353516 16.76598358154297 83.23401641845703 C 21.08335113525391 87.55138397216797 26.11003112792969 90.940673828125 31.70639801025391 93.3077392578125 C 37.49886322021484 95.75773620605469 43.65372467041016 97 50 97 C 56.34627532958984 97 62.50113677978516 95.75773620605469 68.29360198974609 93.3077392578125 C 73.88996887207031 90.940673828125 78.91666412353516 87.55138397216797 83.23401641845703 83.23401641845703 C 87.55138397216797 78.91666412353516 90.940673828125 73.88996887207031 93.3077392578125 68.29360198974609 C 95.75773620605469 62.50113677978516 97 56.34627532958984 97 50 C 97 43.65372467041016 95.75773620605469 37.49886322021484 93.3077392578125 31.70639801025391 C 90.940673828125 26.11003112792969 87.55138397216797 21.08335113525391 83.23401641845703 16.76598358154297 C 78.91666412353516 12.44861602783203 73.88996887207031 9.059326171875 68.29360198974609 6.6922607421875 C 62.50113677978516 4.242263793945312 56.34627532958984 3 50 3 M 50 0 C 77.61424255371094 0 100 22.38577270507812 100 50 C 100 77.61424255371094 77.61424255371094 100 50 100 C 22.38577270507812 100 0 77.61424255371094 0 50 C 0 22.38577270507812 22.38577270507812 0 50 0 Z" stroke="none" fill="#a530fe"/>
                    </g>
                  </g>
                </g>
              </g>
            </g>
          </g>
        </g>
      </g>
    </g>
    <g id="robotic-hand_15443226" transform="translate(238.556 2603.804)">
      <path id="Trazado_1042642" data-name="Trazado 1042642" d="M236.737,305.179v10.54a10.548,10.548,0,0,0,10.536,10.536H253.2a10.55,10.55,0,0,0,10.54-10.536v-10.54Z" transform="translate(-153.444 -256.284)" fill="#d8ecfe"/>
      <path id="Trazado_1042643" data-name="Trazado 1042643" d="M112.22,48.895V41.671a1.913,1.913,0,0,0-1.911-1.911h-5.336a1.91,1.91,0,0,0-.215.013,2.1,2.1,0,0,0-1.864-1.144H97.925a2.08,2.08,0,0,0-1.131.334,2.08,2.08,0,0,0-1.131-.334H90.693c-.057,0-.112,0-.168.009v-1.5a.963.963,0,0,0-.963-.963H89.23V31.631h.332a.963.963,0,0,0,.963-.963V22.515a4.581,4.581,0,0,0-9.162,0v8.152a.963.963,0,0,0,.963.963h.332v4.541H82.33a.963.963,0,0,0-.963.963V50.989L79.51,49.6V44.675a5.7,5.7,0,0,0-5.687-5.691h-.254a2.61,2.61,0,0,0-2.609,2.605V53.381a.963.963,0,0,0,.283.682L83.265,66.038a12.563,12.563,0,0,0,2.677,3.038v6.214a.963.963,0,0,0,.963.963h19.772a.963.963,0,0,0,.963-.963V69.078a12.442,12.442,0,0,0,4.579-9.644V48.895Zm-1.926-1.927h-5.305V41.686h5.305ZM97.925,40.555h4.969a.175.175,0,0,1,.168.168v6.245H97.757V40.723a.172.172,0,0,1,.168-.168Zm-7.232,0h4.969a.175.175,0,0,1,.168.168v6.245H90.525V40.723A.172.172,0,0,1,90.693,40.555Zm-7.4-18.04a2.655,2.655,0,0,1,5.309,0V29.7H83.289Zm1.3,9.116H87.3v4.541H84.584ZM83.293,38.1H88.6v8.87H83.293ZM72.886,41.589a.682.682,0,0,1,.683-.679h.254a3.767,3.767,0,0,1,3.76,3.764v2.77h-4.7Zm0,11.392v-3.61h4.7v.71a.963.963,0,0,0,.386.771l3.4,2.543v6.04a12.482,12.482,0,0,0,.192,2.185l-8.672-8.639Zm32.828,21.347H87.869V70.377a12.386,12.386,0,0,0,5.96,1.52h5.925a12.391,12.391,0,0,0,5.96-1.519v3.95Zm4.579-14.893a10.55,10.55,0,0,1-10.54,10.536H93.829A10.548,10.548,0,0,1,83.293,59.435V48.895h27Zm-10.056-6.522h5.594a.963.963,0,1,1,0,1.927h-5.594a.963.963,0,1,1,0-1.927Zm-38.18-26.9a3.251,3.251,0,0,0,3.1-2.282H69.44a16.528,16.528,0,0,0,.6,3.554H68.182a.963.963,0,0,0-.834.482L65.424,31.1a3.256,3.256,0,1,0,1.692.922l1.622-2.811h1.98a16.554,16.554,0,0,0,4.541,6.172A.963.963,0,0,0,76.5,33.919a14.61,14.61,0,0,1,0-22.3.963.963,0,1,0-1.246-1.469,16.552,16.552,0,0,0-4.54,6.172h-1.98l-1.622-2.811a3.241,3.241,0,1,0-1.692.923l1.924,3.334a.963.963,0,0,0,.834.482H70.04a16.529,16.529,0,0,0-.6,3.558H65.157a3.247,3.247,0,1,0-3.1,4.208Zm2.73,9.6a1.323,1.323,0,1,1,1.323-1.323A1.324,1.324,0,0,1,64.789,35.614ZM63.466,11.25a1.323,1.323,0,1,1,1.323,1.323A1.324,1.324,0,0,1,63.466,11.25Zm-1.408,10.2a1.321,1.321,0,1,1-1.323,1.323A1.322,1.322,0,0,1,62.058,21.45Zm47.775-1.926a3.255,3.255,0,0,0-3.1,2.286h-4.282a16.529,16.529,0,0,0-.6-3.558h1.858a.964.964,0,0,0,.834-.482l1.924-3.333a3.257,3.257,0,1,0-1.692-.923l-1.622,2.811h-1.98a16.552,16.552,0,0,0-4.54-6.172.963.963,0,1,0-1.246,1.469,14.61,14.61,0,0,1,0,22.3.963.963,0,1,0,1.246,1.469,16.552,16.552,0,0,0,4.541-6.172h1.98l1.622,2.811a3.242,3.242,0,1,0,1.692-.922l-1.924-3.334a.963.963,0,0,0-.834-.482h-1.857a16.511,16.511,0,0,0,.6-3.554h4.282a3.247,3.247,0,1,0,3.1-4.212ZM107.1,9.931a1.321,1.321,0,1,1-1.323,1.319A1.322,1.322,0,0,1,107.1,9.931Zm1.323,24.36a1.323,1.323,0,1,1-1.323-1.323A1.324,1.324,0,0,1,108.421,34.291Zm1.412-10.2a1.321,1.321,0,1,1,1.319-1.319A1.322,1.322,0,0,1,109.833,24.091ZM92.269,28.36a8.443,8.443,0,1,0-12.65,0,.963.963,0,1,1-1.443,1.276,10.37,10.37,0,1,1,15.536,0,.963.963,0,1,1-1.443-1.276Z"/>
      <path id="Trazado_1042644" data-name="Trazado 1042644" d="M394.4,252.8H399.7v5.282H394.4Z" transform="translate(-289.41 -211.109)" fill="#8ac9fe"/>
      <path id="Trazado_1042645" data-name="Trazado 1042645" d="M165.806,250.918a3.767,3.767,0,0,0-3.76-3.764h-.254a.682.682,0,0,0-.683.679v5.855h4.7Z" transform="translate(-88.223 -206.244)" fill="#d8ecfe"/>
      <path id="Trazado_1042646" data-name="Trazado 1042646" d="M347.151,245.691v-.948a.175.175,0,0,0-.168-.168h-4.969a.172.172,0,0,0-.168.168v6.245h5.305v-5.3Z" transform="translate(-244.089 -204.02)" fill="#8ac9fe"/>
      <path id="Trazado_1042647" data-name="Trazado 1042647" d="M169.589,312.661l-3.4-2.543a.963.963,0,0,1-.386-.771v-.71h-4.7v3.61l8.672,8.639a12.483,12.483,0,0,1-.192-2.185v-6.04Z" transform="translate(-88.223 -259.266)" fill="#8ac9fe"/>
      <path id="Trazado_1042648" data-name="Trazado 1042648" d="M401.448,24.669a1.321,1.321,0,1,0-1.323-1.323A1.324,1.324,0,0,0,401.448,24.669Z" transform="translate(-294.349 -12.097)" fill="#ffe177"/>
      <path id="Trazado_1042649" data-name="Trazado 1042649" d="M421.318,108.376a1.321,1.321,0,1,0-1.323-1.319A1.32,1.32,0,0,0,421.318,108.376Z" transform="translate(-311.484 -84.285)" fill="#6cf5c2"/>
      <path id="Trazado_1042650" data-name="Trazado 1042650" d="M401.448,192.086a1.323,1.323,0,1,0-1.323-1.323A1.324,1.324,0,0,0,401.448,192.086Z" transform="translate(-294.349 -156.473)" fill="#ffe177"/>
      <path id="Trazado_1042651" data-name="Trazado 1042651" d="M294.6,244.743a.175.175,0,0,0-.168-.168h-4.969a.172.172,0,0,0-.168.168v6.245H294.6Z" transform="translate(-198.766 -204.02)" fill="#8ac9fe"/>
      <path id="Trazado_1042652" data-name="Trazado 1042652" d="M93.976,22A1.323,1.323,0,1,0,95.3,23.323,1.324,1.324,0,0,0,93.976,22Z" transform="translate(-29.187 -12.073)" fill="#ffe177"/>
      <g id="Grupo_1202754" data-name="Grupo 1202754" transform="translate(83.289 19.862)">
        <path id="Trazado_1042653" data-name="Trazado 1042653" d="M275.948,462.809a12.386,12.386,0,0,1-5.96-1.52v3.951h17.846v-3.95a12.392,12.392,0,0,1-5.96,1.519h-5.925Z" transform="translate(-265.408 -410.775)" fill="#8ac9fe"/>
        <path id="Trazado_1042654" data-name="Trazado 1042654" d="M242.017,96.851a2.655,2.655,0,0,0-5.309,0v7.189h5.309Z" transform="translate(-236.708 -94.198)" fill="#8ac9fe"/>
        <path id="Trazado_1042655" data-name="Trazado 1042655" d="M236.737,235.587h5.305v-8.871h-5.305Z" transform="translate(-236.733 -208.481)" fill="#8ac9fe"/>
      </g>
      <path id="Trazado_1042656" data-name="Trazado 1042656" d="M246.12,179.718h2.719v4.541H246.12Z" transform="translate(-161.536 -148.088)" fill="#d8ecfe"/>
      <path id="Trazado_1042657" data-name="Trazado 1042657" d="M74.133,105.735a1.321,1.321,0,1,0,1.319,1.323A1.324,1.324,0,0,0,74.133,105.735Z" transform="translate(-12.074 -84.285)" fill="#6cf5c2"/>
      <path id="Trazado_1042658" data-name="Trazado 1042658" d="M93.976,189.441a1.323,1.323,0,1,0,1.323,1.323A1.324,1.324,0,0,0,93.976,189.441Z" transform="translate(-29.187 -156.473)" fill="#ffe177"/>
    </g>
  </g>
</svg>
