<svg xmlns="http://www.w3.org/2000/svg" xmlns:xlink="http://www.w3.org/1999/xlink" width="118" height="118" viewBox="0 0 118 118">
  <defs>
    <filter id="Trazado_982547" x="0" y="0" width="118" height="118" filterUnits="userSpaceOnUse">
      <feOffset dy="3" input="SourceAlpha"/>
      <feGaussianBlur stdDeviation="3" result="blur"/>
      <feFlood flood-opacity="0.161"/>
      <feComposite operator="in" in2="blur"/>
      <feComposite in="SourceGraphic"/>
    </filter>
  </defs>
  <g id="Grupo_1202757" data-name="Grupo 1202757" transform="translate(-583.5 -2585.932)">
    <g id="Grupo_1202682" data-name="Grupo 1202682" transform="translate(592.5 2591.932)">
      <g id="Grupo_1174813" data-name="Grupo 1174813">
        <g id="Grupo_1201680" data-name="Grupo 1201680">
          <g id="Grupo_1201330" data-name="Grupo 1201330">
            <g id="Grupo_1172010" data-name="Grupo 1172010">
              <g id="Grupo_1171046" data-name="Grupo 1171046">
                <g id="Grupo_1148525" data-name="Grupo 1148525">
                  <g transform="matrix(1, 0, 0, 1, -9, -6)" filter="url(#Trazado_982547)">
                    <g id="Trazado_982547-2" data-name="Trazado 982547" transform="translate(9 6)" fill="#f5e9fe">
                      <path d="M 50 98.5 C 43.45188522338867 98.5 37.10042953491211 97.21787261962891 31.12207221984863 94.68923950195312 C 25.34691429138184 92.24655914306641 20.15997123718262 88.74931335449219 15.70532894134521 84.29468536376953 C 11.2506856918335 79.84004211425781 7.753442764282227 74.65309906005859 5.310757160186768 68.8779296875 C 2.782128572463989 62.89957046508789 1.5 56.54811477661133 1.5 50 C 1.5 43.45188522338867 2.782128572463989 37.10042953491211 5.310757160186768 31.12207221984863 C 7.753442764282227 25.34691429138184 11.2506856918335 20.15997123718262 15.70532894134521 15.70532894134521 C 20.15997123718262 11.2506856918335 25.34691429138184 7.753442764282227 31.12207221984863 5.310757160186768 C 37.10042953491211 2.782128572463989 43.45188522338867 1.5 50 1.5 C 56.54811477661133 1.5 62.89957046508789 2.782128572463989 68.8779296875 5.310757160186768 C 74.65309906005859 7.753442764282227 79.84004211425781 11.2506856918335 84.29468536376953 15.70532894134521 C 88.74931335449219 20.15997123718262 92.24655914306641 25.34691429138184 94.68923950195312 31.12207221984863 C 97.21787261962891 37.10042953491211 98.5 43.45188522338867 98.5 50 C 98.5 56.54811477661133 97.21787261962891 62.89957046508789 94.68923950195312 68.8779296875 C 92.24655914306641 74.65309906005859 88.74931335449219 79.84004211425781 84.29468536376953 84.29468536376953 C 79.84004211425781 88.74931335449219 74.65309906005859 92.24655914306641 68.8779296875 94.68923950195312 C 62.89957046508789 97.21787261962891 56.54811477661133 98.5 50 98.5 Z" stroke="none"/>
                      <path d="M 50 3 C 43.65372467041016 3 37.49886322021484 4.242263793945312 31.70639801025391 6.6922607421875 C 26.11003112792969 9.059326171875 21.08335113525391 12.44861602783203 16.76598358154297 16.76598358154297 C 12.44861602783203 21.08335113525391 9.059326171875 26.11003112792969 6.6922607421875 31.70639801025391 C 4.242263793945312 37.49886322021484 3 43.65372467041016 3 50 C 3 56.34627532958984 4.242263793945312 62.50113677978516 6.6922607421875 68.29360198974609 C 9.059326171875 73.88996887207031 12.44861602783203 78.91666412353516 16.76598358154297 83.23401641845703 C 21.08335113525391 87.55138397216797 26.11003112792969 90.940673828125 31.70639801025391 93.3077392578125 C 37.49886322021484 95.75773620605469 43.65372467041016 97 50 97 C 56.34627532958984 97 62.50113677978516 95.75773620605469 68.29360198974609 93.3077392578125 C 73.88996887207031 90.940673828125 78.91666412353516 87.55138397216797 83.23401641845703 83.23401641845703 C 87.55138397216797 78.91666412353516 90.940673828125 73.88996887207031 93.3077392578125 68.29360198974609 C 95.75773620605469 62.50113677978516 97 56.34627532958984 97 50 C 97 43.65372467041016 95.75773620605469 37.49886322021484 93.3077392578125 31.70639801025391 C 90.940673828125 26.11003112792969 87.55138397216797 21.08335113525391 83.23401641845703 16.76598358154297 C 78.91666412353516 12.44861602783203 73.88996887207031 9.059326171875 68.29360198974609 6.6922607421875 C 62.50113677978516 4.242263793945312 56.34627532958984 3 50 3 M 50 0 C 77.61424255371094 0 100 22.38577270507812 100 50 C 100 77.61424255371094 77.61424255371094 100 50 100 C 22.38577270507812 100 0 77.61424255371094 0 50 C 0 22.38577270507812 22.38577270507812 0 50 0 Z" stroke="none" fill="#a530fe"/>
                    </g>
                  </g>
                </g>
              </g>
            </g>
          </g>
        </g>
      </g>
    </g>
    <g id="time_4272019" transform="translate(611.379 2611.379)">
      <path id="Trazado_1042703" data-name="Trazado 1042703" d="M40.3,58.165H5.854a5.1,5.1,0,0,1-5.1-5.1V31.371a4.471,4.471,0,0,1,3.3-4.31,2.5,2.5,0,0,0,1.8-2.424V18.97a2.492,2.492,0,0,0-1.8-2.424,4.476,4.476,0,0,1-3.3-4.312V5.854a5.1,5.1,0,0,1,5.1-5.1H29.411a5.105,5.105,0,0,1,3.608,1.5L43.91,13.136a5.105,5.105,0,0,1,1.5,3.608l0,36.317a5.1,5.1,0,0,1-5.1,5.1Z" transform="translate(1.164 1.164)" fill="#607d8b"/>
      <path id="Trazado_1042704" data-name="Trazado 1042704" d="M30.543,30.336H6.3A2.553,2.553,0,0,1,3.75,27.785V16.3A2.553,2.553,0,0,1,6.3,13.75H30.543A2.553,2.553,0,0,1,33.1,16.3V27.785A2.553,2.553,0,0,1,30.543,30.336Z" transform="translate(5.819 21.337)" fill="#cfd8dc"/>
      <circle id="Elipse_12539" data-name="Elipse 12539" cx="14.673" cy="14.673" r="14.673" transform="translate(29.983 29.983)" fill="#ffc107"/>
      <path id="Trazado_1042705" data-name="Trazado 1042705" d="M27.586,44.173A16.586,16.586,0,1,1,44.173,27.586,16.606,16.606,0,0,1,27.586,44.173Zm0-29.345A12.759,12.759,0,1,0,40.345,27.586,12.773,12.773,0,0,0,27.586,14.828Z" transform="translate(17.069 17.069)"/>
      <path id="Trazado_1042706" data-name="Trazado 1042706" d="M23.129,30.586a1.9,1.9,0,0,1-1.352-.561l-4.466-4.466a1.915,1.915,0,0,1-.561-1.352V15.914a1.914,1.914,0,0,1,3.828,0v7.5l3.9,3.9a1.915,1.915,0,0,1-1.352,3.269Z" transform="translate(25.992 21.725)"/>
      <path id="Trazado_1042707" data-name="Trazado 1042707" d="M23.6,61.242H7.017A7.023,7.023,0,0,1,0,54.225V31.259a4.47,4.47,0,0,1,4.466-4.466.638.638,0,0,0,.638-.638V19.776a.638.638,0,0,0-.638-.638A4.47,4.47,0,0,1,0,14.673V7.017A7.023,7.023,0,0,1,7.017,0H31.7a6.964,6.964,0,0,1,4.961,2.057l9.771,9.768a6.965,6.965,0,0,1,2.057,4.963v4.264a1.914,1.914,0,0,1-3.828,0V16.788a3.169,3.169,0,0,0-.934-2.256L33.951,4.764A3.2,3.2,0,0,0,31.7,3.828H7.017a3.194,3.194,0,0,0-3.19,3.19v7.655a.638.638,0,0,0,.638.638,4.47,4.47,0,0,1,4.466,4.466v6.379a4.47,4.47,0,0,1-4.466,4.466.638.638,0,0,0-.638.638V54.225a3.194,3.194,0,0,0,3.19,3.19H23.6a1.914,1.914,0,1,1,0,3.828Z"/>
      <path id="Trazado_1042708" data-name="Trazado 1042708" d="M5.914,12.371A1.915,1.915,0,0,1,4,10.457V2.164a1.914,1.914,0,0,1,3.828,0v8.293A1.915,1.915,0,0,1,5.914,12.371Z" transform="translate(6.207 0.388)"/>
      <path id="Trazado_1042709" data-name="Trazado 1042709" d="M9.664,12.371A1.915,1.915,0,0,1,7.75,10.457V2.164a1.914,1.914,0,0,1,3.828,0v8.293A1.915,1.915,0,0,1,9.664,12.371Z" transform="translate(12.026 0.388)"/>
      <path id="Trazado_1042710" data-name="Trazado 1042710" d="M13.414,12.371A1.915,1.915,0,0,1,11.5,10.457V2.164a1.914,1.914,0,0,1,3.828,0v8.293A1.915,1.915,0,0,1,13.414,12.371Z" transform="translate(17.845 0.388)"/>
      <path id="Trazado_1042711" data-name="Trazado 1042711" d="M18.948,33.414H7.466A4.47,4.47,0,0,1,3,28.948V17.466A4.47,4.47,0,0,1,7.466,13H18.948a1.914,1.914,0,0,1,0,3.828H7.466a.638.638,0,0,0-.638.638V28.948a.638.638,0,0,0,.638.638H18.948a1.914,1.914,0,0,1,0,3.828Z" transform="translate(4.655 20.173)"/>
    </g>
  </g>
</svg>
