<svg xmlns="http://www.w3.org/2000/svg" xmlns:xlink="http://www.w3.org/1999/xlink" width="118" height="118" viewBox="0 0 118 118">
  <defs>
    <filter id="Trazado_982547" x="0" y="0" width="118" height="118" filterUnits="userSpaceOnUse">
      <feOffset dy="3" input="SourceAlpha"/>
      <feGaussianBlur stdDeviation="3" result="blur"/>
      <feFlood flood-opacity="0.161"/>
      <feComposite operator="in" in2="blur"/>
      <feComposite in="SourceGraphic"/>
    </filter>
  </defs>
  <g id="Grupo_1202758" data-name="Grupo 1202758" transform="translate(-898.5 -2585.932)">
    <g id="Grupo_1202683" data-name="Grupo 1202683" transform="translate(907.5 2591.932)">
      <g id="Grupo_1174813" data-name="Grupo 1174813">
        <g id="Grupo_1201680" data-name="Grupo 1201680">
          <g id="Grupo_1201330" data-name="Grupo 1201330">
            <g id="Grupo_1172010" data-name="Grupo 1172010">
              <g id="Grupo_1171046" data-name="Grupo 1171046">
                <g id="Grupo_1148525" data-name="Grupo 1148525">
                  <g transform="matrix(1, 0, 0, 1, -9, -6)" filter="url(#Trazado_982547)">
                    <g id="Trazado_982547-2" data-name="Trazado 982547" transform="translate(9 6)" fill="#f5e9fe">
                      <path d="M 50 98.5 C 43.45188522338867 98.5 37.10042953491211 97.21787261962891 31.12207221984863 94.68923950195312 C 25.34691429138184 92.24655914306641 20.15997123718262 88.74931335449219 15.70532894134521 84.29468536376953 C 11.2506856918335 79.84004211425781 7.753442764282227 74.65309906005859 5.310757160186768 68.8779296875 C 2.782128572463989 62.89957046508789 1.5 56.54811477661133 1.5 50 C 1.5 43.45188522338867 2.782128572463989 37.10042953491211 5.310757160186768 31.12207221984863 C 7.753442764282227 25.34691429138184 11.2506856918335 20.15997123718262 15.70532894134521 15.70532894134521 C 20.15997123718262 11.2506856918335 25.34691429138184 7.753442764282227 31.12207221984863 5.310757160186768 C 37.10042953491211 2.782128572463989 43.45188522338867 1.5 50 1.5 C 56.54811477661133 1.5 62.89957046508789 2.782128572463989 68.8779296875 5.310757160186768 C 74.65309906005859 7.753442764282227 79.84004211425781 11.2506856918335 84.29468536376953 15.70532894134521 C 88.74931335449219 20.15997123718262 92.24655914306641 25.34691429138184 94.68923950195312 31.12207221984863 C 97.21787261962891 37.10042953491211 98.5 43.45188522338867 98.5 50 C 98.5 56.54811477661133 97.21787261962891 62.89957046508789 94.68923950195312 68.8779296875 C 92.24655914306641 74.65309906005859 88.74931335449219 79.84004211425781 84.29468536376953 84.29468536376953 C 79.84004211425781 88.74931335449219 74.65309906005859 92.24655914306641 68.8779296875 94.68923950195312 C 62.89957046508789 97.21787261962891 56.54811477661133 98.5 50 98.5 Z" stroke="none"/>
                      <path d="M 50 3 C 43.65372467041016 3 37.49886322021484 4.242263793945312 31.70639801025391 6.6922607421875 C 26.11003112792969 9.059326171875 21.08335113525391 12.44861602783203 16.76598358154297 16.76598358154297 C 12.44861602783203 21.08335113525391 9.059326171875 26.11003112792969 6.6922607421875 31.70639801025391 C 4.242263793945312 37.49886322021484 3 43.65372467041016 3 50 C 3 56.34627532958984 4.242263793945312 62.50113677978516 6.6922607421875 68.29360198974609 C 9.059326171875 73.88996887207031 12.44861602783203 78.91666412353516 16.76598358154297 83.23401641845703 C 21.08335113525391 87.55138397216797 26.11003112792969 90.940673828125 31.70639801025391 93.3077392578125 C 37.49886322021484 95.75773620605469 43.65372467041016 97 50 97 C 56.34627532958984 97 62.50113677978516 95.75773620605469 68.29360198974609 93.3077392578125 C 73.88996887207031 90.940673828125 78.91666412353516 87.55138397216797 83.23401641845703 83.23401641845703 C 87.55138397216797 78.91666412353516 90.940673828125 73.88996887207031 93.3077392578125 68.29360198974609 C 95.75773620605469 62.50113677978516 97 56.34627532958984 97 50 C 97 43.65372467041016 95.75773620605469 37.49886322021484 93.3077392578125 31.70639801025391 C 90.940673828125 26.11003112792969 87.55138397216797 21.08335113525391 83.23401641845703 16.76598358154297 C 78.91666412353516 12.44861602783203 73.88996887207031 9.059326171875 68.29360198974609 6.6922607421875 C 62.50113677978516 4.242263793945312 56.34627532958984 3 50 3 M 50 0 C 77.61424255371094 0 100 22.38577270507812 100 50 C 100 77.61424255371094 77.61424255371094 100 50 100 C 22.38577270507812 100 0 77.61424255371094 0 50 C 0 22.38577270507812 22.38577270507812 0 50 0 Z" stroke="none" fill="#a530fe"/>
                    </g>
                  </g>
                </g>
              </g>
            </g>
          </g>
        </g>
      </g>
    </g>
    <g id="memorize_1281574_1_" data-name="memorize_1281574 (1)" transform="translate(921.18 2609.769)">
      <path id="Trazado_1042677" data-name="Trazado 1042677" d="M26.675,147.875v-9.337H15.262V125.05H8l7.262-15.562A13.487,13.487,0,0,1,28.75,96h5.187a13.487,13.487,0,0,1,13.487,13.487v13.487L41.2,135.425v12.45" transform="translate(-6.961 -83.55)" fill="#ceb2aa"/>
      <path id="Trazado_1042678" data-name="Trazado 1042678" d="M44.312,122.975V109.487A13.487,13.487,0,0,0,30.825,96H28.75a13.487,13.487,0,0,0-13.487,13.487L8,125.05h7.262v13.487H26.675v9.337H38.087v-12.45Zm0,0" transform="translate(-6.961 -83.55)" fill="#e5c7bd"/>
      <path id="Trazado_1042679" data-name="Trazado 1042679" d="M266.675,39.125V28.75h12.45V8h-12.2a3.109,3.109,0,0,0-2.2.912l-1.164,1.163L262.4,8.912A3.112,3.112,0,0,0,260.2,8H248V28.75h12.45V39.125" transform="translate(-215.837 -6.962)" fill="#ed6863"/>
      <path id="Trazado_1042680" data-name="Trazado 1042680" d="M117.787,162.237h-12.45v-20.75H99.112a3.112,3.112,0,1,1,0-6.225,3.114,3.114,0,0,1,4.15-2.935v-.177a4.15,4.15,0,0,1,8.278-.425l-.005-.043a4.152,4.152,0,0,1,6.252,3.58v.555a4.15,4.15,0,0,1-2.075,7.745h-6.225v12.45h8.3" transform="translate(-83.549 -111.4)" fill="#afe26c"/>
      <path id="Trazado_1042681" data-name="Trazado 1042681" d="M168,232h2.075v20.75H168Zm0,0" transform="translate(-146.212 -201.913)" fill="#7ec95f"/>
      <path id="Trazado_1042682" data-name="Trazado 1042682" d="M279.125,266.675V260.45h-2.45a13.391,13.391,0,0,0-1.737-4.112l2.112-2.112-4.15-4.15-2.112,2.112a13.384,13.384,0,0,0-4.112-1.737V248H260.45v2.45a13.389,13.389,0,0,0-4.112,1.737l-2.112-2.112-4.15,4.15,2.112,2.112a13.389,13.389,0,0,0-1.737,4.112H248v6.225h2.45a13.383,13.383,0,0,0,1.737,4.112l-2.112,2.112,4.15,4.15,2.112-2.113a13.387,13.387,0,0,0,4.112,1.737v2.45h6.225v-2.45a13.382,13.382,0,0,0,4.112-1.737l2.112,2.113,4.15-4.15-2.112-2.112a13.383,13.383,0,0,0,1.737-4.112Zm0,0" transform="translate(-215.837 -215.838)" fill="#b3b6c2"/>
      <path id="Trazado_1042683" data-name="Trazado 1042683" d="M314.675,305.337A9.337,9.337,0,1,1,305.337,296,9.337,9.337,0,0,1,314.675,305.337Zm0,0" transform="translate(-257.612 -257.613)" fill="#d8d8e3"/>
      <path id="Trazado_1042684" data-name="Trazado 1042684" d="M338.375,333.187A5.187,5.187,0,1,1,333.187,328,5.188,5.188,0,0,1,338.375,333.187Zm0,0" transform="translate(-285.462 -285.463)" fill="#eef2f9"/>
      <path id="Trazado_1042685" data-name="Trazado 1042685" d="M20.751,140.912H18.676v-8.3H8.3a1.038,1.038,0,0,1-1.037-1.037v-12.45H1.039a1.038,1.038,0,0,1-.94-1.476L7.266,102.29A14.542,14.542,0,0,1,21.788,88h5.187a14.417,14.417,0,0,1,5.587,1.114l-.8,1.915a12.37,12.37,0,0,0-4.787-.954H21.788a12.464,12.464,0,0,0-12.45,12.45,1.032,1.032,0,0,1-.1.439L2.667,117.05H8.3a1.038,1.038,0,0,1,1.037,1.037v12.45H19.713a1.038,1.038,0,0,1,1.037,1.038Zm0,0" transform="translate(0 -76.588)"/>
      <path id="Trazado_1042686" data-name="Trazado 1042686" d="M199.262,198.825h-6.225A1.038,1.038,0,0,1,192,197.787v-12.45a1.038,1.038,0,0,1,1.038-1.037h6.225a3.112,3.112,0,0,0,0-6.225h-1.037V176h1.037a5.187,5.187,0,1,1,0,10.375h-5.187V196.75h5.187Zm0,0" transform="translate(-167.099 -153.175)"/>
      <path id="Trazado_1042687" data-name="Trazado 1042687" d="M197.187,154.375a5.187,5.187,0,1,1,5.187-5.187H200.3a3.112,3.112,0,1,0-3.112,3.113Zm0,0" transform="translate(-167.099 -125.325)"/>
      <path id="Trazado_1042688" data-name="Trazado 1042688" d="M154.375,125.187H152.3a3.112,3.112,0,1,0-6.225,0H144a5.187,5.187,0,1,1,10.375,0Zm0,0" transform="translate(-125.324 -104.437)"/>
      <path id="Trazado_1042689" data-name="Trazado 1042689" d="M120.3,156.15h-2.075a2.075,2.075,0,0,0-4.15,0H112a4.15,4.15,0,0,1,8.3,0Zm0,0" transform="translate(-97.474 -132.288)"/>
      <path id="Trazado_1042690" data-name="Trazado 1042690" d="M250.451,184.9H248v-2.075h1.654a14.384,14.384,0,0,1,1.228-2.913l-1.541-1.541a1.036,1.036,0,0,1,0-1.467l4.15-4.15a1.036,1.036,0,0,1,1.467,0l1.541,1.541a14.384,14.384,0,0,1,2.913-1.228V162.075H249.038V160H260.45a1.038,1.038,0,0,1,1.038,1.038v12.825a1.037,1.037,0,0,1-.8,1.01,12.354,12.354,0,0,0-3.795,1.6,1.036,1.036,0,0,1-1.291-.141l-1.378-1.379-2.683,2.683,1.379,1.379a1.036,1.036,0,0,1,.141,1.291,12.344,12.344,0,0,0-1.6,3.795A1.037,1.037,0,0,1,250.451,184.9Zm0,0" transform="translate(-215.837 -139.25)"/>
      <path id="Trazado_1042691" data-name="Trazado 1042691" d="M127.425,64.325H121.2a1.038,1.038,0,0,1-1.037-1.037V61.632a14.458,14.458,0,0,1-2.909-1.232l-1.545,1.545a1.036,1.036,0,0,1-1.467,0l-4.15-4.15a1.036,1.036,0,0,1,0-1.467l1.545-1.545a14.43,14.43,0,0,1-1.232-2.909H98.375a1.038,1.038,0,0,1-1.037-1.037V31.125H92.15a4.15,4.15,0,1,1,4.15-4.15H94.225A2.075,2.075,0,1,0,92.15,29.05h6.225a1.038,1.038,0,0,1,1.038,1.037V49.8H111.2a1.037,1.037,0,0,1,1.01.8,12.369,12.369,0,0,0,1.606,3.791,1.038,1.038,0,0,1-.142,1.291l-1.382,1.382,2.683,2.683,1.383-1.383a1.036,1.036,0,0,1,1.291-.142,12.38,12.38,0,0,0,3.791,1.606,1.038,1.038,0,0,1,.8,1.01V62.25h4.15V60.837a1.037,1.037,0,0,1,.8-1.01,12.351,12.351,0,0,0,3.8-1.6,1.034,1.034,0,0,1,1.29.141l1.377,1.379,2.683-2.683-1.379-1.379a1.036,1.036,0,0,1-.141-1.29,12.346,12.346,0,0,0,1.6-3.8,1.038,1.038,0,0,1,1.01-.8h1.413v-4.15h-1.413a1.037,1.037,0,0,1-1.01-.8,12.371,12.371,0,0,0-1.606-3.791,1.038,1.038,0,0,1,.142-1.291l1.382-1.381L133.65,35.7l-1.383,1.383a1.038,1.038,0,0,1-1.291.142,12.38,12.38,0,0,0-3.791-1.606,1.038,1.038,0,0,1-.8-1.01V21.787a1.038,1.038,0,0,1,1.037-1.037h11.412V2.075H127.677a2.063,2.063,0,0,0-1.468.608l-1.163,1.163a1.036,1.036,0,0,1-1.467,0l-1.163-1.163a2.061,2.061,0,0,0-1.468-.608h-11.16V20.75h-2.075V1.038A1.038,1.038,0,0,1,108.75,0h12.2a4.124,4.124,0,0,1,2.935,1.216l.43.43.43-.43A4.12,4.12,0,0,1,127.677,0h12.2a1.038,1.038,0,0,1,1.038,1.037v20.75a1.038,1.038,0,0,1-1.038,1.037H128.462V33.817a14.488,14.488,0,0,1,2.909,1.232l1.545-1.545a1.036,1.036,0,0,1,1.467,0l4.15,4.15a1.036,1.036,0,0,1,0,1.467l-1.545,1.545a14.4,14.4,0,0,1,1.231,2.909h1.655a1.038,1.038,0,0,1,1.038,1.037v6.225a1.038,1.038,0,0,1-1.038,1.037h-1.654a14.355,14.355,0,0,1-1.228,2.913l1.541,1.541a1.036,1.036,0,0,1,0,1.467l-4.15,4.15a1.036,1.036,0,0,1-1.467,0l-1.54-1.541a14.358,14.358,0,0,1-2.913,1.228v1.653a1.038,1.038,0,0,1-1.037,1.037Zm0,0" transform="translate(-76.586)"/>
      <path id="Trazado_1042692" data-name="Trazado 1042692" d="M298.375,308.75a10.375,10.375,0,1,1,10.375-10.375A10.386,10.386,0,0,1,298.375,308.75Zm0-18.675a8.3,8.3,0,1,0,8.3,8.3A8.309,8.309,0,0,0,298.375,290.075Zm0,0" transform="translate(-250.649 -250.65)"/>
      <path id="Trazado_1042693" data-name="Trazado 1042693" d="M326.225,332.45a6.225,6.225,0,1,1,6.225-6.225A6.231,6.231,0,0,1,326.225,332.45Zm0-10.375a4.15,4.15,0,1,0,4.15,4.15A4.154,4.154,0,0,0,326.225,322.075Zm0,0" transform="translate(-278.499 -278.5)"/>
      <path id="Trazado_1042694" data-name="Trazado 1042694" d="M272,32h6.225v2.075H272Zm0,0" transform="translate(-236.724 -27.85)"/>
      <path id="Trazado_1042695" data-name="Trazado 1042695" d="M272,64h6.225v2.075H272Zm0,0" transform="translate(-236.724 -55.7)"/>
      <path id="Trazado_1042696" data-name="Trazado 1042696" d="M272,96h9.337v2.075H272Zm0,0" transform="translate(-236.724 -83.55)"/>
      <path id="Trazado_1042697" data-name="Trazado 1042697" d="M272,128h9.337v2.075H272Zm0,0" transform="translate(-236.724 -111.4)"/>
      <path id="Trazado_1042698" data-name="Trazado 1042698" d="M392,32h9.337v2.075H392Zm0,0" transform="translate(-341.162 -27.85)"/>
      <path id="Trazado_1042699" data-name="Trazado 1042699" d="M392,64h9.337v2.075H392Zm0,0" transform="translate(-341.162 -55.7)"/>
      <path id="Trazado_1042700" data-name="Trazado 1042700" d="M416,96h6.225v2.075H416Zm0,0" transform="translate(-362.049 -83.55)"/>
      <path id="Trazado_1042701" data-name="Trazado 1042701" d="M416,128h6.225v2.075H416Zm0,0" transform="translate(-362.049 -111.4)"/>
      <path id="Trazado_1042702" data-name="Trazado 1042702" d="M360,24h2.075V41.637H360Zm0,0" transform="translate(-313.312 -20.887)"/>
    </g>
  </g>
</svg>
