<svg xmlns="http://www.w3.org/2000/svg" width="379" height="149.784" viewBox="0 0 379 149.784">
  <g id="Grupo_1202887" data-name="Grupo 1202887" transform="translate(-1020 -5697.216)">
    <g id="Grupo_1202734" data-name="Grupo 1202734" transform="translate(-210 5416)">
      <g id="Grupo_1177674" data-name="Grupo 1177674" transform="translate(1230 290)">
        <g id="Grupo_1177451" data-name="Grupo 1177451">
          <rect id="Rectángulo_416021" data-name="Rectángulo 416021" width="379" height="105" rx="5" transform="translate(0 18)" fill="#113e45"/>
          <rect id="Rectángulo_416022" data-name="Rectángulo 416022" width="319" height="141" rx="5" transform="translate(30)" fill="#3ad1e9"/>
        </g>
      </g>
    </g>
    <g id="Filled_outline" data-name="Filled outline" transform="translate(1125 5681.211)">
      <path id="Trazado_1042951" data-name="Trazado 1042951" d="M256,92.425V62.468a130.914,130.914,0,0,0,41.885-17.35L305.928,40v74.893l-8.043-5.118A130.906,130.906,0,0,0,256,92.425Z" transform="translate(-165.107 -16.508)" fill="#e0e0de"/>
      <path id="Trazado_1042952" data-name="Trazado 1042952" d="M152,112h32.453v29.957H152Z" transform="translate(-93.561 -66.04)" fill="#f35244"/>
      <g id="Grupo_1202886" data-name="Grupo 1202886" transform="translate(45.957 50.953)">
        <path id="Trazado_1042953" data-name="Trazado 1042953" d="M112,128h12.482v19.971H112Z" transform="translate(-112 -128)" fill="#e0e0de"/>
        <path id="Trazado_1042954" data-name="Trazado 1042954" d="M448,147.971l12.482-2.5V130.5L448,128Z" transform="translate(-343.15 -128)" fill="#e0e0de"/>
        <path id="Trazado_1042955" data-name="Trazado 1042955" d="M203.971,240.453H188.993L184,208h14.979Z" transform="translate(-161.532 -183.036)" fill="#e0e0de"/>
      </g>
      <path id="Trazado_1042956" data-name="Trazado 1042956" d="M203.971,240.453H188.993l-4.225-27.461L184,208h14.979l.768,4.993Z" transform="translate(-115.575 -132.083)" fill="#dbdbd9"/>
      <rect id="Rectángulo_417798" data-name="Rectángulo 417798" width="10.851" height="83.851" rx="5.426" transform="translate(140.185 18.803)" fill="#ebebe9"/>
      <path id="Trazado_1042957" data-name="Trazado 1042957" d="M199.746,212.993H184.768L184,208h14.979Z" transform="translate(-115.575 -132.083)" fill="#cfcfcd"/>
      <path id="Trazado_1042958" data-name="Trazado 1042958" d="M123.857,286.468v37.446l-9.986,9.986H33.986L24,323.914V286.468L46.468,264h54.921l4.784,4.784,5.932,5.932,3.532,3.532Z" transform="translate(-5.504 -170.608)" fill="#f5e627"/>
      <path id="Trazado_1042959" data-name="Trazado 1042959" d="M123.857,297.014V334.46l-9.986,9.986H33.986L24,334.46v-7.808c31.13-6.085,61-20.274,82.173-47.323l5.932,5.932,3.532,3.532Z" transform="translate(-5.504 -181.154)" fill="#dbce25"/>
      <path id="Trazado_1042960" data-name="Trazado 1042960" d="M364.4,92.928l2.247,4.459c1.7-.858,3.411-1.762,5.081-2.689L369.3,90.333c-1.611.895-3.262,1.768-4.9,2.6Z" transform="translate(-239.681 -51.134)"/>
      <path id="Trazado_1042961" data-name="Trazado 1042961" d="M285.823,113.375l1.359,4.806a143.267,143.267,0,0,0,20.326-7.449l-2.068-4.544A138.321,138.321,0,0,1,285.823,113.375Z" transform="translate(-185.624 -62.041)"/>
      <path id="Trazado_1042962" data-name="Trazado 1042962" d="M184,136h4.993v7.489H184Z" transform="translate(-115.575 -82.55)"/>
      <path id="Trazado_1042963" data-name="Trazado 1042963" d="M216,136h4.993v7.489H216Z" transform="translate(-137.589 -82.55)"/>
      <path id="Trazado_1042964" data-name="Trazado 1042964" d="M224.318,51l-10.475-2.1V23.492a7.489,7.489,0,0,0-14.834-1.462L191.977,26.5a128.035,128.035,0,0,1-40.832,16.959H118.979a2.5,2.5,0,0,0-2.5,2.5v2.5H106.5a2.5,2.5,0,0,0-2.5,2.5V70.924a2.5,2.5,0,0,0,2.5,2.5h9.986v2.5a2.5,2.5,0,0,0,2.5,2.5h7.844l1.211,7.869,4.935-.76-1.095-7.109H141.8l1.211,7.869,4.935-.76-1.094-7.109h4.292a128.035,128.035,0,0,1,40.832,16.959l7.031,4.474a7.489,7.489,0,0,0,14.834-1.462V72.971l10.475-2.1a2.5,2.5,0,0,0,2.007-2.448V53.45A2.5,2.5,0,0,0,224.318,51ZM108.993,68.428V53.45h7.489V68.428Zm12.482,4.993V48.457h27.461V73.421Zm32.453.509V47.948a133,133,0,0,0,40.729-17.231l4.206-2.677v65.8l-4.206-2.677A133,133,0,0,0,153.928,73.93ZM208.85,98.385a2.5,2.5,0,1,1-4.993,0V23.492a2.5,2.5,0,0,1,4.993,0Zm12.482-32-7.489,1.5V54l7.489,1.5Z" transform="translate(-60.539 0)"/>
      <path id="Trazado_1042965" data-name="Trazado 1042965" d="M28.993,229.411l3.705-3.7a5.017,5.017,0,1,0-3.531-3.531l-4.436,4.436A2.5,2.5,0,0,0,24,228.377v7.489h4.993Z" transform="translate(-5.504 -137.481)"/>
      <path id="Trazado_1042966" data-name="Trazado 1042966" d="M79.143,63.488a4.993,4.993,0,1,0,0-4.993H70.979a2.5,2.5,0,0,0-1.765.731L56.731,71.709A2.5,2.5,0,0,0,56,73.474V95.942h4.993V74.508l11.02-11.02Z" transform="translate(-27.518 -27.514)"/>
      <path id="Trazado_1042967" data-name="Trazado 1042967" d="M24,168h4.993v12.482H24Z" transform="translate(-5.504 -104.565)"/>
      <path id="Trazado_1042968" data-name="Trazado 1042968" d="M28.993,47.5,45.005,31.488h27.1a4.993,4.993,0,1,0,0-4.993H43.971a2.5,2.5,0,0,0-1.765.731L24.731,44.7A2.5,2.5,0,0,0,24,46.467V63.942h4.993Z" transform="translate(-5.504 -5.499)"/>
      <path id="Trazado_1042969" data-name="Trazado 1042969" d="M97.651,256.731A2.5,2.5,0,0,0,95.885,256H40.964a2.5,2.5,0,0,0-1.765.731L16.731,279.2A2.5,2.5,0,0,0,16,280.964V318.41a2.5,2.5,0,0,0,.731,1.765l9.986,9.986a2.5,2.5,0,0,0,1.765.731h79.885a2.5,2.5,0,0,0,1.765-.731l9.986-9.986a2.5,2.5,0,0,0,.731-1.765V280.964a2.5,2.5,0,0,0-.731-1.765Zm9.683,69.169H96.92L85.169,314.149a2.5,2.5,0,0,0-1.765-.731H75.239a4.993,4.993,0,1,0,0,4.993H82.37l7.489,7.489H55.943V311.955l8.523-8.523H89.859l14.247,14.247,3.531-3.531L93.389,299.9v-9.628a4.993,4.993,0,1,0-4.993,0v8.165H64.68l-6.241-8.322v-4.837a4.993,4.993,0,1,0-4.993,0v5.669a2.5,2.5,0,0,0,.5,1.5l6.19,8.254-8.455,8.455a2.5,2.5,0,0,0-.731,1.765V325.9H39.716v-5.207l5.51-5.51a2.5,2.5,0,0,0,.731-1.765v-8.165a4.993,4.993,0,1,0-4.993,0v7.131l-5.51,5.51a2.5,2.5,0,0,0-.731,1.765V325.9H29.516l-7.489-7.489,10.717-10.717-3.53-3.531-8.22,8.22V295.943h9.986a2.5,2.5,0,0,0,1.765-.731l4.436-4.436a5.017,5.017,0,1,0-3.531-3.531l-3.7,3.7H20.993V282l6.027-6.027H43.461a2.5,2.5,0,0,0,1.765-.731l7.489-7.489-3.531-3.531-6.758,6.758H32.013L42,260.993H57.405l4.262,4.262,3.531-3.531-.731-.731H74.88l8.523,8.523v6.455H88.4v-7.489a2.5,2.5,0,0,0-.731-1.765l-5.724-5.724H94.852l9.986,9.986-3.228,3.228a2.5,2.5,0,0,0-.731,1.765v7.489h4.993v-6.455l2.5-2.5L115.857,282v11.448h-5.668a4.993,4.993,0,1,0,0,4.993h5.668v18.937Z" transform="translate(0 -165.104)"/>
      <path id="Trazado_1042970" data-name="Trazado 1042970" d="M187.6,305.266V297.1a2.5,2.5,0,0,0-.731-1.765l-4.993-4.993-3.531,3.531,4.262,4.262v7.131a4.993,4.993,0,1,0,4.993,0Z" transform="translate(-111.683 -188.73)"/>
      <path id="Trazado_1042971" data-name="Trazado 1042971" d="M368,346.935h19.971a2.5,2.5,0,0,0,1.765-.731l12.482-12.482a2.5,2.5,0,0,0,.731-1.765V321.3a4.993,4.993,0,1,0-4.993,0v9.627l-11.02,11.02H368Z" transform="translate(-242.157 -203.614)"/>
      <path id="Trazado_1042972" data-name="Trazado 1042972" d="M368,440h9.986v4.993H368Z" transform="translate(-242.157 -291.686)"/>
      <path id="Trazado_1042973" data-name="Trazado 1042973" d="M424.952,416.846H416v4.993h9.986a2.5,2.5,0,0,0,1.765-.731l11.234-11.234-3.531-3.531Z" transform="translate(-275.179 -268.532)"/>
      <path id="Trazado_1042974" data-name="Trazado 1042974" d="M368,342.468h14.979a2.5,2.5,0,0,0,1.765-.731l4.993-4.993a2.5,2.5,0,0,0,.731-1.765V320h-4.993v13.944l-3.53,3.531H368Z" transform="translate(-242.157 -209.133)"/>
      <path id="Trazado_1042975" data-name="Trazado 1042975" d="M104,224h4.993v4.993H104Z" transform="translate(-60.539 -143.09)"/>
      <path id="Trazado_1042976" data-name="Trazado 1042976" d="M368,345.1h9.986a2.5,2.5,0,0,0,1.765-.731l2.5-2.5-3.531-3.531-1.765,1.765H368Z" transform="translate(-242.157 -221.752)"/>
      <path id="Trazado_1042977" data-name="Trazado 1042977" d="M368,312h4.993v4.993H368Z" transform="translate(-242.157 -203.629)"/>
    </g>
  </g>
</svg>
