<svg xmlns="http://www.w3.org/2000/svg" xmlns:xlink="http://www.w3.org/1999/xlink" width="118" height="118" viewBox="0 0 118 118">
  <defs>
    <filter id="Trazado_982547" x="0" y="0" width="118" height="118" filterUnits="userSpaceOnUse">
      <feOffset dy="3" input="SourceAlpha"/>
      <feGaussianBlur stdDeviation="3" result="blur"/>
      <feFlood flood-opacity="0.161"/>
      <feComposite operator="in" in2="blur"/>
      <feComposite in="SourceGraphic"/>
    </filter>
  </defs>
  <g id="Grupo_1202759" data-name="Grupo 1202759" transform="translate(-1213.5 -2585.932)">
    <g id="Grupo_1202684" data-name="Grupo 1202684" transform="translate(1222.5 2591.932)">
      <g id="Grupo_1174813" data-name="Grupo 1174813">
        <g id="Grupo_1201680" data-name="Grupo 1201680">
          <g id="Grupo_1201330" data-name="Grupo 1201330">
            <g id="Grupo_1172010" data-name="Grupo 1172010">
              <g id="Grupo_1171046" data-name="Grupo 1171046">
                <g id="Grupo_1148525" data-name="Grupo 1148525">
                  <g transform="matrix(1, 0, 0, 1, -9, -6)" filter="url(#Trazado_982547)">
                    <g id="Trazado_982547-2" data-name="Trazado 982547" transform="translate(9 6)" fill="#f5e9fe">
                      <path d="M 50 98.5 C 43.45188522338867 98.5 37.10042953491211 97.21787261962891 31.12207221984863 94.68923950195312 C 25.34691429138184 92.24655914306641 20.15997123718262 88.74931335449219 15.70532894134521 84.29468536376953 C 11.2506856918335 79.84004211425781 7.753442764282227 74.65309906005859 5.310757160186768 68.8779296875 C 2.782128572463989 62.89957046508789 1.5 56.54811477661133 1.5 50 C 1.5 43.45188522338867 2.782128572463989 37.10042953491211 5.310757160186768 31.12207221984863 C 7.753442764282227 25.34691429138184 11.2506856918335 20.15997123718262 15.70532894134521 15.70532894134521 C 20.15997123718262 11.2506856918335 25.34691429138184 7.753442764282227 31.12207221984863 5.310757160186768 C 37.10042953491211 2.782128572463989 43.45188522338867 1.5 50 1.5 C 56.54811477661133 1.5 62.89957046508789 2.782128572463989 68.8779296875 5.310757160186768 C 74.65309906005859 7.753442764282227 79.84004211425781 11.2506856918335 84.29468536376953 15.70532894134521 C 88.74931335449219 20.15997123718262 92.24655914306641 25.34691429138184 94.68923950195312 31.12207221984863 C 97.21787261962891 37.10042953491211 98.5 43.45188522338867 98.5 50 C 98.5 56.54811477661133 97.21787261962891 62.89957046508789 94.68923950195312 68.8779296875 C 92.24655914306641 74.65309906005859 88.74931335449219 79.84004211425781 84.29468536376953 84.29468536376953 C 79.84004211425781 88.74931335449219 74.65309906005859 92.24655914306641 68.8779296875 94.68923950195312 C 62.89957046508789 97.21787261962891 56.54811477661133 98.5 50 98.5 Z" stroke="none"/>
                      <path d="M 50 3 C 43.65372467041016 3 37.49886322021484 4.242263793945312 31.70639801025391 6.6922607421875 C 26.11003112792969 9.059326171875 21.08335113525391 12.44861602783203 16.76598358154297 16.76598358154297 C 12.44861602783203 21.08335113525391 9.059326171875 26.11003112792969 6.6922607421875 31.70639801025391 C 4.242263793945312 37.49886322021484 3 43.65372467041016 3 50 C 3 56.34627532958984 4.242263793945312 62.50113677978516 6.6922607421875 68.29360198974609 C 9.059326171875 73.88996887207031 12.44861602783203 78.91666412353516 16.76598358154297 83.23401641845703 C 21.08335113525391 87.55138397216797 26.11003112792969 90.940673828125 31.70639801025391 93.3077392578125 C 37.49886322021484 95.75773620605469 43.65372467041016 97 50 97 C 56.34627532958984 97 62.50113677978516 95.75773620605469 68.29360198974609 93.3077392578125 C 73.88996887207031 90.940673828125 78.91666412353516 87.55138397216797 83.23401641845703 83.23401641845703 C 87.55138397216797 78.91666412353516 90.940673828125 73.88996887207031 93.3077392578125 68.29360198974609 C 95.75773620605469 62.50113677978516 97 56.34627532958984 97 50 C 97 43.65372467041016 95.75773620605469 37.49886322021484 93.3077392578125 31.70639801025391 C 90.940673828125 26.11003112792969 87.55138397216797 21.08335113525391 83.23401641845703 16.76598358154297 C 78.91666412353516 12.44861602783203 73.88996887207031 9.059326171875 68.29360198974609 6.6922607421875 C 62.50113677978516 4.242263793945312 56.34627532958984 3 50 3 M 50 0 C 77.61424255371094 0 100 22.38577270507812 100 50 C 100 77.61424255371094 77.61424255371094 100 50 100 C 22.38577270507812 100 0 77.61424255371094 0 50 C 0 22.38577270507812 22.38577270507812 0 50 0 Z" stroke="none" fill="#a530fe"/>
                    </g>
                  </g>
                </g>
              </g>
            </g>
          </g>
        </g>
      </g>
    </g>
    <g id="_16-artificial" data-name="16-artificial" transform="translate(1241.578 2611.025)">
      <path id="Trazado_1042712" data-name="Trazado 1042712" d="M61.565,62.761H21l11.59-3.12,10.624-2.859,2.9-.782,4.829,2.115Z" transform="translate(-0.717 -1.914)" fill="#72b0a5"/>
      <path id="Trazado_1042713" data-name="Trazado 1042713" d="M62.624,62.836H52V58.19Z" transform="translate(-1.776 -1.989)" fill="#5292d2"/>
      <path id="Trazado_1042714" data-name="Trazado 1042714" d="M21,62.522V57.692L46.112,49v6.761Z" transform="translate(-0.717 -1.674)" fill="#5292d2"/>
      <path id="Trazado_1042715" data-name="Trazado 1042715" d="M45.67,44.115A20.24,20.24,0,0,0,58.156,17.788c-.071-.186-.113-.29-.113-.29S52.333,1.638,32.716,1.017C13.963.421,7.245,15.609,8.057,22.661a3.823,3.823,0,0,1-.343,2.1,21,21,0,0,1-5.391,7.023c-3.419,2.825.84,4.326,2.608,4.8a1.586,1.586,0,0,1,1.191,1.294c.1.825-.522,1.336-.856,2.471-.456,1.561,6.359,1.217,6.359,1.217s-6.908,1.909-4.973,3.2a2.672,2.672,0,0,1,1.013,3.316c-1.343,4.621.844,6.214,2.9,6.741A7.307,7.307,0,0,0,14.7,54.6Z" transform="translate(-0.034 -0.034)" fill="#e5e6ea"/>
      <path id="Trazado_1042716" data-name="Trazado 1042716" d="M9,43H9Z" transform="translate(-0.306 -1.469)" fill="#acabaf"/>
      <path id="Trazado_1042717" data-name="Trazado 1042717" d="M58.5,17.788c-.071-.186-.113-.29-.113-.29S52.679,1.639,33.062,1.018C32.214.99,31.4,1.006,30.6,1.042,49.86,1.885,55.492,17.5,55.492,17.5s.042.1.113.29A20.24,20.24,0,0,1,43.118,44.116L12.156,54.6a8.182,8.182,0,0,1-.99.267,7.369,7.369,0,0,0,3.887-.267l30.962-10.48A20.24,20.24,0,0,0,58.5,17.788Z" transform="translate(-0.381 -0.034)" fill="#acabaf"/>
      <circle id="Elipse_12540" data-name="Elipse 12540" cx="13.522" cy="13.522" r="13.522" transform="translate(24.147 7.727)" fill="#72b0a5"/>
      <path id="Trazado_1042718" data-name="Trazado 1042718" d="M26.932,21.522A13.514,13.514,0,0,1,39.487,8.048C39.167,8.026,38.848,8,38.522,8a13.522,13.522,0,1,0,0,27.043c.326,0,.645-.026.966-.048A13.514,13.514,0,0,1,26.932,21.522Z" transform="translate(-0.853 -0.273)" fill="#56847c"/>
      <circle id="Elipse_12541" data-name="Elipse 12541" cx="8.692" cy="8.692" r="8.692" transform="translate(28.976 12.556)" fill="#ffbb4e"/>
      <path id="Trazado_1042719" data-name="Trazado 1042719" d="M31.931,21.692a8.692,8.692,0,0,1,7.727-8.635,8.692,8.692,0,1,0,0,17.271A8.692,8.692,0,0,1,31.931,21.692Z" transform="translate(-1.023 -0.444)" fill="#efae50"/>
      <circle id="Elipse_12542" data-name="Elipse 12542" cx="3.863" cy="3.863" r="3.863" transform="translate(33.805 17.385)" fill="#f06441"/>
      <path id="Trazado_1042720" data-name="Trazado 1042720" d="M36.93,21.863a3.855,3.855,0,0,1,2.9-3.727,3.863,3.863,0,1,0,0,7.454,3.856,3.856,0,0,1-2.9-3.727Z" transform="translate(-1.193 -0.615)" fill="#dd4122"/>
      <path id="Trazado_1042721" data-name="Trazado 1042721" d="M12.17,55.954a7.533,7.533,0,0,1-1.881-.234,5.215,5.215,0,0,1-3.38-2.381c-.8-1.408-.875-3.284-.212-5.564a1.062,1.062,0,0,1,.049-.13,1.671,1.671,0,0,0-.661-2.111,1.51,1.51,0,0,1-.753-1.527c.092-.579.6-1.138,1.509-1.681a3.767,3.767,0,0,1-2.278-.979,1.419,1.419,0,0,1-.253-1.311,7.078,7.078,0,0,1,.551-1.307c.214-.42.29-.6.272-.773a.63.63,0,0,0-.483-.483c-1.872-.5-4.182-1.468-4.564-3.223-.238-1.09.3-2.186,1.588-3.248a20.067,20.067,0,0,0,5.134-6.7,2.884,2.884,0,0,0,.256-1.569c-.447-3.887,1.173-10.058,5.8-15.088C16.236,3.989,22.408-.321,32.713.018,43.174.349,49.734,4.97,53.4,8.789a26.206,26.206,0,0,1,5.518,8.343s.044.109.109.279a20.891,20.891,0,0,1-.636,16.483A21.126,21.126,0,0,1,45.945,45L14.983,55.476a8.762,8.762,0,0,1-2.812.478ZM8.539,48.372a5.267,5.267,0,0,0,.05,4.008,3.3,3.3,0,0,0,2.179,1.469,6.312,6.312,0,0,0,3.592-.2L45.325,43.166A19.2,19.2,0,0,0,56.64,33.07,18.975,18.975,0,0,0,57.22,18.1l-.1-.257c-.243-.666-5.771-15.3-24.467-15.893-9.571-.287-15.27,3.643-18.369,7.009-4.193,4.556-5.69,10.22-5.3,13.556a4.814,4.814,0,0,1-.431,2.619A22.036,22.036,0,0,1,2.9,32.488c-.65.537-1,1.044-.931,1.352.1.468,1.141,1.223,3.178,1.768a2.562,2.562,0,0,1,1.9,2.109,3.1,3.1,0,0,1-.47,1.892c-.1.193-.2.4-.3.624a18.374,18.374,0,0,0,5.257.33.966.966,0,0,1,.306,1.9,18.507,18.507,0,0,0-4.355,1.717,3.606,3.606,0,0,1,1.048,4.195Z" transform="translate(0 0)"/>
      <path id="Trazado_1042722" data-name="Trazado 1042722" d="M38.487,7A14.487,14.487,0,1,0,52.975,21.487,14.487,14.487,0,0,0,38.487,7Zm7.474,20.6a9.63,9.63,0,0,0,0-12.216l2.05-2.05a12.493,12.493,0,0,1,0,16.317ZM35.59,21.487a2.9,2.9,0,1,1,2.9,2.9A2.9,2.9,0,0,1,35.59,21.487Zm5.556-4.025a4.8,4.8,0,0,0-5.318,0l-2.074-2.072a7.678,7.678,0,0,1,9.465,0Zm-6.684,1.366a4.8,4.8,0,0,0,0,5.318L32.391,26.22a7.678,7.678,0,0,1,0-9.465Zm1.366,6.684a4.8,4.8,0,0,0,5.318,0l2.074,2.072a7.678,7.678,0,0,1-9.465,0Zm6.684-1.366a4.8,4.8,0,0,0,0-5.318l2.072-2.074a7.678,7.678,0,0,1,0,9.465Zm4.134-12.183-2.05,2.05a9.63,9.63,0,0,0-12.216,0l-2.05-2.05a12.493,12.493,0,0,1,16.317,0ZM28.963,13.329l2.05,2.05a9.63,9.63,0,0,0,0,12.216l-2.05,2.05A12.493,12.493,0,0,1,28.963,13.329Zm1.366,17.682,2.05-2.05a9.63,9.63,0,0,0,12.216,0l2.05,2.05a12.493,12.493,0,0,1-16.317,0Z" transform="translate(-0.819 -0.239)"/>
      <path id="Trazado_1042723" data-name="Trazado 1042723" d="M15.38,28.863A3.38,3.38,0,0,1,12,25.483V25h1.932v.483a1.449,1.449,0,1,0,2.9,0V25h1.932v.483a3.38,3.38,0,0,1-3.38,3.38Z" transform="translate(-0.409 -0.854)"/>
      <circle id="Elipse_12543" data-name="Elipse 12543" cx="2.415" cy="2.415" r="2.415" transform="translate(34.771 53.12)" fill="#f06441"/>
      <path id="Trazado_1042724" data-name="Trazado 1042724" d="M61.917,61.6,47.043,55.095V48.966a.966.966,0,0,0-1.282-.913L20.65,56.746a.966.966,0,0,0-.65.913v4.829h.014a.917.917,0,0,0-.006.127.966.966,0,0,0,.957.839H61.531a.966.966,0,0,0,.386-1.851ZM32.3,58.431l-10.373,2.8V58.346l23.18-8.028v4.664l-2.183.588.5,1.865L46,56.744l3.94,1.727v3.051H28.269L32.809,60.3Zm19.568,3.091V59.316l5.041,2.206Z" transform="translate(-0.682 -1.64)"/>
      <path id="Trazado_1042725" data-name="Trazado 1042725" d="M37.9,60.711v.049H48.522V58.829h-7.1a3.346,3.346,0,0,0,.339-1.449A3.38,3.38,0,1,0,37.9,60.711Zm.483-4.78a1.449,1.449,0,1,1-1.449,1.449,1.449,1.449,0,0,1,1.449-1.449Z" transform="translate(-1.195 -1.845)"/>
    </g>
  </g>
</svg>
