<svg xmlns="http://www.w3.org/2000/svg" xmlns:xlink="http://www.w3.org/1999/xlink" width="118" height="118" viewBox="0 0 118 118">
  <defs>
    <filter id="Trazado_982547" x="0" y="0" width="118" height="118" filterUnits="userSpaceOnUse">
      <feOffset dy="3" input="SourceAlpha"/>
      <feGaussianBlur stdDeviation="3" result="blur"/>
      <feFlood flood-opacity="0.161"/>
      <feComposite operator="in" in2="blur"/>
      <feComposite in="SourceGraphic"/>
    </filter>
  </defs>
  <g id="Grupo_1202890" data-name="Grupo 1202890" transform="translate(-268.5 -6709)">
    <g id="Grupo_1202737" data-name="Grupo 1202737" transform="translate(277.5 6715)">
      <g id="Grupo_1174813" data-name="Grupo 1174813">
        <g id="Grupo_1201680" data-name="Grupo 1201680">
          <g id="Grupo_1201330" data-name="Grupo 1201330">
            <g id="Grupo_1172010" data-name="Grupo 1172010">
              <g id="Grupo_1171046" data-name="Grupo 1171046">
                <g id="Grupo_1148525" data-name="Grupo 1148525">
                  <g transform="matrix(1, 0, 0, 1, -9, -6)" filter="url(#Trazado_982547)">
                    <g id="Trazado_982547-2" data-name="Trazado 982547" transform="translate(9 6)" fill="#eafafc">
                      <path d="M 50 98.5 C 43.45188522338867 98.5 37.10042953491211 97.21787261962891 31.12207221984863 94.68923950195312 C 25.34691429138184 92.24655914306641 20.15997123718262 88.74931335449219 15.70532894134521 84.29468536376953 C 11.2506856918335 79.84004211425781 7.753442764282227 74.65309906005859 5.310757160186768 68.8779296875 C 2.782128572463989 62.89957046508789 1.5 56.54811477661133 1.5 50 C 1.5 43.45188522338867 2.782128572463989 37.10042953491211 5.310757160186768 31.12207221984863 C 7.753442764282227 25.34691429138184 11.2506856918335 20.15997123718262 15.70532894134521 15.70532894134521 C 20.15997123718262 11.2506856918335 25.34691429138184 7.753442764282227 31.12207221984863 5.310757160186768 C 37.10042953491211 2.782128572463989 43.45188522338867 1.5 50 1.5 C 56.54811477661133 1.5 62.89957046508789 2.782128572463989 68.8779296875 5.310757160186768 C 74.65309906005859 7.753442764282227 79.84004211425781 11.2506856918335 84.29468536376953 15.70532894134521 C 88.74931335449219 20.15997123718262 92.24655914306641 25.34691429138184 94.68923950195312 31.12207221984863 C 97.21787261962891 37.10042953491211 98.5 43.45188522338867 98.5 50 C 98.5 56.54811477661133 97.21787261962891 62.89957046508789 94.68923950195312 68.8779296875 C 92.24655914306641 74.65309906005859 88.74931335449219 79.84004211425781 84.29468536376953 84.29468536376953 C 79.84004211425781 88.74931335449219 74.65309906005859 92.24655914306641 68.8779296875 94.68923950195312 C 62.89957046508789 97.21787261962891 56.54811477661133 98.5 50 98.5 Z" stroke="none"/>
                      <path d="M 50 3 C 43.65372467041016 3 37.49886322021484 4.242263793945312 31.70639801025391 6.6922607421875 C 26.11003112792969 9.059326171875 21.08335113525391 12.44861602783203 16.76598358154297 16.76598358154297 C 12.44861602783203 21.08335113525391 9.059326171875 26.11003112792969 6.6922607421875 31.70639801025391 C 4.242263793945312 37.49886322021484 3 43.65372467041016 3 50 C 3 56.34627532958984 4.242263793945312 62.50113677978516 6.6922607421875 68.29360198974609 C 9.059326171875 73.88996887207031 12.44861602783203 78.91666412353516 16.76598358154297 83.23401641845703 C 21.08335113525391 87.55138397216797 26.11003112792969 90.940673828125 31.70639801025391 93.3077392578125 C 37.49886322021484 95.75773620605469 43.65372467041016 97 50 97 C 56.34627532958984 97 62.50113677978516 95.75773620605469 68.29360198974609 93.3077392578125 C 73.88996887207031 90.940673828125 78.91666412353516 87.55138397216797 83.23401641845703 83.23401641845703 C 87.55138397216797 78.91666412353516 90.940673828125 73.88996887207031 93.3077392578125 68.29360198974609 C 95.75773620605469 62.50113677978516 97 56.34627532958984 97 50 C 97 43.65372467041016 95.75773620605469 37.49886322021484 93.3077392578125 31.70639801025391 C 90.940673828125 26.11003112792969 87.55138397216797 21.08335113525391 83.23401641845703 16.76598358154297 C 78.91666412353516 12.44861602783203 73.88996887207031 9.059326171875 68.29360198974609 6.6922607421875 C 62.50113677978516 4.242263793945312 56.34627532958984 3 50 3 M 50 0 C 77.61424255371094 0 100 22.38577270507812 100 50 C 100 77.61424255371094 77.61424255371094 100 50 100 C 22.38577270507812 100 0 77.61424255371094 0 50 C 0 22.38577270507812 22.38577270507812 0 50 0 Z" stroke="none" fill="#3ad1e9"/>
                    </g>
                  </g>
                </g>
              </g>
            </g>
          </g>
        </g>
      </g>
    </g>
    <g id="public-opinion_9757569" transform="translate(248.235 6726.519)">
      <path id="Trazado_1042978" data-name="Trazado 1042978" d="M306.477,427.186h17.944a.935.935,0,0,0,.935-.935v-3.47a3.985,3.985,0,0,0-3.985-3.985H310.462a3.985,3.985,0,0,0-3.985,3.985v4.405Z" transform="translate(-220.918 -360.017)" fill="#ffc344"/>
      <path id="Trazado_1042979" data-name="Trazado 1042979" d="M72.973,427.186H55.029a.935.935,0,0,1-.935-.935v-3.47a3.985,3.985,0,0,1,3.985-3.985H68.988a3.985,3.985,0,0,1,3.985,3.985Z" transform="translate(-0.001 -360.017)" fill="#01c0fa"/>
      <path id="Trazado_1042980" data-name="Trazado 1042980" d="M167.2,430.861H187.7a.935.935,0,0,0,.935-.935V425.1a4.723,4.723,0,0,0-4.723-4.723H170.987a4.723,4.723,0,0,0-4.723,4.723v4.83A.935.935,0,0,0,167.2,430.861Z" transform="translate(-98.186 -361.399)" fill="#0055a3"/>
      <path id="Trazado_1042981" data-name="Trazado 1042981" d="M218.6,268.943h0a5.316,5.316,0,0,0-5.289,5.844l.446,4.456a4.868,4.868,0,0,0,4.843,4.383h0a4.868,4.868,0,0,0,4.843-4.383l.446-4.456A5.315,5.315,0,0,0,218.6,268.943Z" transform="translate(-139.348 -228.848)" fill="#0055a3"/>
      <path id="Trazado_1042982" data-name="Trazado 1042982" d="M183.916,420.372h-.822a4.7,4.7,0,0,1,.559,2.23v.67a5.1,5.1,0,0,1-5.1,5.1H166.264v1.558a.935.935,0,0,0,.935.935H187.7a.935.935,0,0,0,.935-.935V425.1A4.723,4.723,0,0,0,183.916,420.372Z" transform="translate(-98.186 -361.398)" fill="#004281"/>
      <path id="Trazado_1042983" data-name="Trazado 1042983" d="M350.639,285.768h0a4.485,4.485,0,0,0-4.463,4.931l.376,3.76a4.107,4.107,0,0,0,4.087,3.7h0a4.107,4.107,0,0,0,4.087-3.7c.12-1.2.271-2.706.376-3.76A4.485,4.485,0,0,0,350.639,285.768Z" transform="translate(-255.649 -243.575)" fill="#ffc344"/>
      <path id="Trazado_1042984" data-name="Trazado 1042984" d="M98.378,285.768h0a4.485,4.485,0,0,0-4.463,4.931l.376,3.76a4.107,4.107,0,0,0,4.087,3.7h0a4.107,4.107,0,0,0,4.087-3.7l.376-3.76A4.485,4.485,0,0,0,98.378,285.768Z" transform="translate(-34.838 -243.575)" fill="#01c0fa"/>
      <path id="Trazado_1042985" data-name="Trazado 1042985" d="M54.094,9.993V30.179a2.493,2.493,0,0,0,2.493,2.493h5.252v3.873l5.809-3.873h7.745l3.873,3.873,3.873-3.873h7.745l5.809,3.873V32.673h5.252a2.493,2.493,0,0,0,2.493-2.493V9.993A2.493,2.493,0,0,0,101.945,7.5H56.587A2.493,2.493,0,0,0,54.094,9.993Z" transform="translate(-0.001)" fill="#f2fbff"/>
      <path id="Trazado_1042986" data-name="Trazado 1042986" d="M411.646,7.5h-3.74A2.493,2.493,0,0,1,410.4,9.993V30.179a2.493,2.493,0,0,1-2.493,2.493h3.74a2.493,2.493,0,0,0,2.493-2.493V9.993A2.493,2.493,0,0,0,411.646,7.5Z" transform="translate(-309.702)" fill="#dff6fd"/>
      <circle id="Elipse_12585" data-name="Elipse 12585" cx="3.873" cy="3.873" r="3.873" transform="translate(61.838 16.214)" fill="#fd6930"/>
      <path id="Trazado_1042987" data-name="Trazado 1042987" d="M340.466,85.136h-5.875a.935.935,0,0,1-.935-.935V78.326a.935.935,0,0,1,.935-.935h5.875a.935.935,0,0,1,.935.935V84.2A.935.935,0,0,1,340.466,85.136Z" transform="translate(-244.709 -61.177)" fill="#e53950"/>
      <path id="Trazado_1042988" data-name="Trazado 1042988" d="M229.753,83.845l-3.478-6.024a.861.861,0,0,0-1.491,0l-3.478,6.024a.861.861,0,0,0,.745,1.291h6.956A.861.861,0,0,0,229.753,83.845Z" transform="translate(-146.264 -61.177)" fill="#80d261"/>
      <path id="Trazado_1042989" data-name="Trazado 1042989" d="M167.2,430.861H187.7a.935.935,0,0,0,.935-.935V425.1a4.723,4.723,0,0,0-4.723-4.723H170.987a4.723,4.723,0,0,0-4.723,4.723v4.83A.935.935,0,0,0,167.2,430.861Z" transform="translate(-98.186 -361.399)" fill="none" stroke="#000" stroke-linecap="round" stroke-linejoin="round" stroke-miterlimit="10" stroke-width="1.3"/>
      <line id="Línea_869" data-name="Línea 869" y2="4.201" transform="translate(85.554 65.262)" fill="none" stroke="#000" stroke-linecap="round" stroke-linejoin="round" stroke-miterlimit="10" stroke-width="1.3"/>
      <line id="Línea_870" data-name="Línea 870" y2="4.201" transform="translate(72.96 65.262)" fill="none" stroke="#000" stroke-linecap="round" stroke-linejoin="round" stroke-miterlimit="10" stroke-width="1.3"/>
      <path id="Trazado_1042990" data-name="Trazado 1042990" d="M254.427,333.764V334.9a1.063,1.063,0,0,1-1.063,1.063" transform="translate(-174.427 -285.587)" fill="none" stroke="#000" stroke-linecap="round" stroke-linejoin="round" stroke-miterlimit="10" stroke-width="1.3"/>
      <path id="Trazado_1042991" data-name="Trazado 1042991" d="M218.6,268.943h0a5.316,5.316,0,0,0-5.289,5.844l.446,4.456a4.868,4.868,0,0,0,4.843,4.383h0a4.868,4.868,0,0,0,4.843-4.383l.446-4.456A5.315,5.315,0,0,0,218.6,268.943Z" transform="translate(-139.348 -228.848)" fill="none" stroke="#000" stroke-linecap="round" stroke-linejoin="round" stroke-miterlimit="10" stroke-width="1.3"/>
      <path id="Trazado_1042992" data-name="Trazado 1042992" d="M350.639,285.768h0a4.485,4.485,0,0,0-4.463,4.931l.376,3.76a4.107,4.107,0,0,0,4.087,3.7h0a4.107,4.107,0,0,0,4.087-3.7c.12-1.2.271-2.706.376-3.76A4.485,4.485,0,0,0,350.639,285.768Z" transform="translate(-255.649 -243.575)" fill="none" stroke="#000" stroke-linecap="round" stroke-linejoin="round" stroke-miterlimit="10" stroke-width="1.3"/>
      <path id="Trazado_1042993" data-name="Trazado 1042993" d="M98.378,285.768h0a4.485,4.485,0,0,0-4.463,4.931l.376,3.76a4.107,4.107,0,0,0,4.087,3.7h0a4.107,4.107,0,0,0,4.087-3.7l.376-3.76A4.485,4.485,0,0,0,98.378,285.768Z" transform="translate(-34.838 -243.575)" fill="none" stroke="#000" stroke-linecap="round" stroke-linejoin="round" stroke-miterlimit="10" stroke-width="1.3"/>
      <path id="Trazado_1042994" data-name="Trazado 1042994" d="M54.094,17.462V30.179a2.493,2.493,0,0,0,2.493,2.493h5.252v3.873l5.809-3.873h7.745l3.873,3.873,3.873-3.873h7.745l5.809,3.873V32.673h5.252a2.493,2.493,0,0,0,2.493-2.493V9.993A2.493,2.493,0,0,0,101.945,7.5H56.587a2.493,2.493,0,0,0-2.493,2.493v3.1" transform="translate(-0.001)" fill="none" stroke="#000" stroke-linecap="round" stroke-linejoin="round" stroke-miterlimit="10" stroke-width="1.3"/>
      <circle id="Elipse_12586" data-name="Elipse 12586" cx="3.873" cy="3.873" r="3.873" transform="translate(61.838 16.214)" fill="none" stroke="#000" stroke-linecap="round" stroke-linejoin="round" stroke-miterlimit="10" stroke-width="1.3"/>
      <path id="Trazado_1042995" data-name="Trazado 1042995" d="M335.036,85.136h-.444a.935.935,0,0,1-.935-.935V78.326a.935.935,0,0,1,.935-.935h5.875a.935.935,0,0,1,.935.935V84.2a.935.935,0,0,1-.935.935H339.4" transform="translate(-244.71 -61.177)" fill="none" stroke="#000" stroke-linecap="round" stroke-linejoin="round" stroke-miterlimit="10" stroke-width="1.3"/>
      <path id="Trazado_1042996" data-name="Trazado 1042996" d="M229.753,83.845l-3.478-6.024a.861.861,0,0,0-1.491,0l-3.478,6.024a.861.861,0,0,0,.745,1.291h6.956A.861.861,0,0,0,229.753,83.845Z" transform="translate(-146.264 -61.177)" fill="none" stroke="#000" stroke-linecap="round" stroke-linejoin="round" stroke-miterlimit="10" stroke-width="1.3"/>
      <line id="Línea_871" data-name="Línea 871" y2="3.544" transform="translate(100.243 63.624)" fill="none" stroke="#000" stroke-linecap="round" stroke-linejoin="round" stroke-miterlimit="10" stroke-width="1.3"/>
      <line id="Línea_872" data-name="Línea 872" y2="3.544" transform="translate(58.289 63.624)" fill="none" stroke="#000" stroke-linecap="round" stroke-linejoin="round" stroke-miterlimit="10" stroke-width="1.3"/>
      <path id="Trazado_1042997" data-name="Trazado 1042997" d="M60.485,418.8H58.078a3.985,3.985,0,0,0-3.985,3.985v3.47a.935.935,0,0,0,.935.935h13.05" transform="translate(0 -360.017)" fill="none" stroke="#000" stroke-linecap="round" stroke-linejoin="round" stroke-miterlimit="10" stroke-width="1.3"/>
      <path id="Trazado_1042998" data-name="Trazado 1042998" d="M146.524,419.344a3.967,3.967,0,0,0-2.02-.549h-4.138" transform="translate(-75.517 -360.017)" fill="none" stroke="#000" stroke-linecap="round" stroke-linejoin="round" stroke-miterlimit="10" stroke-width="1.3"/>
      <path id="Trazado_1042999" data-name="Trazado 1042999" d="M325.168,427.185h13.05a.935.935,0,0,0,.935-.935v-3.47a3.985,3.985,0,0,0-3.985-3.985H324.258a3.966,3.966,0,0,0-2.02.549" transform="translate(-234.714 -360.016)" fill="none" stroke="#000" stroke-linecap="round" stroke-linejoin="round" stroke-miterlimit="10" stroke-width="1.3"/>
    </g>
  </g>
</svg>
