<svg xmlns="http://www.w3.org/2000/svg" xmlns:xlink="http://www.w3.org/1999/xlink" width="118" height="118" viewBox="0 0 118 118">
  <defs>
    <filter id="Trazado_982547" x="0" y="0" width="118" height="118" filterUnits="userSpaceOnUse">
      <feOffset dy="3" input="SourceAlpha"/>
      <feGaussianBlur stdDeviation="3" result="blur"/>
      <feFlood flood-opacity="0.161"/>
      <feComposite operator="in" in2="blur"/>
      <feComposite in="SourceGraphic"/>
    </filter>
  </defs>
  <g id="Grupo_1202897" data-name="Grupo 1202897" transform="translate(-898.5 -6709)">
    <g id="Grupo_1202736" data-name="Grupo 1202736" transform="translate(907.5 6715)">
      <g id="Grupo_1174813" data-name="Grupo 1174813">
        <g id="Grupo_1201680" data-name="Grupo 1201680">
          <g id="Grupo_1201330" data-name="Grupo 1201330">
            <g id="Grupo_1172010" data-name="Grupo 1172010">
              <g id="Grupo_1171046" data-name="Grupo 1171046">
                <g id="Grupo_1148525" data-name="Grupo 1148525">
                  <g transform="matrix(1, 0, 0, 1, -9, -6)" filter="url(#Trazado_982547)">
                    <g id="Trazado_982547-2" data-name="Trazado 982547" transform="translate(9 6)" fill="#eafafc">
                      <path d="M 50 98.5 C 43.45188522338867 98.5 37.10042953491211 97.21787261962891 31.12207221984863 94.68923950195312 C 25.34691429138184 92.24655914306641 20.15997123718262 88.74931335449219 15.70532894134521 84.29468536376953 C 11.2506856918335 79.84004211425781 7.753442764282227 74.65309906005859 5.310757160186768 68.8779296875 C 2.782128572463989 62.89957046508789 1.5 56.54811477661133 1.5 50 C 1.5 43.45188522338867 2.782128572463989 37.10042953491211 5.310757160186768 31.12207221984863 C 7.753442764282227 25.34691429138184 11.2506856918335 20.15997123718262 15.70532894134521 15.70532894134521 C 20.15997123718262 11.2506856918335 25.34691429138184 7.753442764282227 31.12207221984863 5.310757160186768 C 37.10042953491211 2.782128572463989 43.45188522338867 1.5 50 1.5 C 56.54811477661133 1.5 62.89957046508789 2.782128572463989 68.8779296875 5.310757160186768 C 74.65309906005859 7.753442764282227 79.84004211425781 11.2506856918335 84.29468536376953 15.70532894134521 C 88.74931335449219 20.15997123718262 92.24655914306641 25.34691429138184 94.68923950195312 31.12207221984863 C 97.21787261962891 37.10042953491211 98.5 43.45188522338867 98.5 50 C 98.5 56.54811477661133 97.21787261962891 62.89957046508789 94.68923950195312 68.8779296875 C 92.24655914306641 74.65309906005859 88.74931335449219 79.84004211425781 84.29468536376953 84.29468536376953 C 79.84004211425781 88.74931335449219 74.65309906005859 92.24655914306641 68.8779296875 94.68923950195312 C 62.89957046508789 97.21787261962891 56.54811477661133 98.5 50 98.5 Z" stroke="none"/>
                      <path d="M 50 3 C 43.65372467041016 3 37.49886322021484 4.242263793945312 31.70639801025391 6.6922607421875 C 26.11003112792969 9.059326171875 21.08335113525391 12.44861602783203 16.76598358154297 16.76598358154297 C 12.44861602783203 21.08335113525391 9.059326171875 26.11003112792969 6.6922607421875 31.70639801025391 C 4.242263793945312 37.49886322021484 3 43.65372467041016 3 50 C 3 56.34627532958984 4.242263793945312 62.50113677978516 6.6922607421875 68.29360198974609 C 9.059326171875 73.88996887207031 12.44861602783203 78.91666412353516 16.76598358154297 83.23401641845703 C 21.08335113525391 87.55138397216797 26.11003112792969 90.940673828125 31.70639801025391 93.3077392578125 C 37.49886322021484 95.75773620605469 43.65372467041016 97 50 97 C 56.34627532958984 97 62.50113677978516 95.75773620605469 68.29360198974609 93.3077392578125 C 73.88996887207031 90.940673828125 78.91666412353516 87.55138397216797 83.23401641845703 83.23401641845703 C 87.55138397216797 78.91666412353516 90.940673828125 73.88996887207031 93.3077392578125 68.29360198974609 C 95.75773620605469 62.50113677978516 97 56.34627532958984 97 50 C 97 43.65372467041016 95.75773620605469 37.49886322021484 93.3077392578125 31.70639801025391 C 90.940673828125 26.11003112792969 87.55138397216797 21.08335113525391 83.23401641845703 16.76598358154297 C 78.91666412353516 12.44861602783203 73.88996887207031 9.059326171875 68.29360198974609 6.6922607421875 C 62.50113677978516 4.242263793945312 56.34627532958984 3 50 3 M 50 0 C 77.61424255371094 0 100 22.38577270507812 100 50 C 100 77.61424255371094 77.61424255371094 100 50 100 C 22.38577270507812 100 0 77.61424255371094 0 50 C 0 22.38577270507812 22.38577270507812 0 50 0 Z" stroke="none" fill="#3ad1e9"/>
                    </g>
                  </g>
                </g>
              </g>
            </g>
          </g>
        </g>
      </g>
    </g>
    <g id="inventory-management_10614613" transform="translate(916.731 6723.443)">
      <g id="Grupo_1202896" data-name="Grupo 1202896" transform="translate(9 15.319)">
        <g id="Grupo_1202892" data-name="Grupo 1202892" transform="translate(0 0)">
          <path id="Trazado_1043022" data-name="Trazado 1043022" d="M170.889,317.852h17.985V328.1H170.889Z" transform="translate(-151.27 -280.417)" fill="#a79ba7" fill-rule="evenodd"/>
          <path id="Trazado_1043023" data-name="Trazado 1043023" d="M301.86,317.852h1.395V328.1H301.86Z" transform="translate(-265.651 -280.417)" fill="#837683" fill-rule="evenodd"/>
          <path id="Trazado_1043024" data-name="Trazado 1043024" d="M88.408,391.872h38.88v-3c0-1.649-1.688-3-3.752-3H92.16c-2.063,0-3.752,1.349-3.752,3v3Z" transform="translate(-79.236 -339.826)" fill="#eceff1" fill-rule="evenodd"/>
          <path id="Trazado_1043025" data-name="Trazado 1043025" d="M88.409,395.981h38.88v-3a2.855,2.855,0,0,0-1.513-2.4,2.473,2.473,0,0,1,.321,1.209v3H88.409Z" transform="translate(-79.237 -343.935)" fill="#d1d1d6" fill-rule="evenodd"/>
          <path id="Trazado_1043026" data-name="Trazado 1043026" d="M20.4,22.318H68.824a4.412,4.412,0,0,1,4.4,4.4V56.981a4.412,4.412,0,0,1-4.4,4.4H20.4a4.412,4.412,0,0,1-4.4-4.4V26.717A4.412,4.412,0,0,1,20.4,22.318Z" transform="translate(-16 -22.318)" fill="#eceff1" fill-rule="evenodd"/>
          <path id="Trazado_1043027" data-name="Trazado 1043027" d="M76.47,28.263a4.4,4.4,0,0,1,1.945,3.646V62.173a4.412,4.412,0,0,1-4.4,4.4H25.591a4.4,4.4,0,0,1-3.646-1.945,4.367,4.367,0,0,0,2.454.753H72.824a4.412,4.412,0,0,0,4.4-4.4V30.717a4.367,4.367,0,0,0-.753-2.454Z" transform="translate(-21.192 -27.51)" fill="#d1d1d6" fill-rule="evenodd"/>
          <path id="Trazado_1043028" data-name="Trazado 1043028" d="M45.651,51.36H94.3a.612.612,0,0,1,.61.61V79.365H45.041V51.97a.612.612,0,0,1,.61-.61Z" transform="translate(-41.362 -47.681)" fill="#d8ecfe" fill-rule="evenodd"/>
          <path id="Trazado_1043029" data-name="Trazado 1043029" d="M415.078,51.36h2.384a.612.612,0,0,1,.61.61V79.365h-2.384V51.97A.612.612,0,0,0,415.078,51.36Z" transform="translate(-364.528 -47.681)" fill="#c4e2ff" fill-rule="evenodd"/>
        </g>
        <g id="Grupo_1202893" data-name="Grupo 1202893" transform="translate(11.688 7.894)">
          <path id="Trazado_1043030" data-name="Trazado 1043030" d="M119.986,86.26a8.34,8.34,0,0,1,2.442,1.012l1.587-.7,1.87,1.87-.7,1.586a8.339,8.339,0,0,1,1.012,2.443l1.619.623v2.645l-1.619.623A8.34,8.34,0,0,1,125.18,98.8l.7,1.587-1.87,1.87-1.586-.7a8.334,8.334,0,0,1-2.443,1.012l-.623,1.619h-2.645l-.623-1.619a8.34,8.34,0,0,1-2.442-1.012l-1.587.7-1.87-1.87.7-1.586a8.337,8.337,0,0,1-1.012-2.443l-1.619-.623V93.09l1.619-.623a8.337,8.337,0,0,1,1.012-2.442l-.7-1.587,1.87-1.87,1.587.7a8.34,8.34,0,0,1,2.442-1.012l.623-1.619h2.645Z" transform="translate(-108.269 -84.641)" fill="#ffe177" fill-rule="evenodd"/>
          <path id="Trazado_1043031" data-name="Trazado 1043031" d="M138.145,101.552l-1.587.7-.244-.244,1.488-.661Q137.971,101.456,138.145,101.552Zm6.333-15.291a8.34,8.34,0,0,1,2.442,1.012l-.451.2a11,11,0,0,0-2.785-1.213l-.623-1.619h.794Zm2.442,15.292a8.335,8.335,0,0,1-2.443,1.012l-.623,1.619h-.794l.623-1.619a11,11,0,0,0,2.786-1.213Zm-10.607-14.74.244-.244,1.587.7q-.174.1-.343.2Zm11.643,0,.55-.244,1.87,1.87-.7,1.586a8.338,8.338,0,0,1,1.012,2.443l1.619.623v2.645l-1.619.623a8.34,8.34,0,0,1-1.012,2.442l.7,1.587-1.87,1.87-.55-.244,1.626-1.626-.7-1.587a8.339,8.339,0,0,0,1.012-2.442l1.619-.623V93.09l-1.619-.623a8.34,8.34,0,0,0-1.012-2.443l.7-1.586Z" transform="translate(-132.762 -84.641)" fill="#ffd064" fill-rule="evenodd"/>
          <circle id="Elipse_12587" data-name="Elipse 12587" cx="4.612" cy="4.612" r="4.612" transform="translate(5.159 5.159)" fill="#eceff1"/>
          <path id="Trazado_1043032" data-name="Trazado 1043032" d="M153.608,125.369a4.612,4.612,0,1,0,0,9.224q.185,0,.367-.014a4.612,4.612,0,0,1,0-9.2Q153.793,125.369,153.608,125.369Z" transform="translate(-143.837 -120.21)" fill="#d1d1d6" fill-rule="evenodd"/>
        </g>
        <g id="Grupo_1202894" data-name="Grupo 1202894" transform="translate(23.845 9.26)">
          <path id="Trazado_1043033" data-name="Trazado 1043033" d="M235.711,124.265a1.922,1.922,0,0,1,1.918,1.918v35.3a1.922,1.922,0,0,1-1.918,1.918H206.169a1.922,1.922,0,0,1-1.918-1.918v-35.3a1.922,1.922,0,0,1,1.918-1.918Z" transform="translate(-204.251 -120.612)" fill="#837683" fill-rule="evenodd"/>
          <path id="Trazado_1043034" data-name="Trazado 1043034" d="M433.073,163.4h2.476a1.922,1.922,0,0,0,1.918-1.918v-35.3a1.922,1.922,0,0,0-1.918-1.918h-2.476Z" transform="translate(-404.089 -120.612)" fill="#685e68" fill-rule="evenodd"/>
          <path id="Trazado_1043035" data-name="Trazado 1043035" d="M252.5,145.332H226.182a.864.864,0,0,0-.863.863v32.071a.864.864,0,0,0,.863.863H252.5a.864.864,0,0,0,.863-.863V146.195A.864.864,0,0,0,252.5,145.332Z" transform="translate(-222.65 -139.01)" fill="#eceff1" fill-rule="evenodd"/>
          <path id="Trazado_1043036" data-name="Trazado 1043036" d="M433.073,179.128h.863q.041,0,.081,0a.865.865,0,0,0,.782-.859V146.195a.865.865,0,0,0-.782-.859c-.026,0-.053,0-.081,0h-.863Z" transform="translate(-404.089 -139.01)" fill="#d1d1d6" fill-rule="evenodd"/>
          <path id="Trazado_1043037" data-name="Trazado 1043037" d="M278.564,97.917H281.3a.847.847,0,0,0,.792-.521,3.262,3.262,0,0,1,5.993,0,.847.847,0,0,0,.792.521h2.734a.864.864,0,0,1,.863.863v3.262a.864.864,0,0,1-.863.863H278.564a.864.864,0,0,1-.863-.863V98.779A.864.864,0,0,1,278.564,97.917Z" transform="translate(-268.397 -95.423)" fill="#e3a76f" fill-rule="evenodd"/>
          <path id="Trazado_1043038" data-name="Trazado 1043038" d="M290.747,119.236H277.7a.864.864,0,0,0,.863.863h13.046a.864.864,0,0,0,.863-.863v-3.262a.864.864,0,0,0-.863-.863v3.262a.864.864,0,0,1-.863.863Z" transform="translate(-268.397 -112.617)" fill="#c48958" fill-rule="evenodd"/>
          <path id="Trazado_1043039" data-name="Trazado 1043039" d="M262.036,333.734h3.235a1.07,1.07,0,0,1,1.067,1.067v3.235a1.071,1.071,0,0,1-1.067,1.067h-3.235a1.071,1.071,0,0,1-1.067-1.067V334.8A1.071,1.071,0,0,1,262.036,333.734Z" transform="translate(-253.785 -303.548)" fill="#ffe177" fill-rule="evenodd"/>
          <path id="Trazado_1043040" data-name="Trazado 1043040" d="M285.861,333.734h1.149a1.07,1.07,0,0,1,1.067,1.067v3.235a1.07,1.07,0,0,1-1.067,1.067h-1.149a1.071,1.071,0,0,0,1.067-1.067V334.8A1.07,1.07,0,0,0,285.861,333.734Z" transform="translate(-275.524 -303.548)" fill="#ffd064" fill-rule="evenodd"/>
          <path id="Trazado_1043041" data-name="Trazado 1043041" d="M262.036,262.109h3.235a1.071,1.071,0,0,1,1.067,1.067v3.235a1.071,1.071,0,0,1-1.067,1.067h-3.235a1.071,1.071,0,0,1-1.067-1.067v-3.235A1.071,1.071,0,0,1,262.036,262.109Z" transform="translate(-253.785 -240.995)" fill="#6cf5c2" fill-rule="evenodd"/>
          <path id="Trazado_1043042" data-name="Trazado 1043042" d="M285.861,262.109h1.149a1.071,1.071,0,0,1,1.067,1.067v3.235a1.071,1.071,0,0,1-1.067,1.067h-1.149a1.071,1.071,0,0,0,1.067-1.067v-3.235A1.071,1.071,0,0,0,285.861,262.109Z" transform="translate(-275.524 -240.995)" fill="#00e499" fill-rule="evenodd"/>
          <path id="Trazado_1043043" data-name="Trazado 1043043" d="M262.036,190.484h3.235a1.07,1.07,0,0,1,1.067,1.067v3.235a1.07,1.07,0,0,1-1.067,1.067h-3.235a1.071,1.071,0,0,1-1.067-1.067v-3.235A1.071,1.071,0,0,1,262.036,190.484Z" transform="translate(-253.785 -178.443)" fill="#8ac9fe" fill-rule="evenodd"/>
          <path id="Trazado_1043044" data-name="Trazado 1043044" d="M285.861,190.484h1.149a1.07,1.07,0,0,1,1.067,1.067v3.235a1.071,1.071,0,0,1-1.067,1.067h-1.149a1.071,1.071,0,0,0,1.067-1.067v-3.235A1.07,1.07,0,0,0,285.861,190.484Z" transform="translate(-275.524 -178.443)" fill="#60b7ff" fill-rule="evenodd"/>
        </g>
        <g id="Grupo_1202895" data-name="Grupo 1202895" transform="translate(41.092 39.491)">
          <path id="Trazado_1043045" data-name="Trazado 1043045" d="M352.226,335.722a8.41,8.41,0,0,1,2.463,1.021l1.6-.711,1.886,1.886-.71,1.6a8.411,8.411,0,0,1,1.021,2.463l1.633.628v2.667l-1.633.629a8.411,8.411,0,0,1-1.021,2.463l.711,1.6-1.886,1.886-1.6-.71a8.411,8.411,0,0,1-2.463,1.021L351.6,353.8H348.93l-.628-1.633a8.411,8.411,0,0,1-2.463-1.021l-1.6.711-1.886-1.886.711-1.6a8.412,8.412,0,0,1-1.021-2.463l-1.632-.628V342.61l1.633-.629a8.412,8.412,0,0,1,1.021-2.463l-.711-1.6,1.886-1.886,1.6.711a8.41,8.41,0,0,1,2.463-1.021l.629-1.633H351.6Z" transform="translate(-340.41 -334.089)" fill="#ffe177" fill-rule="evenodd"/>
          <path id="Trazado_1043046" data-name="Trazado 1043046" d="M370.542,351.147l-1.6.711-.246-.246,1.5-.666Q370.366,351.05,370.542,351.147Zm6.387-15.421a8.412,8.412,0,0,1,2.463,1.021l-.455.2a11.087,11.087,0,0,0-2.809-1.223l-.629-1.633h.8Zm2.463,15.422a8.41,8.41,0,0,1-2.463,1.021L376.3,353.8h-.8l.628-1.633a11.092,11.092,0,0,0,2.809-1.223Zm-10.7-14.865.246-.246,1.6.711q-.175.1-.346.2Zm11.742,0,.555-.246,1.886,1.886-.711,1.6a8.41,8.41,0,0,1,1.021,2.463l1.633.628v2.667l-1.633.629a8.41,8.41,0,0,1-1.021,2.463l.711,1.6-1.886,1.886-.555-.246,1.64-1.64-.711-1.6a8.41,8.41,0,0,0,1.021-2.463l1.633-.629v-2.667l-1.633-.628a8.41,8.41,0,0,0-1.021-2.463l.71-1.6Z" transform="translate(-365.112 -334.092)" fill="#ffd064" fill-rule="evenodd"/>
          <circle id="Elipse_12588" data-name="Elipse 12588" cx="4.651" cy="4.651" r="4.651" transform="matrix(0.987, -0.16, 0.16, 0.987, 4.505, 6.013)" fill="#eceff1"/>
          <path id="Trazado_1043047" data-name="Trazado 1043047" d="M386.136,375.167a4.651,4.651,0,0,0,0,9.3q.187,0,.37-.015a4.651,4.651,0,0,1,0-9.273Q386.323,375.167,386.136,375.167Z" transform="translate(-376.282 -369.964)" fill="#d1d1d6" fill-rule="evenodd"/>
        </g>
      </g>
      <path id="Trazado_1043048" data-name="Trazado 1043048" d="M63.585,64.664A3.637,3.637,0,1,0,59.945,68.3,3.641,3.641,0,0,0,63.585,64.664Zm2.029,0A5.667,5.667,0,1,1,59.945,59,5.675,5.675,0,0,1,65.614,64.664Zm3.173-.635V65.3l-.983.379a1.014,1.014,0,0,0-.622.711,7.507,7.507,0,0,1-.9,2.168,1.015,1.015,0,0,0-.064.941l.427.962-.9.9-.96-.427a1.012,1.012,0,0,0-.943.062,7.522,7.522,0,0,1-2.17.9,1.014,1.014,0,0,0-.711.622l-.377.983H59.309l-.377-.983a1.014,1.014,0,0,0-.711-.622,7.536,7.536,0,0,1-2.17-.9,1.012,1.012,0,0,0-.941-.063l-.964.428-.9-.9.429-.962a1.014,1.014,0,0,0-.064-.946,7.267,7.267,0,0,1-.9-2.162,1.014,1.014,0,0,0-.623-.714l-.983-.379V64.028l.983-.378a1.013,1.013,0,0,0,.623-.714,7.258,7.258,0,0,1,.9-2.162,1.014,1.014,0,0,0,.064-.946l-.429-.961.9-.9.964.428a1.01,1.01,0,0,0,.941-.062,7.5,7.5,0,0,1,2.17-.9,1.015,1.015,0,0,0,.711-.622l.377-.984h1.275l.377.984a1.015,1.015,0,0,0,.711.622,7.523,7.523,0,0,1,2.171.9,1.013,1.013,0,0,0,.941.061l.96-.427.9.9-.427.962a1.014,1.014,0,0,0,.064.941,7.493,7.493,0,0,1,.9,2.17,1.016,1.016,0,0,0,.622.71ZM49.146,66.353A1.012,1.012,0,0,1,49.079,66V65.71H35.515A1.015,1.015,0,0,1,34.5,64.7V30.9a1.015,1.015,0,0,1,1.015-1.014h5.622v-.639H34.765a.906.906,0,0,0-.907.9v35.3a.908.908,0,0,0,.907.907h14.38Zm-29.958,0H31.974a2.942,2.942,0,0,1-.144-.907V62.385h-9.9c-1.485,0-2.737.91-2.737,1.984Zm10.447-6h2.194V55.394H29.635ZM13.4,53.366a3.39,3.39,0,0,1-3.388-3.384V19.72A3.392,3.392,0,0,1,13.4,16.332H61.824a3.391,3.391,0,0,1,3.387,3.388v7.643a2.921,2.921,0,0,0-.907-.144h-.745v-7.61a1.627,1.627,0,0,0-1.624-1.625H13.29a1.627,1.627,0,0,0-1.625,1.625V46.973a1.015,1.015,0,0,0,1.015,1.014h19.15v5.379H13.4ZM52.7,28.088h3.2v2.959H43.164V28.088h3.2a1.013,1.013,0,0,0,.986-.777,2.245,2.245,0,0,1,4.365,0,1.015,1.015,0,0,0,.987.777Zm-13.413-.869a1.009,1.009,0,0,0-.272-.927l-1.867-1.867a1.013,1.013,0,0,0-1.129-.21l-1.116.495a9.3,9.3,0,0,0-1.74-.722l-.439-1.139a1.014,1.014,0,0,0-.946-.649H29.135a1.014,1.014,0,0,0-.947.651l-.436,1.138a9.217,9.217,0,0,0-1.74.721L24.9,24.215a1.015,1.015,0,0,0-1.129.209L21.9,26.292a1.015,1.015,0,0,0-.212,1.129l.5,1.118a9.494,9.494,0,0,0-.722,1.739l-1.139.439a1.016,1.016,0,0,0-.65.947v2.646a1.015,1.015,0,0,0,.651.947l1.139.437a9.378,9.378,0,0,0,.721,1.739l-.5,1.116a1.016,1.016,0,0,0,.211,1.129l1.871,1.871a1.015,1.015,0,0,0,1.129.21l1.117-.5a9.431,9.431,0,0,0,1.737.72l.437,1.139a1.014,1.014,0,0,0,.947.651h2.646c.017,0,.033,0,.048,0v2.19H13.694V20.013H61.531v7.206h-3.6v-.146a1.014,1.014,0,0,0-1.014-1.014h-3.5a4.276,4.276,0,0,0-7.775,0h-3.5a1.014,1.014,0,0,0-1.015,1.014v.146H39.291Zm-4.526,0a2.922,2.922,0,0,0-1.885.687A5.63,5.63,0,1,0,31.829,38.44V40.3a1.027,1.027,0,0,0-.37.469l-.374.97H29.832l-.372-.968a1.014,1.014,0,0,0-.708-.622,7.437,7.437,0,0,1-2.149-.891,1.016,1.016,0,0,0-.943-.063l-.95.422-.887-.887.422-.95a1.013,1.013,0,0,0-.063-.942,7.31,7.31,0,0,1-.889-2.145,1.015,1.015,0,0,0-.625-.713l-.968-.371V32.359l.97-.374a1.016,1.016,0,0,0,.622-.712,7.376,7.376,0,0,1,.89-2.147,1.013,1.013,0,0,0,.062-.94l-.422-.95.886-.884.951.422a1.016,1.016,0,0,0,.946-.065,7.231,7.231,0,0,1,2.142-.888,1.011,1.011,0,0,0,.712-.623l.372-.969h1.253l.374.971a1.015,1.015,0,0,0,.712.621,7.285,7.285,0,0,1,2.145.89,1.016,1.016,0,0,0,.944.064l.95-.421.868.868H34.765Zm-2.936,2.931a2.894,2.894,0,0,1,.039-.475,3.6,3.6,0,1,0-.039,6.635ZM61.282,53.8H58.614a1.015,1.015,0,0,0-.948.649l-.027.072H50.025a1.014,1.014,0,1,0,0,2.028h2.669l-1.375,1.38a1,1,0,0,0-.253.43h-1.04a1.014,1.014,0,1,0,0,2.028h1.48a9.424,9.424,0,0,0-.625,1.557l-1.151.444a1.014,1.014,0,0,0-.65.946v.351H36.53V31.916h4.607v.146a1.014,1.014,0,0,0,1.015,1.014H56.919a1.014,1.014,0,0,0,1.014-1.014v-.146H62.54V55.257l-.312-.811a1.014,1.014,0,0,0-.946-.649Zm3.929-23.646a.906.906,0,0,0-.907-.9H57.933v.639h5.621A1.015,1.015,0,0,1,64.569,30.9V56.267l.642-.286V30.151Zm5.605,33.18V66a1.015,1.015,0,0,1-.65.948l-1.154.443a9.476,9.476,0,0,1-.729,1.761l.5,1.127a1.015,1.015,0,0,1-.209,1.127l-1.886,1.889a1.012,1.012,0,0,1-1.13.21L64.431,73a9.478,9.478,0,0,1-1.759.729l-.443,1.154a1.014,1.014,0,0,1-.946.65H58.614a1.015,1.015,0,0,1-.948-.65l-.443-1.154A9.477,9.477,0,0,1,55.464,73l-1.132.5a1.013,1.013,0,0,1-1.13-.21L51.318,71.4a1.013,1.013,0,0,1-.209-1.129l.5-1.126c-.136-.251-.258-.508-.369-.768H18.173a1.015,1.015,0,0,1-1.015-1.015v-3c0-2.212,2.138-4.011,4.767-4.011h5.682V55.394H13.4a5.42,5.42,0,0,1-5.417-5.412V19.72A5.422,5.422,0,0,1,13.4,14.3H61.824A5.423,5.423,0,0,1,67.24,19.72V56.59l1.334,1.337a1.013,1.013,0,0,1,.209,1.126l-.5,1.129a9.477,9.477,0,0,1,.729,1.761l1.154.444a1.014,1.014,0,0,1,.65.946ZM49.534,26.392a.862.862,0,1,0,.865.861A.862.862,0,0,0,49.534,26.392ZM44.385,55.835V59.07a.055.055,0,0,1-.052.052H41.1a.056.056,0,0,1-.055-.052V55.835a.058.058,0,0,1,.055-.053h3.235A.057.057,0,0,1,44.385,55.835Zm2.029,0V59.07a2.083,2.083,0,0,1-2.081,2.08H41.1a2.085,2.085,0,0,1-2.084-2.08V55.835A2.085,2.085,0,0,1,41.1,53.753h3.235A2.084,2.084,0,0,1,46.415,55.835Zm-2.029-9.074V50a.055.055,0,0,1-.052.053H41.1A.056.056,0,0,1,41.043,50V46.761a.058.058,0,0,1,.055-.052h3.235A.057.057,0,0,1,44.385,46.761Zm2.029,0V50a2.083,2.083,0,0,1-2.081,2.081H41.1A2.084,2.084,0,0,1,39.014,50V46.761A2.084,2.084,0,0,1,41.1,44.68h3.235A2.083,2.083,0,0,1,46.415,46.761Zm-2.029-9.074v3.235a.055.055,0,0,1-.052.052H41.1a.056.056,0,0,1-.055-.052V37.687a.058.058,0,0,1,.055-.052h3.235A.057.057,0,0,1,44.385,37.687Zm2.029,0v3.235A2.084,2.084,0,0,1,44.333,43H41.1a2.085,2.085,0,0,1-2.084-2.081V37.687A2.085,2.085,0,0,1,41.1,35.607h3.235A2.084,2.084,0,0,1,46.415,37.687Zm12.627,7.757a1.014,1.014,0,0,1,0,2.029H50.025a1.014,1.014,0,1,1,0-2.029Zm0,3.838a1.014,1.014,0,1,1,0,2.028H50.025a1.014,1.014,0,1,1,0-2.028Zm0-12.912a1.014,1.014,0,1,1,0,2.028H50.025a1.014,1.014,0,1,1,0-2.028Zm1.014,4.853a1.015,1.015,0,0,1-1.014,1.015H50.025a1.014,1.014,0,1,1,0-2.029h9.016A1.015,1.015,0,0,1,60.056,41.224Z" transform="translate(0 0)" fill-rule="evenodd"/>
    </g>
  </g>
</svg>
