<svg xmlns="http://www.w3.org/2000/svg" xmlns:xlink="http://www.w3.org/1999/xlink" width="118" height="118" viewBox="0 0 118 118">
  <defs>
    <filter id="Trazado_982547" x="0" y="0" width="118" height="118" filterUnits="userSpaceOnUse">
      <feOffset dy="3" input="SourceAlpha"/>
      <feGaussianBlur stdDeviation="3" result="blur"/>
      <feFlood flood-opacity="0.161"/>
      <feComposite operator="in" in2="blur"/>
      <feComposite in="SourceGraphic"/>
    </filter>
  </defs>
  <g id="Grupo_1202916" data-name="Grupo 1202916" transform="translate(-1213.5 -6709)">
    <g id="Grupo_1202735" data-name="Grupo 1202735" transform="translate(1222.5 6715)">
      <g id="Grupo_1174813" data-name="Grupo 1174813">
        <g id="Grupo_1201680" data-name="Grupo 1201680">
          <g id="Grupo_1201330" data-name="Grupo 1201330">
            <g id="Grupo_1172010" data-name="Grupo 1172010">
              <g id="Grupo_1171046" data-name="Grupo 1171046">
                <g id="Grupo_1148525" data-name="Grupo 1148525">
                  <g transform="matrix(1, 0, 0, 1, -9, -6)" filter="url(#Trazado_982547)">
                    <g id="Trazado_982547-2" data-name="Trazado 982547" transform="translate(9 6)" fill="#eafafc">
                      <path d="M 50 98.5 C 43.45188522338867 98.5 37.10042953491211 97.21787261962891 31.12207221984863 94.68923950195312 C 25.34691429138184 92.24655914306641 20.15997123718262 88.74931335449219 15.70532894134521 84.29468536376953 C 11.2506856918335 79.84004211425781 7.753442764282227 74.65309906005859 5.310757160186768 68.8779296875 C 2.782128572463989 62.89957046508789 1.5 56.54811477661133 1.5 50 C 1.5 43.45188522338867 2.782128572463989 37.10042953491211 5.310757160186768 31.12207221984863 C 7.753442764282227 25.34691429138184 11.2506856918335 20.15997123718262 15.70532894134521 15.70532894134521 C 20.15997123718262 11.2506856918335 25.34691429138184 7.753442764282227 31.12207221984863 5.310757160186768 C 37.10042953491211 2.782128572463989 43.45188522338867 1.5 50 1.5 C 56.54811477661133 1.5 62.89957046508789 2.782128572463989 68.8779296875 5.310757160186768 C 74.65309906005859 7.753442764282227 79.84004211425781 11.2506856918335 84.29468536376953 15.70532894134521 C 88.74931335449219 20.15997123718262 92.24655914306641 25.34691429138184 94.68923950195312 31.12207221984863 C 97.21787261962891 37.10042953491211 98.5 43.45188522338867 98.5 50 C 98.5 56.54811477661133 97.21787261962891 62.89957046508789 94.68923950195312 68.8779296875 C 92.24655914306641 74.65309906005859 88.74931335449219 79.84004211425781 84.29468536376953 84.29468536376953 C 79.84004211425781 88.74931335449219 74.65309906005859 92.24655914306641 68.8779296875 94.68923950195312 C 62.89957046508789 97.21787261962891 56.54811477661133 98.5 50 98.5 Z" stroke="none"/>
                      <path d="M 50 3 C 43.65372467041016 3 37.49886322021484 4.242263793945312 31.70639801025391 6.6922607421875 C 26.11003112792969 9.059326171875 21.08335113525391 12.44861602783203 16.76598358154297 16.76598358154297 C 12.44861602783203 21.08335113525391 9.059326171875 26.11003112792969 6.6922607421875 31.70639801025391 C 4.242263793945312 37.49886322021484 3 43.65372467041016 3 50 C 3 56.34627532958984 4.242263793945312 62.50113677978516 6.6922607421875 68.29360198974609 C 9.059326171875 73.88996887207031 12.44861602783203 78.91666412353516 16.76598358154297 83.23401641845703 C 21.08335113525391 87.55138397216797 26.11003112792969 90.940673828125 31.70639801025391 93.3077392578125 C 37.49886322021484 95.75773620605469 43.65372467041016 97 50 97 C 56.34627532958984 97 62.50113677978516 95.75773620605469 68.29360198974609 93.3077392578125 C 73.88996887207031 90.940673828125 78.91666412353516 87.55138397216797 83.23401641845703 83.23401641845703 C 87.55138397216797 78.91666412353516 90.940673828125 73.88996887207031 93.3077392578125 68.29360198974609 C 95.75773620605469 62.50113677978516 97 56.34627532958984 97 50 C 97 43.65372467041016 95.75773620605469 37.49886322021484 93.3077392578125 31.70639801025391 C 90.940673828125 26.11003112792969 87.55138397216797 21.08335113525391 83.23401641845703 16.76598358154297 C 78.91666412353516 12.44861602783203 73.88996887207031 9.059326171875 68.29360198974609 6.6922607421875 C 62.50113677978516 4.242263793945312 56.34627532958984 3 50 3 M 50 0 C 77.61424255371094 0 100 22.38577270507812 100 50 C 100 77.61424255371094 77.61424255371094 100 50 100 C 22.38577270507812 100 0 77.61424255371094 0 50 C 0 22.38577270507812 22.38577270507812 0 50 0 Z" stroke="none" fill="#3ad1e9"/>
                    </g>
                  </g>
                </g>
              </g>
            </g>
          </g>
        </g>
      </g>
    </g>
    <g id="data-exchange_4728169" transform="translate(1242 6734)">
      <g id="Grupo_1202914" data-name="Grupo 1202914">
        <g id="Grupo_1202898" data-name="Grupo 1202898">
          <path id="Trazado_1043049" data-name="Trazado 1043049" d="M43.5,57l-.28,2.25A2.007,2.007,0,0,1,41.23,61H29V57H43.5Z" fill="#aab2bd"/>
        </g>
        <g id="Grupo_1202899" data-name="Grupo 1202899">
          <path id="Trazado_1043050" data-name="Trazado 1043050" d="M45,44.88a1.927,1.927,0,0,1-.01.24L43.5,57H39l1.77-12.38A1.883,1.883,0,0,1,42.63,43h.49A1.878,1.878,0,0,1,45,44.88Z" fill="#ccd1d9"/>
        </g>
        <g id="Grupo_1202900" data-name="Grupo 1202900">
          <path id="Trazado_1043051" data-name="Trazado 1043051" d="M60,33v4H42v2l-5-4,5-4v2Z" fill="#fcd770"/>
        </g>
        <g id="Grupo_1202901" data-name="Grupo 1202901">
          <path id="Trazado_1043052" data-name="Trazado 1043052" d="M59,25l-5,4V27H36V23H54V21Z" fill="#fcd770"/>
        </g>
        <g id="Grupo_1202902" data-name="Grupo 1202902">
          <path id="Trazado_1043053" data-name="Trazado 1043053" d="M49,16V2a1,1,0,0,1,1-1H60a1,1,0,0,1,1,1V16a1,1,0,0,1-1,1H50A1,1,0,0,1,49,16Z" fill="#e6e9ed"/>
        </g>
        <g id="Grupo_1202903" data-name="Grupo 1202903">
          <path id="Trazado_1043054" data-name="Trazado 1043054" d="M45,9v7a1,1,0,0,1-1,1H34a1,1,0,0,1-1-1V2a1,1,0,0,1,1-1H44a1,1,0,0,1,1,1Z" fill="#e6e9ed"/>
        </g>
        <g id="Grupo_1202904" data-name="Grupo 1202904">
          <path id="Trazado_1043055" data-name="Trazado 1043055" d="M17,9V2a1,1,0,0,1,1-1H28a1,1,0,0,1,1,1V14.41A15.957,15.957,0,0,0,17,9Z" fill="#e6e9ed"/>
        </g>
        <g id="Grupo_1202905" data-name="Grupo 1202905">
          <path id="Trazado_1043056" data-name="Trazado 1043056" d="M22.77,19.22A2.9,2.9,0,0,1,20.09,21H9a4,4,0,0,0-4,4v6a11.962,11.962,0,0,0,3.51,8.49c.13.12.26.25,5.48,3.13l-.14.51a3.708,3.708,0,0,0-1-.13A3.845,3.845,0,0,0,9,46.85V52l-.42-.21A6.5,6.5,0,0,1,5,46a9.993,9.993,0,0,1-4-8V25A16,16,0,0,1,29,14.41v.01A15.923,15.923,0,0,1,33,25V38a10.041,10.041,0,0,1-4,8,8.009,8.009,0,0,1-3.2,6.4L25,53l-.3-3.03A7.744,7.744,0,0,0,17,43,12,12,0,0,0,29,31V24.02a4,4,0,0,0-2.9-3.85Z" fill="#b27946"/>
        </g>
        <g id="Grupo_1202906" data-name="Grupo 1202906">
          <path id="Trazado_1043057" data-name="Trazado 1043057" d="M18,53H29v8H19A10,10,0,0,1,9,51V46.85A3.845,3.845,0,0,1,12.85,43a3.708,3.708,0,0,1,1,.13,3.872,3.872,0,0,1,1.44.74,3.831,3.831,0,0,1,1.33,2.22Z" fill="#ef7385"/>
        </g>
        <g id="Grupo_1202907" data-name="Grupo 1202907">
          <path id="Trazado_1043058" data-name="Trazado 1043058" d="M9,51A10,10,0,0,0,19,61H9V51Z" fill="#ef7385"/>
        </g>
        <g id="Grupo_1202908" data-name="Grupo 1202908">
          <path id="Trazado_1043059" data-name="Trazado 1043059" d="M13.99,42.62,17,43a7.744,7.744,0,0,1,7.7,6.97L25,53H18l-1.38-6.91a3.831,3.831,0,0,0-1.33-2.22,3.872,3.872,0,0,0-1.44-.74Z" fill="#ef7385"/>
        </g>
        <g id="Grupo_1202909" data-name="Grupo 1202909">
          <path id="Trazado_1043060" data-name="Trazado 1043060" d="M33,56v1H29V53h1A3,3,0,0,1,33,56Z" fill="#f0d0b4"/>
        </g>
        <g id="Grupo_1202910" data-name="Grupo 1202910">
          <path id="Trazado_1043061" data-name="Trazado 1043061" d="M29,24.02V31A12,12,0,0,1,17,43l-3.01-.38c-5.22-2.88-5.35-3.01-5.48-3.13A11.962,11.962,0,0,1,5,31V25a4,4,0,0,1,4-4H20.09a2.9,2.9,0,0,0,2.68-1.78l3.33.95A4,4,0,0,1,29,24.02Z" fill="#f0d0b4"/>
        </g>
        <g id="Grupo_1202911" data-name="Grupo 1202911">
          <circle id="Elipse_12589" data-name="Elipse 12589" cx="2" cy="2" r="2" transform="translate(21 25)" fill="#d3a06c"/>
        </g>
        <g id="Grupo_1202912" data-name="Grupo 1202912">
          <circle id="Elipse_12590" data-name="Elipse 12590" cx="2" cy="2" r="2" transform="translate(9 25)" fill="#d3a06c"/>
        </g>
        <g id="Grupo_1202913" data-name="Grupo 1202913">
          <path id="Trazado_1043062" data-name="Trazado 1043062" d="M21,35l-.27,1.09a3.846,3.846,0,0,1-7.46,0L13,35Z" fill="#ef7385"/>
        </g>
      </g>
      <g id="Grupo_1202915" data-name="Grupo 1202915">
        <path id="Trazado_1043063" data-name="Trazado 1043063" d="M21.7,36.332,22.281,34H11.719l.583,2.332a4.843,4.843,0,0,0,9.4,0ZM14.285,36h5.43a2.843,2.843,0,0,1-5.43,0Z"/>
        <path id="Trazado_1043064" data-name="Trazado 1043064" d="M14,27a3,3,0,1,0-3,3A3,3,0,0,0,14,27Zm-3,1a1,1,0,1,1,1-1A1,1,0,0,1,11,28Z"/>
        <path id="Trazado_1043065" data-name="Trazado 1043065" d="M23,30a3,3,0,1,0-3-3A3,3,0,0,0,23,30Zm0-4a1,1,0,1,1-1,1A1,1,0,0,1,23,26Z"/>
        <path id="Trazado_1043066" data-name="Trazado 1043066" d="M4,4H6V6H4Z"/>
        <path id="Trazado_1043067" data-name="Trazado 1043067" d="M8,4h2V6H8Z"/>
        <path id="Trazado_1043068" data-name="Trazado 1043068" d="M12,4h2V6H12Z"/>
        <path id="Trazado_1043069" data-name="Trazado 1043069" d="M36,4h6V6H36Z"/>
        <path id="Trazado_1043070" data-name="Trazado 1043070" d="M36,8h6v2H36Z"/>
        <path id="Trazado_1043071" data-name="Trazado 1043071" d="M36,12h6v2H36Z"/>
        <path id="Trazado_1043072" data-name="Trazado 1043072" d="M20,4h6V6H20Z"/>
        <path id="Trazado_1043073" data-name="Trazado 1043073" d="M52,4h6V6H52Z"/>
        <path id="Trazado_1043074" data-name="Trazado 1043074" d="M52,8h6v2H52Z"/>
        <path id="Trazado_1043075" data-name="Trazado 1043075" d="M52,12h6v2H52Z"/>
        <path id="Trazado_1043076" data-name="Trazado 1043076" d="M60,0H50a2,2,0,0,0-2,2V8H46V2a2,2,0,0,0-2-2H34a2,2,0,0,0-2,2V8H30V2a2,2,0,0,0-2-2H18a2,2,0,0,0-2,2V8.051A17.007,17.007,0,0,0,0,25V38a11.058,11.058,0,0,0,4.016,8.5A7.421,7.421,0,0,0,8,52.607V62H41.234a3,3,0,0,0,2.977-2.628l1.767-14.13A2.886,2.886,0,0,0,43.117,42h-.484a2.9,2.9,0,0,0-2.854,2.475L38.133,56H34a4,4,0,0,0-4-4H27.694a9.049,9.049,0,0,0,2.292-5.5A11.055,11.055,0,0,0,34,38V25a16.913,16.913,0,0,0-4-10.932V10h2v6a2,2,0,0,0,2,2H44a2,2,0,0,0,2-2V10h2v6a2,2,0,0,0,2,2H60a2,2,0,0,0,2-2V2A2,2,0,0,0,60,0ZM28,2V12.062A16.907,16.907,0,0,0,18,8.051V2ZM10,60V57.305A11.092,11.092,0,0,0,12.695,60Zm0-9V46.847a2.847,2.847,0,0,1,5.639-.559l1.276,6.383-1.622,1.622,1.414,1.414L18.414,54H28v6H19a9.01,9.01,0,0,1-9-9ZM6,31V25a3,3,0,0,1,3-3H20.094a3.9,3.9,0,0,0,3.153-1.6l2.577.736A3.015,3.015,0,0,1,28,24.017V31A11,11,0,0,1,6,31ZM17,44a6.712,6.712,0,0,1,6.7,6.064L23.9,52H18.82L17.6,45.9a4.808,4.808,0,0,0-.864-1.909c.089,0,.175.013.265.013Zm24.759.758A.886.886,0,0,1,42.633,44h.484a.884.884,0,0,1,.883.883.808.808,0,0,1-.007.109L42.617,56H40.153ZM42.367,58l-.141,1.124a1,1,0,0,1-.992.876H30V58ZM32,56H30V54A2,2,0,0,1,32,56Zm0-18a9.045,9.045,0,0,1-3.6,7.2l-.4.3V46a7.038,7.038,0,0,1-2.187,5.081l-.122-1.216a8.7,8.7,0,0,0-4.26-6.66A13.008,13.008,0,0,0,30,31V24.017a5.023,5.023,0,0,0-3.626-4.808l-2.4-.685a4.057,4.057,0,0,0,.023-.43,3.9,3.9,0,0,0-2.67-3.7l-1.013-.338-.633,1.9,1.013.338a1.906,1.906,0,0,1-.6,3.714H9a5.006,5.006,0,0,0-5,5v6a13.011,13.011,0,0,0,6.844,11.446A4.843,4.843,0,0,0,8,46.847v3.369A5.429,5.429,0,0,1,6,46v-.5l-.4-.3A9.045,9.045,0,0,1,2,38V25a15,15,0,0,1,30,0Zm2-22V2H44V16Zm16,0V2H60V16Z"/>
        <path id="Trazado_1043077" data-name="Trazado 1043077" d="M53,22H36v2H55v-.919L57.4,25,55,26.919V26H36v2H53v3.081L60.6,25,53,18.919Z"/>
        <path id="Trazado_1043078" data-name="Trazado 1043078" d="M43,28.919,35.4,35,43,41.081V38H60V36H41v.919L38.6,35,41,33.081V34H60V32H43Z"/>
        <path id="Trazado_1043079" data-name="Trazado 1043079" d="M48,56h2v2H48Z"/>
        <path id="Trazado_1043080" data-name="Trazado 1043080" d="M52,56h2v2H52Z"/>
        <path id="Trazado_1043081" data-name="Trazado 1043081" d="M56,56h2v2H56Z"/>
        <path id="Trazado_1043082" data-name="Trazado 1043082" d="M48,52H58v2H48Z"/>
        <path id="Trazado_1043083" data-name="Trazado 1043083" d="M48,48H58v2H48Z"/>
        <path id="Trazado_1043084" data-name="Trazado 1043084" d="M48,44h4v2H48Z"/>
        <path id="Trazado_1043085" data-name="Trazado 1043085" d="M54,44h4v2H54Z"/>
      </g>
    </g>
  </g>
</svg>
