<svg xmlns="http://www.w3.org/2000/svg" width="379" height="146.538" viewBox="0 0 379 146.538">
  <g id="Grupo_1202824" data-name="Grupo 1202824" transform="translate(-1020 -708.462)">
    <g id="Grupo_1202545" data-name="Grupo 1202545" transform="translate(-210 436)">
      <g id="Grupo_1177674" data-name="Grupo 1177674" transform="translate(1230 290)">
        <g id="Grupo_1177451" data-name="Grupo 1177451">
          <rect id="Rect치ngulo_416021" data-name="Rect치ngulo 416021" width="379" height="93" rx="5" transform="translate(0 18)" fill="#5a1a8a"/>
          <rect id="Rect치ngulo_416022" data-name="Rect치ngulo 416022" width="319" height="129" rx="5" transform="translate(30)" fill="#a530fe"/>
        </g>
      </g>
    </g>
    <g id="medical-sign_18074974" transform="translate(1134.5 706.962)">
      <g id="Grupo_1202815" data-name="Grupo 1202815" transform="translate(1.5 1.5)">
        <g id="Grupo_1202814" data-name="Grupo 1202814">
          <g id="Grupo_1202797" data-name="Grupo 1202797" transform="translate(0 32.525)">
            <g id="Grupo_1202791" data-name="Grupo 1202791" transform="translate(0.013)">
              <g id="Grupo_1202790" data-name="Grupo 1202790">
                <g id="Grupo_1202775" data-name="Grupo 1202775" transform="translate(94.154)">
                  <g id="Grupo_1202773" data-name="Grupo 1202773" transform="translate(1.128)">
                    <g id="Grupo_1202760" data-name="Grupo 1202760" transform="translate(1.876 1.109)">
                      <path id="Trazado_1042726" data-name="Trazado 1042726" d="M86.2,79.925C83.012,84.274,74.174,97.9,74.174,97.9L44.61,109.744C40.935,97.067,44.7,83.46,57.822,68.667L48.355,45.826A6.4,6.4,0,0,1,49.8,38.755l.628-.628L48.4,34.335a4.888,4.888,0,0,1,1.489-6.28l1.233-.884L48.937,23.1a4.85,4.85,0,0,1,8.443-4.768,4.274,4.274,0,0,1,1.023-.907,4.984,4.984,0,0,1,2.7-.791,4.845,4.845,0,0,1,4.14,2.279l9.234,14.514a5.167,5.167,0,0,1,8.885,3.605c0,.279-.023.535-.047.791l-1.21,7.606,5.3,8.35c5.582,8.281,5.745,16.631-1.21,26.144Z" transform="translate(-43.277 -15.96)" fill="#ffb59c"/>
                    </g>
                    <g id="Grupo_1202761" data-name="Grupo 1202761" transform="translate(1.896 62.12)">
                      <path id="Trazado_1042727" data-name="Trazado 1042727" d="M44.622,74.963,74.186,63.124S54.647,57.053,51.391,42.19C43.529,53.8,41.645,64.682,44.622,74.963Z" transform="translate(-43.285 -42.19)" fill="#f59878"/>
                    </g>
                    <g id="Grupo_1202762" data-name="Grupo 1202762" transform="translate(31.657 62.236)">
                      <path id="Trazado_1042728" data-name="Trazado 1042728" d="M57.2,64.174a1.153,1.153,0,0,1-.6-.186,1.129,1.129,0,0,1-.326-1.558c.372-.558,8.885-13.677,12.072-18.026.4-.558.791-1.093,1.14-1.651a1.126,1.126,0,1,1,1.884,1.233c-.372.581-.768,1.163-1.21,1.744-3.14,4.28-11.909,17.794-12,17.933A1.141,1.141,0,0,1,57.2,64.174Z" transform="translate(-56.08 -42.24)"/>
                    </g>
                    <g id="Grupo_1202763" data-name="Grupo 1202763" transform="translate(34.297 21.194)">
                      <path id="Trazado_1042729" data-name="Trazado 1042729" d="M72.252,60.845a1.825,1.825,0,0,1-.326-.047,1.131,1.131,0,0,1-.768-1.4c1.6-5.489.558-10.862-3.187-16.422L57.389,26.328a1.129,1.129,0,1,1,1.907-1.21l10.56,16.631c4.14,6.117,5.28,12.1,3.489,18.282a1.166,1.166,0,0,1-1.093.814Z" transform="translate(-57.215 -24.595)"/>
                    </g>
                    <g id="Grupo_1202764" data-name="Grupo 1202764" transform="translate(13.615 0.688)">
                      <path id="Trazado_1042730" data-name="Trazado 1042730" d="M58.759,40.46a1.142,1.142,0,0,1-.977-.558L49.13,24.829A6.043,6.043,0,0,1,59.481,18.6L68.715,33.11a1.129,1.129,0,0,1-1.907,1.21L57.573,19.805a3.768,3.768,0,0,0-5.257-1.14,3.813,3.813,0,0,0-1.233,5.071l8.653,15.072a1.134,1.134,0,0,1-.419,1.535,1.975,1.975,0,0,1-.558.116Z" transform="translate(-48.323 -15.779)"/>
                    </g>
                    <g id="Grupo_1202765" data-name="Grupo 1202765" transform="translate(16.445 17.009)">
                      <path id="Trazado_1042731" data-name="Trazado 1042731" d="M49.54,59.6a71.952,71.952,0,0,0,9.537-16.654l5.908-16.7a5.169,5.169,0,0,1,9.979,2.535L70.381,57.812" transform="translate(-49.54 -22.796)" fill="#ffb59c"/>
                    </g>
                    <g id="Grupo_1202766" data-name="Grupo 1202766" transform="translate(0 82.906)">
                      <path id="Trazado_1042732" data-name="Trazado 1042732" d="M82.966,75.86C67.242,70.533,54.728,73.3,44.145,81.093L42.47,66.649c9.723-11.793,22.446-16.77,37.542-15.259Z" transform="translate(-42.47 -51.127)" fill="#726ad3"/>
                    </g>
                    <g id="Grupo_1202767" data-name="Grupo 1202767" transform="translate(0 82.883)">
                      <path id="Trazado_1042733" data-name="Trazado 1042733" d="M82.966,75.873c-15.724-5.327-28.238-2.559-38.821,5.233l-1-8.676-.675-5.792c9.746-11.793,22.446-16.77,37.542-15.259l.4,3.256Z" transform="translate(-42.47 -51.117)" fill="#ffca6b"/>
                    </g>
                    <g id="Grupo_1202768" data-name="Grupo 1202768" transform="translate(0.675 86.403)">
                      <path id="Trazado_1042734" data-name="Trazado 1042734" d="M82.581,73.866C66.857,68.54,54.343,71.308,43.76,79.1l-1-8.676c21.609,0,37.262-17.794,37.262-17.794Z" transform="translate(-42.76 -52.63)" fill="#f9b84e"/>
                    </g>
                    <g id="Grupo_1202769" data-name="Grupo 1202769" transform="translate(5.321)">
                      <path id="Trazado_1042735" data-name="Trazado 1042735" d="M55.881,70.416a1.13,1.13,0,0,1-1.047-.7L45.368,46.876a7.524,7.524,0,0,1,1.7-8.3l.023-.023L45.461,35.5a6.032,6.032,0,0,1,1.814-7.722l.442-.3L46,24.291A5.971,5.971,0,0,1,56.439,18.5a1.125,1.125,0,0,1-1.954,1.116,3.7,3.7,0,0,0-5.3-1.256,3.693,3.693,0,0,0-1.21,4.838l2.186,4.07a1.106,1.106,0,0,1-.349,1.442l-1.233.884a3.753,3.753,0,0,0-1.14,4.815L49.461,38.2a1.1,1.1,0,0,1-.209,1.326l-.628.628a5.3,5.3,0,0,0-1.186,5.838L56.9,68.834a1.112,1.112,0,0,1-.6,1.465.674.674,0,0,1-.419.116Z" transform="translate(-44.758 -15.483)"/>
                    </g>
                    <g id="Grupo_1202770" data-name="Grupo 1202770" transform="translate(0.782 15.894)">
                      <path id="Trazado_1042736" data-name="Trazado 1042736" d="M45.257,102.432a1.166,1.166,0,0,1-1.093-.814c-3.908-13.491.628-27.679,13.468-42.124a70.319,70.319,0,0,0,9.327-16.305l5.885-16.677a6.313,6.313,0,0,1,8.676-3.582A6.242,6.242,0,0,1,85.009,29.6L80.426,58.633a1.119,1.119,0,0,1-2.21-.349L82.8,29.256a4.011,4.011,0,0,0-2.256-4.28,4.06,4.06,0,0,0-5.582,2.3l-5.908,16.7a73.881,73.881,0,0,1-9.7,16.933C46.816,75.032,42.559,88.127,46.3,101.013a1.121,1.121,0,0,1-.768,1.4,1.043,1.043,0,0,1-.279.023Z" transform="translate(-42.806 -22.317)"/>
                    </g>
                    <g id="Grupo_1202771" data-name="Grupo 1202771" transform="translate(8.584 11.181)">
                      <path id="Trazado_1042737" data-name="Trazado 1042737" d="M59,44.294a1.128,1.128,0,0,1-1-.6L46.3,21.964a1.134,1.134,0,1,1,2-1.07L60,42.619a1.124,1.124,0,0,1-.465,1.535A.883.883,0,0,1,59,44.294Z" transform="translate(-46.16 -20.29)"/>
                    </g>
                    <g id="Grupo_1202772" data-name="Grupo 1202772" transform="translate(7.909 22.137)">
                      <path id="Trazado_1042738" data-name="Trazado 1042738" d="M57.2,46.422a1.128,1.128,0,0,1-1-.6L46.009,26.674a1.134,1.134,0,1,1,2-1.07L58.2,44.747a1.124,1.124,0,0,1-.465,1.535,1.222,1.222,0,0,1-.535.14Z" transform="translate(-45.87 -25)"/>
                    </g>
                  </g>
                  <g id="Grupo_1202774" data-name="Grupo 1202774" transform="translate(0 81.787)">
                    <path id="Trazado_1042739" data-name="Trazado 1042739" d="M44.788,82.871a.944.944,0,0,1-.442-.093,1.14,1.14,0,0,1-.675-.907L42,67.427a1.014,1.014,0,0,1,.256-.837c9.862-11.956,22.818-17.236,38.5-15.677a1.093,1.093,0,0,1,1,.977l2.977,24.469a1.091,1.091,0,0,1-.419,1,1.054,1.054,0,0,1-1.07.186C69,72.707,56.627,74.381,45.439,82.615A.893.893,0,0,1,44.788,82.871ZM44.3,67.636l1.4,12.072c10.955-7.443,22.981-9.025,36.588-4.838L79.631,53.052C65.3,51.889,53.417,56.773,44.3,67.636Z" transform="translate(-41.985 -50.645)"/>
                  </g>
                </g>
                <g id="Grupo_1202789" data-name="Grupo 1202789" transform="translate(0 0.023)">
                  <g id="Grupo_1202787" data-name="Grupo 1202787">
                    <g id="Grupo_1202776" data-name="Grupo 1202776" transform="translate(1.11 1.085)">
                      <path id="Trazado_1042740" data-name="Trazado 1042740" d="M7.3,79.925c3.187,4.35,12.025,17.98,12.025,17.98l29.563,11.839C52.566,97.067,48.8,83.46,35.68,68.667l9.467-22.841A6.4,6.4,0,0,0,43.7,38.755l-.628-.628L45.1,34.335a4.888,4.888,0,0,0-1.489-6.28l-1.233-.884,2.186-4.07a4.85,4.85,0,0,0-8.443-4.768,4.274,4.274,0,0,0-1.023-.907,4.984,4.984,0,0,0-2.7-.791,4.845,4.845,0,0,0-4.14,2.279L19.026,33.428a5.145,5.145,0,0,0-5.955-1.07,5.227,5.227,0,0,0-2.907,4.7c0,.279.023.535.047.791l1.21,7.606-5.3,8.35C.511,62.061.325,70.412,7.3,79.925Z" transform="translate(-1.983 -15.96)" fill="#ffb59c"/>
                    </g>
                    <g id="Grupo_1202777" data-name="Grupo 1202777" transform="translate(1.128 1.085)">
                      <path id="Trazado_1042741" data-name="Trazado 1042741" d="M48.858,109.744,19.318,97.9S10.479,84.3,7.293,79.925C.338,70.412.524,62.084,6.106,53.8l5.3-8.35L10.2,37.848a4.513,4.513,0,0,1-.047-.791,5.167,5.167,0,0,1,8.885-3.629l9.234-14.514a4.9,4.9,0,0,1,4.14-2.279,5.05,5.05,0,0,1,2.675.791,4.275,4.275,0,0,1,1.023.907,4.833,4.833,0,0,1,8.42,4.745l-2.186,4.07,1.233.884a4.881,4.881,0,0,1,1.465,6.28L43.02,38.1l.628.628A6.494,6.494,0,0,1,45.09,45.8L35.623,68.621A77.554,77.554,0,0,1,42.089,76.9C49.951,88.578,51.835,99.463,48.858,109.744Z" transform="translate(-1.991 -15.96)" fill="#ffb59c"/>
                    </g>
                    <g id="Grupo_1202778" data-name="Grupo 1202778" transform="translate(18.455 62.096)">
                      <path id="Trazado_1042742" data-name="Trazado 1042742" d="M38.98,74.963,9.44,63.124S28.978,57.053,32.235,42.19C40.073,53.8,41.957,64.682,38.98,74.963Z" transform="translate(-9.44 -42.19)" fill="#f59878"/>
                    </g>
                    <g id="Grupo_1202779" data-name="Grupo 1202779" transform="translate(0 0.618)">
                      <path id="Trazado_1042743" data-name="Trazado 1042743" d="M19.961,99.288a1.172,1.172,0,0,1-.954-.512c-.093-.14-8.862-13.63-12-17.933C.1,71.4-.3,62.421,5.8,53.419L27.939,18.576A6.043,6.043,0,0,1,38.29,24.809L29.637,39.882a1.125,1.125,0,0,1-1.954-1.116l8.653-15.072a3.794,3.794,0,0,0-6.49-3.931L7.7,54.675C2.12,62.932,2.469,70.817,8.843,79.517c3.163,4.35,11.7,17.468,12.072,18.026a1.129,1.129,0,0,1-.326,1.558A1.092,1.092,0,0,1,19.961,99.288Z" transform="translate(-1.506 -15.759)"/>
                    </g>
                    <g id="Grupo_1202780" data-name="Grupo 1202780" transform="translate(9.292 16.986)">
                      <path id="Trazado_1042744" data-name="Trazado 1042744" d="M30.992,59.6a71.952,71.952,0,0,1-9.537-16.654l-5.908-16.7a5.169,5.169,0,0,0-9.979,2.535l4.582,29.028" transform="translate(-5.5 -22.796)" fill="#ffb59c"/>
                    </g>
                    <g id="Grupo_1202781" data-name="Grupo 1202781" transform="translate(10.733 82.883)">
                      <path id="Trazado_1042745" data-name="Trazado 1042745" d="M6.12,75.86c15.724-5.327,28.238-2.559,38.821,5.233l1.675-14.444C36.893,54.856,24.17,49.878,9.074,51.39Z" transform="translate(-6.12 -51.127)" fill="#ffca6b"/>
                    </g>
                    <g id="Grupo_1202782" data-name="Grupo 1202782" transform="translate(10.709 86.38)">
                      <path id="Trazado_1042746" data-name="Trazado 1042746" d="M6.11,73.866C21.834,68.54,34.348,71.308,44.931,79.1l1-8.676C24.323,70.424,8.669,52.63,8.669,52.63Z" transform="translate(-6.11 -52.63)" fill="#f9b84e"/>
                    </g>
                    <g id="Grupo_1202783" data-name="Grupo 1202783" transform="translate(33.651)">
                      <path id="Trazado_1042747" data-name="Trazado 1042747" d="M17.105,70.4a1.079,1.079,0,0,1-.442-.093,1.12,1.12,0,0,1-.6-1.465L25.525,46a5.3,5.3,0,0,0-1.186-5.838l-.628-.628a1.13,1.13,0,0,1-.209-1.326l2.024-3.791a3.747,3.747,0,0,0-1.14-4.815l-1.233-.884a1.131,1.131,0,0,1-.349-1.442l2.186-4.07a3.724,3.724,0,0,0-4.14-5.373,3.567,3.567,0,0,0-2.373,1.791,1.125,1.125,0,1,1-1.954-1.116A5.972,5.972,0,0,1,26.968,24.3l-1.721,3.187.442.3A6.032,6.032,0,0,1,27.5,35.512l-1.628,3.047.023.023a7.565,7.565,0,0,1,1.7,8.3L18.129,69.728a1.09,1.09,0,0,1-1.023.675Z" transform="translate(-15.973 -15.493)"/>
                    </g>
                    <g id="Grupo_1202784" data-name="Grupo 1202784" transform="translate(8.141 15.861)">
                      <path id="Trazado_1042748" data-name="Trazado 1042748" d="M46.093,95.9H46a1.12,1.12,0,0,1-1.023-1.21c.907-10.746-3.861-22.074-14.165-33.68a72.932,72.932,0,0,1-9.746-16.98L15.157,27.308a4,4,0,0,0-2.279-2.4,4.085,4.085,0,0,0-3.3.093,3.964,3.964,0,0,0-2.256,4.257L11.9,58.29a1.119,1.119,0,1,1-2.21.349L5.086,29.61a6.3,6.3,0,0,1,12.165-3.094l5.908,16.7a72.05,72.05,0,0,0,9.374,16.352C43.185,71.548,48.14,83.457,47.186,94.854A1.1,1.1,0,0,1,46.093,95.9Z" transform="translate(-5.006 -22.313)"/>
                    </g>
                    <g id="Grupo_1202785" data-name="Grupo 1202785" transform="translate(28.677 11.168)">
                      <path id="Trazado_1042749" data-name="Trazado 1042749" d="M14.963,44.288a1.081,1.081,0,0,1-.535-.14,1.144,1.144,0,0,1-.465-1.535l11.7-21.725a1.134,1.134,0,1,1,2,1.07l-11.7,21.725A1.128,1.128,0,0,1,14.963,44.288Z" transform="translate(-13.835 -20.295)"/>
                    </g>
                    <g id="Grupo_1202786" data-name="Grupo 1202786" transform="translate(30.854 22.113)">
                      <path id="Trazado_1042750" data-name="Trazado 1042750" d="M15.909,46.422a1.148,1.148,0,0,1-.535-.14,1.124,1.124,0,0,1-.465-1.535L25.1,25.6a1.134,1.134,0,1,1,2,1.07L16.909,45.817a1.175,1.175,0,0,1-1,.6Z" transform="translate(-14.77 -25)"/>
                    </g>
                  </g>
                  <g id="Grupo_1202788" data-name="Grupo 1202788" transform="translate(9.585 81.809)">
                    <path id="Trazado_1042751" data-name="Trazado 1042751" d="M45.6,82.845a1.212,1.212,0,0,1-.675-.209c-11.188-8.234-23.562-9.909-37.8-5.071a1.172,1.172,0,0,1-1.07-.186,1.113,1.113,0,0,1-.419-1L8.612,51.909a1.113,1.113,0,0,1,1-.977c15.677-1.558,28.633,3.7,38.518,15.677a1.2,1.2,0,0,1,.256.837L46.712,81.891a1.14,1.14,0,0,1-.675.907c-.14,0-.279.047-.442.047ZM22.289,72.587a39.057,39.057,0,0,1,22.4,7.118l1.4-12.072c-9.118-10.862-21.027-15.77-35.355-14.584L8.077,74.867A48.622,48.622,0,0,1,22.289,72.587Z" transform="translate(-5.627 -50.665)"/>
                  </g>
                </g>
              </g>
            </g>
            <g id="Grupo_1202792" data-name="Grupo 1202792" transform="translate(0 111.78)">
              <path id="Trazado_1042752" data-name="Trazado 1042752" d="M3.5,65.773H2.616A1.117,1.117,0,0,1,1.5,64.656,1.132,1.132,0,0,1,2.616,63.54H3.5a1.116,1.116,0,1,1,0,2.233Z" transform="translate(-1.5 -63.54)"/>
            </g>
            <g id="Grupo_1202793" data-name="Grupo 1202793" transform="translate(5.396 111.78)">
              <path id="Trazado_1042753" data-name="Trazado 1042753" d="M57.969,65.773H4.936A1.117,1.117,0,0,1,3.82,64.656,1.132,1.132,0,0,1,4.936,63.54H57.969a1.116,1.116,0,1,1,0,2.233Z" transform="translate(-3.82 -63.54)"/>
            </g>
            <g id="Grupo_1202794" data-name="Grupo 1202794" transform="translate(62.941 111.78)">
              <path id="Trazado_1042754" data-name="Trazado 1042754" d="M87.222,65.773H29.676a1.117,1.117,0,0,1-1.116-1.116,1.132,1.132,0,0,1,1.116-1.116H87.222a1.116,1.116,0,0,1,0,2.233Z" transform="translate(-28.56 -63.54)"/>
            </g>
            <g id="Grupo_1202795" data-name="Grupo 1202795" transform="translate(124.999 111.78)">
              <path id="Trazado_1042755" data-name="Trazado 1042755" d="M69.964,65.773H56.356a1.117,1.117,0,0,1-1.116-1.116,1.132,1.132,0,0,1,1.116-1.116H69.964a1.116,1.116,0,1,1,0,2.233Z" transform="translate(-55.24 -63.54)"/>
            </g>
            <g id="Grupo_1202796" data-name="Grupo 1202796" transform="translate(143.7 111.78)">
              <path id="Trazado_1042756" data-name="Trazado 1042756" d="M64.978,65.773H64.4a1.117,1.117,0,0,1-1.116-1.116A1.132,1.132,0,0,1,64.4,63.54h.581a1.116,1.116,0,1,1,0,2.233Z" transform="translate(-63.28 -63.54)"/>
            </g>
          </g>
          <g id="Grupo_1202803" data-name="Grupo 1202803" transform="translate(59.609)">
            <g id="Grupo_1202798" data-name="Grupo 1202798" transform="translate(12.101 5.978)">
              <path id="Trazado_1042757" data-name="Trazado 1042757" d="M33.446,15.56a1.117,1.117,0,0,1-1.116-1.116V5.186A1.117,1.117,0,0,1,33.446,4.07a1.132,1.132,0,0,1,1.116,1.116v9.257A1.117,1.117,0,0,1,33.446,15.56Z" transform="translate(-32.33 -4.07)"/>
            </g>
            <g id="Grupo_1202801" data-name="Grupo 1202801" transform="translate(0 9.601)">
              <g id="Grupo_1202799" data-name="Grupo 1202799">
                <path id="Trazado_1042758" data-name="Trazado 1042758" d="M33.855,13.5a1.149,1.149,0,0,1-.791-.326L27.459,7.564a1.135,1.135,0,0,1,1.6-1.6l5.606,5.606a1.137,1.137,0,0,1,0,1.6A1.25,1.25,0,0,1,33.855,13.5Z" transform="translate(-27.127 -5.627)"/>
              </g>
              <g id="Grupo_1202800" data-name="Grupo 1202800" transform="translate(18.585 0)">
                <path id="Trazado_1042759" data-name="Trazado 1042759" d="M36.24,13.5a1.149,1.149,0,0,1-.791-.326,1.137,1.137,0,0,1,0-1.6l5.606-5.606a1.135,1.135,0,1,1,1.6,1.6L37.054,13.17a1.25,1.25,0,0,1-.814.326Z" transform="translate(-35.117 -5.627)"/>
              </g>
            </g>
            <g id="Grupo_1202802" data-name="Grupo 1202802" transform="translate(12.101)">
              <path id="Trazado_1042760" data-name="Trazado 1042760" d="M33.446,5.454A1.117,1.117,0,0,1,32.33,4.338V2.616A1.117,1.117,0,0,1,33.446,1.5a1.132,1.132,0,0,1,1.116,1.116v1.7A1.122,1.122,0,0,1,33.446,5.454Z" transform="translate(-32.33 -1.5)"/>
            </g>
          </g>
          <g id="Grupo_1202808" data-name="Grupo 1202808" transform="translate(129.581 16.003)">
            <g id="Grupo_1202804" data-name="Grupo 1202804" transform="translate(4.605 6.117)">
              <path id="Trazado_1042761" data-name="Trazado 1042761" d="M60.306,32.525a1.117,1.117,0,0,1-1.116-1.116V12.126a1.117,1.117,0,0,1,1.116-1.116,1.132,1.132,0,0,1,1.116,1.116V31.409A1.1,1.1,0,0,1,60.306,32.525Z" transform="translate(-59.19 -11.01)"/>
            </g>
            <g id="Grupo_1202805" data-name="Grupo 1202805" transform="translate(0.499 0.566)">
              <circle id="Elipse_12544" data-name="Elipse 12544" cx="4.582" cy="4.582" r="4.582" transform="translate(0 1.347) rotate(-8.454)" fill="#726ad3"/>
            </g>
            <g id="Grupo_1202806" data-name="Grupo 1202806" transform="translate(1.512 1.489)">
              <path id="Trazado_1042762" data-name="Trazado 1042762" d="M66.676,13.253a4.616,4.616,0,0,1-4.605,4.605,4.566,4.566,0,0,1-4.21-2.791,4.473,4.473,0,0,0,1.791.349,4.6,4.6,0,0,0,4.582-4.605,4.263,4.263,0,0,0-.372-1.791,4.645,4.645,0,0,1,2.814,4.233Z" transform="translate(-57.86 -9.02)" fill="#564dc6"/>
            </g>
            <g id="Grupo_1202807" data-name="Grupo 1202807">
              <path id="Trazado_1042763" data-name="Trazado 1042763" d="M62.932,19.824A5.724,5.724,0,1,1,68.654,14.1,5.741,5.741,0,0,1,62.932,19.824Zm0-9.164a3.474,3.474,0,0,0-3.466,3.466,3.339,3.339,0,0,0,1.023,2.442A3.454,3.454,0,0,0,66.4,14.125a3.495,3.495,0,0,0-3.466-3.466Z" transform="translate(-57.21 -8.38)"/>
            </g>
          </g>
          <g id="Grupo_1202813" data-name="Grupo 1202813" transform="translate(0 25.028)">
            <g id="Grupo_1202809" data-name="Grupo 1202809" transform="translate(6.094 4.605)">
              <path id="Trazado_1042764" data-name="Trazado 1042764" d="M24.519,16.473H5.236A1.117,1.117,0,0,1,4.12,15.356,1.132,1.132,0,0,1,5.236,14.24H24.519a1.116,1.116,0,1,1,0,2.233Z" transform="translate(-4.12 -14.24)"/>
            </g>
            <g id="Grupo_1202810" data-name="Grupo 1202810" transform="translate(0.517 0.512)">
              <circle id="Elipse_12545" data-name="Elipse 12545" cx="4.582" cy="4.582" r="4.582" transform="translate(0 1.347) rotate(-8.454)" fill="#b9dd53"/>
            </g>
            <g id="Grupo_1202811" data-name="Grupo 1202811" transform="translate(1.512 1.465)">
              <path id="Trazado_1042765" data-name="Trazado 1042765" d="M10.966,17.123A4.616,4.616,0,0,1,6.36,21.729a4.566,4.566,0,0,1-4.21-2.791,4.473,4.473,0,0,0,1.791.349,4.6,4.6,0,0,0,4.582-4.605,4.263,4.263,0,0,0-.372-1.791,4.645,4.645,0,0,1,2.814,4.233Z" transform="translate(-2.15 -12.89)" fill="#a3c134"/>
            </g>
            <g id="Grupo_1202812" data-name="Grupo 1202812">
              <path id="Trazado_1042766" data-name="Trazado 1042766" d="M7.222,23.7a5.722,5.722,0,1,1,5.722-5.722A5.718,5.718,0,0,1,7.222,23.7ZM3.756,17.982a3.466,3.466,0,1,0,3.466-3.466,3.474,3.474,0,0,0-3.466,3.466Z" transform="translate(-1.5 -12.26)"/>
            </g>
          </g>
        </g>
      </g>
      <g id="Grupo_1202823" data-name="Grupo 1202823" transform="translate(49.857 24.9)">
        <g id="Grupo_1202822" data-name="Grupo 1202822">
          <g id="Grupo_1202816" data-name="Grupo 1202816" transform="translate(1.14 1.163)">
            <path id="Trazado_1042767" data-name="Trazado 1042767" d="M70.323,35.832A23.772,23.772,0,1,1,46.552,12.06,23.77,23.77,0,0,1,70.323,35.832Z" transform="translate(-22.78 -12.06)" fill="#6bbeeb"/>
          </g>
          <g id="Grupo_1202817" data-name="Grupo 1202817" transform="translate(3.908 3.931)">
            <path id="Trazado_1042768" data-name="Trazado 1042768" d="M68.745,34.254A23.775,23.775,0,0,1,23.97,45.4a23.781,23.781,0,0,0,34.96-20.98A23.437,23.437,0,0,0,56.139,13.25a23.765,23.765,0,0,1,12.607,21Z" transform="translate(-23.97 -13.25)" fill="#56a7d2"/>
          </g>
          <g id="Grupo_1202818" data-name="Grupo 1202818">
            <path id="Trazado_1042769" data-name="Trazado 1042769" d="M47.2,61.383A24.911,24.911,0,1,1,72.113,36.471,24.941,24.941,0,0,1,47.2,61.383Zm0-47.543A22.655,22.655,0,1,0,69.857,36.495,22.683,22.683,0,0,0,47.2,13.839Z" transform="translate(-22.29 -11.56)"/>
          </g>
          <g id="Grupo_1202821" data-name="Grupo 1202821" transform="translate(12.607 14.026)">
            <g id="Grupo_1202819" data-name="Grupo 1202819" transform="translate(1.116 1.093)">
              <path id="Trazado_1042770" data-name="Trazado 1042770" d="M50.566,25.224V33.3H43.4v7.141H35.331V33.3H28.19V25.224h7.141V18.06H43.4v7.164Z" transform="translate(-28.19 -18.06)" fill="#fff"/>
            </g>
            <g id="Grupo_1202820" data-name="Grupo 1202820">
              <path id="Trazado_1042771" data-name="Trazado 1042771" d="M44.038,42.2H35.944a1.117,1.117,0,0,1-1.116-1.116V35.058h-6a1.117,1.117,0,0,1-1.116-1.116V25.847a1.117,1.117,0,0,1,1.116-1.116h6V18.706a1.117,1.117,0,0,1,1.116-1.116h8.094a1.117,1.117,0,0,1,1.116,1.116v6.024h6.024A1.117,1.117,0,0,1,52.3,25.847v8.094a1.117,1.117,0,0,1-1.116,1.116H45.155v6A1.107,1.107,0,0,1,44.038,42.2Zm-6.955-2.256h5.838v-6a1.117,1.117,0,0,1,1.116-1.116h6.024V26.987H44.038a1.117,1.117,0,0,1-1.116-1.116V19.846H37.084v6.024a1.117,1.117,0,0,1-1.116,1.116h-6v5.838h6a1.117,1.117,0,0,1,1.116,1.116Z" transform="translate(-27.71 -17.59)"/>
            </g>
          </g>
        </g>
      </g>
    </g>
  </g>
</svg>
