<svg xmlns="http://www.w3.org/2000/svg" width="379" height="147.631" viewBox="0 0 379 147.631">
  <g id="Grupo_1202949" data-name="Grupo 1202949" transform="translate(-1020 -10741.369)">
    <g id="Grupo_1202741" data-name="Grupo 1202741" transform="translate(-210 10458)">
      <g id="Grupo_1177674" data-name="Grupo 1177674" transform="translate(1230 290)">
        <g id="Grupo_1177451" data-name="Grupo 1177451">
          <rect id="Rect치ngulo_416021" data-name="Rect치ngulo 416021" width="379" height="105" rx="5" transform="translate(0 18)" fill="#113e45"/>
          <rect id="Rect치ngulo_416022" data-name="Rect치ngulo 416022" width="319" height="141" rx="5" transform="translate(30)" fill="#3ad1e9"/>
        </g>
      </g>
    </g>
    <g id="automation_2825930" transform="translate(1134.685 10740.369)">
      <g id="Grupo_1202947" data-name="Grupo 1202947" transform="translate(3.381 3.381)">
        <g id="Grupo_1202923" data-name="Grupo 1202923" transform="translate(17.906)">
          <path id="Trazado_1043100" data-name="Trazado 1043100" d="M46.38,11.525a9.588,9.588,0,0,1-.452,2.9l-2.119,6.62L34.236,50.766a9.519,9.519,0,0,0-14.049,8.382l.024.19a16.433,16.433,0,0,0-9.429,4.691A14.255,14.255,0,0,0,9.52,65.457L27.783,8.62A9.534,9.534,0,0,1,36.856,2a9.258,9.258,0,0,1,2.9.452,9.523,9.523,0,0,1,6.62,9.072Z" transform="translate(-9.52 -2)" fill="#aab2bd"/>
        </g>
        <g id="Grupo_1202924" data-name="Grupo 1202924" transform="translate(52.195 9.525)">
          <path id="Trazado_1043101" data-name="Trazado 1043101" d="M52.684,6v9.525H23.92L26.039,8.9A9.588,9.588,0,0,0,26.492,6Z" transform="translate(-23.92 -6)" fill="#e6e9ed"/>
        </g>
        <g id="Grupo_1202925" data-name="Grupo 1202925" transform="translate(80.959 4.762)">
          <path id="Trazado_1043102" data-name="Trazado 1043102" d="M36,4H53.954a14.2,14.2,0,0,0,0,19.049H36V4Z" transform="translate(-36 -4)" fill="#ccd1d9"/>
        </g>
        <g id="Grupo_1202926" data-name="Grupo 1202926" transform="translate(95.246 0)">
          <path id="Trazado_1043103" data-name="Trazado 1043103" d="M56.287,2a14.3,14.3,0,1,1-10.62,23.811A14.287,14.287,0,0,1,56.287,2Z" transform="translate(-42 -2)" fill="#fcd770"/>
        </g>
        <g id="Grupo_1202927" data-name="Grupo 1202927" transform="translate(104.77 9.525)">
          <circle id="Elipse_12597" data-name="Elipse 12597" cx="5" cy="5" r="5" transform="translate(-0.151 -0.274)" fill="#ccd1d9"/>
        </g>
        <g id="Grupo_1202928" data-name="Grupo 1202928" transform="translate(76.197 71.911)">
          <path id="Trazado_1043104" data-name="Trazado 1043104" d="M100.672,48.392V62.679l-6.12,1.548a28.358,28.358,0,0,1-1.833,4.381l3.238,5.453-10.1,10.1-5.453-3.238a28.358,28.358,0,0,1-4.381,1.833l-1.548,6.12H60.193l-1.548-6.12a28.358,28.358,0,0,1-4.381-1.833l-5.453,3.238-10.1-10.1,3.238-5.453a28.358,28.358,0,0,1-1.833-4.381L34,62.679V48.392l6.12-1.548a28.358,28.358,0,0,1,1.833-4.381L38.715,37.01l4.81-4.81v1.9a16.587,16.587,0,0,0,6.6,13.263,19.055,19.055,0,1,0,34.431.024l-.024-.024a12.681,12.681,0,0,0,1.738-1.476A16.569,16.569,0,0,0,91.147,34.1V32.2l4.81,4.81-3.238,5.453a28.358,28.358,0,0,1,1.833,4.381Z" transform="translate(-34 -32.2)" fill="#fcd770"/>
        </g>
        <g id="Grupo_1202929" data-name="Grupo 1202929" transform="translate(114.295 52.385)">
          <path id="Trazado_1043105" data-name="Trazado 1043105" d="M69.049,43.525v1.9a16.569,16.569,0,0,1-4.881,11.787,12.682,12.682,0,0,1-1.738,1.476A16.251,16.251,0,0,1,52.381,62.1V52.574a7.134,7.134,0,0,0,7.143-7.143V40.668a7.134,7.134,0,0,0-7.143-7.143H50V24h2.381A16.656,16.656,0,0,1,69.049,40.668Z" transform="translate(-50 -24)" fill="#e6e9ed"/>
        </g>
        <g id="Grupo_1202930" data-name="Grupo 1202930" transform="translate(90.483 42.861)">
          <path id="Trazado_1043106" data-name="Trazado 1043106" d="M73.336,20A4.776,4.776,0,0,1,78.1,24.762a4.8,4.8,0,0,1-4.762,4.762H44.762A4.776,4.776,0,0,1,40,24.762,4.8,4.8,0,0,1,44.762,20H73.336Z" transform="translate(-40 -20)" fill="#ccd1d9"/>
        </g>
        <g id="Grupo_1202931" data-name="Grupo 1202931" transform="translate(104.77 52.385)">
          <path id="Trazado_1043107" data-name="Trazado 1043107" d="M55.525,33.525v4.762a4.776,4.776,0,0,1-4.762,4.762A4.8,4.8,0,0,1,46,38.287V24h9.525Z" transform="translate(-46 -24)" fill="#e6e9ed"/>
        </g>
        <g id="Grupo_1202932" data-name="Grupo 1202932" transform="translate(104.77 27.764)">
          <path id="Trazado_1043108" data-name="Trazado 1043108" d="M55.525,13.66v15.1H46V13.66a14.412,14.412,0,0,0,9.525,0Z" transform="translate(-46 -13.66)" fill="#e6e9ed"/>
        </g>
        <g id="Grupo_1202933" data-name="Grupo 1202933" transform="translate(85.721 52.385)">
          <path id="Trazado_1043109" data-name="Trazado 1043109" d="M57.049,24v9.525H54.668a7.134,7.134,0,0,0-7.143,7.143V45.43a7.154,7.154,0,0,0,7.143,7.143V62.1A16.416,16.416,0,0,1,44.6,58.693,16.587,16.587,0,0,1,38,45.43V40.668A16.656,16.656,0,0,1,54.668,24Z" transform="translate(-38 -24)" fill="#e6e9ed"/>
        </g>
        <g id="Grupo_1202934" data-name="Grupo 1202934" transform="translate(59.719 100.008)">
          <path id="Trazado_1043110" data-name="Trazado 1043110" d="M40.772,46.786a9.584,9.584,0,0,1,2.786,6.739,9.548,9.548,0,0,1-9.525,9.525,9.633,9.633,0,0,1-3.119-.524H30.89l.5-2.976a13.182,13.182,0,0,0-4.31-12.525,9.523,9.523,0,0,1,13.692-.238Z" transform="translate(-27.08 -44)" fill="#ccd1d9"/>
        </g>
        <g id="Grupo_1202935" data-name="Grupo 1202935" transform="translate(59.529 117.771)">
          <path id="Trazado_1043111" data-name="Trazado 1043111" d="M38.906,51.46v25.1H27l4-24.335h.024a9.633,9.633,0,0,0,3.119.524A9.5,9.5,0,0,0,38.906,51.46Z" transform="translate(-27 -51.46)" fill="#e6e9ed"/>
        </g>
        <g id="Grupo_1202936" data-name="Grupo 1202936" transform="translate(58.909 64.291)">
          <path id="Trazado_1043112" data-name="Trazado 1043112" d="M36.479,31.786A9.53,9.53,0,0,1,29.74,48.049h-3A16.619,16.619,0,0,0,26.74,29h3A9.584,9.584,0,0,1,36.479,31.786Z" transform="translate(-26.74 -29)" fill="#e6e9ed"/>
        </g>
        <g id="Grupo_1202937" data-name="Grupo 1202937" transform="translate(11.912 100.008)">
          <path id="Trazado_1043113" data-name="Trazado 1043113" d="M54.81,47.024a13.182,13.182,0,0,1,4.31,12.525l-.5,2.976-4,24.335H11.759l-4-24.335-.5-2.976a13.127,13.127,0,0,1,4.334-12.525,16.669,16.669,0,0,1,5-3.024h7.072l1.4,1.4a11.5,11.5,0,0,0,16.239,0l1.4-1.4h7.072a16.506,16.506,0,0,1,5.024,3.024Z" transform="translate(-7.003 -44)" fill="#ff826e"/>
        </g>
        <g id="Grupo_1202938" data-name="Grupo 1202938" transform="translate(14.287 57.147)">
          <path id="Trazado_1043114" data-name="Trazado 1043114" d="M52.623,33.143a16.619,16.619,0,0,1,0,19.049,15.549,15.549,0,0,1-1.881,2.262,16.433,16.433,0,0,1-9.429,4.691,12.775,12.775,0,0,1-2.357.19H24.668a12.775,12.775,0,0,1-2.357-.19,16.635,16.635,0,0,1-11.31-26,6.862,6.862,0,0,1,.619-.833,14.256,14.256,0,0,1,1.262-1.429,16.433,16.433,0,0,1,9.429-4.691A12.775,12.775,0,0,1,24.668,26H38.955a12.775,12.775,0,0,1,2.357.19,16.464,16.464,0,0,1,11.31,6.953Z" transform="translate(-8 -26)" fill="#e6e9ed"/>
        </g>
        <g id="Grupo_1202939" data-name="Grupo 1202939" transform="translate(23.811 114.295)">
          <path id="Trazado_1043115" data-name="Trazado 1043115" d="M12,50H40.574V69.049H12Z" transform="translate(-12 -50)" fill="#69d6f4"/>
        </g>
        <g id="Grupo_1202940" data-name="Grupo 1202940" transform="translate(42.861 69.053)">
          <ellipse id="Elipse_12598" data-name="Elipse 12598" cx="5" cy="4.5" rx="5" ry="4.5" transform="translate(-0.241 0.196)" fill="#969faa"/>
        </g>
        <g id="Grupo_1202941" data-name="Grupo 1202941" transform="translate(28.574 90.293)">
          <path id="Trazado_1043116" data-name="Trazado 1043116" d="M33.049,40.11v9.525l-1.4,1.4a11.5,11.5,0,0,1-16.239,0l-1.4-1.4V40.11l.024-.19a12.775,12.775,0,0,0,2.357.19H30.668a12.775,12.775,0,0,0,2.357-.19Z" transform="translate(-14 -39.92)" fill="#e6e9ed"/>
        </g>
        <g id="Grupo_1202942" data-name="Grupo 1202942" transform="translate(28.574 47.623)">
          <path id="Trazado_1043117" data-name="Trazado 1043117" d="M33.049,31.525l-.024.19a12.775,12.775,0,0,0-2.357-.19H16.381a12.775,12.775,0,0,0-2.357.19L14,31.525a9.525,9.525,0,1,1,19.049,0Z" transform="translate(-14 -22)" fill="#ff826e"/>
        </g>
        <g id="Grupo_1202943" data-name="Grupo 1202943" transform="translate(23.811 69.053)">
          <ellipse id="Elipse_12599" data-name="Elipse 12599" cx="5" cy="4.5" rx="5" ry="4.5" transform="translate(-0.192 0.196)" fill="#969faa"/>
        </g>
        <g id="Grupo_1202944" data-name="Grupo 1202944" transform="translate(4.762 64.291)">
          <path id="Trazado_1043118" data-name="Trazado 1043118" d="M13.525,29h3a16.618,16.618,0,0,0,0,19.049h-3a9.525,9.525,0,1,1,0-19.049Z" transform="translate(-4 -29)" fill="#e6e9ed"/>
        </g>
        <g id="Grupo_1202945" data-name="Grupo 1202945" transform="translate(4.762 117.771)">
          <path id="Trazado_1043119" data-name="Trazado 1043119" d="M11.905,52.222l4,24.335H4V51.46a9.5,9.5,0,0,0,4.762,1.286,9.633,9.633,0,0,0,3.119-.524Z" transform="translate(-4 -51.46)" fill="#e6e9ed"/>
        </g>
        <g id="Grupo_1202946" data-name="Grupo 1202946" transform="translate(0 100.008)">
          <path id="Trazado_1043120" data-name="Trazado 1043120" d="M14.168,59.549l.5,2.976h-.024a9.633,9.633,0,0,1-3.119.524,9.525,9.525,0,1,1,0-19.049A9.6,9.6,0,0,1,18.5,47.024,13.127,13.127,0,0,0,14.168,59.549Z" transform="translate(-2 -44)" fill="#ccd1d9"/>
        </g>
      </g>
      <g id="Grupo_1202948" data-name="Grupo 1202948" transform="translate(1 1)">
        <path id="Trazado_1043121" data-name="Trazado 1043121" d="M26.143,44.287A7.143,7.143,0,1,0,19,37.143,7.152,7.152,0,0,0,26.143,44.287Zm0-9.525a2.381,2.381,0,1,1-2.381,2.381A2.385,2.385,0,0,1,26.143,34.762Z" transform="translate(23.861 39.053)"/>
        <path id="Trazado_1043122" data-name="Trazado 1043122" d="M25.287,37.143a7.143,7.143,0,1,0-7.143,7.143A7.152,7.152,0,0,0,25.287,37.143Zm-7.143,2.381a2.381,2.381,0,1,1,2.381-2.381A2.385,2.385,0,0,1,18.143,39.525Z" transform="translate(12.811 39.053)"/>
        <path id="Trazado_1043123" data-name="Trazado 1043123" d="M44.336,49H11V72.811H44.336ZM39.574,68.049H15.762V53.762H39.574Z" transform="translate(12.811 65.295)"/>
        <path id="Trazado_1043124" data-name="Trazado 1043124" d="M52.143,19.287A7.143,7.143,0,1,0,45,12.143,7.152,7.152,0,0,0,52.143,19.287Zm0-9.525a2.381,2.381,0,1,1-2.381,2.381A2.385,2.385,0,0,1,52.143,9.762Z" transform="translate(59.77 4.525)"/>
        <path id="Trazado_1043125" data-name="Trazado 1043125" d="M148.631,107.62V89.631l-6.672-1.7c-.283-.76-.6-1.522-.952-2.276l3.524-5.927-5.424-5.422V72.434a19.021,19.021,0,0,0-7.979-15.473,7.137,7.137,0,0,0-3.927-13.1h-7.143V32.7A16.654,16.654,0,1,0,101.27,5.762H81.959v4.762H60.231a11.868,11.868,0,0,0-22.942-1.26L19.28,65.291H17.668a11.906,11.906,0,0,0,0,23.811H19.49a19.07,19.07,0,0,0,10.084,6.517v5.389H24.43l-.419.164a20.144,20.144,0,0,0-4.069,2.164,11.87,11.87,0,0,0-14.18,19.04v26.254H77.2V122.376a11.7,11.7,0,0,0,3.929-13.756l2.743.7c.283.76.6,1.522.952,2.276L81.3,117.524l12.72,12.72,5.929-3.524q1.132.525,2.276.952l1.7,6.672h17.99l1.7-6.672c.76-.283,1.522-.6,2.276-.952l5.929,3.524,12.72-12.72-3.524-5.929q.525-1.132.952-2.276ZM134.344,72.434V77.2a14.312,14.312,0,0,1-11.906,14.089V86.421a9.542,9.542,0,0,0,7.143-9.225V72.434a9.534,9.534,0,0,0-9.525-9.525V58.147A14.3,14.3,0,0,1,134.344,72.434Zm-4.762,26.193a16.668,16.668,0,1,1-32.674-4.581,18.941,18.941,0,0,0,8.863,2.2h2.381V81.959H105.77a4.767,4.767,0,0,1-4.762-4.762V72.434a4.767,4.767,0,0,1,4.762-4.762v2.381a7.143,7.143,0,0,0,14.287,0V67.672a4.767,4.767,0,0,1,4.762,4.762V77.2a4.767,4.767,0,0,1-4.762,4.762h-2.381V96.246h2.381a18.941,18.941,0,0,0,8.863-2.2A16.571,16.571,0,0,1,129.582,98.627ZM86.721,72.434v1.874L81.3,79.73l3.524,5.927c-.35.755-.669,1.517-.952,2.276l-6.672,1.7v13.818a11.783,11.783,0,0,0-7.143-2.443,11.927,11.927,0,0,0-7.036,2.331,19.972,19.972,0,0,0-4.069-2.164l-.419-.167H53.385V95.619A19.07,19.07,0,0,0,63.469,89.1h1.822a11.906,11.906,0,0,0,0-23.811H63.469A19.067,19.067,0,0,0,53.2,58.728a11.835,11.835,0,0,0-4.388-7.5L57.3,24.811H81.959v4.762H101.27a16.731,16.731,0,0,0,4.5,3.131V43.861H98.627a7.137,7.137,0,0,0-3.927,13.1A19.021,19.021,0,0,0,86.721,72.434ZM66.308,70.156a7.109,7.109,0,0,1,0,14.082,18.85,18.85,0,0,0,0-14.082ZM48.185,58.147H34.777a7.1,7.1,0,0,1,13.408,0Zm62.348,0h4.762V70.053a2.381,2.381,0,0,1-4.762,0ZM91.483,72.434A14.3,14.3,0,0,1,105.77,58.147V62.91a9.534,9.534,0,0,0-9.525,9.525V77.2a9.547,9.547,0,0,0,7.143,9.225v4.865A14.312,14.312,0,0,1,91.483,77.2ZM129.582,51a2.385,2.385,0,0,1-2.381,2.381H98.627a2.381,2.381,0,1,1,0-4.762H127.2A2.385,2.385,0,0,1,129.582,51Zm-14.287-7.143h-4.762V34.146a14.977,14.977,0,0,0,4.762,0Zm-2.381-38.1a11.906,11.906,0,1,1-11.906,11.906A11.919,11.919,0,0,1,112.914,5.762ZM86.721,10.525H97.877a16.458,16.458,0,0,0,0,14.287H86.721Zm-4.762,9.525H58.836l1.124-3.5a11.8,11.8,0,0,0,.269-1.262h21.73ZM41.822,10.722a7.144,7.144,0,0,1,13.6,4.369L44.506,49.061a11.762,11.762,0,0,0-3.026-.438A11.894,11.894,0,0,0,29.755,58.728a19.011,19.011,0,0,0-3.81,1.393ZM10.525,77.2a7.133,7.133,0,0,1,6.127-7.041,18.85,18.85,0,0,0,0,14.082A7.133,7.133,0,0,1,10.525,77.2Zm9.525,0A14.3,14.3,0,0,1,34.336,62.91H48.623a14.287,14.287,0,0,1,0,28.574H34.336A14.3,14.3,0,0,1,20.049,77.2ZM48.623,96.246V102.4l-.7.7a9.336,9.336,0,0,1-12.892,0l-.7-.7V96.246ZM25.352,105.77h5.617l.7.7a13.877,13.877,0,0,0,19.625,0l.7-.7h5.617c6.374,2.7,8.36,8.291,7.463,12.78l-4.181,25.319H22.071l-4.2-25.4c-.881-4.412,1.1-10,7.479-12.7Zm-12.446,0a7.073,7.073,0,0,1,3.417.9,15.493,15.493,0,0,0-3.134,12.651l.114.7c-.133.007-.264.033-.4.033a7.143,7.143,0,1,1,0-14.287Zm-2.381,18.809a11.894,11.894,0,0,0,2.381.24c.4,0,.783-.06,1.174-.1l3.162,19.147H10.525Zm61.91,19.29H65.717l3.16-19.147c.391.038.779.1,1.176.1a11.9,11.9,0,0,0,2.381-.24Zm-2.381-23.811c-.136,0-.267-.026-.4-.033l.1-.617a15.585,15.585,0,0,0-3.122-12.73,7.058,7.058,0,0,1,3.419-.907,7.143,7.143,0,0,1,0,14.287Zm68.491-3.284-7.484,7.484-4.989-2.967-1.174.6a26.206,26.206,0,0,1-4.007,1.676l-1.257.4-1.426,5.608H107.623l-1.426-5.605-1.257-.4a26.108,26.108,0,0,1-4.007-1.676l-1.174-.6-4.988,2.967-7.484-7.484,2.967-4.988-.6-1.174a26.206,26.206,0,0,1-1.676-4.007l-.4-1.257-5.61-1.429V93.336l5.605-1.426.4-1.257a26.035,26.035,0,0,1,1.5-3.646,19.144,19.144,0,0,0,3.374,4.146,21.432,21.432,0,1,0,40.134,0,19.225,19.225,0,0,0,3.376-4.146,25.917,25.917,0,0,1,1.5,3.646l.4,1.257,5.605,1.424v10.584l-5.605,1.426-.4,1.257a26.108,26.108,0,0,1-1.676,4.007l-.6,1.174Z" transform="translate(-1 -1)"/>
      </g>
    </g>
  </g>
</svg>
