<svg xmlns="http://www.w3.org/2000/svg" xmlns:xlink="http://www.w3.org/1999/xlink" width="118" height="118" viewBox="0 0 118 118">
  <defs>
    <filter id="Trazado_982547" x="0" y="0" width="118" height="118" filterUnits="userSpaceOnUse">
      <feOffset dy="3" input="SourceAlpha"/>
      <feGaussianBlur stdDeviation="3" result="blur"/>
      <feFlood flood-opacity="0.161"/>
      <feComposite operator="in" in2="blur"/>
      <feComposite in="SourceGraphic"/>
    </filter>
  </defs>
  <g id="Grupo_1202047" data-name="Grupo 1202047" transform="translate(11.5 8.5)">
    <g id="Grupo_1174813" data-name="Grupo 1174813" transform="translate(-2.5 -2.5)">
      <g id="Grupo_1201680" data-name="Grupo 1201680">
        <g id="Grupo_1201330" data-name="Grupo 1201330">
          <g id="Grupo_1172010" data-name="Grupo 1172010">
            <g id="Grupo_1171046" data-name="Grupo 1171046">
              <g id="Grupo_1148525" data-name="Grupo 1148525">
                <g transform="matrix(1, 0, 0, 1, -9, -6)" filter="url(#Trazado_982547)">
                  <g id="Trazado_982547-2" data-name="Trazado 982547" transform="translate(9 6)" fill="#f5e9fe">
                    <path d="M 50 98.5 C 43.45188522338867 98.5 37.10042953491211 97.21787261962891 31.12207221984863 94.68923950195312 C 25.34691429138184 92.24655914306641 20.15997123718262 88.74931335449219 15.70532894134521 84.29468536376953 C 11.2506856918335 79.84004211425781 7.753442764282227 74.65309906005859 5.310757160186768 68.8779296875 C 2.782128572463989 62.89957046508789 1.5 56.54811477661133 1.5 50 C 1.5 43.45188522338867 2.782128572463989 37.10042953491211 5.310757160186768 31.12207221984863 C 7.753442764282227 25.34691429138184 11.2506856918335 20.15997123718262 15.70532894134521 15.70532894134521 C 20.15997123718262 11.2506856918335 25.34691429138184 7.753442764282227 31.12207221984863 5.310757160186768 C 37.10042953491211 2.782128572463989 43.45188522338867 1.5 50 1.5 C 56.54811477661133 1.5 62.89957046508789 2.782128572463989 68.8779296875 5.310757160186768 C 74.65309906005859 7.753442764282227 79.84004211425781 11.2506856918335 84.29468536376953 15.70532894134521 C 88.74931335449219 20.15997123718262 92.24655914306641 25.34691429138184 94.68923950195312 31.12207221984863 C 97.21787261962891 37.10042953491211 98.5 43.45188522338867 98.5 50 C 98.5 56.54811477661133 97.21787261962891 62.89957046508789 94.68923950195312 68.8779296875 C 92.24655914306641 74.65309906005859 88.74931335449219 79.84004211425781 84.29468536376953 84.29468536376953 C 79.84004211425781 88.74931335449219 74.65309906005859 92.24655914306641 68.8779296875 94.68923950195312 C 62.89957046508789 97.21787261962891 56.54811477661133 98.5 50 98.5 Z" stroke="none"/>
                    <path d="M 50 3 C 43.65372467041016 3 37.49886322021484 4.242263793945312 31.70639801025391 6.6922607421875 C 26.11003112792969 9.059326171875 21.08335113525391 12.44861602783203 16.76598358154297 16.76598358154297 C 12.44861602783203 21.08335113525391 9.059326171875 26.11003112792969 6.6922607421875 31.70639801025391 C 4.242263793945312 37.49886322021484 3 43.65372467041016 3 50 C 3 56.34627532958984 4.242263793945312 62.50113677978516 6.6922607421875 68.29360198974609 C 9.059326171875 73.88996887207031 12.44861602783203 78.91666412353516 16.76598358154297 83.23401641845703 C 21.08335113525391 87.55138397216797 26.11003112792969 90.940673828125 31.70639801025391 93.3077392578125 C 37.49886322021484 95.75773620605469 43.65372467041016 97 50 97 C 56.34627532958984 97 62.50113677978516 95.75773620605469 68.29360198974609 93.3077392578125 C 73.88996887207031 90.940673828125 78.91666412353516 87.55138397216797 83.23401641845703 83.23401641845703 C 87.55138397216797 78.91666412353516 90.940673828125 73.88996887207031 93.3077392578125 68.29360198974609 C 95.75773620605469 62.50113677978516 97 56.34627532958984 97 50 C 97 43.65372467041016 95.75773620605469 37.49886322021484 93.3077392578125 31.70639801025391 C 90.940673828125 26.11003112792969 87.55138397216797 21.08335113525391 83.23401641845703 16.76598358154297 C 78.91666412353516 12.44861602783203 73.88996887207031 9.059326171875 68.29360198974609 6.6922607421875 C 62.50113677978516 4.242263793945312 56.34627532958984 3 50 3 M 50 0 C 77.61424255371094 0 100 22.38577270507812 100 50 C 100 77.61424255371094 77.61424255371094 100 50 100 C 22.38577270507812 100 0 77.61424255371094 0 50 C 0 22.38577270507812 22.38577270507812 0 50 0 Z" stroke="none" fill="#a530fe"/>
                  </g>
                </g>
              </g>
            </g>
          </g>
        </g>
      </g>
    </g>
    <g id="note_8234433" transform="translate(14.496 17.61)">
      <path id="Trazado_1039558" data-name="Trazado 1039558" d="M227.432,211.152,195.449,206.8a2.5,2.5,0,0,1-2.138-2.812L197.667,172a2.5,2.5,0,0,1,2.812-2.138l31.982,4.355a2.5,2.5,0,0,1,2.138,2.812l-4.355,31.982A2.5,2.5,0,0,1,227.432,211.152Z" transform="translate(-168.614 -151.396)" fill="#ffab56"/>
      <path id="Trazado_1039559" data-name="Trazado 1039559" d="M200.852,169.866A2.5,2.5,0,0,0,198.04,172l-4.321,31.732h24.41a4.894,4.894,0,0,0,4.888-4.888V172.884Z" transform="translate(-168.987 -151.396)" fill="#ff982a"/>
      <path id="Trazado_1039560" data-name="Trazado 1039560" d="M44.9,113.056,12.717,115.58a2.5,2.5,0,0,1-2.685-2.294L7.508,81.107A2.5,2.5,0,0,1,9.8,78.421L41.981,75.9a2.5,2.5,0,0,1,2.685,2.294L47.19,110.37A2.5,2.5,0,0,1,44.9,113.056Z" transform="translate(-7.5 -69.921)" fill="#9ff497"/>
      <path id="Trazado_1039561" data-name="Trazado 1039561" d="M97.68,113.287v29.954l25.418-1.994a2.5,2.5,0,0,0,2.294-2.685L123.027,108.4H102.568A4.894,4.894,0,0,0,97.68,113.287Z" transform="translate(-85.703 -98.112)" fill="#6ce79a"/>
      <path id="Trazado_1039562" data-name="Trazado 1039562" d="M234.089,180.782l.511-3.751a2.5,2.5,0,0,0-2.138-2.812l-31.982-4.355A2.5,2.5,0,0,0,197.668,172l-4.355,31.982a2.5,2.5,0,0,0,2.138,2.812l31.982,4.355a2.5,2.5,0,0,0,2.812-2.138l3.32-24.38" transform="translate(-168.615 -151.395)" fill="none" stroke="#000" stroke-linecap="round" stroke-linejoin="round" stroke-miterlimit="10" stroke-width="1.3"/>
      <path id="Trazado_1039563" data-name="Trazado 1039563" d="M16.54,77.894,9.8,78.422a2.5,2.5,0,0,0-2.294,2.685l2.524,32.178a2.5,2.5,0,0,0,2.685,2.295l32.178-2.524a2.5,2.5,0,0,0,2.294-2.685L44.665,78.193A2.5,2.5,0,0,0,41.98,75.9L20.392,77.592" transform="translate(-7.499 -69.921)" fill="none" stroke="#000" stroke-linecap="round" stroke-linejoin="round" stroke-miterlimit="10" stroke-width="1.3"/>
      <path id="Trazado_1039564" data-name="Trazado 1039564" d="M150.455,163.671H118.178a2.5,2.5,0,0,1-2.5-2.5V128.9a2.5,2.5,0,0,1,2.5-2.5h32.277a2.5,2.5,0,0,1,2.5,2.5v32.277A2.5,2.5,0,0,1,150.455,163.671Z" transform="translate(-101.312 -113.721)" fill="#ffe270"/>
      <path id="Trazado_1039565" data-name="Trazado 1039565" d="M355.64,126.4h-3.35a2.5,2.5,0,0,1,2.5,2.5v32.277a2.5,2.5,0,0,1-2.5,2.5h3.35a2.5,2.5,0,0,0,2.5-2.5V128.9A2.5,2.5,0,0,0,355.64,126.4Z" transform="translate(-306.497 -113.722)" fill="#ffd250"/>
      <line id="Línea_827" data-name="Línea 827" y1="10.76" x2="12.176" transform="translate(33.004 5.66)" fill="none" stroke="#000" stroke-linecap="round" stroke-linejoin="round" stroke-miterlimit="10" stroke-width="1.3"/>
      <circle id="Elipse_12290" data-name="Elipse 12290" cx="3.269" cy="3.269" r="3.269" transform="translate(44.478)" fill="#5844a0"/>
      <circle id="Elipse_12291" data-name="Elipse 12291" cx="3.269" cy="3.269" r="3.269" transform="translate(44.478)" fill="none" stroke="#000" stroke-linecap="round" stroke-linejoin="round" stroke-miterlimit="10" stroke-width="1.3"/>
      <g id="Grupo_1202046" data-name="Grupo 1202046" transform="translate(22.297 21.31)">
        <line id="Línea_828" data-name="Línea 828" x2="21.415" fill="none" stroke="#000" stroke-linecap="round" stroke-linejoin="round" stroke-miterlimit="10" stroke-width="1.3"/>
        <line id="Línea_829" data-name="Línea 829" x2="21.415" transform="translate(0 5.002)" fill="none" stroke="#000" stroke-linecap="round" stroke-linejoin="round" stroke-miterlimit="10" stroke-width="1.3"/>
        <line id="Línea_830" data-name="Línea 830" x2="21.415" transform="translate(0 10.003)" fill="none" stroke="#000" stroke-linecap="round" stroke-linejoin="round" stroke-miterlimit="10" stroke-width="1.3"/>
        <line id="Línea_831" data-name="Línea 831" x2="21.415" transform="translate(0 15.005)" fill="none" stroke="#000" stroke-linecap="round" stroke-linejoin="round" stroke-miterlimit="10" stroke-width="1.3"/>
        <line id="Línea_832" data-name="Línea 832" x2="21.415" transform="translate(0 20.006)" fill="none" stroke="#000" stroke-linecap="round" stroke-linejoin="round" stroke-miterlimit="10" stroke-width="1.3"/>
      </g>
      <path id="Trazado_1039566" data-name="Trazado 1039566" d="M138.168,163.671h12.287a2.5,2.5,0,0,0,2.5-2.5V128.9a2.5,2.5,0,0,0-2.5-2.5H118.178a2.5,2.5,0,0,0-2.5,2.5v32.277a2.5,2.5,0,0,0,2.5,2.5h16.139" transform="translate(-101.312 -113.722)" fill="none" stroke="#000" stroke-linecap="round" stroke-linejoin="round" stroke-miterlimit="10" stroke-width="1.3"/>
    </g>
  </g>
</svg>
