<svg xmlns="http://www.w3.org/2000/svg" xmlns:xlink="http://www.w3.org/1999/xlink" width="118" height="118" viewBox="0 0 118 118">
  <defs>
    <filter id="Trazado_982547" x="0" y="0" width="118" height="118" filterUnits="userSpaceOnUse">
      <feOffset dy="3" input="SourceAlpha"/>
      <feGaussianBlur stdDeviation="3" result="blur"/>
      <feFlood flood-opacity="0.161"/>
      <feComposite operator="in" in2="blur"/>
      <feComposite in="SourceGraphic"/>
    </filter>
  </defs>
  <g id="Grupo_1202842" data-name="Grupo 1202842" transform="translate(-268.5 -2277.932)">
    <g id="Grupo_1202724" data-name="Grupo 1202724" transform="translate(277.5 2283.932)">
      <g id="Grupo_1174813" data-name="Grupo 1174813">
        <g id="Grupo_1201680" data-name="Grupo 1201680">
          <g id="Grupo_1201330" data-name="Grupo 1201330">
            <g id="Grupo_1172010" data-name="Grupo 1172010">
              <g id="Grupo_1171046" data-name="Grupo 1171046">
                <g id="Grupo_1148525" data-name="Grupo 1148525">
                  <g transform="matrix(1, 0, 0, 1, -9, -6)" filter="url(#Trazado_982547)">
                    <g id="Trazado_982547-2" data-name="Trazado 982547" transform="translate(9 6)" fill="#eafafc">
                      <path d="M 50 98.5 C 43.45188522338867 98.5 37.10042953491211 97.21787261962891 31.12207221984863 94.68923950195312 C 25.34691429138184 92.24655914306641 20.15997123718262 88.74931335449219 15.70532894134521 84.29468536376953 C 11.2506856918335 79.84004211425781 7.753442764282227 74.65309906005859 5.310757160186768 68.8779296875 C 2.782128572463989 62.89957046508789 1.5 56.54811477661133 1.5 50 C 1.5 43.45188522338867 2.782128572463989 37.10042953491211 5.310757160186768 31.12207221984863 C 7.753442764282227 25.34691429138184 11.2506856918335 20.15997123718262 15.70532894134521 15.70532894134521 C 20.15997123718262 11.2506856918335 25.34691429138184 7.753442764282227 31.12207221984863 5.310757160186768 C 37.10042953491211 2.782128572463989 43.45188522338867 1.5 50 1.5 C 56.54811477661133 1.5 62.89957046508789 2.782128572463989 68.8779296875 5.310757160186768 C 74.65309906005859 7.753442764282227 79.84004211425781 11.2506856918335 84.29468536376953 15.70532894134521 C 88.74931335449219 20.15997123718262 92.24655914306641 25.34691429138184 94.68923950195312 31.12207221984863 C 97.21787261962891 37.10042953491211 98.5 43.45188522338867 98.5 50 C 98.5 56.54811477661133 97.21787261962891 62.89957046508789 94.68923950195312 68.8779296875 C 92.24655914306641 74.65309906005859 88.74931335449219 79.84004211425781 84.29468536376953 84.29468536376953 C 79.84004211425781 88.74931335449219 74.65309906005859 92.24655914306641 68.8779296875 94.68923950195312 C 62.89957046508789 97.21787261962891 56.54811477661133 98.5 50 98.5 Z" stroke="none"/>
                      <path d="M 50 3 C 43.65372467041016 3 37.49886322021484 4.242263793945312 31.70639801025391 6.6922607421875 C 26.11003112792969 9.059326171875 21.08335113525391 12.44861602783203 16.76598358154297 16.76598358154297 C 12.44861602783203 21.08335113525391 9.059326171875 26.11003112792969 6.6922607421875 31.70639801025391 C 4.242263793945312 37.49886322021484 3 43.65372467041016 3 50 C 3 56.34627532958984 4.242263793945312 62.50113677978516 6.6922607421875 68.29360198974609 C 9.059326171875 73.88996887207031 12.44861602783203 78.91666412353516 16.76598358154297 83.23401641845703 C 21.08335113525391 87.55138397216797 26.11003112792969 90.940673828125 31.70639801025391 93.3077392578125 C 37.49886322021484 95.75773620605469 43.65372467041016 97 50 97 C 56.34627532958984 97 62.50113677978516 95.75773620605469 68.29360198974609 93.3077392578125 C 73.88996887207031 90.940673828125 78.91666412353516 87.55138397216797 83.23401641845703 83.23401641845703 C 87.55138397216797 78.91666412353516 90.940673828125 73.88996887207031 93.3077392578125 68.29360198974609 C 95.75773620605469 62.50113677978516 97 56.34627532958984 97 50 C 97 43.65372467041016 95.75773620605469 37.49886322021484 93.3077392578125 31.70639801025391 C 90.940673828125 26.11003112792969 87.55138397216797 21.08335113525391 83.23401641845703 16.76598358154297 C 78.91666412353516 12.44861602783203 73.88996887207031 9.059326171875 68.29360198974609 6.6922607421875 C 62.50113677978516 4.242263793945312 56.34627532958984 3 50 3 M 50 0 C 77.61424255371094 0 100 22.38577270507812 100 50 C 100 77.61424255371094 77.61424255371094 100 50 100 C 22.38577270507812 100 0 77.61424255371094 0 50 C 0 22.38577270507812 22.38577270507812 0 50 0 Z" stroke="none" fill="#3ad1e9"/>
                    </g>
                  </g>
                </g>
              </g>
            </g>
          </g>
        </g>
      </g>
    </g>
    <g id="liquidity_3572658" transform="translate(293 2307)">
      <g id="Grupo_1202840" data-name="Grupo 1202840">
        <g id="Grupo_1202825" data-name="Grupo 1202825">
          <path id="Trazado_1042772" data-name="Trazado 1042772" d="M60,30H24V4a2,2,0,0,1,2-2H60a2,2,0,0,1,2,2V28A2,2,0,0,1,60,30Z" fill="#aab2bd"/>
        </g>
        <g id="Grupo_1202826" data-name="Grupo 1202826">
          <path id="Trazado_1042773" data-name="Trazado 1042773" d="M57.86,30.06A15.824,15.824,0,0,1,59,36a16,16,0,0,1-31.96,1.21V37.2a16.18,16.18,0,0,0,4.45-4.58A11.806,11.806,0,0,0,31,36a12,12,0,1,0,24,0,11.832,11.832,0,0,0-1.61-6h4.47Z" fill="#ffc729"/>
        </g>
        <g id="Grupo_1202827" data-name="Grupo 1202827">
          <path id="Trazado_1042774" data-name="Trazado 1042774" d="M44,30h9.39A11.832,11.832,0,0,1,55,36a12,12,0,0,1-24,0,11.806,11.806,0,0,1,.49-3.38V32.6A14.863,14.863,0,0,0,32.83,30H44Z" fill="#fcd770"/>
        </g>
        <g id="Grupo_1202828" data-name="Grupo 1202828">
          <path id="Trazado_1042775" data-name="Trazado 1042775" d="M46,6H58v4H46Z" fill="#e6e9ed"/>
        </g>
        <g id="Grupo_1202829" data-name="Grupo 1202829">
          <circle id="Elipse_12546" data-name="Elipse 12546" cx="3" cy="3" r="3" transform="translate(52 20)" fill="#ff826e"/>
        </g>
        <g id="Grupo_1202830" data-name="Grupo 1202830">
          <path id="Trazado_1042776" data-name="Trazado 1042776" d="M42,6v6H37l-3-2V6Z" fill="#fcd770"/>
        </g>
        <g id="Grupo_1202831" data-name="Grupo 1202831">
          <path id="Trazado_1042777" data-name="Trazado 1042777" d="M28,10h6l3,2v4H31.86A16.006,16.006,0,0,0,28,11.51Z" fill="#fcd770"/>
        </g>
        <g id="Grupo_1202832" data-name="Grupo 1202832">
          <path id="Trazado_1042778" data-name="Trazado 1042778" d="M42,14v2H37V12h5Z" fill="#ffc729"/>
        </g>
        <g id="Grupo_1202833" data-name="Grupo 1202833">
          <path id="Trazado_1042779" data-name="Trazado 1042779" d="M28,6h6v4H28Z" fill="#ffc729"/>
        </g>
        <g id="Grupo_1202834" data-name="Grupo 1202834">
          <path id="Trazado_1042780" data-name="Trazado 1042780" d="M20,44a2.006,2.006,0,0,1,2,2V58a4,4,0,0,1-8,0V46a2.006,2.006,0,0,1,2-2h4Z" fill="#969faa"/>
        </g>
        <g id="Grupo_1202835" data-name="Grupo 1202835">
          <path id="Trazado_1042781" data-name="Trazado 1042781" d="M21,39.72V42a2.006,2.006,0,0,1-2,2H17a2.006,2.006,0,0,1-2-2V39.72a16.211,16.211,0,0,0,6,0Z" fill="#ccd1d9"/>
        </g>
        <g id="Grupo_1202836" data-name="Grupo 1202836">
          <path id="Trazado_1042782" data-name="Trazado 1042782" d="M31.86,16a16,16,0,0,1,.97,14,14.863,14.863,0,0,1-1.34,2.6v.02a16.18,16.18,0,0,1-4.45,4.58v.01A16.014,16.014,0,0,1,21,39.72a16.211,16.211,0,0,1-6,0A16,16,0,0,1,18,8a15.763,15.763,0,0,1,6,1.17,15.552,15.552,0,0,1,4,2.34A16.006,16.006,0,0,1,31.86,16Z" fill="#e6e9ed"/>
        </g>
        <g id="Grupo_1202837" data-name="Grupo 1202837">
          <path id="Trazado_1042783" data-name="Trazado 1042783" d="M18,12A12,12,0,1,1,6,24,12,12,0,0,1,18,12Z" fill="#69d6f4"/>
        </g>
        <g id="Grupo_1202838" data-name="Grupo 1202838">
          <circle id="Elipse_12547" data-name="Elipse 12547" cx="2" cy="2" r="2" transform="translate(16 28)" fill="#ff826e"/>
        </g>
        <g id="Grupo_1202839" data-name="Grupo 1202839">
          <path id="Trazado_1042784" data-name="Trazado 1042784" d="M20,18v4a2,2,0,0,1-4,0V18a2.006,2.006,0,0,1,2-2,2.015,2.015,0,0,1,2,2Z" fill="#ff826e"/>
        </g>
      </g>
      <g id="Grupo_1202841" data-name="Grupo 1202841">
        <path id="Trazado_1042785" data-name="Trazado 1042785" d="M31,24A13,13,0,1,0,18,37,13.015,13.015,0,0,0,31,24ZM7,24A11,11,0,1,1,18,35,11.013,11.013,0,0,1,7,24Z"/>
        <path id="Trazado_1042786" data-name="Trazado 1042786" d="M21,30a3,3,0,1,0-3,3A3,3,0,0,0,21,30Zm-4,0a1,1,0,1,1,1,1A1,1,0,0,1,17,30Z"/>
        <path id="Trazado_1042787" data-name="Trazado 1042787" d="M18,25a3,3,0,0,0,3-3V18a3,3,0,0,0-6,0v4A3,3,0,0,0,18,25Zm-1-7a1,1,0,0,1,2,0v4a1,1,0,0,1-2,0Z"/>
        <path id="Trazado_1042788" data-name="Trazado 1042788" d="M60,1H26a3,3,0,0,0-3,3V7.753A16.991,16.991,0,1,0,14,40.5V42a2.967,2.967,0,0,0,.4,1.471A2.994,2.994,0,0,0,13,46V58a5,5,0,1,0,10,0V46a2.994,2.994,0,0,0-1.4-2.529A2.967,2.967,0,0,0,22,42V40.5a16.89,16.89,0,0,0,4.242-1.648,17,17,0,1,0,33-7.857H60a3,3,0,0,0,3-3V4A3,3,0,0,0,60,1ZM3,24A15,15,0,1,1,18,39,15.017,15.017,0,0,1,3,24ZM29,11.062V11h4.7L36,12.535V15H32.4A17.113,17.113,0,0,0,29,11.062ZM41,11H37.3L35,9.465V7h6Zm0,2v2H38V13ZM33,9H29V7h4Zm9,28h2a2,2,0,0,1,0,4H42a2,2,0,0,1-2-2V38H38v1a4,4,0,0,0,4,4v2h2V43a4,4,0,0,0,0-8H42a2,2,0,0,1,0-4h2a2,2,0,0,1,2,2h2a3.959,3.959,0,0,0-.556-2h5.332a10.989,10.989,0,1,1-20.341,1.935A17.024,17.024,0,0,0,33.474,31h5.082A3.959,3.959,0,0,0,38,33a4,4,0,0,0,4,4Zm15.952-.047a14.912,14.912,0,0,1-3.645,8.873l-1.435-1.39a12.932,12.932,0,0,0,3.078-7.451ZM34.564,45.872a12.932,12.932,0,0,0,7.451,3.078l.032,2A14.952,14.952,0,0,1,33.183,47.3Zm9.452,3.077a12.937,12.937,0,0,0,7.443-3.1L52.9,47.244a14.914,14.914,0,0,1-8.848,3.7ZM21,58a3,3,0,0,1-6,0V46a1,1,0,0,1,1-1h4a1,1,0,0,1,1,1ZM20,42a1,1,0,0,1-1,1H17a1,1,0,0,1-1-1V40.872A17.138,17.138,0,0,0,18,41a17.138,17.138,0,0,0,2-.128Zm10-5.972a12.938,12.938,0,0,0,3.147,8.431L31.756,45.9A14.893,14.893,0,0,1,28.1,37.639,17.081,17.081,0,0,0,30,36.028Zm27.95-1.076-2.018.032A13,13,0,0,0,55,31h2.129A14.836,14.836,0,0,1,57.951,34.952ZM61,28a1,1,0,0,1-1,1H34.247a16.883,16.883,0,0,0-.773-12H43V5H27V9.6a16.933,16.933,0,0,0-2-1.078V4a1,1,0,0,1,1-1H60a1,1,0,0,1,1,1Z"/>
        <path id="Trazado_1042789" data-name="Trazado 1042789" d="M55,19a4,4,0,1,0,4,4A4,4,0,0,0,55,19Zm0,6a2,2,0,1,1,2-2A2,2,0,0,1,55,25Z"/>
        <path id="Trazado_1042790" data-name="Trazado 1042790" d="M45,11H59V5H45Zm6-2V7h2V9Zm6,0H55V7h2ZM47,7h2V9H47Z"/>
        <path id="Trazado_1042791" data-name="Trazado 1042791" d="M45,13h2v2H45Z"/>
        <path id="Trazado_1042792" data-name="Trazado 1042792" d="M49,13H59v2H49Z"/>
        <path id="Trazado_1042793" data-name="Trazado 1042793" d="M37,25h6v2H37Z"/>
        <path id="Trazado_1042794" data-name="Trazado 1042794" d="M37,21h6v2H37Z"/>
      </g>
    </g>
  </g>
</svg>
