<svg xmlns="http://www.w3.org/2000/svg" xmlns:xlink="http://www.w3.org/1999/xlink" width="118" height="118" viewBox="0 0 118 118">
  <defs>
    <filter id="Trazado_982547" x="0" y="0" width="118" height="118" filterUnits="userSpaceOnUse">
      <feOffset dy="3" input="SourceAlpha"/>
      <feGaussianBlur stdDeviation="3" result="blur"/>
      <feFlood flood-opacity="0.161"/>
      <feComposite operator="in" in2="blur"/>
      <feComposite in="SourceGraphic"/>
    </filter>
  </defs>
  <g id="Grupo_1202851" data-name="Grupo 1202851" transform="translate(-898.5 -2277.932)">
    <g id="Grupo_1202725" data-name="Grupo 1202725" transform="translate(907.5 2283.932)">
      <g id="Grupo_1174813" data-name="Grupo 1174813">
        <g id="Grupo_1201680" data-name="Grupo 1201680">
          <g id="Grupo_1201330" data-name="Grupo 1201330">
            <g id="Grupo_1172010" data-name="Grupo 1172010">
              <g id="Grupo_1171046" data-name="Grupo 1171046">
                <g id="Grupo_1148525" data-name="Grupo 1148525">
                  <g transform="matrix(1, 0, 0, 1, -9, -6)" filter="url(#Trazado_982547)">
                    <g id="Trazado_982547-2" data-name="Trazado 982547" transform="translate(9 6)" fill="#eafafc">
                      <path d="M 50 98.5 C 43.45188522338867 98.5 37.10042953491211 97.21787261962891 31.12207221984863 94.68923950195312 C 25.34691429138184 92.24655914306641 20.15997123718262 88.74931335449219 15.70532894134521 84.29468536376953 C 11.2506856918335 79.84004211425781 7.753442764282227 74.65309906005859 5.310757160186768 68.8779296875 C 2.782128572463989 62.89957046508789 1.5 56.54811477661133 1.5 50 C 1.5 43.45188522338867 2.782128572463989 37.10042953491211 5.310757160186768 31.12207221984863 C 7.753442764282227 25.34691429138184 11.2506856918335 20.15997123718262 15.70532894134521 15.70532894134521 C 20.15997123718262 11.2506856918335 25.34691429138184 7.753442764282227 31.12207221984863 5.310757160186768 C 37.10042953491211 2.782128572463989 43.45188522338867 1.5 50 1.5 C 56.54811477661133 1.5 62.89957046508789 2.782128572463989 68.8779296875 5.310757160186768 C 74.65309906005859 7.753442764282227 79.84004211425781 11.2506856918335 84.29468536376953 15.70532894134521 C 88.74931335449219 20.15997123718262 92.24655914306641 25.34691429138184 94.68923950195312 31.12207221984863 C 97.21787261962891 37.10042953491211 98.5 43.45188522338867 98.5 50 C 98.5 56.54811477661133 97.21787261962891 62.89957046508789 94.68923950195312 68.8779296875 C 92.24655914306641 74.65309906005859 88.74931335449219 79.84004211425781 84.29468536376953 84.29468536376953 C 79.84004211425781 88.74931335449219 74.65309906005859 92.24655914306641 68.8779296875 94.68923950195312 C 62.89957046508789 97.21787261962891 56.54811477661133 98.5 50 98.5 Z" stroke="none"/>
                      <path d="M 50 3 C 43.65372467041016 3 37.49886322021484 4.242263793945312 31.70639801025391 6.6922607421875 C 26.11003112792969 9.059326171875 21.08335113525391 12.44861602783203 16.76598358154297 16.76598358154297 C 12.44861602783203 21.08335113525391 9.059326171875 26.11003112792969 6.6922607421875 31.70639801025391 C 4.242263793945312 37.49886322021484 3 43.65372467041016 3 50 C 3 56.34627532958984 4.242263793945312 62.50113677978516 6.6922607421875 68.29360198974609 C 9.059326171875 73.88996887207031 12.44861602783203 78.91666412353516 16.76598358154297 83.23401641845703 C 21.08335113525391 87.55138397216797 26.11003112792969 90.940673828125 31.70639801025391 93.3077392578125 C 37.49886322021484 95.75773620605469 43.65372467041016 97 50 97 C 56.34627532958984 97 62.50113677978516 95.75773620605469 68.29360198974609 93.3077392578125 C 73.88996887207031 90.940673828125 78.91666412353516 87.55138397216797 83.23401641845703 83.23401641845703 C 87.55138397216797 78.91666412353516 90.940673828125 73.88996887207031 93.3077392578125 68.29360198974609 C 95.75773620605469 62.50113677978516 97 56.34627532958984 97 50 C 97 43.65372467041016 95.75773620605469 37.49886322021484 93.3077392578125 31.70639801025391 C 90.940673828125 26.11003112792969 87.55138397216797 21.08335113525391 83.23401641845703 16.76598358154297 C 78.91666412353516 12.44861602783203 73.88996887207031 9.059326171875 68.29360198974609 6.6922607421875 C 62.50113677978516 4.242263793945312 56.34627532958984 3 50 3 M 50 0 C 77.61424255371094 0 100 22.38577270507812 100 50 C 100 77.61424255371094 77.61424255371094 100 50 100 C 22.38577270507812 100 0 77.61424255371094 0 50 C 0 22.38577270507812 22.38577270507812 0 50 0 Z" stroke="none" fill="#3ad1e9"/>
                    </g>
                  </g>
                </g>
              </g>
            </g>
          </g>
        </g>
      </g>
    </g>
    <g id="Layer_23" data-name="Layer 23" transform="translate(919.947 2294.879)">
      <path id="Trazado_1042812" data-name="Trazado 1042812" d="M416,323.995h5.817V340.96H416Z" transform="translate(-358.557 -277.702)" fill="#f5b953"/>
      <path id="Trazado_1042813" data-name="Trazado 1042813" d="M416,324v2.424c0,10.441,2.6,14.542,5.817,14.542V324Z" transform="translate(-358.558 -277.707)" fill="#f7c56f"/>
      <path id="Trazado_1042814" data-name="Trazado 1042814" d="M442.908,338.415V324H440v2.424C440,333.416,441.171,335.145,442.908,338.415Z" transform="translate(-379.65 -277.707)" fill="#f9d18b"/>
      <path id="Trazado_1042815" data-name="Trazado 1042815" d="M336,352h5.817v13.572H336Z" transform="translate(-288.252 -302.309)" fill="#eb445c"/>
      <path id="Trazado_1042816" data-name="Trazado 1042816" d="M19.878,129.939a1.939,1.939,0,1,0-3.878,0v39.747a2.908,2.908,0,0,0,2.908,2.908h53.32a1.939,1.939,0,1,0,0-3.878H19.878Z" transform="translate(-7.031 -105.458)" fill="#64a5f8"/>
      <path id="Trazado_1042817" data-name="Trazado 1042817" d="M86.289,168.717H33.939V129.939A1.939,1.939,0,0,0,32,128v39.747a2.908,2.908,0,0,0,2.908,2.908h53.32A1.939,1.939,0,0,0,86.289,168.717Z" transform="translate(-21.092 -105.458)" fill="#84b7f9"/>
      <path id="Trazado_1042818" data-name="Trazado 1042818" d="M96,287.995h5.817v21.328H96Z" transform="translate(-77.335 -246.065)" fill="#669e4f"/>
      <g id="Grupo_1202850" data-name="Grupo 1202850" transform="translate(17.269 13.112)">
        <circle id="Elipse_12550" data-name="Elipse 12550" cx="2.078" cy="2.078" r="2.078" transform="translate(33.254 10.392)" fill="#f5b953"/>
        <ellipse id="Elipse_12551" data-name="Elipse 12551" cx="2.078" cy="1.559" rx="2.078" ry="1.559" transform="translate(38.45 0)" fill="#f5b953"/>
        <circle id="Elipse_12552" data-name="Elipse 12552" cx="2.078" cy="2.078" r="2.078" transform="translate(5.196 10.392)" fill="#f5b953"/>
        <ellipse id="Elipse_12553" data-name="Elipse 12553" cx="2.078" cy="1.559" rx="2.078" ry="1.559" transform="translate(0 0)" fill="#f5b953"/>
        <circle id="Elipse_12554" data-name="Elipse 12554" cx="2.078" cy="2.078" r="2.078" transform="translate(2.078 17.666)" fill="#f5b953"/>
        <ellipse id="Elipse_12555" data-name="Elipse 12555" cx="1.559" cy="2.078" rx="1.559" ry="2.078" transform="translate(12.47 23.901)" fill="#f5b953"/>
        <circle id="Elipse_12556" data-name="Elipse 12556" cx="2.078" cy="2.078" r="2.078" transform="translate(21.823 18.705)" fill="#f5b953"/>
        <circle id="Elipse_12557" data-name="Elipse 12557" cx="2.078" cy="2.078" r="2.078" transform="translate(31.176 25.98)" fill="#f5b953"/>
        <ellipse id="Elipse_12558" data-name="Elipse 12558" cx="1.559" cy="2.078" rx="1.559" ry="2.078" transform="translate(41.567 19.745)" fill="#f5b953"/>
      </g>
      <path id="Trazado_1042819" data-name="Trazado 1042819" d="M96,288v2.424c0,10.441,2.6,18.9,5.817,18.9V288Z" transform="translate(-77.336 -246.069)" fill="#76ad5f"/>
      <path id="Trazado_1042820" data-name="Trazado 1042820" d="M122.908,306.778V288H120v2.424C120,297.416,121.171,303.508,122.908,306.778Z" transform="translate(-98.428 -246.069)" fill="#86bd6f"/>
      <path id="Trazado_1042821" data-name="Trazado 1042821" d="M256,287.995h5.817v21.328H256Z" transform="translate(-217.946 -246.065)" fill="#669e4f"/>
      <path id="Trazado_1042822" data-name="Trazado 1042822" d="M256,288v2.424c0,10.441,2.6,18.9,5.817,18.9V288Z" transform="translate(-217.947 -246.069)" fill="#76ad5f"/>
      <path id="Trazado_1042823" data-name="Trazado 1042823" d="M282.908,306.778V288H280v2.424C280,297.416,281.171,303.508,282.908,306.778Z" transform="translate(-239.039 -246.069)" fill="#86bd6f"/>
      <path id="Trazado_1042824" data-name="Trazado 1042824" d="M341.817,365.423V352h-5.8c0,.162-.012.321-.012.485C336,359.076,338.529,364.514,341.817,365.423Z" transform="translate(-288.253 -302.314)" fill="#ee6a79"/>
      <path id="Trazado_1042825" data-name="Trazado 1042825" d="M362.908,363.2V352h-2.9c0,.162-.012.321-.012.485C360,356.928,361.152,360.84,362.908,363.2Z" transform="translate(-309.344 -302.314)" fill="#f19197"/>
      <path id="Trazado_1042826" data-name="Trazado 1042826" d="M176,352h5.817v13.572H176Z" transform="translate(-147.641 -302.309)" fill="#eb445c"/>
      <path id="Trazado_1042827" data-name="Trazado 1042827" d="M181.812,365.423V352h-5.8c0,.162-.013.321-.013.485C176,359.076,178.525,364.514,181.812,365.423Z" transform="translate(-147.637 -302.314)" fill="#ee6a79"/>
      <path id="Trazado_1042828" data-name="Trazado 1042828" d="M202.9,363.2V352h-2.9c0,.162-.013.321-.013.485C200,356.928,201.148,360.84,202.9,363.2Z" transform="translate(-168.729 -302.314)" fill="#f19197"/>
      <path id="Trazado_1042829" data-name="Trazado 1042829" d="M65.2,160.717h-.969V144.236a.969.969,0,0,0-.969-.969H57.442a.969.969,0,0,0-.969.969v16.481H54.534v-12.6a.969.969,0,0,0-.969-.969H47.747a.969.969,0,0,0-.969.969v12.6H44.839v-2.908a.969.969,0,1,0-1.939,0v2.908H39.022V141.328H42.9v12.6a.969.969,0,0,0,1.939,0V140.358a.969.969,0,0,0-.969-.969H38.053a.969.969,0,0,0-.969.969v20.358H35.145v-12.6a.969.969,0,0,0-.969-.969H28.358a.969.969,0,0,0-.969.969v12.6H25.45v-2.908a.969.969,0,1,0-1.939,0v2.908H19.633V141.328h3.878v12.6a.969.969,0,1,0,1.939,0V140.358a.969.969,0,0,0-.969-.969H18.664a.969.969,0,0,0-.969.969v20.358H13.817V130.664a.969.969,0,1,0-1.939,0v31.022a.969.969,0,0,0,.969.969H65.2a.969.969,0,1,1,0,1.939H11.878a1.941,1.941,0,0,1-1.939-1.939V122.908a.969.969,0,1,1,1.939,0v3.878a.969.969,0,1,0,1.939,0v-3.878a2.908,2.908,0,1,0-5.817,0v39.747a3.882,3.882,0,0,0,3.878,3.878H65.2a2.908,2.908,0,1,0,0-5.817Zm-6.786-15.511h3.878v15.511H58.411Zm-9.695,3.878h3.878v11.633H48.717Zm-19.389,0h3.878v11.633H29.328Z" transform="translate(0 -98.428)"/>
      <path id="Trazado_1042830" data-name="Trazado 1042830" d="M208.969,21.572a.969.969,0,0,0,0,1.939h1.939v.969a.969.969,0,1,0,1.939,0v-.969h1.939v.969a.969.969,0,1,0,1.939,0V23.374a3.847,3.847,0,0,0,1.568-6.648,3.847,3.847,0,0,0-1.568-6.648V8.969a.969.969,0,0,0-1.939,0v.969h-1.939V8.969a.969.969,0,1,0-1.939,0v.969h-1.939a.969.969,0,0,0,0,1.939h.969v3.878h-.969a.969.969,0,0,0,0,1.939h.969v3.878Zm2.908-9.695h3.878a1.939,1.939,0,0,1,0,3.878h-3.878Zm0,5.817h3.878a1.939,1.939,0,0,1,0,3.878h-3.878Z" transform="translate(-175.764)"/>
      <path id="Trazado_1042831" data-name="Trazado 1042831" d="M320.97,89.939h3.878a.97.97,0,0,1,.969.969v2.118a2.908,2.908,0,1,0,1.939,0V90.908A2.912,2.912,0,0,0,324.847,88H320.97a.969.969,0,1,0,0,1.939Zm5.817,6.786a.969.969,0,1,1,.969-.969.969.969,0,0,1-.969.969Z" transform="translate(-274.191 -70.306)"/>
      <path id="Trazado_1042832" data-name="Trazado 1042832" d="M320.97,43.876H328.9a2.908,2.908,0,1,0,0-1.939H320.97a.969.969,0,1,0,0,1.939Zm10.664-1.939a.969.969,0,1,1-.969.969A.969.969,0,0,1,331.633,41.937Z" transform="translate(-274.191 -28.12)"/>
      <path id="Trazado_1042833" data-name="Trazado 1042833" d="M124.845,89.939h3.878a.969.969,0,1,0,0-1.939h-3.878a2.912,2.912,0,0,0-2.908,2.908v2.118a2.908,2.908,0,1,0,1.939,0V90.908A.97.97,0,0,1,124.845,89.939Zm-1.939,6.786a.969.969,0,1,1,.969-.969.969.969,0,0,1-.969.969Z" transform="translate(-98.426 -70.306)"/>
      <path id="Trazado_1042834" data-name="Trazado 1042834" d="M82.906,45.887a2.9,2.9,0,0,0,2.73-1.939H93.57a.969.969,0,1,0,0-1.939H85.636a2.9,2.9,0,1,0-2.73,3.878Zm0-3.878a.969.969,0,1,1-.969.969A.969.969,0,0,1,82.906,42.01Z" transform="translate(-63.273 -28.193)"/>
      <path id="Trazado_1042835" data-name="Trazado 1042835" d="M134.582,196.655a2.871,2.871,0,0,0,.043.422l-4.878,3.252a2.864,2.864,0,0,0-3.884-.014l-5.048-3.606a2.911,2.911,0,1,0-5.525-.319l-4.842,2.075a2.888,2.888,0,0,0-4.027-.045l-4.95-2.828a2.867,2.867,0,0,0,.149-.875,2.922,2.922,0,1,0-1.328,2.436l5.244,3a2.86,2.86,0,0,0-.039.384,2.908,2.908,0,1,0,5.817,0,2.842,2.842,0,0,0-.032-.317l5.109-2.189a2.84,2.84,0,0,0,3.162.164l5.379,3.841a2.87,2.87,0,0,0-.044.44,2.908,2.908,0,1,0,5.817,0,2.871,2.871,0,0,0-.043-.422l4.878-3.252a2.9,2.9,0,1,0-.957-2.142Zm-35.87-.969a.969.969,0,1,1,.969-.969A.969.969,0,0,1,98.713,195.685Zm9.695,5.817a.969.969,0,1,1,.969-.969A.969.969,0,0,1,108.407,201.5Zm8.725-5.817a.969.969,0,1,1,.969.969A.969.969,0,0,1,117.132,195.685Zm10.664,7.756a.969.969,0,1,1,.969-.969A.969.969,0,0,1,127.8,203.441Zm10.664-6.786a.969.969,0,1,1-.969-.969A.969.969,0,0,1,138.46,196.655Z" transform="translate(-77.14 -161.51)"/>
    </g>
  </g>
</svg>
