<svg xmlns="http://www.w3.org/2000/svg" xmlns:xlink="http://www.w3.org/1999/xlink" width="118" height="118" viewBox="0 0 118 118">
  <defs>
    <filter id="Trazado_982547" x="0" y="0" width="118" height="118" filterUnits="userSpaceOnUse">
      <feOffset dy="3" input="SourceAlpha"/>
      <feGaussianBlur stdDeviation="3" result="blur"/>
      <feFlood flood-opacity="0.161"/>
      <feComposite operator="in" in2="blur"/>
      <feComposite in="SourceGraphic"/>
    </filter>
  </defs>
  <g id="Grupo_1202856" data-name="Grupo 1202856" transform="translate(-268.5 -3703)">
    <g id="Grupo_1202729" data-name="Grupo 1202729" transform="translate(277.5 3709)">
      <g id="Grupo_1174813" data-name="Grupo 1174813">
        <g id="Grupo_1201680" data-name="Grupo 1201680">
          <g id="Grupo_1201330" data-name="Grupo 1201330">
            <g id="Grupo_1172010" data-name="Grupo 1172010">
              <g id="Grupo_1171046" data-name="Grupo 1171046">
                <g id="Grupo_1148525" data-name="Grupo 1148525">
                  <g transform="matrix(1, 0, 0, 1, -9, -6)" filter="url(#Trazado_982547)">
                    <g id="Trazado_982547-2" data-name="Trazado 982547" transform="translate(9 6)" fill="#eafafc">
                      <path d="M 50 98.5 C 43.45188522338867 98.5 37.10042953491211 97.21787261962891 31.12207221984863 94.68923950195312 C 25.34691429138184 92.24655914306641 20.15997123718262 88.74931335449219 15.70532894134521 84.29468536376953 C 11.2506856918335 79.84004211425781 7.753442764282227 74.65309906005859 5.310757160186768 68.8779296875 C 2.782128572463989 62.89957046508789 1.5 56.54811477661133 1.5 50 C 1.5 43.45188522338867 2.782128572463989 37.10042953491211 5.310757160186768 31.12207221984863 C 7.753442764282227 25.34691429138184 11.2506856918335 20.15997123718262 15.70532894134521 15.70532894134521 C 20.15997123718262 11.2506856918335 25.34691429138184 7.753442764282227 31.12207221984863 5.310757160186768 C 37.10042953491211 2.782128572463989 43.45188522338867 1.5 50 1.5 C 56.54811477661133 1.5 62.89957046508789 2.782128572463989 68.8779296875 5.310757160186768 C 74.65309906005859 7.753442764282227 79.84004211425781 11.2506856918335 84.29468536376953 15.70532894134521 C 88.74931335449219 20.15997123718262 92.24655914306641 25.34691429138184 94.68923950195312 31.12207221984863 C 97.21787261962891 37.10042953491211 98.5 43.45188522338867 98.5 50 C 98.5 56.54811477661133 97.21787261962891 62.89957046508789 94.68923950195312 68.8779296875 C 92.24655914306641 74.65309906005859 88.74931335449219 79.84004211425781 84.29468536376953 84.29468536376953 C 79.84004211425781 88.74931335449219 74.65309906005859 92.24655914306641 68.8779296875 94.68923950195312 C 62.89957046508789 97.21787261962891 56.54811477661133 98.5 50 98.5 Z" stroke="none"/>
                      <path d="M 50 3 C 43.65372467041016 3 37.49886322021484 4.242263793945312 31.70639801025391 6.6922607421875 C 26.11003112792969 9.059326171875 21.08335113525391 12.44861602783203 16.76598358154297 16.76598358154297 C 12.44861602783203 21.08335113525391 9.059326171875 26.11003112792969 6.6922607421875 31.70639801025391 C 4.242263793945312 37.49886322021484 3 43.65372467041016 3 50 C 3 56.34627532958984 4.242263793945312 62.50113677978516 6.6922607421875 68.29360198974609 C 9.059326171875 73.88996887207031 12.44861602783203 78.91666412353516 16.76598358154297 83.23401641845703 C 21.08335113525391 87.55138397216797 26.11003112792969 90.940673828125 31.70639801025391 93.3077392578125 C 37.49886322021484 95.75773620605469 43.65372467041016 97 50 97 C 56.34627532958984 97 62.50113677978516 95.75773620605469 68.29360198974609 93.3077392578125 C 73.88996887207031 90.940673828125 78.91666412353516 87.55138397216797 83.23401641845703 83.23401641845703 C 87.55138397216797 78.91666412353516 90.940673828125 73.88996887207031 93.3077392578125 68.29360198974609 C 95.75773620605469 62.50113677978516 97 56.34627532958984 97 50 C 97 43.65372467041016 95.75773620605469 37.49886322021484 93.3077392578125 31.70639801025391 C 90.940673828125 26.11003112792969 87.55138397216797 21.08335113525391 83.23401641845703 16.76598358154297 C 78.91666412353516 12.44861602783203 73.88996887207031 9.059326171875 68.29360198974609 6.6922607421875 C 62.50113677978516 4.242263793945312 56.34627532958984 3 50 3 M 50 0 C 77.61424255371094 0 100 22.38577270507812 100 50 C 100 77.61424255371094 77.61424255371094 100 50 100 C 22.38577270507812 100 0 77.61424255371094 0 50 C 0 22.38577270507812 22.38577270507812 0 50 0 Z" stroke="none" fill="#3ad1e9"/>
                    </g>
                  </g>
                </g>
              </g>
            </g>
          </g>
        </g>
      </g>
    </g>
    <g id="cpu_1307246" transform="translate(294.599 3726.557)">
      <path id="Trazado_1042857" data-name="Trazado 1042857" d="M460.367,235.935a2.5,2.5,0,1,1,.734,1.77A2.5,2.5,0,0,1,460.367,235.935Zm0,0" transform="translate(-400.921 -203.492)" fill="#00acea"/>
      <path id="Trazado_1042858" data-name="Trazado 1042858" d="M455.988,138.107a2.5,2.5,0,1,1,.734,1.77,2.5,2.5,0,0,1-.734-1.77Zm0,0" transform="translate(-397.104 -118.212)" fill="#00acea"/>
      <path id="Trazado_1042859" data-name="Trazado 1042859" d="M455.988,333.767a2.5,2.5,0,1,1,.734,1.77,2.5,2.5,0,0,1-.734-1.77Zm0,0" transform="translate(-397.104 -288.776)" fill="#00acea"/>
      <path id="Trazado_1042860" data-name="Trazado 1042860" d="M139.888,125.433v9.657a3.848,3.848,0,0,1-3.848,3.848H104.395a3.848,3.848,0,0,1-3.848-3.848V103.445a3.848,3.848,0,0,1,3.848-3.848H136.04a3.848,3.848,0,0,1,3.848,3.848Zm-6.285,7.22V105.882H106.832v26.772Zm0,0" transform="translate(-87.253 -86.825)" fill="#00efd1"/>
      <path id="Trazado_1042861" data-name="Trazado 1042861" d="M334.214,16.344a2.5,2.5,0,1,1,1.77-.734,2.5,2.5,0,0,1-1.77.734Zm0,0" transform="translate(-288.765 -9.885)" fill="#00acea"/>
      <path id="Trazado_1042862" data-name="Trazado 1042862" d="M334.225,455.539a2.5,2.5,0,1,1-1.77.734,2.5,2.5,0,0,1,1.77-.734Zm0,0" transform="translate(-288.776 -397.112)" fill="#00acea"/>
      <path id="Trazado_1042863" data-name="Trazado 1042863" d="M176.318,148.6V175.37H149.547V148.6Zm-3.367,13.386a10.083,10.083,0,1,0-10.083,10.083A10.083,10.083,0,0,0,172.951,161.984Zm0,0" transform="translate(-129.968 -129.541)" fill="#00acea"/>
      <path id="Trazado_1042864" data-name="Trazado 1042864" d="M194.963,184.43a10.083,10.083,0,1,1-10.083-10.083A10.083,10.083,0,0,1,194.963,184.43Zm0,0" transform="translate(-151.979 -151.988)" fill="#fedb41"/>
      <g id="Grupo_1202855" data-name="Grupo 1202855" transform="translate(1.347 0.89)">
        <path id="Trazado_1042865" data-name="Trazado 1042865" d="M236.384,11.963a2.5,2.5,0,1,1,1.77-.734,2.5,2.5,0,0,1-1.77.734Zm0,0" transform="translate(-204.831 -6.955)" fill="#00acea"/>
        <path id="Trazado_1042866" data-name="Trazado 1042866" d="M236.394,459.918a2.5,2.5,0,1,1-1.77.733A2.5,2.5,0,0,1,236.394,459.918Zm0,0" transform="translate(-204.841 -401.819)" fill="#00acea"/>
        <path id="Trazado_1042867" data-name="Trazado 1042867" d="M138.554,16.344a2.5,2.5,0,1,1,1.77-.734,2.5,2.5,0,0,1-1.77.734Zm0,0" transform="translate(-119.548 -10.775)" fill="#00acea"/>
        <path id="Trazado_1042868" data-name="Trazado 1042868" d="M138.566,455.539a2.5,2.5,0,1,1-1.77.734,2.5,2.5,0,0,1,1.77-.734Zm0,0" transform="translate(-119.561 -398.002)" fill="#00acea"/>
        <path id="Trazado_1042869" data-name="Trazado 1042869" d="M16.791,138.117a2.5,2.5,0,1,1-.734-1.77,2.5,2.5,0,0,1,.734,1.77Zm0,0" transform="translate(-11.222 -119.112)" fill="#00acea"/>
        <path id="Trazado_1042870" data-name="Trazado 1042870" d="M16.791,333.777a2.5,2.5,0,1,1-.734-1.77,2.5,2.5,0,0,1,.734,1.77Zm0,0" transform="translate(-11.222 -289.676)" fill="#00acea"/>
        <path id="Trazado_1042871" data-name="Trazado 1042871" d="M12.412,235.945a2.5,2.5,0,1,1-.734-1.77,2.5,2.5,0,0,1,.734,1.77Zm0,0" transform="translate(-7.404 -204.392)" fill="#00acea"/>
      </g>
      <path id="Trazado_1042872" data-name="Trazado 1042872" d="M247.3,209.038a.9.9,0,0,0,.9-.9v-6.285a.9.9,0,0,0-1.8,0v6.285A.9.9,0,0,0,247.3,209.038Zm0,0" transform="translate(-214.403 -175.184)" fill="#083863"/>
      <path id="Trazado_1042873" data-name="Trazado 1042873" d="M247.3,280.42a.9.9,0,0,0,.9-.9v-1.667a.9.9,0,0,0-1.8,0v1.667A.9.9,0,0,0,247.3,280.42Zm0,0" transform="translate(-214.403 -241.436)" fill="#083863"/>
      <path id="Trazado_1042874" data-name="Trazado 1042874" d="M178.777,189.309A10.981,10.981,0,1,0,167.8,178.328,10.981,10.981,0,0,0,178.777,189.309Zm0-20.166a9.185,9.185,0,1,1-9.185,9.185A9.185,9.185,0,0,1,178.777,169.143Zm0,0" transform="translate(-145.877 -145.885)" fill="#083863"/>
      <path id="Trazado_1042875" data-name="Trazado 1042875" d="M171.009,142.855a.9.9,0,0,0-.9-.9H143.3a.9.9,0,0,0-.9.9v26.807a.9.9,0,0,0,.9.9h26.807a.9.9,0,0,0,.9-.9Zm-1.8,25.781H144.2V143.753h25.012Zm0,0" transform="translate(-123.743 -123.752)" fill="#083863"/>
      <path id="Trazado_1042876" data-name="Trazado 1042876" d="M58.669,33.341a3.4,3.4,0,1,0,0-1.8H53.551V26.927h2.383a.976.976,0,0,0,.951-.933V20.771h1.221a3.045,3.045,0,0,0,.876,1.518,3.391,3.391,0,1,0,0-4.81,3.643,3.643,0,0,0-.876,1.5H55.934a.872.872,0,0,0-.844.92v5.237H53.551V16.62a4.728,4.728,0,0,0-4.764-4.7H39.955V10.253h5.494a.872.872,0,0,0,.919-.844V7.237a3.65,3.65,0,0,0,1.5-.876,3.4,3.4,0,1,0-4.819,0h.01a3.045,3.045,0,0,0,1.517.876V8.457H39.066a.953.953,0,0,0-.907.952v2.511H33.8V6.675a3.4,3.4,0,1,0-1.8,0v5.246H27.385V9.409a.977.977,0,0,0-.933-.952H21.228V7.237a3.048,3.048,0,0,0,1.518-.876,3.406,3.406,0,0,0,.006-4.81h0a3.4,3.4,0,0,0-4.818,4.81,3.652,3.652,0,0,0,1.5.876V9.409a.872.872,0,0,0,.92.844h5.237v1.667H17.142a4.727,4.727,0,0,0-4.764,4.7v8.768H10.711V19.895a.873.873,0,0,0-.844-.92H7.695a3.654,3.654,0,0,0-.876-1.5,3.412,3.412,0,1,0,0,4.81,3.048,3.048,0,0,0,.876-1.518H8.915v5.506a.953.953,0,0,0,.952.907h2.511v4.361H7.132a3.4,3.4,0,1,0,0,1.8h5.246v4.618H9.867a.977.977,0,0,0-.952.934v5.223H7.695A3.049,3.049,0,0,0,6.818,42.6a3.391,3.391,0,1,0,0,4.81,3.655,3.655,0,0,0,.876-1.5H9.867a.872.872,0,0,0,.844-.919V39.754h1.667v8.512a4.727,4.727,0,0,0,4.764,4.7h8.7v1.667H20.353a.873.873,0,0,0-.92.844v2.172a3.643,3.643,0,0,0-1.5.876,3.4,3.4,0,1,0,4.82,0h-.011a3.047,3.047,0,0,0-1.518-.876V56.428h5.506a.953.953,0,0,0,.907-.951V52.965H32v5.246a3.4,3.4,0,1,0,1.8,0V52.965h4.618v2.512a.976.976,0,0,0,.934.951h5.223v1.221a3.05,3.05,0,0,0-1.518.876,3.405,3.405,0,0,0-.005,4.81h0a3.4,3.4,0,0,0,4.818-4.81,3.639,3.639,0,0,0-1.5-.876V55.477a.872.872,0,0,0-.919-.844H40.212V52.965h8.576a4.727,4.727,0,0,0,4.764-4.7V39.5H55.09v5.494a.872.872,0,0,0,.844.919h2.172a3.644,3.644,0,0,0,.876,1.5,3.412,3.412,0,1,0,0-4.81,3.04,3.04,0,0,0-.876,1.518H56.886V38.609a.953.953,0,0,0-.951-.907H53.551V33.341Zm2.145-2.032a1.6,1.6,0,1,1-.47,1.134,1.6,1.6,0,0,1,.47-1.134ZM60.253,18.76a1.6,1.6,0,1,1-.471,1.135,1.6,1.6,0,0,1,.471-1.135ZM44.314,2.82a1.606,1.606,0,1,1,0,2.27,1.606,1.606,0,0,1,0-2.27ZM31.766,2.258a1.594,1.594,0,1,1-.475,1.136,1.606,1.606,0,0,1,.475-1.136ZM19.217,2.82a1.6,1.6,0,1,1-.472,1.135,1.606,1.606,0,0,1,.472-1.135ZM5.548,21.03a1.6,1.6,0,1,1,.471-1.135,1.6,1.6,0,0,1-.471,1.135ZM4.987,33.578a1.6,1.6,0,1,1,.47-1.135,1.6,1.6,0,0,1-.47,1.135Zm.561,12.549a1.6,1.6,0,1,1,.471-1.135,1.6,1.6,0,0,1-.471,1.135Zm15.94,15.939a1.606,1.606,0,1,1,0-2.271A1.606,1.606,0,0,1,21.488,62.066Zm12.547.562a1.594,1.594,0,1,1,.475-1.136,1.607,1.607,0,0,1-.475,1.136Zm12.549-.562a1.606,1.606,0,1,1,0-2.271A1.608,1.608,0,0,1,46.584,62.066Zm5.171-13.718a2.95,2.95,0,0,1-2.95,2.95H17.124a2.95,2.95,0,0,1-2.95-2.95V16.666a2.95,2.95,0,0,1,2.95-2.95H48.805a2.95,2.95,0,0,1,2.95,2.95Zm8.5-4.492a1.6,1.6,0,1,1-.47,1.135,1.6,1.6,0,0,1,.47-1.135Zm0,0" transform="translate(0 0)" fill="#083863"/>
    </g>
  </g>
</svg>
