<svg xmlns="http://www.w3.org/2000/svg" xmlns:xlink="http://www.w3.org/1999/xlink" width="118" height="118" viewBox="0 0 118 118">
  <defs>
    <filter id="Trazado_982547" x="0" y="0" width="118" height="118" filterUnits="userSpaceOnUse">
      <feOffset dy="3" input="SourceAlpha"/>
      <feGaussianBlur stdDeviation="3" result="blur"/>
      <feFlood flood-opacity="0.161"/>
      <feComposite operator="in" in2="blur"/>
      <feComposite in="SourceGraphic"/>
    </filter>
  </defs>
  <g id="Grupo_1202858" data-name="Grupo 1202858" transform="translate(-583.5 -3703)">
    <g id="Grupo_1202732" data-name="Grupo 1202732" transform="translate(592.5 3709)">
      <g id="Grupo_1174813" data-name="Grupo 1174813">
        <g id="Grupo_1201680" data-name="Grupo 1201680">
          <g id="Grupo_1201330" data-name="Grupo 1201330">
            <g id="Grupo_1172010" data-name="Grupo 1172010">
              <g id="Grupo_1171046" data-name="Grupo 1171046">
                <g id="Grupo_1148525" data-name="Grupo 1148525">
                  <g transform="matrix(1, 0, 0, 1, -9, -6)" filter="url(#Trazado_982547)">
                    <g id="Trazado_982547-2" data-name="Trazado 982547" transform="translate(9 6)" fill="#eafafc">
                      <path d="M 50 98.5 C 43.45188522338867 98.5 37.10042953491211 97.21787261962891 31.12207221984863 94.68923950195312 C 25.34691429138184 92.24655914306641 20.15997123718262 88.74931335449219 15.70532894134521 84.29468536376953 C 11.2506856918335 79.84004211425781 7.753442764282227 74.65309906005859 5.310757160186768 68.8779296875 C 2.782128572463989 62.89957046508789 1.5 56.54811477661133 1.5 50 C 1.5 43.45188522338867 2.782128572463989 37.10042953491211 5.310757160186768 31.12207221984863 C 7.753442764282227 25.34691429138184 11.2506856918335 20.15997123718262 15.70532894134521 15.70532894134521 C 20.15997123718262 11.2506856918335 25.34691429138184 7.753442764282227 31.12207221984863 5.310757160186768 C 37.10042953491211 2.782128572463989 43.45188522338867 1.5 50 1.5 C 56.54811477661133 1.5 62.89957046508789 2.782128572463989 68.8779296875 5.310757160186768 C 74.65309906005859 7.753442764282227 79.84004211425781 11.2506856918335 84.29468536376953 15.70532894134521 C 88.74931335449219 20.15997123718262 92.24655914306641 25.34691429138184 94.68923950195312 31.12207221984863 C 97.21787261962891 37.10042953491211 98.5 43.45188522338867 98.5 50 C 98.5 56.54811477661133 97.21787261962891 62.89957046508789 94.68923950195312 68.8779296875 C 92.24655914306641 74.65309906005859 88.74931335449219 79.84004211425781 84.29468536376953 84.29468536376953 C 79.84004211425781 88.74931335449219 74.65309906005859 92.24655914306641 68.8779296875 94.68923950195312 C 62.89957046508789 97.21787261962891 56.54811477661133 98.5 50 98.5 Z" stroke="none"/>
                      <path d="M 50 3 C 43.65372467041016 3 37.49886322021484 4.242263793945312 31.70639801025391 6.6922607421875 C 26.11003112792969 9.059326171875 21.08335113525391 12.44861602783203 16.76598358154297 16.76598358154297 C 12.44861602783203 21.08335113525391 9.059326171875 26.11003112792969 6.6922607421875 31.70639801025391 C 4.242263793945312 37.49886322021484 3 43.65372467041016 3 50 C 3 56.34627532958984 4.242263793945312 62.50113677978516 6.6922607421875 68.29360198974609 C 9.059326171875 73.88996887207031 12.44861602783203 78.91666412353516 16.76598358154297 83.23401641845703 C 21.08335113525391 87.55138397216797 26.11003112792969 90.940673828125 31.70639801025391 93.3077392578125 C 37.49886322021484 95.75773620605469 43.65372467041016 97 50 97 C 56.34627532958984 97 62.50113677978516 95.75773620605469 68.29360198974609 93.3077392578125 C 73.88996887207031 90.940673828125 78.91666412353516 87.55138397216797 83.23401641845703 83.23401641845703 C 87.55138397216797 78.91666412353516 90.940673828125 73.88996887207031 93.3077392578125 68.29360198974609 C 95.75773620605469 62.50113677978516 97 56.34627532958984 97 50 C 97 43.65372467041016 95.75773620605469 37.49886322021484 93.3077392578125 31.70639801025391 C 90.940673828125 26.11003112792969 87.55138397216797 21.08335113525391 83.23401641845703 16.76598358154297 C 78.91666412353516 12.44861602783203 73.88996887207031 9.059326171875 68.29360198974609 6.6922607421875 C 62.50113677978516 4.242263793945312 56.34627532958984 3 50 3 M 50 0 C 77.61424255371094 0 100 22.38577270507812 100 50 C 100 77.61424255371094 77.61424255371094 100 50 100 C 22.38577270507812 100 0 77.61424255371094 0 50 C 0 22.38577270507812 22.38577270507812 0 50 0 Z" stroke="none" fill="#3ad1e9"/>
                    </g>
                  </g>
                </g>
              </g>
            </g>
          </g>
        </g>
      </g>
    </g>
    <g id="robotic-arm_9485784" transform="translate(575.436 3718.485)">
      <line id="Línea_844" data-name="Línea 844" x1="6.157" transform="translate(67.195 9.563)" fill="none" stroke="#000" stroke-linecap="round" stroke-linejoin="round" stroke-miterlimit="10" stroke-width="1.5"/>
      <line id="Línea_845" data-name="Línea 845" x1="8.632" transform="translate(77.471 9.563)" fill="none" stroke="#000" stroke-linecap="round" stroke-linejoin="round" stroke-miterlimit="10" stroke-width="1.5"/>
      <g id="Grupo_1202857" data-name="Grupo 1202857" transform="translate(38.693 7.5)">
        <rect id="Rectángulo_417791" data-name="Rectángulo 417791" width="20.603" height="8.254" transform="translate(26.825 2.063)" fill="#f2f2f2"/>
        <path id="Trazado_1042877" data-name="Trazado 1042877" d="M324.3,193.873h6.186l-6.183,8.254,2.056,10.317H322.23l-4.119-10.317Z" transform="translate(-280.988 -169.112)" fill="#f2f2f2"/>
        <path id="Trazado_1042878" data-name="Trazado 1042878" d="M386.364,193.873h-6.186l6.183,8.254L384.3,212.444h4.127l4.119-10.317Z" transform="translate(-334.809 -169.112)" fill="#f2f2f2"/>
        <rect id="Rectángulo_417792" data-name="Rectángulo 417792" width="4.121" height="18.571" transform="translate(45.368 6.19)" fill="#ccd7e2"/>
        <rect id="Rectángulo_417793" data-name="Rectángulo 417793" width="30.612" height="4.127" transform="translate(10.658 61.904)" fill="#f2f2f2"/>
        <rect id="Rectángulo_417794" data-name="Rectángulo 417794" width="3.986" height="4.127" transform="translate(37.284 61.904)" fill="#ccd7e2"/>
        <rect id="Rectángulo_417795" data-name="Rectángulo 417795" width="10.325" height="27.178" transform="matrix(0.819, -0.574, 0.574, 0.819, 6.251, 34.349)" fill="#f2f2f2"/>
        <rect id="Rectángulo_417796" data-name="Rectángulo 417796" width="10.325" height="27.178" transform="matrix(0.819, 0.574, -0.574, 0.819, 19.618, 2.916)" fill="#f2f2f2"/>
        <line id="Línea_846" data-name="Línea 846" x1="6.157" transform="translate(28.52 10.318)" fill="none" stroke="#000" stroke-linecap="round" stroke-linejoin="round" stroke-miterlimit="10" stroke-width="1.5"/>
        <line id="Línea_847" data-name="Línea 847" x1="8.632" transform="translate(38.796 10.318)" fill="none" stroke="#000" stroke-linecap="round" stroke-linejoin="round" stroke-miterlimit="10" stroke-width="1.5"/>
        <line id="Línea_848" data-name="Línea 848" x1="3.632" y2="5.187" transform="translate(7.717 14.723)" fill="none" stroke="#000" stroke-linecap="round" stroke-linejoin="round" stroke-miterlimit="10" stroke-width="1.5"/>
        <line id="Línea_849" data-name="Línea 849" x1="4.032" y2="5.758" transform="translate(13.715 5.585)" fill="none" stroke="#000" stroke-linecap="round" stroke-linejoin="round" stroke-miterlimit="10" stroke-width="1.5"/>
        <line id="Línea_850" data-name="Línea 850" x1="3.63" y2="5.184" transform="translate(16.177 20.645)" fill="none" stroke="#000" stroke-linecap="round" stroke-linejoin="round" stroke-miterlimit="10" stroke-width="1.5"/>
        <line id="Línea_851" data-name="Línea 851" x1="3.627" y2="5.179" transform="translate(22.173 12.086)" fill="none" stroke="#000" stroke-linecap="round" stroke-linejoin="round" stroke-miterlimit="10" stroke-width="1.5"/>
        <path id="Trazado_1042879" data-name="Trazado 1042879" d="M118.4,93.838l8.451,5.918a2.064,2.064,0,0,0,2.874-.507h0a2.064,2.064,0,0,0-.507-2.874l-8.451-5.918a2.064,2.064,0,0,0-2.874.507h0A2.063,2.063,0,0,0,118.4,93.838Z" transform="translate(-107.044 -79.112)" fill="#ccd7e2"/>
        <path id="Trazado_1042880" data-name="Trazado 1042880" d="M118.4,93.838l8.451,5.918a2.064,2.064,0,0,0,2.874-.507h0a2.064,2.064,0,0,0-.507-2.874l-8.451-5.918a2.064,2.064,0,0,0-2.874.507h0A2.063,2.063,0,0,0,118.4,93.838Z" transform="translate(-107.044 -79.112)" fill="none" stroke="#000" stroke-linecap="round" stroke-linejoin="round" stroke-miterlimit="10" stroke-width="1.5"/>
        <circle id="Elipse_12559" data-name="Elipse 12559" cx="6.19" cy="6.19" r="6.19" transform="translate(17.718 0)" fill="#3edcff"/>
        <path id="Trazado_1042881" data-name="Trazado 1042881" d="M205.638,7.5a6.181,6.181,0,0,0-1.993.328,6.193,6.193,0,0,1,0,11.725A6.191,6.191,0,1,0,205.638,7.5Z" transform="translate(-181.73 -7.5)" fill="#00c1ee"/>
        <line id="Línea_852" data-name="Línea 852" x1="3.978" y1="5.681" transform="translate(7.671 36.379)" fill="none" stroke="#000" stroke-linecap="round" stroke-linejoin="round" stroke-miterlimit="10" stroke-width="1.5"/>
        <line id="Línea_853" data-name="Línea 853" x1="3.276" y1="4.679" transform="translate(14.017 45.44)" fill="none" stroke="#000" stroke-linecap="round" stroke-linejoin="round" stroke-miterlimit="10" stroke-width="1.5"/>
        <line id="Línea_854" data-name="Línea 854" x1="3.942" y1="5.629" transform="translate(16.165 30.508)" fill="none" stroke="#000" stroke-linecap="round" stroke-linejoin="round" stroke-miterlimit="10" stroke-width="1.5"/>
        <line id="Línea_855" data-name="Línea 855" x1="4.131" y1="5.899" transform="translate(22.475 39.517)" fill="none" stroke="#000" stroke-linecap="round" stroke-linejoin="round" stroke-miterlimit="10" stroke-width="1.5"/>
        <circle id="Elipse_12560" data-name="Elipse 12560" cx="8.254" cy="8.254" r="8.254" transform="translate(0.001 19.893)" fill="#3edcff"/>
        <path id="Trazado_1042882" data-name="Trazado 1042882" d="M87.815,157.23a8.273,8.273,0,0,0-1.993.242,8.256,8.256,0,0,1,0,16.023,8.255,8.255,0,1,0,1.993-16.265Z" transform="translate(-79.561 -137.337)" fill="#00c1ee"/>
        <path id="Trazado_1042883" data-name="Trazado 1042883" d="M324.293,193.95l-6.178,8.244,4.119,10.318h4.127L324.3,202.194l3.173-4.236" transform="translate(-280.992 -169.179)" fill="none" stroke="#000" stroke-linecap="round" stroke-linejoin="round" stroke-miterlimit="10" stroke-width="1.5"/>
        <path id="Trazado_1042884" data-name="Trazado 1042884" d="M406,193.87h0l6.186,8.253-4.119,10.318h-4.128L406,202.124l-3.174-4.237" transform="translate(-354.448 -169.109)" fill="none" stroke="#000" stroke-linecap="round" stroke-linejoin="round" stroke-miterlimit="10" stroke-width="1.5"/>
        <path id="Trazado_1042885" data-name="Trazado 1042885" d="M177.1,365.7H156.461v-6.19a10.317,10.317,0,0,1,10.317-10.317h0A10.317,10.317,0,0,1,177.1,359.505v6.19Z" transform="translate(-140.815 -303.792)" fill="#3edcff"/>
        <path id="Trazado_1042886" data-name="Trazado 1042886" d="M221.111,349.188h0a10.367,10.367,0,0,0-1.993.192,10.321,10.321,0,0,1,8.324,10.125v6.19h3.986v-6.19A10.317,10.317,0,0,0,221.111,349.188Z" transform="translate(-195.147 -303.792)" fill="#00c1ee"/>
        <line id="Línea_856" data-name="Línea 856" y1="11.416" transform="translate(45.369 9.768)" fill="none" stroke="#000" stroke-linecap="round" stroke-linejoin="round" stroke-miterlimit="10" stroke-width="1.5"/>
        <line id="Línea_857" data-name="Línea 857" y1="3.537" transform="translate(49.489 9.768)" fill="none" stroke="#000" stroke-linecap="round" stroke-linejoin="round" stroke-miterlimit="10" stroke-width="1.5"/>
        <line id="Línea_858" data-name="Línea 858" y1="3.537" transform="translate(49.489 17.647)" fill="none" stroke="#000" stroke-linecap="round" stroke-linejoin="round" stroke-miterlimit="10" stroke-width="1.5"/>
        <circle id="Elipse_12561" data-name="Elipse 12561" cx="4.127" cy="4.127" r="4.127" transform="translate(43.302 20.635)" fill="#3edcff"/>
        <path id="Trazado_1042887" data-name="Trazado 1042887" d="M382.673,162.812a4.108,4.108,0,0,0-1.993.512,4.128,4.128,0,0,1,0,7.229,4.127,4.127,0,1,0,1.993-7.742Z" transform="translate(-335.244 -142.178)" fill="#00c1ee"/>
        <rect id="Rectángulo_417797" data-name="Rectángulo 417797" width="30.612" height="4.127" transform="translate(10.658 61.904)" fill="none" stroke="#000" stroke-linecap="round" stroke-linejoin="round" stroke-miterlimit="10" stroke-width="1.5"/>
        <path id="Trazado_1042888" data-name="Trazado 1042888" d="M175.9,354.676a10.259,10.259,0,0,1,1.2,4.831V365.7H156.464v-6.191a10.316,10.316,0,0,1,16.635-8.155" transform="translate(-140.817 -303.794)" fill="none" stroke="#000" stroke-linecap="round" stroke-linejoin="round" stroke-miterlimit="10" stroke-width="1.5"/>
        <path id="Trazado_1042889" data-name="Trazado 1042889" d="M41.879,158.968a8.233,8.233,0,1,1-2.608,3.474" transform="translate(-38.693 -137.336)" fill="none" stroke="#000" stroke-linecap="round" stroke-linejoin="round" stroke-miterlimit="10" stroke-width="1.5"/>
        <circle id="Elipse_12562" data-name="Elipse 12562" cx="4.127" cy="4.127" r="4.127" transform="translate(43.302 2.064)" fill="#3edcff"/>
        <path id="Trazado_1042890" data-name="Trazado 1042890" d="M384.841,23.031a4.113,4.113,0,0,0-1.661.348,4.128,4.128,0,0,1,0,7.558,4.127,4.127,0,1,0,1.661-7.906Z" transform="translate(-337.412 -20.968)" fill="#00c1ee"/>
        <circle id="Elipse_12563" data-name="Elipse 12563" cx="4.127" cy="4.127" r="4.127" transform="translate(43.302 2.064)" fill="none" stroke="#000" stroke-linecap="round" stroke-linejoin="round" stroke-miterlimit="10" stroke-width="1.5"/>
        <circle id="Elipse_12564" data-name="Elipse 12564" cx="4.127" cy="4.127" r="4.127" transform="translate(43.302 20.635)" fill="none" stroke="#000" stroke-linecap="round" stroke-linejoin="round" stroke-miterlimit="10" stroke-width="1.5"/>
        <line id="Línea_859" data-name="Línea 859" transform="translate(47.429 6.19)" fill="none" stroke="#000" stroke-linecap="round" stroke-linejoin="round" stroke-miterlimit="10" stroke-width="1.5"/>
        <circle id="Elipse_12565" data-name="Elipse 12565" cx="4.127" cy="4.127" r="4.127" transform="translate(21.94 49.523)" fill="#f2f2f2"/>
        <circle id="Elipse_12566" data-name="Elipse 12566" cx="4.127" cy="4.127" r="4.127" transform="translate(21.94 49.523)" fill="none" stroke="#000" stroke-linecap="round" stroke-linejoin="round" stroke-miterlimit="10" stroke-width="1.5"/>
        <path id="Trazado_1042891" data-name="Trazado 1042891" d="M123.019,286.381l8.451-5.918a2.063,2.063,0,0,0,.507-2.874h0a2.064,2.064,0,0,0-2.874-.507L120.652,283a2.064,2.064,0,0,0-.507,2.874h0A2.063,2.063,0,0,0,123.019,286.381Z" transform="translate(-109 -240.942)" fill="#ccd7e2"/>
        <path id="Trazado_1042892" data-name="Trazado 1042892" d="M123.019,286.381l8.451-5.918a2.063,2.063,0,0,0,.507-2.874h0a2.064,2.064,0,0,0-2.874-.507L120.652,283a2.064,2.064,0,0,0-.507,2.874h0A2.063,2.063,0,0,0,123.019,286.381Z" transform="translate(-109 -240.942)" fill="none" stroke="#000" stroke-linecap="round" stroke-linejoin="round" stroke-miterlimit="10" stroke-width="1.5"/>
        <circle id="Elipse_12567" data-name="Elipse 12567" cx="3.383" cy="3.383" r="3.383" transform="translate(4.881 24.761)" fill="#f2f2f2"/>
        <circle id="Elipse_12568" data-name="Elipse 12568" cx="3.383" cy="3.383" r="3.383" transform="translate(4.881 24.761)" fill="none" stroke="#000" stroke-linecap="round" stroke-linejoin="round" stroke-miterlimit="10" stroke-width="1.5"/>
        <circle id="Elipse_12569" data-name="Elipse 12569" cx="6.19" cy="6.19" r="6.19" transform="translate(17.718 0)" fill="none" stroke="#000" stroke-linecap="round" stroke-linejoin="round" stroke-miterlimit="10" stroke-width="1.5"/>
        <circle id="Elipse_12570" data-name="Elipse 12570" cx="2.063" cy="2.063" r="2.063" transform="translate(21.845 4.127)" fill="#f2f2f2"/>
        <circle id="Elipse_12571" data-name="Elipse 12571" cx="2.063" cy="2.063" r="2.063" transform="translate(21.845 4.127)" fill="none" stroke="#000" stroke-linecap="round" stroke-linejoin="round" stroke-miterlimit="10" stroke-width="1.5"/>
        <path id="Trazado_1042893" data-name="Trazado 1042893" d="M301.76,19.881h0a2.06,2.06,0,0,1-2.06-2.06V9.56a2.06,2.06,0,0,1,2.06-2.06h0a2.06,2.06,0,0,1,2.06,2.06v8.262A2.06,2.06,0,0,1,301.76,19.881Z" transform="translate(-265.023 -7.5)" fill="#ccd7e2"/>
        <path id="Trazado_1042894" data-name="Trazado 1042894" d="M301.76,19.881h0a2.06,2.06,0,0,1-2.06-2.06V9.56a2.06,2.06,0,0,1,2.06-2.06h0a2.06,2.06,0,0,1,2.06,2.06v8.262A2.06,2.06,0,0,1,301.76,19.881Z" transform="translate(-265.023 -7.5)" fill="none" stroke="#000" stroke-linecap="round" stroke-linejoin="round" stroke-miterlimit="10" stroke-width="1.5"/>
        <path id="Trazado_1042895" data-name="Trazado 1042895" d="M54.229,260.442v11.807a8.237,8.237,0,0,0,8.237,8.237h5.552" transform="translate(-52.165 -226.837)" fill="none" stroke="#000" stroke-linecap="round" stroke-linejoin="round" stroke-miterlimit="10" stroke-width="1.5"/>
      </g>
    </g>
  </g>
</svg>
